SplineFontDB: 3.2
FontName: Minecraft-Regular
FullName: Minecraft Regular
FamilyName: Minecraft
Weight: Regular
Copyright: Made by Jejebecarte\nhttps://github.com/Jejebecarte/minecraft-text-canvas
UComments: "2024-7-13: Created with FontForge (http://fontforge.org)"
Version: 001.000
ItalicAngle: 0
UnderlinePosition: -2
UnderlineWidth: 0
Ascent: 20
Descent: 4
InvalidEm: 0
LayerCount: 2
Layer: 0 0 "Back" 1
Layer: 1 0 "Fore" 0
XUID: [1021 851 -1777821521 17845]
StyleMap: 0x0000
FSType: 0
OS2Version: 0
OS2_WeightWidthSlopeOnly: 0
OS2_UseTypoMetrics: 1
CreationTime: 1720838119
ModificationTime: 1720838987
OS2TypoAscent: 0
OS2TypoAOffset: 1
OS2TypoDescent: 0
OS2TypoDOffset: 1
OS2TypoLinegap: 2
OS2WinAscent: 0
OS2WinAOffset: 1
OS2WinDescent: 0
OS2WinDOffset: 1
HheadAscent: 0
HheadAOffset: 1
HheadDescent: 0
HheadDOffset: 1
MarkAttachClasses: 1
DEI: 91125
Encoding: UnicodeFull
Compacted: 1
UnicodeInterp: none
NameList: AGL For New Fonts
DisplaySize: -72
AntiAlias: 0
FitToEm: 0
WinInfo: 0 25 10
BeginPrivate: 0
EndPrivate
BeginChars: 1114112 2413

StartChar: glyph2413
Encoding: 256 256 0
Width: 11
VWidth: 0
Flags: HMW
LayerCount: 2
Back
Fore
SplineSet
2 13 m 1
 2 14 l 1
 5 14 l 1
 8 14 l 1
 8 13 l 1
 8 12 l 1
 9 12 l 1
 10 12 l 1
 10 6 l 1
 10 0 l 1
 9 0 l 1
 8 0 l 1
 8 4 l 1
 8 8 l 1
 5 8 l 1
 2 8 l 1
 2 4 l 1
 2 0 l 1
 1 0 l 1
 0 0 l 1
 0 6 l 1
 0 12 l 1
 1 12 l 1
 2 12 l 1
 2 13 l 1
8 11 m 1
 8 12 l 1
 5 12 l 1
 2 12 l 1
 2 11 l 1
 2 10 l 1
 5 10 l 1
 8 10 l 1
 8 11 l 1
2 17 m 1
 2 18 l 1
 5 18 l 1
 8 18 l 1
 8 17 l 1
 8 16 l 1
 5 16 l 1
 2 16 l 1
 2 17 l 1
EndSplineSet
EndChar

StartChar: glyph2414
Encoding: 257 257 1
Width: 11
VWidth: 0
Flags: HMW
LayerCount: 2
Back
Fore
SplineSet
2 9 m 1
 2 10 l 1
 5 10 l 1
 8 10 l 1
 8 9 l 1
 8 8 l 1
 9 8 l 1
 10 8 l 1
 10 4 l 1
 10 0 l 1
 6 0 l 1
 2 0 l 1
 2 1 l 1
 2 2 l 1
 1 2 l 1
 0 2 l 1
 0 3 l 1
 0 4 l 1
 1 4 l 1
 2 4 l 1
 2 5 l 1
 2 6 l 1
 5 6 l 1
 8 6 l 1
 8 7 l 1
 8 8 l 1
 5 8 l 1
 2 8 l 1
 2 9 l 1
8 3 m 1
 8 4 l 1
 5 4 l 1
 2 4 l 1
 2 3 l 1
 2 2 l 1
 5 2 l 1
 8 2 l 1
 8 3 l 1
2 13 m 1
 2 14 l 1
 5 14 l 1
 8 14 l 1
 8 13 l 1
 8 12 l 1
 5 12 l 1
 2 12 l 1
 2 13 l 1
EndSplineSet
EndChar

StartChar: glyph2415
Encoding: 258 258 2
Width: 11
VWidth: 0
Flags: HMW
LayerCount: 2
Back
Fore
SplineSet
2 13 m 1
 2 14 l 1
 5 14 l 1
 8 14 l 1
 8 13 l 1
 8 12 l 1
 9 12 l 1
 10 12 l 1
 10 6 l 1
 10 0 l 1
 9 0 l 1
 8 0 l 1
 8 4 l 1
 8 8 l 1
 5 8 l 1
 2 8 l 1
 2 4 l 1
 2 0 l 1
 1 0 l 1
 0 0 l 1
 0 6 l 1
 0 12 l 1
 1 12 l 1
 2 12 l 1
 2 13 l 1
8 11 m 1
 8 12 l 1
 5 12 l 1
 2 12 l 1
 2 11 l 1
 2 10 l 1
 5 10 l 1
 8 10 l 1
 8 11 l 1
2 19 m 1
 2 20 l 1
 3 20 l 1
 4 20 l 1
 4 19 l 1
 4 18 l 1
 6 18 l 1
 8 18 l 1
 8 19 l 1
 8 20 l 1
 9 20 l 1
 10 20 l 1
 10 19 l 1
 10 18 l 1
 9 18 l 1
 8 18 l 1
 8 17 l 1
 8 16 l 1
 6 16 l 1
 4 16 l 1
 4 17 l 1
 4 18 l 1
 3 18 l 1
 2 18 l 1
 2 19 l 1
EndSplineSet
EndChar

StartChar: glyph2416
Encoding: 259 259 3
Width: 11
VWidth: 0
Flags: HMW
LayerCount: 2
Back
Fore
SplineSet
2 9 m 1
 2 10 l 1
 5 10 l 1
 8 10 l 1
 8 9 l 1
 8 8 l 1
 9 8 l 1
 10 8 l 1
 10 4 l 1
 10 0 l 1
 6 0 l 1
 2 0 l 1
 2 1 l 1
 2 2 l 1
 1 2 l 1
 0 2 l 1
 0 3 l 1
 0 4 l 1
 1 4 l 1
 2 4 l 1
 2 5 l 1
 2 6 l 1
 5 6 l 1
 8 6 l 1
 8 7 l 1
 8 8 l 1
 5 8 l 1
 2 8 l 1
 2 9 l 1
8 3 m 1
 8 4 l 1
 5 4 l 1
 2 4 l 1
 2 3 l 1
 2 2 l 1
 5 2 l 1
 8 2 l 1
 8 3 l 1
2 15 m 1
 2 16 l 1
 3 16 l 1
 4 16 l 1
 4 15 l 1
 4 14 l 1
 6 14 l 1
 8 14 l 1
 8 15 l 1
 8 16 l 1
 9 16 l 1
 10 16 l 1
 10 15 l 1
 10 14 l 1
 9 14 l 1
 8 14 l 1
 8 13 l 1
 8 12 l 1
 6 12 l 1
 4 12 l 1
 4 13 l 1
 4 14 l 1
 3 14 l 1
 2 14 l 1
 2 15 l 1
EndSplineSet
EndChar

StartChar: glyph2417
Encoding: 66352 66352 4
Width: 11
VWidth: 0
Flags: HMW
LayerCount: 2
Back
Fore
SplineSet
0 11 m 1
 0 12 l 1
 1 12 l 1
 2 12 l 1
 2 11 l 1
 2 10 l 1
 3 10 l 1
 4 10 l 1
 4 9 l 1
 4 8 l 1
 5 8 l 1
 6 8 l 1
 6 7 l 1
 6 6 l 1
 7 6 l 1
 8 6 l 1
 8 4 l 1
 8 2 l 1
 9 2 l 1
 10 2 l 1
 10 1 l 1
 10 0 l 1
 9 0 l 1
 8 0 l 1
 8 1 l 1
 8 2 l 1
 7 2 l 1
 6 2 l 1
 6 4 l 1
 6 6 l 1
 5 6 l 1
 4 6 l 1
 4 7 l 1
 4 8 l 1
 3 8 l 1
 2 8 l 1
 2 3 l 1
 2 -2 l 1
 1 -2 l 1
 0 -2 l 1
 0 3 l 1
 0 8 l 1
 1 8 l 1
 2 8 l 1
 2 9 l 1
 2 10 l 1
 1 10 l 1
 0 10 l 1
 0 11 l 1
EndSplineSet
EndChar

StartChar: glyph2418
Encoding: 66353 66353 5
Width: 11
VWidth: 0
Flags: HMW
LayerCount: 2
Back
Fore
SplineSet
0 6 m 1
 0 12 l 1
 5 12 l 1
 10 12 l 1
 10 11 l 1
 10 10 l 1
 6 10 l 1
 2 10 l 1
 2 5 l 1
 2 0 l 1
 1 0 l 1
 0 0 l 1
 0 6 l 1
EndSplineSet
EndChar

StartChar: glyph2419
Encoding: 66354 66354 6
Width: 11
VWidth: 0
Flags: HMW
LayerCount: 2
Back
Fore
SplineSet
2 11 m 1
 2 12 l 1
 5 12 l 1
 8 12 l 1
 8 11 l 1
 8 10 l 1
 9 10 l 1
 10 10 l 1
 10 9 l 1
 10 8 l 1
 9 8 l 1
 8 8 l 1
 8 9 l 1
 8 10 l 1
 5 10 l 1
 2 10 l 1
 2 9 l 1
 2 8 l 1
 4 8 l 1
 6 8 l 1
 6 7 l 1
 6 6 l 1
 4 6 l 1
 2 6 l 1
 2 4 l 1
 2 2 l 1
 5 2 l 1
 8 2 l 1
 8 3 l 1
 8 4 l 1
 9 4 l 1
 10 4 l 1
 10 3 l 1
 10 2 l 1
 9 2 l 1
 8 2 l 1
 8 1 l 1
 8 0 l 1
 5 0 l 1
 2 0 l 1
 2 1 l 1
 2 2 l 1
 1 2 l 1
 0 2 l 1
 0 6 l 1
 0 10 l 1
 1 10 l 1
 2 10 l 1
 2 11 l 1
EndSplineSet
EndChar

StartChar: glyph2420
Encoding: 66355 66355 7
Width: 11
VWidth: 0
Flags: HMW
LayerCount: 2
Back
Fore
SplineSet
0 11 m 1
 0 12 l 1
 5 12 l 1
 10 12 l 1
 10 10 l 1
 10 8 l 1
 9 8 l 1
 8 8 l 1
 8 7 l 1
 8 6 l 1
 6 6 l 1
 4 6 l 1
 4 5 l 1
 4 4 l 1
 3 4 l 1
 2 4 l 1
 2 3 l 1
 2 2 l 1
 6 2 l 1
 10 2 l 1
 10 1 l 1
 10 0 l 1
 5 0 l 1
 0 0 l 1
 0 2 l 1
 0 4 l 1
 1 4 l 1
 2 4 l 1
 2 5 l 1
 2 6 l 1
 3 6 l 1
 4 6 l 1
 4 7 l 1
 4 8 l 1
 6 8 l 1
 8 8 l 1
 8 9 l 1
 8 10 l 1
 4 10 l 1
 0 10 l 1
 0 11 l 1
EndSplineSet
EndChar

StartChar: glyph2421
Encoding: 66356 66356 8
Width: 11
VWidth: 0
Flags: HMW
LayerCount: 2
Back
Fore
SplineSet
4 9 m 1
 4 14 l 1
 5 14 l 1
 6 14 l 1
 6 9 l 1
 6 4 l 1
 7 4 l 1
 8 4 l 1
 8 8 l 1
 8 12 l 1
 9 12 l 1
 10 12 l 1
 10 8 l 1
 10 4 l 1
 9 4 l 1
 8 4 l 1
 8 3 l 1
 8 2 l 1
 7 2 l 1
 6 2 l 1
 6 0 l 1
 6 -2 l 1
 5 -2 l 1
 4 -2 l 1
 4 0 l 1
 4 2 l 1
 3 2 l 1
 2 2 l 1
 2 3 l 1
 2 4 l 1
 1 4 l 1
 0 4 l 1
 0 8 l 1
 0 12 l 1
 1 12 l 1
 2 12 l 1
 2 8 l 1
 2 4 l 1
 3 4 l 1
 4 4 l 1
 4 9 l 1
EndSplineSet
EndChar

StartChar: glyph2422
Encoding: 66357 66357 9
Width: 11
VWidth: 0
Flags: HMW
LayerCount: 2
Back
Fore
SplineSet
0 6 m 1
 0 12 l 1
 1 12 l 1
 2 12 l 1
 2 10 l 1
 2 8 l 1
 4 8 l 1
 6 8 l 1
 6 10 l 1
 6 12 l 1
 7 12 l 1
 8 12 l 1
 8 10 l 1
 8 8 l 1
 7 8 l 1
 6 8 l 1
 6 6 l 1
 6 4 l 1
 7 4 l 1
 8 4 l 1
 8 3 l 1
 8 2 l 1
 9 2 l 1
 10 2 l 1
 10 1 l 1
 10 0 l 1
 9 0 l 1
 8 0 l 1
 8 1 l 1
 8 2 l 1
 7 2 l 1
 6 2 l 1
 6 3 l 1
 6 4 l 1
 5 4 l 1
 4 4 l 1
 4 5 l 1
 4 6 l 1
 3 6 l 1
 2 6 l 1
 2 3 l 1
 2 0 l 1
 1 0 l 1
 0 0 l 1
 0 6 l 1
EndSplineSet
EndChar

StartChar: glyph2423
Encoding: 66358 66358 10
Width: 11
VWidth: 0
Flags: HMW
LayerCount: 2
Back
Fore
SplineSet
0 6 m 1
 0 12 l 1
 1 12 l 1
 2 12 l 1
 2 11 l 1
 2 10 l 1
 3 10 l 1
 4 10 l 1
 4 9 l 1
 4 8 l 1
 5 8 l 1
 6 8 l 1
 6 9 l 1
 6 10 l 1
 7 10 l 1
 8 10 l 1
 8 11 l 1
 8 12 l 1
 9 12 l 1
 10 12 l 1
 10 6 l 1
 10 0 l 1
 9 0 l 1
 8 0 l 1
 8 4 l 1
 8 8 l 1
 7 8 l 1
 6 8 l 1
 6 7 l 1
 6 6 l 1
 5 6 l 1
 4 6 l 1
 4 7 l 1
 4 8 l 1
 3 8 l 1
 2 8 l 1
 2 4 l 1
 2 0 l 1
 1 0 l 1
 0 0 l 1
 0 6 l 1
EndSplineSet
EndChar

StartChar: glyph2424
Encoding: 66366 66366 11
Width: 11
VWidth: 0
Flags: HMW
LayerCount: 2
Back
Fore
SplineSet
2 11 m 1
 2 12 l 1
 5 12 l 1
 8 12 l 1
 8 11 l 1
 8 10 l 1
 9 10 l 1
 10 10 l 1
 10 9 l 1
 10 8 l 1
 9 8 l 1
 8 8 l 1
 8 9 l 1
 8 10 l 1
 5 10 l 1
 2 10 l 1
 2 6 l 1
 2 2 l 1
 5 2 l 1
 8 2 l 1
 8 3 l 1
 8 4 l 1
 9 4 l 1
 10 4 l 1
 10 1 l 1
 10 -2 l 1
 9 -2 l 1
 8 -2 l 1
 8 -1 l 1
 8 0 l 1
 5 0 l 1
 2 0 l 1
 2 1 l 1
 2 2 l 1
 1 2 l 1
 0 2 l 1
 0 6 l 1
 0 10 l 1
 1 10 l 1
 2 10 l 1
 2 11 l 1
EndSplineSet
EndChar

StartChar: glyph2425
Encoding: 66367 66367 12
Width: 11
VWidth: 0
Flags: HMW
LayerCount: 2
Back
Fore
SplineSet
0 6 m 1
 0 12 l 1
 5 12 l 1
 10 12 l 1
 10 6 l 1
 10 0 l 1
 9 0 l 1
 8 0 l 1
 8 5 l 1
 8 10 l 1
 5 10 l 1
 2 10 l 1
 2 5 l 1
 2 0 l 1
 1 0 l 1
 0 0 l 1
 0 6 l 1
EndSplineSet
EndChar

StartChar: glyph2426
Encoding: 66368 66368 13
Width: 11
VWidth: 0
Flags: HMW
LayerCount: 2
Back
Fore
SplineSet
0 5 m 1
 0 12 l 1
 1 12 l 1
 2 12 l 1
 2 10 l 1
 2 8 l 1
 4 8 l 1
 6 8 l 1
 6 10 l 1
 6 12 l 1
 7 12 l 1
 8 12 l 1
 8 10 l 1
 8 8 l 1
 7 8 l 1
 6 8 l 1
 6 6 l 1
 6 4 l 1
 7 4 l 1
 8 4 l 1
 8 3 l 1
 8 2 l 1
 9 2 l 1
 10 2 l 1
 10 1 l 1
 10 0 l 1
 9 0 l 1
 8 0 l 1
 8 1 l 1
 8 2 l 1
 7 2 l 1
 6 2 l 1
 6 3 l 1
 6 4 l 1
 5 4 l 1
 4 4 l 1
 4 5 l 1
 4 6 l 1
 3 6 l 1
 2 6 l 1
 2 2 l 1
 2 -2 l 1
 1 -2 l 1
 0 -2 l 1
 0 5 l 1
EndSplineSet
EndChar

StartChar: glyph2427
Encoding: 66369 66369 14
Width: 11
VWidth: 0
Flags: HMW
LayerCount: 2
Back
Fore
SplineSet
0 11 m 1
 0 12 l 1
 5 12 l 1
 10 12 l 1
 10 11 l 1
 10 10 l 1
 8 10 l 1
 6 10 l 1
 6 5 l 1
 6 0 l 1
 5 0 l 1
 4 0 l 1
 4 5 l 1
 4 10 l 1
 2 10 l 1
 0 10 l 1
 0 11 l 1
EndSplineSet
EndChar

StartChar: glyph2428
Encoding: 66370 66370 15
Width: 11
VWidth: 0
Flags: HMW
LayerCount: 2
Back
Fore
SplineSet
0 6 m 1
 0 14 l 1
 1 14 l 1
 2 14 l 1
 2 13 l 1
 2 12 l 1
 6 12 l 1
 10 12 l 1
 10 11 l 1
 10 10 l 1
 6 10 l 1
 2 10 l 1
 2 7 l 1
 2 4 l 1
 6 4 l 1
 10 4 l 1
 10 3 l 1
 10 2 l 1
 6 2 l 1
 2 2 l 1
 2 0 l 1
 2 -2 l 1
 1 -2 l 1
 0 -2 l 1
 0 6 l 1
EndSplineSet
EndChar

StartChar: glyph2429
Encoding: 66371 66371 16
Width: 11
VWidth: 0
Flags: HMW
LayerCount: 2
Back
Fore
SplineSet
4 6 m 1
 4 8 l 1
 5 8 l 1
 6 8 l 1
 6 6 l 1
 6 4 l 1
 5 4 l 1
 4 4 l 1
 4 6 l 1
2 11 m 1
 2 12 l 1
 5 12 l 1
 8 12 l 1
 8 11 l 1
 8 10 l 1
 9 10 l 1
 10 10 l 1
 10 6 l 1
 10 2 l 1
 9 2 l 1
 8 2 l 1
 8 1 l 1
 8 0 l 1
 5 0 l 1
 2 0 l 1
 2 1 l 1
 2 2 l 1
 1 2 l 1
 0 2 l 1
 0 6 l 1
 0 10 l 1
 1 10 l 1
 2 10 l 1
 2 11 l 1
8 6 m 1
 8 10 l 1
 5 10 l 1
 2 10 l 1
 2 6 l 1
 2 2 l 1
 5 2 l 1
 8 2 l 1
 8 6 l 1
EndSplineSet
EndChar

StartChar: glyph2430
Encoding: 66372 66372 17
Width: 11
VWidth: 0
Flags: HMW
LayerCount: 2
Back
Fore
SplineSet
4 11 m 1
 4 12 l 1
 5 12 l 1
 6 12 l 1
 6 11 l 1
 6 10 l 1
 7 10 l 1
 8 10 l 1
 8 9 l 1
 8 8 l 1
 9 8 l 1
 10 8 l 1
 10 7 l 1
 10 6 l 1
 9 6 l 1
 8 6 l 1
 8 7 l 1
 8 8 l 1
 7 8 l 1
 6 8 l 1
 6 3 l 1
 6 -2 l 1
 5 -2 l 1
 4 -2 l 1
 4 3 l 1
 4 8 l 1
 3 8 l 1
 2 8 l 1
 2 7 l 1
 2 6 l 1
 1 6 l 1
 0 6 l 1
 0 7 l 1
 0 8 l 1
 1 8 l 1
 2 8 l 1
 2 9 l 1
 2 10 l 1
 3 10 l 1
 4 10 l 1
 4 11 l 1
EndSplineSet
EndChar

StartChar: glyph2431
Encoding: 66373 66373 18
Width: 13
VWidth: 0
Flags: HMW
LayerCount: 2
Back
Fore
SplineSet
0 11 m 1
 0 12 l 1
 1 12 l 1
 2 12 l 1
 2 11 l 1
 2 10 l 1
 1 10 l 1
 0 10 l 1
 0 11 l 1
10 13 m 1
 10 14 l 1
 11 14 l 1
 12 14 l 1
 12 13 l 1
 12 12 l 1
 11 12 l 1
 10 12 l 1
 10 13 l 1
6 13 m 1
 6 14 l 1
 7 14 l 1
 8 14 l 1
 8 12 l 1
 8 10 l 1
 10 10 l 1
 12 10 l 1
 12 6 l 1
 12 2 l 1
 11 2 l 1
 10 2 l 1
 10 1 l 1
 10 0 l 1
 6 0 l 1
 2 0 l 1
 2 1 l 1
 2 2 l 1
 1 2 l 1
 0 2 l 1
 0 5 l 1
 0 8 l 1
 2 8 l 1
 4 8 l 1
 4 10 l 1
 4 12 l 1
 5 12 l 1
 6 12 l 1
 6 13 l 1
8 7 m 1
 8 8 l 1
 7 8 l 1
 6 8 l 1
 6 6 l 1
 6 4 l 1
 5 4 l 1
 4 4 l 1
 4 5 l 1
 4 6 l 1
 3 6 l 1
 2 6 l 1
 2 5 l 1
 2 4 l 1
 3 4 l 1
 4 4 l 1
 4 3 l 1
 4 2 l 1
 6 2 l 1
 8 2 l 1
 8 3 l 1
 8 4 l 1
 9 4 l 1
 10 4 l 1
 10 5 l 1
 10 6 l 1
 9 6 l 1
 8 6 l 1
 8 7 l 1
EndSplineSet
EndChar

StartChar: glyph2432
Encoding: 260 260 19
Width: 11
VWidth: 0
Flags: HMW
LayerCount: 2
Back
Fore
SplineSet
2 13 m 1
 2 14 l 1
 5 14 l 1
 8 14 l 1
 8 13 l 1
 8 12 l 1
 9 12 l 1
 10 12 l 1
 10 6 l 1
 10 0 l 1
 9 0 l 1
 8 0 l 1
 8 -1 l 1
 8 -2 l 1
 9 -2 l 1
 10 -2 l 1
 10 -3 l 1
 10 -4 l 1
 9 -4 l 1
 8 -4 l 1
 8 -3 l 1
 8 -2 l 1
 7 -2 l 1
 6 -2 l 1
 6 -1 l 1
 6 0 l 1
 7 0 l 1
 8 0 l 1
 8 4 l 1
 8 8 l 1
 5 8 l 1
 2 8 l 1
 2 4 l 1
 2 0 l 1
 1 0 l 1
 0 0 l 1
 0 6 l 1
 0 12 l 1
 1 12 l 1
 2 12 l 1
 2 13 l 1
8 11 m 1
 8 12 l 1
 5 12 l 1
 2 12 l 1
 2 11 l 1
 2 10 l 1
 5 10 l 1
 8 10 l 1
 8 11 l 1
EndSplineSet
EndChar

StartChar: glyph2433
Encoding: 261 261 20
Width: 11
VWidth: 0
Flags: HMW
LayerCount: 2
Back
Fore
SplineSet
2 9 m 1
 2 10 l 1
 5 10 l 1
 8 10 l 1
 8 9 l 1
 8 8 l 1
 9 8 l 1
 10 8 l 1
 10 4 l 1
 10 0 l 1
 9 0 l 1
 8 0 l 1
 8 -1 l 1
 8 -2 l 1
 9 -2 l 1
 10 -2 l 1
 10 -3 l 1
 10 -4 l 1
 9 -4 l 1
 8 -4 l 1
 8 -3 l 1
 8 -2 l 1
 7 -2 l 1
 6 -2 l 1
 6 -1 l 1
 6 0 l 1
 4 0 l 1
 2 0 l 1
 2 1 l 1
 2 2 l 1
 1 2 l 1
 0 2 l 1
 0 3 l 1
 0 4 l 1
 1 4 l 1
 2 4 l 1
 2 5 l 1
 2 6 l 1
 5 6 l 1
 8 6 l 1
 8 7 l 1
 8 8 l 1
 5 8 l 1
 2 8 l 1
 2 9 l 1
8 3 m 1
 8 4 l 1
 5 4 l 1
 2 4 l 1
 2 3 l 1
 2 2 l 1
 5 2 l 1
 8 2 l 1
 8 3 l 1
EndSplineSet
EndChar

StartChar: glyph2434
Encoding: 262 262 21
Width: 11
VWidth: 0
Flags: HMW
LayerCount: 2
Back
Fore
SplineSet
2 13 m 1
 2 14 l 1
 5 14 l 1
 8 14 l 1
 8 13 l 1
 8 12 l 1
 9 12 l 1
 10 12 l 1
 10 11 l 1
 10 10 l 1
 9 10 l 1
 8 10 l 1
 8 11 l 1
 8 12 l 1
 5 12 l 1
 2 12 l 1
 2 7 l 1
 2 2 l 1
 5 2 l 1
 8 2 l 1
 8 3 l 1
 8 4 l 1
 9 4 l 1
 10 4 l 1
 10 3 l 1
 10 2 l 1
 9 2 l 1
 8 2 l 1
 8 1 l 1
 8 0 l 1
 5 0 l 1
 2 0 l 1
 2 1 l 1
 2 2 l 1
 1 2 l 1
 0 2 l 1
 0 7 l 1
 0 12 l 1
 1 12 l 1
 2 12 l 1
 2 13 l 1
6 19 m 1
 6 20 l 1
 7 20 l 1
 8 20 l 1
 8 19 l 1
 8 18 l 1
 7 18 l 1
 6 18 l 1
 6 17 l 1
 6 16 l 1
 5 16 l 1
 4 16 l 1
 4 17 l 1
 4 18 l 1
 5 18 l 1
 6 18 l 1
 6 19 l 1
EndSplineSet
EndChar

StartChar: glyph2435
Encoding: 263 263 22
Width: 11
VWidth: 0
Flags: HMW
LayerCount: 2
Back
Fore
SplineSet
2 9 m 1
 2 10 l 1
 5 10 l 1
 8 10 l 1
 8 9 l 1
 8 8 l 1
 9 8 l 1
 10 8 l 1
 10 7 l 1
 10 6 l 1
 9 6 l 1
 8 6 l 1
 8 7 l 1
 8 8 l 1
 5 8 l 1
 2 8 l 1
 2 5 l 1
 2 2 l 1
 5 2 l 1
 8 2 l 1
 8 3 l 1
 8 4 l 1
 9 4 l 1
 10 4 l 1
 10 3 l 1
 10 2 l 1
 9 2 l 1
 8 2 l 1
 8 1 l 1
 8 0 l 1
 5 0 l 1
 2 0 l 1
 2 1 l 1
 2 2 l 1
 1 2 l 1
 0 2 l 1
 0 5 l 1
 0 8 l 1
 1 8 l 1
 2 8 l 1
 2 9 l 1
6 15 m 1
 6 16 l 1
 7 16 l 1
 8 16 l 1
 8 15 l 1
 8 14 l 1
 7 14 l 1
 6 14 l 1
 6 13 l 1
 6 12 l 1
 5 12 l 1
 4 12 l 1
 4 13 l 1
 4 14 l 1
 5 14 l 1
 6 14 l 1
 6 15 l 1
EndSplineSet
EndChar

StartChar: glyph2436
Encoding: 264 264 23
Width: 11
VWidth: 0
Flags: HMW
LayerCount: 2
Back
Fore
SplineSet
2 13 m 1
 2 14 l 1
 5 14 l 1
 8 14 l 1
 8 13 l 1
 8 12 l 1
 9 12 l 1
 10 12 l 1
 10 11 l 1
 10 10 l 1
 9 10 l 1
 8 10 l 1
 8 11 l 1
 8 12 l 1
 5 12 l 1
 2 12 l 1
 2 7 l 1
 2 2 l 1
 5 2 l 1
 8 2 l 1
 8 3 l 1
 8 4 l 1
 9 4 l 1
 10 4 l 1
 10 3 l 1
 10 2 l 1
 9 2 l 1
 8 2 l 1
 8 1 l 1
 8 0 l 1
 5 0 l 1
 2 0 l 1
 2 1 l 1
 2 2 l 1
 1 2 l 1
 0 2 l 1
 0 7 l 1
 0 12 l 1
 1 12 l 1
 2 12 l 1
 2 13 l 1
4 19 m 1
 4 20 l 1
 5 20 l 1
 6 20 l 1
 6 19 l 1
 6 18 l 1
 7 18 l 1
 8 18 l 1
 8 17 l 1
 8 16 l 1
 7 16 l 1
 6 16 l 1
 6 17 l 1
 6 18 l 1
 5 18 l 1
 4 18 l 1
 4 17 l 1
 4 16 l 1
 3 16 l 1
 2 16 l 1
 2 17 l 1
 2 18 l 1
 3 18 l 1
 4 18 l 1
 4 19 l 1
EndSplineSet
EndChar

StartChar: glyph2437
Encoding: 265 265 24
Width: 11
VWidth: 0
Flags: HMW
LayerCount: 2
Back
Fore
SplineSet
2 9 m 1
 2 10 l 1
 5 10 l 1
 8 10 l 1
 8 9 l 1
 8 8 l 1
 9 8 l 1
 10 8 l 1
 10 7 l 1
 10 6 l 1
 9 6 l 1
 8 6 l 1
 8 7 l 1
 8 8 l 1
 5 8 l 1
 2 8 l 1
 2 5 l 1
 2 2 l 1
 5 2 l 1
 8 2 l 1
 8 3 l 1
 8 4 l 1
 9 4 l 1
 10 4 l 1
 10 3 l 1
 10 2 l 1
 9 2 l 1
 8 2 l 1
 8 1 l 1
 8 0 l 1
 5 0 l 1
 2 0 l 1
 2 1 l 1
 2 2 l 1
 1 2 l 1
 0 2 l 1
 0 5 l 1
 0 8 l 1
 1 8 l 1
 2 8 l 1
 2 9 l 1
4 15 m 1
 4 16 l 1
 5 16 l 1
 6 16 l 1
 6 15 l 1
 6 14 l 1
 7 14 l 1
 8 14 l 1
 8 13 l 1
 8 12 l 1
 7 12 l 1
 6 12 l 1
 6 13 l 1
 6 14 l 1
 5 14 l 1
 4 14 l 1
 4 13 l 1
 4 12 l 1
 3 12 l 1
 2 12 l 1
 2 13 l 1
 2 14 l 1
 3 14 l 1
 4 14 l 1
 4 15 l 1
EndSplineSet
EndChar

StartChar: glyph2438
Encoding: 266 266 25
Width: 11
VWidth: 0
Flags: HMW
LayerCount: 2
Back
Fore
SplineSet
2 13 m 1
 2 14 l 1
 5 14 l 1
 8 14 l 1
 8 13 l 1
 8 12 l 1
 9 12 l 1
 10 12 l 1
 10 11 l 1
 10 10 l 1
 9 10 l 1
 8 10 l 1
 8 11 l 1
 8 12 l 1
 5 12 l 1
 2 12 l 1
 2 7 l 1
 2 2 l 1
 5 2 l 1
 8 2 l 1
 8 3 l 1
 8 4 l 1
 9 4 l 1
 10 4 l 1
 10 3 l 1
 10 2 l 1
 9 2 l 1
 8 2 l 1
 8 1 l 1
 8 0 l 1
 5 0 l 1
 2 0 l 1
 2 1 l 1
 2 2 l 1
 1 2 l 1
 0 2 l 1
 0 7 l 1
 0 12 l 1
 1 12 l 1
 2 12 l 1
 2 13 l 1
4 17 m 1
 4 18 l 1
 5 18 l 1
 6 18 l 1
 6 17 l 1
 6 16 l 1
 5 16 l 1
 4 16 l 1
 4 17 l 1
EndSplineSet
EndChar

StartChar: glyph2439
Encoding: 4256 4256 26
Width: 11
VWidth: 0
Flags: HMW
LayerCount: 2
Back
Fore
SplineSet
0 13 m 1
 0 14 l 1
 5 14 l 1
 10 14 l 1
 10 13 l 1
 10 12 l 1
 7 12 l 1
 4 12 l 1
 4 11 l 1
 4 10 l 1
 3 10 l 1
 2 10 l 1
 2 6 l 1
 2 2 l 1
 5 2 l 1
 8 2 l 1
 8 3 l 1
 8 4 l 1
 9 4 l 1
 10 4 l 1
 10 3 l 1
 10 2 l 1
 9 2 l 1
 8 2 l 1
 8 1 l 1
 8 0 l 1
 5 0 l 1
 2 0 l 1
 2 1 l 1
 2 2 l 1
 1 2 l 1
 0 2 l 1
 0 6 l 1
 0 10 l 1
 1 10 l 1
 2 10 l 1
 2 11 l 1
 2 12 l 1
 1 12 l 1
 0 12 l 1
 0 13 l 1
EndSplineSet
EndChar

StartChar: glyph2440
Encoding: 4257 4257 27
Width: 15
VWidth: 0
Flags: HMW
LayerCount: 2
Back
Fore
SplineSet
2 13 m 1
 2 14 l 1
 3 14 l 1
 4 14 l 1
 4 13 l 1
 4 12 l 1
 3 12 l 1
 2 12 l 1
 2 10 l 1
 2 8 l 1
 5 8 l 1
 8 8 l 1
 8 11 l 1
 8 14 l 1
 9 14 l 1
 10 14 l 1
 10 8 l 1
 10 2 l 1
 12 2 l 1
 14 2 l 1
 14 1 l 1
 14 0 l 1
 11 0 l 1
 8 0 l 1
 8 3 l 1
 8 6 l 1
 5 6 l 1
 2 6 l 1
 2 7 l 1
 2 8 l 1
 1 8 l 1
 0 8 l 1
 0 10 l 1
 0 12 l 1
 1 12 l 1
 2 12 l 1
 2 13 l 1
EndSplineSet
EndChar

StartChar: glyph2441
Encoding: 4258 4258 28
Width: 15
VWidth: 0
Flags: HMW
LayerCount: 2
Back
Fore
SplineSet
0 12 m 1
 0 14 l 1
 5 14 l 1
 10 14 l 1
 10 8 l 1
 10 2 l 1
 12 2 l 1
 14 2 l 1
 14 1 l 1
 14 0 l 1
 11 0 l 1
 8 0 l 1
 8 6 l 1
 8 12 l 1
 5 12 l 1
 2 12 l 1
 2 11 l 1
 2 10 l 1
 1 10 l 1
 0 10 l 1
 0 12 l 1
EndSplineSet
EndChar

StartChar: glyph2442
Encoding: 4259 4259 29
Width: 11
VWidth: 0
Flags: HMW
LayerCount: 2
Back
Fore
SplineSet
0 13 m 1
 0 14 l 1
 5 14 l 1
 10 14 l 1
 10 13 l 1
 10 12 l 1
 8 12 l 1
 6 12 l 1
 6 11 l 1
 6 10 l 1
 7 10 l 1
 8 10 l 1
 8 9 l 1
 8 8 l 1
 9 8 l 1
 10 8 l 1
 10 5 l 1
 10 2 l 1
 9 2 l 1
 8 2 l 1
 8 1 l 1
 8 0 l 1
 5 0 l 1
 2 0 l 1
 2 1 l 1
 2 2 l 1
 1 2 l 1
 0 2 l 1
 0 5 l 1
 0 8 l 1
 1 8 l 1
 2 8 l 1
 2 9 l 1
 2 10 l 1
 3 10 l 1
 4 10 l 1
 4 11 l 1
 4 12 l 1
 2 12 l 1
 0 12 l 1
 0 13 l 1
8 5 m 1
 8 8 l 1
 5 8 l 1
 2 8 l 1
 2 5 l 1
 2 2 l 1
 5 2 l 1
 8 2 l 1
 8 5 l 1
EndSplineSet
EndChar

StartChar: glyph2443
Encoding: 4260 4260 30
Width: 11
VWidth: 0
Flags: HMW
LayerCount: 2
Back
Fore
SplineSet
0 12 m 1
 0 14 l 1
 5 14 l 1
 10 14 l 1
 10 7 l 1
 10 0 l 1
 9 0 l 1
 8 0 l 1
 8 6 l 1
 8 12 l 1
 5 12 l 1
 2 12 l 1
 2 11 l 1
 2 10 l 1
 1 10 l 1
 0 10 l 1
 0 12 l 1
EndSplineSet
EndChar

StartChar: glyph2444
Encoding: 4261 4261 31
Width: 15
VWidth: 0
Flags: HMW
LayerCount: 2
Back
Fore
SplineSet
0 12 m 1
 0 14 l 1
 5 14 l 1
 10 14 l 1
 10 12 l 1
 10 10 l 1
 12 10 l 1
 14 10 l 1
 14 8 l 1
 14 6 l 1
 13 6 l 1
 12 6 l 1
 12 7 l 1
 12 8 l 1
 11 8 l 1
 10 8 l 1
 10 4 l 1
 10 0 l 1
 9 0 l 1
 8 0 l 1
 8 6 l 1
 8 12 l 1
 5 12 l 1
 2 12 l 1
 2 11 l 1
 2 10 l 1
 1 10 l 1
 0 10 l 1
 0 12 l 1
EndSplineSet
EndChar

StartChar: glyph2445
Encoding: 4262 4262 32
Width: 15
VWidth: 0
Flags: HMW
LayerCount: 2
Back
Fore
SplineSet
0 13 m 1
 0 14 l 1
 3 14 l 1
 6 14 l 1
 6 11 l 1
 6 8 l 1
 7 8 l 1
 8 8 l 1
 8 9 l 1
 8 10 l 1
 10 10 l 1
 12 10 l 1
 12 9 l 1
 12 8 l 1
 13 8 l 1
 14 8 l 1
 14 5 l 1
 14 2 l 1
 13 2 l 1
 12 2 l 1
 12 1 l 1
 12 0 l 1
 9 0 l 1
 6 0 l 1
 6 1 l 1
 6 2 l 1
 5 2 l 1
 4 2 l 1
 4 7 l 1
 4 12 l 1
 2 12 l 1
 0 12 l 1
 0 13 l 1
12 5 m 1
 12 8 l 1
 10 8 l 1
 8 8 l 1
 8 7 l 1
 8 6 l 1
 7 6 l 1
 6 6 l 1
 6 4 l 1
 6 2 l 1
 9 2 l 1
 12 2 l 1
 12 5 l 1
EndSplineSet
EndChar

StartChar: glyph2446
Encoding: 4263 4263 33
Width: 15
VWidth: 0
Flags: HMW
LayerCount: 2
Back
Fore
SplineSet
2 13 m 1
 2 14 l 1
 6 14 l 1
 10 14 l 1
 10 12 l 1
 10 10 l 1
 12 10 l 1
 14 10 l 1
 14 8 l 1
 14 6 l 1
 13 6 l 1
 12 6 l 1
 12 7 l 1
 12 8 l 1
 11 8 l 1
 10 8 l 1
 10 4 l 1
 10 0 l 1
 6 0 l 1
 2 0 l 1
 2 1 l 1
 2 2 l 1
 1 2 l 1
 0 2 l 1
 0 7 l 1
 0 12 l 1
 1 12 l 1
 2 12 l 1
 2 13 l 1
8 7 m 1
 8 12 l 1
 5 12 l 1
 2 12 l 1
 2 7 l 1
 2 2 l 1
 5 2 l 1
 8 2 l 1
 8 7 l 1
EndSplineSet
EndChar

StartChar: glyph2447
Encoding: 4264 4264 34
Width: 11
VWidth: 0
Flags: HMW
LayerCount: 2
Back
Fore
SplineSet
0 13 m 1
 0 14 l 1
 5 14 l 1
 10 14 l 1
 10 7 l 1
 10 0 l 1
 9 0 l 1
 8 0 l 1
 8 6 l 1
 8 12 l 1
 4 12 l 1
 0 12 l 1
 0 13 l 1
EndSplineSet
EndChar

StartChar: glyph2448
Encoding: 4265 4265 35
Width: 11
VWidth: 0
Flags: HMW
LayerCount: 2
Back
Fore
SplineSet
0 9 m 1
 0 14 l 1
 1 14 l 1
 2 14 l 1
 2 13 l 1
 2 12 l 1
 5 12 l 1
 8 12 l 1
 8 11 l 1
 8 10 l 1
 9 10 l 1
 10 10 l 1
 10 5 l 1
 10 0 l 1
 9 0 l 1
 8 0 l 1
 8 1 l 1
 8 2 l 1
 5 2 l 1
 2 2 l 1
 2 3 l 1
 2 4 l 1
 1 4 l 1
 0 4 l 1
 0 9 l 1
8 7 m 1
 8 10 l 1
 5 10 l 1
 2 10 l 1
 2 7 l 1
 2 4 l 1
 5 4 l 1
 8 4 l 1
 8 7 l 1
EndSplineSet
EndChar

StartChar: glyph2449
Encoding: 4266 4266 36
Width: 15
VWidth: 0
Flags: HMW
LayerCount: 2
Back
Fore
SplineSet
0 12 m 1
 0 14 l 1
 3 14 l 1
 6 14 l 1
 6 11 l 1
 6 8 l 1
 7 8 l 1
 8 8 l 1
 8 9 l 1
 8 10 l 1
 10 10 l 1
 12 10 l 1
 12 9 l 1
 12 8 l 1
 13 8 l 1
 14 8 l 1
 14 5 l 1
 14 2 l 1
 13 2 l 1
 12 2 l 1
 12 1 l 1
 12 0 l 1
 9 0 l 1
 6 0 l 1
 6 1 l 1
 6 2 l 1
 5 2 l 1
 4 2 l 1
 4 7 l 1
 4 12 l 1
 3 12 l 1
 2 12 l 1
 2 11 l 1
 2 10 l 1
 1 10 l 1
 0 10 l 1
 0 12 l 1
12 5 m 1
 12 8 l 1
 10 8 l 1
 8 8 l 1
 8 7 l 1
 8 6 l 1
 7 6 l 1
 6 6 l 1
 6 4 l 1
 6 2 l 1
 9 2 l 1
 12 2 l 1
 12 5 l 1
EndSplineSet
EndChar

StartChar: glyph2450
Encoding: 4267 4267 37
Width: 13
VWidth: 0
Flags: HMW
LayerCount: 2
Back
Fore
SplineSet
0 13 m 1
 0 14 l 1
 5 14 l 1
 10 14 l 1
 10 12 l 1
 10 10 l 1
 11 10 l 1
 12 10 l 1
 12 9 l 1
 12 8 l 1
 11 8 l 1
 10 8 l 1
 10 5 l 1
 10 2 l 1
 9 2 l 1
 8 2 l 1
 8 1 l 1
 8 0 l 1
 5 0 l 1
 2 0 l 1
 2 1 l 1
 2 2 l 1
 1 2 l 1
 0 2 l 1
 0 5 l 1
 0 8 l 1
 1 8 l 1
 2 8 l 1
 2 9 l 1
 2 10 l 1
 5 10 l 1
 8 10 l 1
 8 11 l 1
 8 12 l 1
 4 12 l 1
 0 12 l 1
 0 13 l 1
8 5 m 1
 8 8 l 1
 5 8 l 1
 2 8 l 1
 2 5 l 1
 2 2 l 1
 5 2 l 1
 8 2 l 1
 8 5 l 1
EndSplineSet
EndChar

StartChar: glyph2451
Encoding: 4268 4268 38
Width: 11
VWidth: 0
Flags: HMW
LayerCount: 2
Back
Fore
SplineSet
0 7 m 1
 0 14 l 1
 5 14 l 1
 10 14 l 1
 10 13 l 1
 10 12 l 1
 6 12 l 1
 2 12 l 1
 2 11 l 1
 2 10 l 1
 5 10 l 1
 8 10 l 1
 8 9 l 1
 8 8 l 1
 9 8 l 1
 10 8 l 1
 10 4 l 1
 10 0 l 1
 9 0 l 1
 8 0 l 1
 8 4 l 1
 8 8 l 1
 5 8 l 1
 2 8 l 1
 2 4 l 1
 2 0 l 1
 1 0 l 1
 0 0 l 1
 0 7 l 1
EndSplineSet
EndChar

StartChar: glyph2452
Encoding: 4269 4269 39
Width: 15
VWidth: 0
Flags: HMW
LayerCount: 2
Back
Fore
SplineSet
2 13 m 1
 2 14 l 1
 5 14 l 1
 8 14 l 1
 8 13 l 1
 8 12 l 1
 9 12 l 1
 10 12 l 1
 10 8 l 1
 10 4 l 1
 9 4 l 1
 8 4 l 1
 8 3 l 1
 8 2 l 1
 10 2 l 1
 12 2 l 1
 12 3 l 1
 12 4 l 1
 13 4 l 1
 14 4 l 1
 14 3 l 1
 14 2 l 1
 13 2 l 1
 12 2 l 1
 12 1 l 1
 12 0 l 1
 10 0 l 1
 8 0 l 1
 8 1 l 1
 8 2 l 1
 7 2 l 1
 6 2 l 1
 6 1 l 1
 6 0 l 1
 4 0 l 1
 2 0 l 1
 2 1 l 1
 2 2 l 1
 1 2 l 1
 0 2 l 1
 0 7 l 1
 0 12 l 1
 1 12 l 1
 2 12 l 1
 2 13 l 1
8 8 m 1
 8 12 l 1
 5 12 l 1
 2 12 l 1
 2 7 l 1
 2 2 l 1
 4 2 l 1
 6 2 l 1
 6 3 l 1
 6 4 l 1
 7 4 l 1
 8 4 l 1
 8 8 l 1
EndSplineSet
EndChar

StartChar: glyph2453
Encoding: 4270 4270 40
Width: 15
VWidth: 0
Flags: HMW
LayerCount: 2
Back
Fore
SplineSet
0 13 m 1
 0 14 l 1
 3 14 l 1
 6 14 l 1
 6 8 l 1
 6 2 l 1
 9 2 l 1
 12 2 l 1
 12 8 l 1
 12 14 l 1
 13 14 l 1
 14 14 l 1
 14 8 l 1
 14 2 l 1
 13 2 l 1
 12 2 l 1
 12 1 l 1
 12 0 l 1
 9 0 l 1
 6 0 l 1
 6 1 l 1
 6 2 l 1
 5 2 l 1
 4 2 l 1
 4 7 l 1
 4 12 l 1
 2 12 l 1
 0 12 l 1
 0 13 l 1
EndSplineSet
EndChar

StartChar: glyph2454
Encoding: 4271 4271 41
Width: 13
VWidth: 0
Flags: HMW
LayerCount: 2
Back
Fore
SplineSet
0 13 m 1
 0 14 l 1
 2 14 l 1
 4 14 l 1
 4 11 l 1
 4 8 l 1
 7 8 l 1
 10 8 l 1
 10 11 l 1
 10 14 l 1
 11 14 l 1
 12 14 l 1
 12 7 l 1
 12 0 l 1
 11 0 l 1
 10 0 l 1
 10 3 l 1
 10 6 l 1
 7 6 l 1
 4 6 l 1
 4 7 l 1
 4 8 l 1
 3 8 l 1
 2 8 l 1
 2 10 l 1
 2 12 l 1
 1 12 l 1
 0 12 l 1
 0 13 l 1
EndSplineSet
EndChar

StartChar: glyph2455
Encoding: 267 267 42
Width: 11
VWidth: 0
Flags: HMW
LayerCount: 2
Back
Fore
SplineSet
2 9 m 1
 2 10 l 1
 5 10 l 1
 8 10 l 1
 8 9 l 1
 8 8 l 1
 9 8 l 1
 10 8 l 1
 10 7 l 1
 10 6 l 1
 9 6 l 1
 8 6 l 1
 8 7 l 1
 8 8 l 1
 5 8 l 1
 2 8 l 1
 2 5 l 1
 2 2 l 1
 5 2 l 1
 8 2 l 1
 8 3 l 1
 8 4 l 1
 9 4 l 1
 10 4 l 1
 10 3 l 1
 10 2 l 1
 9 2 l 1
 8 2 l 1
 8 1 l 1
 8 0 l 1
 5 0 l 1
 2 0 l 1
 2 1 l 1
 2 2 l 1
 1 2 l 1
 0 2 l 1
 0 5 l 1
 0 8 l 1
 1 8 l 1
 2 8 l 1
 2 9 l 1
4 13 m 1
 4 14 l 1
 5 14 l 1
 6 14 l 1
 6 13 l 1
 6 12 l 1
 5 12 l 1
 4 12 l 1
 4 13 l 1
EndSplineSet
EndChar

StartChar: glyph2456
Encoding: 4272 4272 43
Width: 15
VWidth: 0
Flags: HMW
LayerCount: 2
Back
Fore
SplineSet
8 8 m 1
 8 14 l 1
 9 14 l 1
 10 14 l 1
 10 12 l 1
 10 10 l 1
 12 10 l 1
 14 10 l 1
 14 8 l 1
 14 6 l 1
 13 6 l 1
 12 6 l 1
 12 7 l 1
 12 8 l 1
 11 8 l 1
 10 8 l 1
 10 5 l 1
 10 2 l 1
 9 2 l 1
 8 2 l 1
 8 1 l 1
 8 0 l 1
 5 0 l 1
 2 0 l 1
 2 1 l 1
 2 2 l 1
 1 2 l 1
 0 2 l 1
 0 4 l 1
 0 6 l 1
 1 6 l 1
 2 6 l 1
 2 4 l 1
 2 2 l 1
 5 2 l 1
 8 2 l 1
 8 8 l 1
EndSplineSet
EndChar

StartChar: glyph2457
Encoding: 4273 4273 44
Width: 11
VWidth: 0
Flags: HMW
LayerCount: 2
Back
Fore
SplineSet
0 8 m 1
 0 14 l 1
 1 14 l 1
 2 14 l 1
 2 8 l 1
 2 2 l 1
 5 2 l 1
 8 2 l 1
 8 4 l 1
 8 6 l 1
 9 6 l 1
 10 6 l 1
 10 4 l 1
 10 2 l 1
 9 2 l 1
 8 2 l 1
 8 1 l 1
 8 0 l 1
 5 0 l 1
 2 0 l 1
 2 1 l 1
 2 2 l 1
 1 2 l 1
 0 2 l 1
 0 8 l 1
EndSplineSet
EndChar

StartChar: glyph2458
Encoding: 4274 4274 45
Width: 11
VWidth: 0
Flags: HMW
LayerCount: 2
Back
Fore
SplineSet
0 7 m 1
 0 14 l 1
 4 14 l 1
 8 14 l 1
 8 13 l 1
 8 12 l 1
 9 12 l 1
 10 12 l 1
 10 11 l 1
 10 10 l 1
 9 10 l 1
 8 10 l 1
 8 9 l 1
 8 8 l 1
 5 8 l 1
 2 8 l 1
 2 5 l 1
 2 2 l 1
 6 2 l 1
 10 2 l 1
 10 1 l 1
 10 0 l 1
 5 0 l 1
 0 0 l 1
 0 7 l 1
8 11 m 1
 8 12 l 1
 5 12 l 1
 2 12 l 1
 2 11 l 1
 2 10 l 1
 5 10 l 1
 8 10 l 1
 8 11 l 1
EndSplineSet
EndChar

StartChar: glyph2459
Encoding: 4275 4275 46
Width: 15
VWidth: 0
Flags: HMW
LayerCount: 2
Back
Fore
SplineSet
2 13 m 1
 2 14 l 1
 5 14 l 1
 8 14 l 1
 8 13 l 1
 8 12 l 1
 9 12 l 1
 10 12 l 1
 10 8 l 1
 10 4 l 1
 11 4 l 1
 12 4 l 1
 12 3 l 1
 12 2 l 1
 13 2 l 1
 14 2 l 1
 14 1 l 1
 14 0 l 1
 13 0 l 1
 12 0 l 1
 12 1 l 1
 12 2 l 1
 10 2 l 1
 8 2 l 1
 8 1 l 1
 8 0 l 1
 5 0 l 1
 2 0 l 1
 2 1 l 1
 2 2 l 1
 1 2 l 1
 0 2 l 1
 0 7 l 1
 0 12 l 1
 1 12 l 1
 2 12 l 1
 2 13 l 1
8 7 m 1
 8 12 l 1
 5 12 l 1
 2 12 l 1
 2 7 l 1
 2 2 l 1
 5 2 l 1
 8 2 l 1
 8 7 l 1
EndSplineSet
EndChar

StartChar: glyph2460
Encoding: 4276 4276 47
Width: 11
VWidth: 0
Flags: HMW
LayerCount: 2
Back
Fore
SplineSet
2 13 m 1
 2 14 l 1
 5 14 l 1
 8 14 l 1
 8 13 l 1
 8 12 l 1
 9 12 l 1
 10 12 l 1
 10 9 l 1
 10 6 l 1
 9 6 l 1
 8 6 l 1
 8 5 l 1
 8 4 l 1
 7 4 l 1
 6 4 l 1
 6 2 l 1
 6 0 l 1
 5 0 l 1
 4 0 l 1
 4 2 l 1
 4 4 l 1
 3 4 l 1
 2 4 l 1
 2 5 l 1
 2 6 l 1
 1 6 l 1
 0 6 l 1
 0 9 l 1
 0 12 l 1
 1 12 l 1
 2 12 l 1
 2 13 l 1
4 9 m 1
 4 12 l 1
 3 12 l 1
 2 12 l 1
 2 9 l 1
 2 6 l 1
 3 6 l 1
 4 6 l 1
 4 9 l 1
8 9 m 1
 8 12 l 1
 7 12 l 1
 6 12 l 1
 6 9 l 1
 6 6 l 1
 7 6 l 1
 8 6 l 1
 8 9 l 1
EndSplineSet
EndChar

StartChar: glyph2461
Encoding: 4277 4277 48
Width: 11
VWidth: 0
Flags: HMW
LayerCount: 2
Back
Fore
SplineSet
4 12 m 1
 4 14 l 1
 5 14 l 1
 6 14 l 1
 6 12 l 1
 6 10 l 1
 8 10 l 1
 10 10 l 1
 10 8 l 1
 10 6 l 1
 9 6 l 1
 8 6 l 1
 8 7 l 1
 8 8 l 1
 7 8 l 1
 6 8 l 1
 6 4 l 1
 6 0 l 1
 5 0 l 1
 4 0 l 1
 4 4 l 1
 4 8 l 1
 2 8 l 1
 0 8 l 1
 0 10 l 1
 0 12 l 1
 1 12 l 1
 2 12 l 1
 2 11 l 1
 2 10 l 1
 3 10 l 1
 4 10 l 1
 4 12 l 1
EndSplineSet
EndChar

StartChar: glyph2462
Encoding: 4278 4278 49
Width: 11
VWidth: 0
Flags: HMW
LayerCount: 2
Back
Fore
SplineSet
2 13 m 1
 2 14 l 1
 5 14 l 1
 8 14 l 1
 8 13 l 1
 8 12 l 1
 9 12 l 1
 10 12 l 1
 10 6 l 1
 10 0 l 1
 9 0 l 1
 8 0 l 1
 8 6 l 1
 8 12 l 1
 5 12 l 1
 2 12 l 1
 2 6 l 1
 2 0 l 1
 1 0 l 1
 0 0 l 1
 0 6 l 1
 0 12 l 1
 1 12 l 1
 2 12 l 1
 2 13 l 1
EndSplineSet
EndChar

StartChar: glyph2463
Encoding: 4279 4279 50
Width: 11
VWidth: 0
Flags: HMW
LayerCount: 2
Back
Fore
SplineSet
0 11 m 1
 0 14 l 1
 1 14 l 1
 2 14 l 1
 2 11 l 1
 2 8 l 1
 5 8 l 1
 8 8 l 1
 8 11 l 1
 8 14 l 1
 9 14 l 1
 10 14 l 1
 10 7 l 1
 10 0 l 1
 9 0 l 1
 8 0 l 1
 8 3 l 1
 8 6 l 1
 5 6 l 1
 2 6 l 1
 2 7 l 1
 2 8 l 1
 1 8 l 1
 0 8 l 1
 0 11 l 1
EndSplineSet
EndChar

StartChar: glyph2464
Encoding: 4280 4280 51
Width: 11
VWidth: 0
Flags: HMW
LayerCount: 2
Back
Fore
SplineSet
0 11 m 1
 0 14 l 1
 1 14 l 1
 2 14 l 1
 2 11 l 1
 2 8 l 1
 5 8 l 1
 8 8 l 1
 8 11 l 1
 8 14 l 1
 9 14 l 1
 10 14 l 1
 10 8 l 1
 10 2 l 1
 9 2 l 1
 8 2 l 1
 8 1 l 1
 8 0 l 1
 5 0 l 1
 2 0 l 1
 2 1 l 1
 2 2 l 1
 1 2 l 1
 0 2 l 1
 0 3 l 1
 0 4 l 1
 1 4 l 1
 2 4 l 1
 2 3 l 1
 2 2 l 1
 5 2 l 1
 8 2 l 1
 8 4 l 1
 8 6 l 1
 5 6 l 1
 2 6 l 1
 2 7 l 1
 2 8 l 1
 1 8 l 1
 0 8 l 1
 0 11 l 1
EndSplineSet
EndChar

StartChar: glyph2465
Encoding: 4281 4281 52
Width: 11
VWidth: 0
Flags: HMW
LayerCount: 2
Back
Fore
SplineSet
0 7 m 1
 0 14 l 1
 1 14 l 1
 2 14 l 1
 2 12 l 1
 2 10 l 1
 5 10 l 1
 8 10 l 1
 8 9 l 1
 8 8 l 1
 9 8 l 1
 10 8 l 1
 10 4 l 1
 10 0 l 1
 9 0 l 1
 8 0 l 1
 8 4 l 1
 8 8 l 1
 5 8 l 1
 2 8 l 1
 2 4 l 1
 2 0 l 1
 1 0 l 1
 0 0 l 1
 0 7 l 1
EndSplineSet
EndChar

StartChar: glyph2466
Encoding: 4282 4282 53
Width: 11
VWidth: 0
Flags: HMW
LayerCount: 2
Back
Fore
SplineSet
2 13 m 1
 2 14 l 1
 5 14 l 1
 8 14 l 1
 8 13 l 1
 8 12 l 1
 9 12 l 1
 10 12 l 1
 10 11 l 1
 10 10 l 1
 9 10 l 1
 8 10 l 1
 8 11 l 1
 8 12 l 1
 5 12 l 1
 2 12 l 1
 2 7 l 1
 2 2 l 1
 5 2 l 1
 8 2 l 1
 8 3 l 1
 8 4 l 1
 9 4 l 1
 10 4 l 1
 10 1 l 1
 10 -2 l 1
 9 -2 l 1
 8 -2 l 1
 8 -1 l 1
 8 0 l 1
 5 0 l 1
 2 0 l 1
 2 1 l 1
 2 2 l 1
 1 2 l 1
 0 2 l 1
 0 7 l 1
 0 12 l 1
 1 12 l 1
 2 12 l 1
 2 13 l 1
EndSplineSet
EndChar

StartChar: glyph2467
Encoding: 4283 4283 54
Width: 15
VWidth: 0
Flags: HMW
LayerCount: 2
Back
Fore
SplineSet
8 12 m 1
 8 14 l 1
 9 14 l 1
 10 14 l 1
 10 12 l 1
 10 10 l 1
 12 10 l 1
 14 10 l 1
 14 8 l 1
 14 6 l 1
 13 6 l 1
 12 6 l 1
 12 7 l 1
 12 8 l 1
 11 8 l 1
 10 8 l 1
 10 4 l 1
 10 0 l 1
 6 0 l 1
 2 0 l 1
 2 1 l 1
 2 2 l 1
 1 2 l 1
 0 2 l 1
 0 5 l 1
 0 8 l 1
 1 8 l 1
 2 8 l 1
 2 9 l 1
 2 10 l 1
 5 10 l 1
 8 10 l 1
 8 12 l 1
8 5 m 1
 8 8 l 1
 5 8 l 1
 2 8 l 1
 2 5 l 1
 2 2 l 1
 5 2 l 1
 8 2 l 1
 8 5 l 1
EndSplineSet
EndChar

StartChar: glyph2468
Encoding: 4284 4284 55
Width: 11
VWidth: 0
Flags: HMW
LayerCount: 2
Back
Fore
SplineSet
0 7 m 1
 0 14 l 1
 4 14 l 1
 8 14 l 1
 8 13 l 1
 8 12 l 1
 9 12 l 1
 10 12 l 1
 10 11 l 1
 10 10 l 1
 9 10 l 1
 8 10 l 1
 8 9 l 1
 8 8 l 1
 5 8 l 1
 2 8 l 1
 2 7 l 1
 2 6 l 1
 4 6 l 1
 6 6 l 1
 6 4 l 1
 6 2 l 1
 5 2 l 1
 4 2 l 1
 4 3 l 1
 4 4 l 1
 3 4 l 1
 2 4 l 1
 2 2 l 1
 2 0 l 1
 1 0 l 1
 0 0 l 1
 0 7 l 1
8 11 m 1
 8 12 l 1
 5 12 l 1
 2 12 l 1
 2 11 l 1
 2 10 l 1
 5 10 l 1
 8 10 l 1
 8 11 l 1
EndSplineSet
EndChar

StartChar: glyph2469
Encoding: 4285 4285 56
Width: 11
VWidth: 0
Flags: HMW
LayerCount: 2
Back
Fore
SplineSet
2 13 m 1
 2 14 l 1
 6 14 l 1
 10 14 l 1
 10 13 l 1
 10 12 l 1
 6 12 l 1
 2 12 l 1
 2 11 l 1
 2 10 l 1
 5 10 l 1
 8 10 l 1
 8 9 l 1
 8 8 l 1
 9 8 l 1
 10 8 l 1
 10 5 l 1
 10 2 l 1
 9 2 l 1
 8 2 l 1
 8 1 l 1
 8 0 l 1
 5 0 l 1
 2 0 l 1
 2 1 l 1
 2 2 l 1
 1 2 l 1
 0 2 l 1
 0 3 l 1
 0 4 l 1
 1 4 l 1
 2 4 l 1
 2 3 l 1
 2 2 l 1
 5 2 l 1
 8 2 l 1
 8 5 l 1
 8 8 l 1
 5 8 l 1
 2 8 l 1
 2 9 l 1
 2 10 l 1
 1 10 l 1
 0 10 l 1
 0 11 l 1
 0 12 l 1
 1 12 l 1
 2 12 l 1
 2 13 l 1
EndSplineSet
EndChar

StartChar: glyph2470
Encoding: 4286 4286 57
Width: 11
VWidth: 0
Flags: HMW
LayerCount: 2
Back
Fore
SplineSet
0 7 m 1
 0 14 l 1
 1 14 l 1
 2 14 l 1
 2 11 l 1
 2 8 l 1
 5 8 l 1
 8 8 l 1
 8 11 l 1
 8 14 l 1
 9 14 l 1
 10 14 l 1
 10 11 l 1
 10 8 l 1
 9 8 l 1
 8 8 l 1
 8 7 l 1
 8 6 l 1
 5 6 l 1
 2 6 l 1
 2 4 l 1
 2 2 l 1
 6 2 l 1
 10 2 l 1
 10 1 l 1
 10 0 l 1
 5 0 l 1
 0 0 l 1
 0 7 l 1
EndSplineSet
EndChar

StartChar: glyph2471
Encoding: 4287 4287 58
Width: 11
VWidth: 0
Flags: HMW
LayerCount: 2
Back
Fore
SplineSet
0 12 m 1
 0 14 l 1
 5 14 l 1
 10 14 l 1
 10 12 l 1
 10 10 l 1
 9 10 l 1
 8 10 l 1
 8 8 l 1
 8 6 l 1
 7 6 l 1
 6 6 l 1
 6 5 l 1
 6 4 l 1
 7 4 l 1
 8 4 l 1
 8 3 l 1
 8 2 l 1
 9 2 l 1
 10 2 l 1
 10 1 l 1
 10 0 l 1
 9 0 l 1
 8 0 l 1
 8 1 l 1
 8 2 l 1
 7 2 l 1
 6 2 l 1
 6 3 l 1
 6 4 l 1
 5 4 l 1
 4 4 l 1
 4 2 l 1
 4 0 l 1
 3 0 l 1
 2 0 l 1
 2 -1 l 1
 2 -2 l 1
 1 -2 l 1
 0 -2 l 1
 0 -1 l 1
 0 0 l 1
 1 0 l 1
 2 0 l 1
 2 2 l 1
 2 4 l 1
 3 4 l 1
 4 4 l 1
 4 5 l 1
 4 6 l 1
 3 6 l 1
 2 6 l 1
 2 8 l 1
 2 10 l 1
 1 10 l 1
 0 10 l 1
 0 12 l 1
8 11 m 1
 8 12 l 1
 5 12 l 1
 2 12 l 1
 2 11 l 1
 2 10 l 1
 3 10 l 1
 4 10 l 1
 4 8 l 1
 4 6 l 1
 5 6 l 1
 6 6 l 1
 6 8 l 1
 6 10 l 1
 7 10 l 1
 8 10 l 1
 8 11 l 1
EndSplineSet
EndChar

StartChar: glyph2472
Encoding: 268 268 59
Width: 11
VWidth: 0
Flags: HMW
LayerCount: 2
Back
Fore
SplineSet
2 13 m 1
 2 14 l 1
 5 14 l 1
 8 14 l 1
 8 13 l 1
 8 12 l 1
 9 12 l 1
 10 12 l 1
 10 11 l 1
 10 10 l 1
 9 10 l 1
 8 10 l 1
 8 11 l 1
 8 12 l 1
 5 12 l 1
 2 12 l 1
 2 7 l 1
 2 2 l 1
 5 2 l 1
 8 2 l 1
 8 3 l 1
 8 4 l 1
 9 4 l 1
 10 4 l 1
 10 3 l 1
 10 2 l 1
 9 2 l 1
 8 2 l 1
 8 1 l 1
 8 0 l 1
 5 0 l 1
 2 0 l 1
 2 1 l 1
 2 2 l 1
 1 2 l 1
 0 2 l 1
 0 7 l 1
 0 12 l 1
 1 12 l 1
 2 12 l 1
 2 13 l 1
2 19 m 1
 2 20 l 1
 3 20 l 1
 4 20 l 1
 4 19 l 1
 4 18 l 1
 5 18 l 1
 6 18 l 1
 6 19 l 1
 6 20 l 1
 7 20 l 1
 8 20 l 1
 8 19 l 1
 8 18 l 1
 7 18 l 1
 6 18 l 1
 6 17 l 1
 6 16 l 1
 5 16 l 1
 4 16 l 1
 4 17 l 1
 4 18 l 1
 3 18 l 1
 2 18 l 1
 2 19 l 1
EndSplineSet
EndChar

StartChar: glyph2473
Encoding: 4288 4288 60
Width: 15
VWidth: 0
Flags: HMW
LayerCount: 2
Back
Fore
SplineSet
0 12 m 1
 0 14 l 1
 3 14 l 1
 6 14 l 1
 6 8 l 1
 6 2 l 1
 9 2 l 1
 12 2 l 1
 12 4 l 1
 12 6 l 1
 13 6 l 1
 14 6 l 1
 14 4 l 1
 14 2 l 1
 13 2 l 1
 12 2 l 1
 12 1 l 1
 12 0 l 1
 9 0 l 1
 6 0 l 1
 6 1 l 1
 6 2 l 1
 5 2 l 1
 4 2 l 1
 4 7 l 1
 4 12 l 1
 3 12 l 1
 2 12 l 1
 2 11 l 1
 2 10 l 1
 1 10 l 1
 0 10 l 1
 0 12 l 1
EndSplineSet
EndChar

StartChar: glyph2474
Encoding: 4289 4289 61
Width: 11
VWidth: 0
Flags: HMW
LayerCount: 2
Back
Fore
SplineSet
0 7 m 1
 0 14 l 1
 1 14 l 1
 2 14 l 1
 2 12 l 1
 2 10 l 1
 5 10 l 1
 8 10 l 1
 8 9 l 1
 8 8 l 1
 9 8 l 1
 10 8 l 1
 10 7 l 1
 10 6 l 1
 9 6 l 1
 8 6 l 1
 8 7 l 1
 8 8 l 1
 5 8 l 1
 2 8 l 1
 2 4 l 1
 2 0 l 1
 1 0 l 1
 0 0 l 1
 0 7 l 1
EndSplineSet
EndChar

StartChar: glyph2475
Encoding: 4290 4290 62
Width: 11
VWidth: 0
Flags: HMW
LayerCount: 2
Back
Fore
SplineSet
0 12 m 1
 0 14 l 1
 1 14 l 1
 2 14 l 1
 2 13 l 1
 2 12 l 1
 5 12 l 1
 8 12 l 1
 8 11 l 1
 8 10 l 1
 9 10 l 1
 10 10 l 1
 10 6 l 1
 10 2 l 1
 9 2 l 1
 8 2 l 1
 8 1 l 1
 8 0 l 1
 5 0 l 1
 2 0 l 1
 2 1 l 1
 2 2 l 1
 1 2 l 1
 0 2 l 1
 0 3 l 1
 0 4 l 1
 1 4 l 1
 2 4 l 1
 2 3 l 1
 2 2 l 1
 5 2 l 1
 8 2 l 1
 8 6 l 1
 8 10 l 1
 4 10 l 1
 0 10 l 1
 0 12 l 1
EndSplineSet
EndChar

StartChar: glyph2476
Encoding: 4291 4291 63
Width: 11
VWidth: 0
Flags: HMW
LayerCount: 2
Back
Fore
SplineSet
2 13 m 1
 2 14 l 1
 3 14 l 1
 4 14 l 1
 4 13 l 1
 4 12 l 1
 3 12 l 1
 2 12 l 1
 2 10 l 1
 2 8 l 1
 5 8 l 1
 8 8 l 1
 8 11 l 1
 8 14 l 1
 9 14 l 1
 10 14 l 1
 10 7 l 1
 10 0 l 1
 9 0 l 1
 8 0 l 1
 8 3 l 1
 8 6 l 1
 5 6 l 1
 2 6 l 1
 2 7 l 1
 2 8 l 1
 1 8 l 1
 0 8 l 1
 0 10 l 1
 0 12 l 1
 1 12 l 1
 2 12 l 1
 2 13 l 1
EndSplineSet
EndChar

StartChar: glyph2477
Encoding: 4292 4292 64
Width: 11
VWidth: 0
Flags: HMW
LayerCount: 2
Back
Fore
SplineSet
0 11 m 1
 0 14 l 1
 1 14 l 1
 2 14 l 1
 2 11 l 1
 2 8 l 1
 5 8 l 1
 8 8 l 1
 8 11 l 1
 8 14 l 1
 9 14 l 1
 10 14 l 1
 10 11 l 1
 10 8 l 1
 9 8 l 1
 8 8 l 1
 8 7 l 1
 8 6 l 1
 7 6 l 1
 6 6 l 1
 6 3 l 1
 6 0 l 1
 5 0 l 1
 4 0 l 1
 4 3 l 1
 4 6 l 1
 3 6 l 1
 2 6 l 1
 2 7 l 1
 2 8 l 1
 1 8 l 1
 0 8 l 1
 0 11 l 1
EndSplineSet
EndChar

StartChar: glyph2478
Encoding: 4293 4293 65
Width: 15
VWidth: 0
Flags: HMW
LayerCount: 2
Back
Fore
SplineSet
6 10 m 1
 6 14 l 1
 9 14 l 1
 12 14 l 1
 12 13 l 1
 12 12 l 1
 13 12 l 1
 14 12 l 1
 14 11 l 1
 14 10 l 1
 13 10 l 1
 12 10 l 1
 12 9 l 1
 12 8 l 1
 10 8 l 1
 8 8 l 1
 8 7 l 1
 8 6 l 1
 10 6 l 1
 12 6 l 1
 12 5 l 1
 12 4 l 1
 10 4 l 1
 8 4 l 1
 8 2 l 1
 8 0 l 1
 5 0 l 1
 2 0 l 1
 2 1 l 1
 2 2 l 1
 1 2 l 1
 0 2 l 1
 0 3 l 1
 0 4 l 1
 1 4 l 1
 2 4 l 1
 2 5 l 1
 2 6 l 1
 4 6 l 1
 6 6 l 1
 6 10 l 1
12 11 m 1
 12 12 l 1
 10 12 l 1
 8 12 l 1
 8 11 l 1
 8 10 l 1
 10 10 l 1
 12 10 l 1
 12 11 l 1
6 3 m 1
 6 4 l 1
 4 4 l 1
 2 4 l 1
 2 3 l 1
 2 2 l 1
 4 2 l 1
 6 2 l 1
 6 3 l 1
EndSplineSet
EndChar

StartChar: glyph2479
Encoding: 4295 4295 66
Width: 11
VWidth: 0
Flags: HMW
LayerCount: 2
Back
Fore
SplineSet
0 13 m 1
 0 14 l 1
 4 14 l 1
 8 14 l 1
 8 13 l 1
 8 12 l 1
 9 12 l 1
 10 12 l 1
 10 11 l 1
 10 10 l 1
 9 10 l 1
 8 10 l 1
 8 9 l 1
 8 8 l 1
 5 8 l 1
 2 8 l 1
 2 5 l 1
 2 2 l 1
 5 2 l 1
 8 2 l 1
 8 3 l 1
 8 4 l 1
 9 4 l 1
 10 4 l 1
 10 3 l 1
 10 2 l 1
 9 2 l 1
 8 2 l 1
 8 1 l 1
 8 0 l 1
 5 0 l 1
 2 0 l 1
 2 1 l 1
 2 2 l 1
 1 2 l 1
 0 2 l 1
 0 5 l 1
 0 8 l 1
 1 8 l 1
 2 8 l 1
 2 9 l 1
 2 10 l 1
 5 10 l 1
 8 10 l 1
 8 11 l 1
 8 12 l 1
 4 12 l 1
 0 12 l 1
 0 13 l 1
EndSplineSet
EndChar

StartChar: glyph2480
Encoding: 4301 4301 67
Width: 11
VWidth: 0
Flags: HMW
LayerCount: 2
Back
Fore
SplineSet
0 13 m 1
 0 14 l 1
 5 14 l 1
 10 14 l 1
 10 12 l 1
 10 10 l 1
 9 10 l 1
 8 10 l 1
 8 9 l 1
 8 8 l 1
 7 8 l 1
 6 8 l 1
 6 7 l 1
 6 6 l 1
 5 6 l 1
 4 6 l 1
 4 5 l 1
 4 4 l 1
 3 4 l 1
 2 4 l 1
 2 3 l 1
 2 2 l 1
 6 2 l 1
 10 2 l 1
 10 1 l 1
 10 0 l 1
 5 0 l 1
 0 0 l 1
 0 2 l 1
 0 4 l 1
 1 4 l 1
 2 4 l 1
 2 5 l 1
 2 6 l 1
 3 6 l 1
 4 6 l 1
 4 7 l 1
 4 8 l 1
 5 8 l 1
 6 8 l 1
 6 9 l 1
 6 10 l 1
 7 10 l 1
 8 10 l 1
 8 11 l 1
 8 12 l 1
 4 12 l 1
 0 12 l 1
 0 13 l 1
EndSplineSet
EndChar

StartChar: glyph2481
Encoding: 269 269 68
Width: 11
VWidth: 0
Flags: HMW
LayerCount: 2
Back
Fore
SplineSet
2 9 m 1
 2 10 l 1
 5 10 l 1
 8 10 l 1
 8 9 l 1
 8 8 l 1
 9 8 l 1
 10 8 l 1
 10 7 l 1
 10 6 l 1
 9 6 l 1
 8 6 l 1
 8 7 l 1
 8 8 l 1
 5 8 l 1
 2 8 l 1
 2 5 l 1
 2 2 l 1
 5 2 l 1
 8 2 l 1
 8 3 l 1
 8 4 l 1
 9 4 l 1
 10 4 l 1
 10 3 l 1
 10 2 l 1
 9 2 l 1
 8 2 l 1
 8 1 l 1
 8 0 l 1
 5 0 l 1
 2 0 l 1
 2 1 l 1
 2 2 l 1
 1 2 l 1
 0 2 l 1
 0 5 l 1
 0 8 l 1
 1 8 l 1
 2 8 l 1
 2 9 l 1
2 15 m 1
 2 16 l 1
 3 16 l 1
 4 16 l 1
 4 15 l 1
 4 14 l 1
 5 14 l 1
 6 14 l 1
 6 15 l 1
 6 16 l 1
 7 16 l 1
 8 16 l 1
 8 15 l 1
 8 14 l 1
 7 14 l 1
 6 14 l 1
 6 13 l 1
 6 12 l 1
 5 12 l 1
 4 12 l 1
 4 13 l 1
 4 14 l 1
 3 14 l 1
 2 14 l 1
 2 15 l 1
EndSplineSet
EndChar

StartChar: glyph2482
Encoding: 4304 4304 69
Width: 11
VWidth: 0
Flags: HMW
LayerCount: 2
Back
Fore
SplineSet
4 8 m 1
 4 10 l 1
 5 10 l 1
 6 10 l 1
 6 9 l 1
 6 8 l 1
 7 8 l 1
 8 8 l 1
 8 7 l 1
 8 6 l 1
 9 6 l 1
 10 6 l 1
 10 4 l 1
 10 2 l 1
 9 2 l 1
 8 2 l 1
 8 1 l 1
 8 0 l 1
 5 0 l 1
 2 0 l 1
 2 1 l 1
 2 2 l 1
 1 2 l 1
 0 2 l 1
 0 3 l 1
 0 4 l 1
 1 4 l 1
 2 4 l 1
 2 3 l 1
 2 2 l 1
 5 2 l 1
 8 2 l 1
 8 4 l 1
 8 6 l 1
 6 6 l 1
 4 6 l 1
 4 8 l 1
EndSplineSet
EndChar

StartChar: glyph2483
Encoding: 4305 4305 70
Width: 11
VWidth: 0
Flags: HMW
LayerCount: 2
Back
Fore
SplineSet
0 13 m 1
 0 14 l 1
 3 14 l 1
 6 14 l 1
 6 11 l 1
 6 8 l 1
 7 8 l 1
 8 8 l 1
 8 7 l 1
 8 6 l 1
 9 6 l 1
 10 6 l 1
 10 4 l 1
 10 2 l 1
 9 2 l 1
 8 2 l 1
 8 1 l 1
 8 0 l 1
 5 0 l 1
 2 0 l 1
 2 1 l 1
 2 2 l 1
 1 2 l 1
 0 2 l 1
 0 4 l 1
 0 6 l 1
 1 6 l 1
 2 6 l 1
 2 7 l 1
 2 8 l 1
 3 8 l 1
 4 8 l 1
 4 10 l 1
 4 12 l 1
 2 12 l 1
 0 12 l 1
 0 13 l 1
8 4 m 1
 8 6 l 1
 5 6 l 1
 2 6 l 1
 2 4 l 1
 2 2 l 1
 5 2 l 1
 8 2 l 1
 8 4 l 1
EndSplineSet
EndChar

StartChar: glyph2484
Encoding: 4306 4306 71
Width: 11
VWidth: 0
Flags: HMW
LayerCount: 2
Back
Fore
SplineSet
0 9 m 1
 0 10 l 1
 3 10 l 1
 6 10 l 1
 6 9 l 1
 6 8 l 1
 7 8 l 1
 8 8 l 1
 8 6 l 1
 8 4 l 1
 9 4 l 1
 10 4 l 1
 10 2 l 1
 10 0 l 1
 9 0 l 1
 8 0 l 1
 8 -1 l 1
 8 -2 l 1
 5 -2 l 1
 2 -2 l 1
 2 -1 l 1
 2 0 l 1
 1 0 l 1
 0 0 l 1
 0 2 l 1
 0 4 l 1
 1 4 l 1
 2 4 l 1
 2 5 l 1
 2 6 l 1
 4 6 l 1
 6 6 l 1
 6 7 l 1
 6 8 l 1
 3 8 l 1
 0 8 l 1
 0 9 l 1
8 2 m 1
 8 4 l 1
 5 4 l 1
 2 4 l 1
 2 2 l 1
 2 0 l 1
 5 0 l 1
 8 0 l 1
 8 2 l 1
EndSplineSet
EndChar

StartChar: glyph2485
Encoding: 4307 4307 72
Width: 11
VWidth: 0
Flags: HMW
LayerCount: 2
Back
Fore
SplineSet
2 9 m 1
 2 10 l 1
 3 10 l 1
 4 10 l 1
 4 9 l 1
 4 8 l 1
 5 8 l 1
 6 8 l 1
 6 9 l 1
 6 10 l 1
 7 10 l 1
 8 10 l 1
 8 9 l 1
 8 8 l 1
 9 8 l 1
 10 8 l 1
 10 7 l 1
 10 6 l 1
 9 6 l 1
 8 6 l 1
 8 5 l 1
 8 4 l 1
 7 4 l 1
 6 4 l 1
 6 5 l 1
 6 6 l 1
 5 6 l 1
 4 6 l 1
 4 7 l 1
 4 8 l 1
 3 8 l 1
 2 8 l 1
 2 6 l 1
 2 4 l 1
 3 4 l 1
 4 4 l 1
 4 3 l 1
 4 2 l 1
 5 2 l 1
 6 2 l 1
 6 1 l 1
 6 0 l 1
 7 0 l 1
 8 0 l 1
 8 -1 l 1
 8 -2 l 1
 7 -2 l 1
 6 -2 l 1
 6 -1 l 1
 6 0 l 1
 3 0 l 1
 0 0 l 1
 0 1 l 1
 0 2 l 1
 1 2 l 1
 2 2 l 1
 2 3 l 1
 2 4 l 1
 1 4 l 1
 0 4 l 1
 0 6 l 1
 0 8 l 1
 1 8 l 1
 2 8 l 1
 2 9 l 1
8 7 m 1
 8 8 l 1
 7 8 l 1
 6 8 l 1
 6 7 l 1
 6 6 l 1
 7 6 l 1
 8 6 l 1
 8 7 l 1
EndSplineSet
EndChar

StartChar: glyph2486
Encoding: 4308 4308 73
Width: 11
VWidth: 0
Flags: HMW
LayerCount: 2
Back
Fore
SplineSet
2 9 m 1
 2 10 l 1
 5 10 l 1
 8 10 l 1
 8 9 l 1
 8 8 l 1
 9 8 l 1
 10 8 l 1
 10 4 l 1
 10 0 l 1
 9 0 l 1
 8 0 l 1
 8 -1 l 1
 8 -2 l 1
 5 -2 l 1
 2 -2 l 1
 2 -1 l 1
 2 0 l 1
 1 0 l 1
 0 0 l 1
 0 1 l 1
 0 2 l 1
 1 2 l 1
 2 2 l 1
 2 1 l 1
 2 0 l 1
 5 0 l 1
 8 0 l 1
 8 4 l 1
 8 8 l 1
 5 8 l 1
 2 8 l 1
 2 7 l 1
 2 6 l 1
 1 6 l 1
 0 6 l 1
 0 7 l 1
 0 8 l 1
 1 8 l 1
 2 8 l 1
 2 9 l 1
EndSplineSet
EndChar

StartChar: glyph2487
Encoding: 4309 4309 74
Width: 11
VWidth: 0
Flags: HMW
LayerCount: 2
Back
Fore
SplineSet
2 9 m 1
 2 10 l 1
 5 10 l 1
 8 10 l 1
 8 9 l 1
 8 8 l 1
 9 8 l 1
 10 8 l 1
 10 7 l 1
 10 6 l 1
 9 6 l 1
 8 6 l 1
 8 5 l 1
 8 4 l 1
 9 4 l 1
 10 4 l 1
 10 2 l 1
 10 0 l 1
 9 0 l 1
 8 0 l 1
 8 -1 l 1
 8 -2 l 1
 5 -2 l 1
 2 -2 l 1
 2 -1 l 1
 2 0 l 1
 1 0 l 1
 0 0 l 1
 0 1 l 1
 0 2 l 1
 1 2 l 1
 2 2 l 1
 2 1 l 1
 2 0 l 1
 5 0 l 1
 8 0 l 1
 8 2 l 1
 8 4 l 1
 6 4 l 1
 4 4 l 1
 4 5 l 1
 4 6 l 1
 6 6 l 1
 8 6 l 1
 8 7 l 1
 8 8 l 1
 5 8 l 1
 2 8 l 1
 2 7 l 1
 2 6 l 1
 1 6 l 1
 0 6 l 1
 0 7 l 1
 0 8 l 1
 1 8 l 1
 2 8 l 1
 2 9 l 1
EndSplineSet
EndChar

StartChar: glyph2488
Encoding: 4310 4310 75
Width: 11
VWidth: 0
Flags: HMW
LayerCount: 2
Back
Fore
SplineSet
2 13 m 1
 2 14 l 1
 3 14 l 1
 4 14 l 1
 4 13 l 1
 4 12 l 1
 5 12 l 1
 6 12 l 1
 6 10 l 1
 6 8 l 1
 7 8 l 1
 8 8 l 1
 8 7 l 1
 8 6 l 1
 9 6 l 1
 10 6 l 1
 10 4 l 1
 10 2 l 1
 9 2 l 1
 8 2 l 1
 8 1 l 1
 8 0 l 1
 7 0 l 1
 6 0 l 1
 6 1 l 1
 6 2 l 1
 5 2 l 1
 4 2 l 1
 4 4 l 1
 4 6 l 1
 3 6 l 1
 2 6 l 1
 2 7 l 1
 2 8 l 1
 1 8 l 1
 0 8 l 1
 0 10 l 1
 0 12 l 1
 1 12 l 1
 2 12 l 1
 2 13 l 1
4 10 m 1
 4 12 l 1
 3 12 l 1
 2 12 l 1
 2 10 l 1
 2 8 l 1
 3 8 l 1
 4 8 l 1
 4 10 l 1
8 4 m 1
 8 6 l 1
 7 6 l 1
 6 6 l 1
 6 4 l 1
 6 2 l 1
 7 2 l 1
 8 2 l 1
 8 4 l 1
EndSplineSet
EndChar

StartChar: glyph2489
Encoding: 4311 4311 76
Width: 11
VWidth: 0
Flags: HMW
LayerCount: 2
Back
Fore
SplineSet
2 9 m 1
 2 10 l 1
 3 10 l 1
 4 10 l 1
 4 9 l 1
 4 8 l 1
 5 8 l 1
 6 8 l 1
 6 9 l 1
 6 10 l 1
 7 10 l 1
 8 10 l 1
 8 9 l 1
 8 8 l 1
 9 8 l 1
 10 8 l 1
 10 4 l 1
 10 0 l 1
 9 0 l 1
 8 0 l 1
 8 4 l 1
 8 8 l 1
 7 8 l 1
 6 8 l 1
 6 5 l 1
 6 2 l 1
 5 2 l 1
 4 2 l 1
 4 1 l 1
 4 0 l 1
 3 0 l 1
 2 0 l 1
 2 1 l 1
 2 2 l 1
 1 2 l 1
 0 2 l 1
 0 5 l 1
 0 8 l 1
 1 8 l 1
 2 8 l 1
 2 9 l 1
4 5 m 1
 4 8 l 1
 3 8 l 1
 2 8 l 1
 2 5 l 1
 2 2 l 1
 3 2 l 1
 4 2 l 1
 4 5 l 1
EndSplineSet
EndChar

StartChar: glyph2490
Encoding: 4312 4312 77
Width: 11
VWidth: 0
Flags: HMW
LayerCount: 2
Back
Fore
SplineSet
2 9 m 1
 2 10 l 1
 5 10 l 1
 8 10 l 1
 8 9 l 1
 8 8 l 1
 9 8 l 1
 10 8 l 1
 10 5 l 1
 10 2 l 1
 9 2 l 1
 8 2 l 1
 8 1 l 1
 8 0 l 1
 7 0 l 1
 6 0 l 1
 6 1 l 1
 6 2 l 1
 7 2 l 1
 8 2 l 1
 8 5 l 1
 8 8 l 1
 5 8 l 1
 2 8 l 1
 2 5 l 1
 2 2 l 1
 3 2 l 1
 4 2 l 1
 4 1 l 1
 4 0 l 1
 3 0 l 1
 2 0 l 1
 2 1 l 1
 2 2 l 1
 1 2 l 1
 0 2 l 1
 0 5 l 1
 0 8 l 1
 1 8 l 1
 2 8 l 1
 2 9 l 1
EndSplineSet
EndChar

StartChar: glyph2491
Encoding: 4313 4313 78
Width: 11
VWidth: 0
Flags: HMW
LayerCount: 2
Back
Fore
SplineSet
6 9 m 1
 6 10 l 1
 7 10 l 1
 8 10 l 1
 8 9 l 1
 8 8 l 1
 9 8 l 1
 10 8 l 1
 10 7 l 1
 10 6 l 1
 9 6 l 1
 8 6 l 1
 8 5 l 1
 8 4 l 1
 9 4 l 1
 10 4 l 1
 10 2 l 1
 10 0 l 1
 9 0 l 1
 8 0 l 1
 8 -1 l 1
 8 -2 l 1
 5 -2 l 1
 2 -2 l 1
 2 -1 l 1
 2 0 l 1
 1 0 l 1
 0 0 l 1
 0 1 l 1
 0 2 l 1
 1 2 l 1
 2 2 l 1
 2 1 l 1
 2 0 l 1
 5 0 l 1
 8 0 l 1
 8 2 l 1
 8 4 l 1
 7 4 l 1
 6 4 l 1
 6 5 l 1
 6 6 l 1
 7 6 l 1
 8 6 l 1
 8 7 l 1
 8 8 l 1
 7 8 l 1
 6 8 l 1
 6 9 l 1
EndSplineSet
EndChar

StartChar: glyph2492
Encoding: 4314 4314 79
Width: 15
VWidth: 0
Flags: HMW
LayerCount: 2
Back
Fore
SplineSet
2 9 m 1
 2 10 l 1
 3 10 l 1
 4 10 l 1
 4 9 l 1
 4 8 l 1
 5 8 l 1
 6 8 l 1
 6 9 l 1
 6 10 l 1
 7 10 l 1
 8 10 l 1
 8 9 l 1
 8 8 l 1
 9 8 l 1
 10 8 l 1
 10 9 l 1
 10 10 l 1
 11 10 l 1
 12 10 l 1
 12 9 l 1
 12 8 l 1
 13 8 l 1
 14 8 l 1
 14 6 l 1
 14 4 l 1
 13 4 l 1
 12 4 l 1
 12 6 l 1
 12 8 l 1
 11 8 l 1
 10 8 l 1
 10 7 l 1
 10 6 l 1
 9 6 l 1
 8 6 l 1
 8 7 l 1
 8 8 l 1
 7 8 l 1
 6 8 l 1
 6 7 l 1
 6 6 l 1
 5 6 l 1
 4 6 l 1
 4 7 l 1
 4 8 l 1
 3 8 l 1
 2 8 l 1
 2 6 l 1
 2 4 l 1
 4 4 l 1
 6 4 l 1
 6 3 l 1
 6 2 l 1
 8 2 l 1
 10 2 l 1
 10 1 l 1
 10 0 l 1
 11 0 l 1
 12 0 l 1
 12 -1 l 1
 12 -2 l 1
 11 -2 l 1
 10 -2 l 1
 10 -1 l 1
 10 0 l 1
 8 0 l 1
 6 0 l 1
 6 1 l 1
 6 2 l 1
 4 2 l 1
 2 2 l 1
 2 1 l 1
 2 0 l 1
 1 0 l 1
 0 0 l 1
 0 1 l 1
 0 2 l 1
 1 2 l 1
 2 2 l 1
 2 3 l 1
 2 4 l 1
 1 4 l 1
 0 4 l 1
 0 6 l 1
 0 8 l 1
 1 8 l 1
 2 8 l 1
 2 9 l 1
EndSplineSet
EndChar

StartChar: glyph2493
Encoding: 4315 4315 80
Width: 11
VWidth: 0
Flags: HMW
LayerCount: 2
Back
Fore
SplineSet
2 13 m 1
 2 14 l 1
 5 14 l 1
 8 14 l 1
 8 13 l 1
 8 12 l 1
 9 12 l 1
 10 12 l 1
 10 7 l 1
 10 2 l 1
 9 2 l 1
 8 2 l 1
 8 1 l 1
 8 0 l 1
 5 0 l 1
 2 0 l 1
 2 1 l 1
 2 2 l 1
 1 2 l 1
 0 2 l 1
 0 5 l 1
 0 8 l 1
 1 8 l 1
 2 8 l 1
 2 9 l 1
 2 10 l 1
 4 10 l 1
 6 10 l 1
 6 9 l 1
 6 8 l 1
 7 8 l 1
 8 8 l 1
 8 10 l 1
 8 12 l 1
 5 12 l 1
 2 12 l 1
 2 13 l 1
6 7 m 1
 6 8 l 1
 4 8 l 1
 2 8 l 1
 2 5 l 1
 2 2 l 1
 5 2 l 1
 8 2 l 1
 8 4 l 1
 8 6 l 1
 7 6 l 1
 6 6 l 1
 6 7 l 1
EndSplineSet
EndChar

StartChar: glyph2494
Encoding: 4316 4316 81
Width: 11
VWidth: 0
Flags: HMW
LayerCount: 2
Back
Fore
SplineSet
0 8 m 1
 0 14 l 1
 5 14 l 1
 10 14 l 1
 10 13 l 1
 10 12 l 1
 6 12 l 1
 2 12 l 1
 2 10 l 1
 2 8 l 1
 3 8 l 1
 4 8 l 1
 4 9 l 1
 4 10 l 1
 6 10 l 1
 8 10 l 1
 8 9 l 1
 8 8 l 1
 9 8 l 1
 10 8 l 1
 10 5 l 1
 10 2 l 1
 9 2 l 1
 8 2 l 1
 8 1 l 1
 8 0 l 1
 5 0 l 1
 2 0 l 1
 2 1 l 1
 2 2 l 1
 1 2 l 1
 0 2 l 1
 0 8 l 1
8 5 m 1
 8 8 l 1
 6 8 l 1
 4 8 l 1
 4 7 l 1
 4 6 l 1
 3 6 l 1
 2 6 l 1
 2 4 l 1
 2 2 l 1
 5 2 l 1
 8 2 l 1
 8 5 l 1
EndSplineSet
EndChar

StartChar: glyph2495
Encoding: 4317 4317 82
Width: 11
VWidth: 0
Flags: HMW
LayerCount: 2
Back
Fore
SplineSet
2 9 m 1
 2 10 l 1
 3 10 l 1
 4 10 l 1
 4 9 l 1
 4 8 l 1
 5 8 l 1
 6 8 l 1
 6 9 l 1
 6 10 l 1
 7 10 l 1
 8 10 l 1
 8 9 l 1
 8 8 l 1
 9 8 l 1
 10 8 l 1
 10 5 l 1
 10 2 l 1
 9 2 l 1
 8 2 l 1
 8 1 l 1
 8 0 l 1
 7 0 l 1
 6 0 l 1
 6 1 l 1
 6 2 l 1
 7 2 l 1
 8 2 l 1
 8 5 l 1
 8 8 l 1
 7 8 l 1
 6 8 l 1
 6 6 l 1
 6 4 l 1
 5 4 l 1
 4 4 l 1
 4 6 l 1
 4 8 l 1
 3 8 l 1
 2 8 l 1
 2 5 l 1
 2 2 l 1
 3 2 l 1
 4 2 l 1
 4 1 l 1
 4 0 l 1
 3 0 l 1
 2 0 l 1
 2 1 l 1
 2 2 l 1
 1 2 l 1
 0 2 l 1
 0 5 l 1
 0 8 l 1
 1 8 l 1
 2 8 l 1
 2 9 l 1
EndSplineSet
EndChar

StartChar: glyph2496
Encoding: 4318 4318 83
Width: 11
VWidth: 0
Flags: HMW
LayerCount: 2
Back
Fore
SplineSet
0 13 m 1
 0 14 l 1
 1 14 l 1
 2 14 l 1
 2 13 l 1
 2 12 l 1
 5 12 l 1
 8 12 l 1
 8 11 l 1
 8 10 l 1
 9 10 l 1
 10 10 l 1
 10 8 l 1
 10 6 l 1
 9 6 l 1
 8 6 l 1
 8 5 l 1
 8 4 l 1
 9 4 l 1
 10 4 l 1
 10 2 l 1
 10 0 l 1
 9 0 l 1
 8 0 l 1
 8 -1 l 1
 8 -2 l 1
 5 -2 l 1
 2 -2 l 1
 2 -1 l 1
 2 0 l 1
 1 0 l 1
 0 0 l 1
 0 1 l 1
 0 2 l 1
 1 2 l 1
 2 2 l 1
 2 1 l 1
 2 0 l 1
 5 0 l 1
 8 0 l 1
 8 2 l 1
 8 4 l 1
 6 4 l 1
 4 4 l 1
 4 5 l 1
 4 6 l 1
 6 6 l 1
 8 6 l 1
 8 8 l 1
 8 10 l 1
 5 10 l 1
 2 10 l 1
 2 11 l 1
 2 12 l 1
 1 12 l 1
 0 12 l 1
 0 13 l 1
EndSplineSet
EndChar

StartChar: glyph2497
Encoding: 4319 4319 84
Width: 11
VWidth: 0
Flags: HMW
LayerCount: 2
Back
Fore
SplineSet
4 8 m 1
 4 10 l 1
 7 10 l 1
 10 10 l 1
 10 5 l 1
 10 0 l 1
 9 0 l 1
 8 0 l 1
 8 -1 l 1
 8 -2 l 1
 5 -2 l 1
 2 -2 l 1
 2 -1 l 1
 2 0 l 1
 1 0 l 1
 0 0 l 1
 0 1 l 1
 0 2 l 1
 1 2 l 1
 2 2 l 1
 2 1 l 1
 2 0 l 1
 5 0 l 1
 8 0 l 1
 8 4 l 1
 8 8 l 1
 7 8 l 1
 6 8 l 1
 6 7 l 1
 6 6 l 1
 5 6 l 1
 4 6 l 1
 4 5 l 1
 4 4 l 1
 3 4 l 1
 2 4 l 1
 2 5 l 1
 2 6 l 1
 1 6 l 1
 0 6 l 1
 0 7 l 1
 0 8 l 1
 1 8 l 1
 2 8 l 1
 2 7 l 1
 2 6 l 1
 3 6 l 1
 4 6 l 1
 4 8 l 1
EndSplineSet
EndChar

StartChar: glyph2498
Encoding: 270 270 85
Width: 11
VWidth: 0
Flags: HMW
LayerCount: 2
Back
Fore
SplineSet
0 7 m 1
 0 14 l 1
 4 14 l 1
 8 14 l 1
 8 13 l 1
 8 12 l 1
 9 12 l 1
 10 12 l 1
 10 7 l 1
 10 2 l 1
 9 2 l 1
 8 2 l 1
 8 1 l 1
 8 0 l 1
 4 0 l 1
 0 0 l 1
 0 7 l 1
8 7 m 1
 8 12 l 1
 5 12 l 1
 2 12 l 1
 2 7 l 1
 2 2 l 1
 5 2 l 1
 8 2 l 1
 8 7 l 1
2 19 m 1
 2 20 l 1
 3 20 l 1
 4 20 l 1
 4 19 l 1
 4 18 l 1
 5 18 l 1
 6 18 l 1
 6 19 l 1
 6 20 l 1
 7 20 l 1
 8 20 l 1
 8 19 l 1
 8 18 l 1
 7 18 l 1
 6 18 l 1
 6 17 l 1
 6 16 l 1
 5 16 l 1
 4 16 l 1
 4 17 l 1
 4 18 l 1
 3 18 l 1
 2 18 l 1
 2 19 l 1
EndSplineSet
EndChar

StartChar: glyph2499
Encoding: 4320 4320 86
Width: 11
VWidth: 0
Flags: HMW
LayerCount: 2
Back
Fore
SplineSet
8 13 m 1
 8 14 l 1
 9 14 l 1
 10 14 l 1
 10 13 l 1
 10 12 l 1
 9 12 l 1
 8 12 l 1
 8 11 l 1
 8 10 l 1
 5 10 l 1
 2 10 l 1
 2 9 l 1
 2 8 l 1
 3 8 l 1
 4 8 l 1
 4 7 l 1
 4 6 l 1
 5 6 l 1
 6 6 l 1
 6 7 l 1
 6 8 l 1
 7 8 l 1
 8 8 l 1
 8 7 l 1
 8 6 l 1
 9 6 l 1
 10 6 l 1
 10 4 l 1
 10 2 l 1
 9 2 l 1
 8 2 l 1
 8 1 l 1
 8 0 l 1
 7 0 l 1
 6 0 l 1
 6 1 l 1
 6 2 l 1
 7 2 l 1
 8 2 l 1
 8 4 l 1
 8 6 l 1
 7 6 l 1
 6 6 l 1
 6 5 l 1
 6 4 l 1
 5 4 l 1
 4 4 l 1
 4 5 l 1
 4 6 l 1
 3 6 l 1
 2 6 l 1
 2 4 l 1
 2 2 l 1
 3 2 l 1
 4 2 l 1
 4 1 l 1
 4 0 l 1
 3 0 l 1
 2 0 l 1
 2 1 l 1
 2 2 l 1
 1 2 l 1
 0 2 l 1
 0 6 l 1
 0 10 l 1
 1 10 l 1
 2 10 l 1
 2 11 l 1
 2 12 l 1
 5 12 l 1
 8 12 l 1
 8 13 l 1
EndSplineSet
EndChar

StartChar: glyph2500
Encoding: 4321 4321 87
Width: 11
VWidth: 0
Flags: HMW
LayerCount: 2
Back
Fore
SplineSet
0 8 m 1
 0 14 l 1
 1 14 l 1
 2 14 l 1
 2 8 l 1
 2 2 l 1
 5 2 l 1
 8 2 l 1
 8 5 l 1
 8 8 l 1
 7 8 l 1
 6 8 l 1
 6 9 l 1
 6 10 l 1
 7 10 l 1
 8 10 l 1
 8 9 l 1
 8 8 l 1
 9 8 l 1
 10 8 l 1
 10 5 l 1
 10 2 l 1
 9 2 l 1
 8 2 l 1
 8 1 l 1
 8 0 l 1
 5 0 l 1
 2 0 l 1
 2 1 l 1
 2 2 l 1
 1 2 l 1
 0 2 l 1
 0 8 l 1
EndSplineSet
EndChar

StartChar: glyph2501
Encoding: 4322 4322 88
Width: 11
VWidth: 0
Flags: HMW
LayerCount: 2
Back
Fore
SplineSet
4 11 m 1
 4 12 l 1
 5 12 l 1
 6 12 l 1
 6 11 l 1
 6 10 l 1
 7 10 l 1
 8 10 l 1
 8 8 l 1
 8 6 l 1
 9 6 l 1
 10 6 l 1
 10 3 l 1
 10 0 l 1
 9 0 l 1
 8 0 l 1
 8 -1 l 1
 8 -2 l 1
 5 -2 l 1
 2 -2 l 1
 2 -1 l 1
 2 0 l 1
 1 0 l 1
 0 0 l 1
 0 3 l 1
 0 6 l 1
 1 6 l 1
 2 6 l 1
 2 3 l 1
 2 0 l 1
 5 0 l 1
 8 0 l 1
 8 3 l 1
 8 6 l 1
 7 6 l 1
 6 6 l 1
 6 5 l 1
 6 4 l 1
 5 4 l 1
 4 4 l 1
 4 6 l 1
 4 8 l 1
 3 8 l 1
 2 8 l 1
 2 9 l 1
 2 10 l 1
 3 10 l 1
 4 10 l 1
 4 11 l 1
6 9 m 1
 6 10 l 1
 5 10 l 1
 4 10 l 1
 4 9 l 1
 4 8 l 1
 5 8 l 1
 6 8 l 1
 6 9 l 1
EndSplineSet
EndChar

StartChar: glyph2502
Encoding: 4323 4323 89
Width: 11
VWidth: 0
Flags: HMW
LayerCount: 2
Back
Fore
SplineSet
2 9 m 1
 2 10 l 1
 3 10 l 1
 4 10 l 1
 4 9 l 1
 4 8 l 1
 5 8 l 1
 6 8 l 1
 6 9 l 1
 6 10 l 1
 7 10 l 1
 8 10 l 1
 8 9 l 1
 8 8 l 1
 9 8 l 1
 10 8 l 1
 10 4 l 1
 10 0 l 1
 9 0 l 1
 8 0 l 1
 8 -1 l 1
 8 -2 l 1
 5 -2 l 1
 2 -2 l 1
 2 -1 l 1
 2 0 l 1
 1 0 l 1
 0 0 l 1
 0 1 l 1
 0 2 l 1
 1 2 l 1
 2 2 l 1
 2 1 l 1
 2 0 l 1
 5 0 l 1
 8 0 l 1
 8 4 l 1
 8 8 l 1
 7 8 l 1
 6 8 l 1
 6 7 l 1
 6 6 l 1
 5 6 l 1
 4 6 l 1
 4 7 l 1
 4 8 l 1
 3 8 l 1
 2 8 l 1
 2 7 l 1
 2 6 l 1
 1 6 l 1
 0 6 l 1
 0 7 l 1
 0 8 l 1
 1 8 l 1
 2 8 l 1
 2 9 l 1
EndSplineSet
EndChar

StartChar: glyph2503
Encoding: 4324 4324 90
Width: 11
VWidth: 0
Flags: HMW
LayerCount: 2
Back
Fore
SplineSet
2 9 m 1
 2 10 l 1
 3 10 l 1
 4 10 l 1
 4 9 l 1
 4 8 l 1
 5 8 l 1
 6 8 l 1
 6 9 l 1
 6 10 l 1
 7 10 l 1
 8 10 l 1
 8 9 l 1
 8 8 l 1
 9 8 l 1
 10 8 l 1
 10 6 l 1
 10 4 l 1
 9 4 l 1
 8 4 l 1
 8 3 l 1
 8 2 l 1
 9 2 l 1
 10 2 l 1
 10 1 l 1
 10 0 l 1
 9 0 l 1
 8 0 l 1
 8 -1 l 1
 8 -2 l 1
 6 -2 l 1
 4 -2 l 1
 4 -1 l 1
 4 0 l 1
 3 0 l 1
 2 0 l 1
 2 1 l 1
 2 2 l 1
 3 2 l 1
 4 2 l 1
 4 1 l 1
 4 0 l 1
 6 0 l 1
 8 0 l 1
 8 1 l 1
 8 2 l 1
 7 2 l 1
 6 2 l 1
 6 3 l 1
 6 4 l 1
 7 4 l 1
 8 4 l 1
 8 6 l 1
 8 8 l 1
 7 8 l 1
 6 8 l 1
 6 7 l 1
 6 6 l 1
 5 6 l 1
 4 6 l 1
 4 5 l 1
 4 4 l 1
 3 4 l 1
 2 4 l 1
 2 5 l 1
 2 6 l 1
 1 6 l 1
 0 6 l 1
 0 7 l 1
 0 8 l 1
 1 8 l 1
 2 8 l 1
 2 9 l 1
4 7 m 1
 4 8 l 1
 3 8 l 1
 2 8 l 1
 2 7 l 1
 2 6 l 1
 3 6 l 1
 4 6 l 1
 4 7 l 1
EndSplineSet
EndChar

StartChar: glyph2504
Encoding: 4325 4325 91
Width: 11
VWidth: 0
Flags: HMW
LayerCount: 2
Back
Fore
SplineSet
8 11 m 1
 8 14 l 1
 9 14 l 1
 10 14 l 1
 10 7 l 1
 10 0 l 1
 9 0 l 1
 8 0 l 1
 8 -1 l 1
 8 -2 l 1
 5 -2 l 1
 2 -2 l 1
 2 -1 l 1
 2 0 l 1
 1 0 l 1
 0 0 l 1
 0 1 l 1
 0 2 l 1
 1 2 l 1
 2 2 l 1
 2 1 l 1
 2 0 l 1
 5 0 l 1
 8 0 l 1
 8 3 l 1
 8 6 l 1
 6 6 l 1
 4 6 l 1
 4 5 l 1
 4 4 l 1
 3 4 l 1
 2 4 l 1
 2 5 l 1
 2 6 l 1
 3 6 l 1
 4 6 l 1
 4 7 l 1
 4 8 l 1
 6 8 l 1
 8 8 l 1
 8 11 l 1
EndSplineSet
EndChar

StartChar: glyph2505
Encoding: 4326 4326 92
Width: 11
VWidth: 0
Flags: HMW
LayerCount: 2
Back
Fore
SplineSet
2 9 m 1
 2 10 l 1
 3 10 l 1
 4 10 l 1
 4 9 l 1
 4 8 l 1
 5 8 l 1
 6 8 l 1
 6 9 l 1
 6 10 l 1
 7 10 l 1
 8 10 l 1
 8 9 l 1
 8 8 l 1
 9 8 l 1
 10 8 l 1
 10 6 l 1
 10 4 l 1
 9 4 l 1
 8 4 l 1
 8 6 l 1
 8 8 l 1
 7 8 l 1
 6 8 l 1
 6 7 l 1
 6 6 l 1
 5 6 l 1
 4 6 l 1
 4 7 l 1
 4 8 l 1
 3 8 l 1
 2 8 l 1
 2 6 l 1
 2 4 l 1
 3 4 l 1
 4 4 l 1
 4 3 l 1
 4 2 l 1
 5 2 l 1
 6 2 l 1
 6 1 l 1
 6 0 l 1
 7 0 l 1
 8 0 l 1
 8 -1 l 1
 8 -2 l 1
 7 -2 l 1
 6 -2 l 1
 6 -1 l 1
 6 0 l 1
 3 0 l 1
 0 0 l 1
 0 1 l 1
 0 2 l 1
 1 2 l 1
 2 2 l 1
 2 3 l 1
 2 4 l 1
 1 4 l 1
 0 4 l 1
 0 6 l 1
 0 8 l 1
 1 8 l 1
 2 8 l 1
 2 9 l 1
EndSplineSet
EndChar

StartChar: glyph2506
Encoding: 4327 4327 93
Width: 11
VWidth: 0
Flags: HMW
LayerCount: 2
Back
Fore
SplineSet
2 9 m 1
 2 10 l 1
 3 10 l 1
 4 10 l 1
 4 9 l 1
 4 8 l 1
 3 8 l 1
 2 8 l 1
 2 6 l 1
 2 4 l 1
 5 4 l 1
 8 4 l 1
 8 7 l 1
 8 10 l 1
 9 10 l 1
 10 10 l 1
 10 5 l 1
 10 0 l 1
 9 0 l 1
 8 0 l 1
 8 -1 l 1
 8 -2 l 1
 4 -2 l 1
 0 -2 l 1
 0 -1 l 1
 0 0 l 1
 4 0 l 1
 8 0 l 1
 8 1 l 1
 8 2 l 1
 5 2 l 1
 2 2 l 1
 2 3 l 1
 2 4 l 1
 1 4 l 1
 0 4 l 1
 0 6 l 1
 0 8 l 1
 1 8 l 1
 2 8 l 1
 2 9 l 1
EndSplineSet
EndChar

StartChar: glyph2507
Encoding: 4328 4328 94
Width: 11
VWidth: 0
Flags: HMW
LayerCount: 2
Back
Fore
SplineSet
2 13 m 1
 2 14 l 1
 3 14 l 1
 4 14 l 1
 4 13 l 1
 4 12 l 1
 5 12 l 1
 6 12 l 1
 6 13 l 1
 6 14 l 1
 7 14 l 1
 8 14 l 1
 8 13 l 1
 8 12 l 1
 9 12 l 1
 10 12 l 1
 10 7 l 1
 10 2 l 1
 9 2 l 1
 8 2 l 1
 8 1 l 1
 8 0 l 1
 6 0 l 1
 4 0 l 1
 4 1 l 1
 4 2 l 1
 3 2 l 1
 2 2 l 1
 2 4 l 1
 2 6 l 1
 3 6 l 1
 4 6 l 1
 4 7 l 1
 4 8 l 1
 6 8 l 1
 8 8 l 1
 8 10 l 1
 8 12 l 1
 7 12 l 1
 6 12 l 1
 6 11 l 1
 6 10 l 1
 5 10 l 1
 4 10 l 1
 4 11 l 1
 4 12 l 1
 3 12 l 1
 2 12 l 1
 2 11 l 1
 2 10 l 1
 1 10 l 1
 0 10 l 1
 0 11 l 1
 0 12 l 1
 1 12 l 1
 2 12 l 1
 2 13 l 1
8 4 m 1
 8 6 l 1
 6 6 l 1
 4 6 l 1
 4 4 l 1
 4 2 l 1
 6 2 l 1
 8 2 l 1
 8 4 l 1
EndSplineSet
EndChar

StartChar: glyph2508
Encoding: 4329 4329 95
Width: 11
VWidth: 0
Flags: HMW
LayerCount: 2
Back
Fore
SplineSet
2 13 m 1
 2 14 l 1
 4 14 l 1
 6 14 l 1
 6 13 l 1
 6 12 l 1
 7 12 l 1
 8 12 l 1
 8 11 l 1
 8 10 l 1
 7 10 l 1
 6 10 l 1
 6 9 l 1
 6 8 l 1
 4 8 l 1
 2 8 l 1
 2 7 l 1
 2 6 l 1
 5 6 l 1
 8 6 l 1
 8 5 l 1
 8 4 l 1
 9 4 l 1
 10 4 l 1
 10 2 l 1
 10 0 l 1
 9 0 l 1
 8 0 l 1
 8 2 l 1
 8 4 l 1
 5 4 l 1
 2 4 l 1
 2 2 l 1
 2 0 l 1
 1 0 l 1
 0 0 l 1
 0 6 l 1
 0 12 l 1
 1 12 l 1
 2 12 l 1
 2 13 l 1
6 11 m 1
 6 12 l 1
 4 12 l 1
 2 12 l 1
 2 11 l 1
 2 10 l 1
 4 10 l 1
 6 10 l 1
 6 11 l 1
EndSplineSet
EndChar

StartChar: glyph2509
Encoding: 4330 4330 96
Width: 11
VWidth: 0
Flags: HMW
LayerCount: 2
Back
Fore
SplineSet
2 9 m 1
 2 10 l 1
 3 10 l 1
 4 10 l 1
 4 9 l 1
 4 8 l 1
 3 8 l 1
 2 8 l 1
 2 4 l 1
 2 0 l 1
 5 0 l 1
 8 0 l 1
 8 2 l 1
 8 4 l 1
 7 4 l 1
 6 4 l 1
 6 5 l 1
 6 6 l 1
 7 6 l 1
 8 6 l 1
 8 7 l 1
 8 8 l 1
 7 8 l 1
 6 8 l 1
 6 9 l 1
 6 10 l 1
 7 10 l 1
 8 10 l 1
 8 9 l 1
 8 8 l 1
 9 8 l 1
 10 8 l 1
 10 7 l 1
 10 6 l 1
 9 6 l 1
 8 6 l 1
 8 5 l 1
 8 4 l 1
 9 4 l 1
 10 4 l 1
 10 2 l 1
 10 0 l 1
 9 0 l 1
 8 0 l 1
 8 -1 l 1
 8 -2 l 1
 5 -2 l 1
 2 -2 l 1
 2 -1 l 1
 2 0 l 1
 1 0 l 1
 0 0 l 1
 0 4 l 1
 0 8 l 1
 1 8 l 1
 2 8 l 1
 2 9 l 1
EndSplineSet
EndChar

StartChar: glyph2510
Encoding: 4331 4331 97
Width: 11
VWidth: 0
Flags: HMW
LayerCount: 2
Back
Fore
SplineSet
8 11 m 1
 8 14 l 1
 9 14 l 1
 10 14 l 1
 10 8 l 1
 10 2 l 1
 9 2 l 1
 8 2 l 1
 8 1 l 1
 8 0 l 1
 5 0 l 1
 2 0 l 1
 2 1 l 1
 2 2 l 1
 1 2 l 1
 0 2 l 1
 0 5 l 1
 0 8 l 1
 1 8 l 1
 2 8 l 1
 2 9 l 1
 2 10 l 1
 4 10 l 1
 6 10 l 1
 6 9 l 1
 6 8 l 1
 7 8 l 1
 8 8 l 1
 8 11 l 1
6 7 m 1
 6 8 l 1
 4 8 l 1
 2 8 l 1
 2 5 l 1
 2 2 l 1
 5 2 l 1
 8 2 l 1
 8 4 l 1
 8 6 l 1
 7 6 l 1
 6 6 l 1
 6 7 l 1
EndSplineSet
EndChar

StartChar: glyph2511
Encoding: 4332 4332 98
Width: 11
VWidth: 0
Flags: HMW
LayerCount: 2
Back
Fore
SplineSet
2 13 m 1
 2 14 l 1
 3 14 l 1
 4 14 l 1
 4 13 l 1
 4 12 l 1
 5 12 l 1
 6 12 l 1
 6 13 l 1
 6 14 l 1
 7 14 l 1
 8 14 l 1
 8 13 l 1
 8 12 l 1
 9 12 l 1
 10 12 l 1
 10 11 l 1
 10 10 l 1
 9 10 l 1
 8 10 l 1
 8 11 l 1
 8 12 l 1
 7 12 l 1
 6 12 l 1
 6 11 l 1
 6 10 l 1
 5 10 l 1
 4 10 l 1
 4 11 l 1
 4 12 l 1
 3 12 l 1
 2 12 l 1
 2 10 l 1
 2 8 l 1
 5 8 l 1
 8 8 l 1
 8 7 l 1
 8 6 l 1
 9 6 l 1
 10 6 l 1
 10 5 l 1
 10 4 l 1
 9 4 l 1
 8 4 l 1
 8 2 l 1
 8 0 l 1
 7 0 l 1
 6 0 l 1
 6 -1 l 1
 6 -2 l 1
 5 -2 l 1
 4 -2 l 1
 4 -1 l 1
 4 0 l 1
 3 0 l 1
 2 0 l 1
 2 2 l 1
 2 4 l 1
 1 4 l 1
 0 4 l 1
 0 8 l 1
 0 12 l 1
 1 12 l 1
 2 12 l 1
 2 13 l 1
8 5 m 1
 8 6 l 1
 5 6 l 1
 2 6 l 1
 2 5 l 1
 2 4 l 1
 3 4 l 1
 4 4 l 1
 4 2 l 1
 4 0 l 1
 5 0 l 1
 6 0 l 1
 6 2 l 1
 6 4 l 1
 7 4 l 1
 8 4 l 1
 8 5 l 1
EndSplineSet
EndChar

StartChar: glyph2512
Encoding: 4333 4333 99
Width: 11
VWidth: 0
Flags: HMW
LayerCount: 2
Back
Fore
SplineSet
0 13 m 1
 0 14 l 1
 3 14 l 1
 6 14 l 1
 6 13 l 1
 6 12 l 1
 7 12 l 1
 8 12 l 1
 8 11 l 1
 8 10 l 1
 9 10 l 1
 10 10 l 1
 10 9 l 1
 10 8 l 1
 9 8 l 1
 8 8 l 1
 8 7 l 1
 8 6 l 1
 9 6 l 1
 10 6 l 1
 10 5 l 1
 10 4 l 1
 9 4 l 1
 8 4 l 1
 8 3 l 1
 8 2 l 1
 9 2 l 1
 10 2 l 1
 10 1 l 1
 10 0 l 1
 9 0 l 1
 8 0 l 1
 8 -1 l 1
 8 -2 l 1
 5 -2 l 1
 2 -2 l 1
 2 -1 l 1
 2 0 l 1
 1 0 l 1
 0 0 l 1
 0 1 l 1
 0 2 l 1
 1 2 l 1
 2 2 l 1
 2 1 l 1
 2 0 l 1
 5 0 l 1
 8 0 l 1
 8 1 l 1
 8 2 l 1
 7 2 l 1
 6 2 l 1
 6 3 l 1
 6 4 l 1
 5 4 l 1
 4 4 l 1
 4 5 l 1
 4 6 l 1
 3 6 l 1
 2 6 l 1
 2 7 l 1
 2 8 l 1
 3 8 l 1
 4 8 l 1
 4 9 l 1
 4 10 l 1
 5 10 l 1
 6 10 l 1
 6 11 l 1
 6 12 l 1
 3 12 l 1
 0 12 l 1
 0 13 l 1
6 7 m 1
 6 8 l 1
 5 8 l 1
 4 8 l 1
 4 7 l 1
 4 6 l 1
 5 6 l 1
 6 6 l 1
 6 7 l 1
EndSplineSet
EndChar

StartChar: glyph2513
Encoding: 4334 4334 100
Width: 11
VWidth: 0
Flags: HMW
LayerCount: 2
Back
Fore
SplineSet
0 8 m 1
 0 14 l 1
 1 14 l 1
 2 14 l 1
 2 11 l 1
 2 8 l 1
 5 8 l 1
 8 8 l 1
 8 7 l 1
 8 6 l 1
 9 6 l 1
 10 6 l 1
 10 4 l 1
 10 2 l 1
 9 2 l 1
 8 2 l 1
 8 1 l 1
 8 0 l 1
 5 0 l 1
 2 0 l 1
 2 1 l 1
 2 2 l 1
 1 2 l 1
 0 2 l 1
 0 8 l 1
8 4 m 1
 8 6 l 1
 5 6 l 1
 2 6 l 1
 2 4 l 1
 2 2 l 1
 5 2 l 1
 8 2 l 1
 8 4 l 1
EndSplineSet
EndChar

StartChar: glyph2514
Encoding: 4335 4335 101
Width: 9
VWidth: 0
Flags: HMW
LayerCount: 2
Back
Fore
SplineSet
4 12 m 1
 4 14 l 1
 5 14 l 1
 6 14 l 1
 6 12 l 1
 6 10 l 1
 7 10 l 1
 8 10 l 1
 8 9 l 1
 8 8 l 1
 7 8 l 1
 6 8 l 1
 6 6 l 1
 6 4 l 1
 7 4 l 1
 8 4 l 1
 8 2 l 1
 8 0 l 1
 7 0 l 1
 6 0 l 1
 6 -1 l 1
 6 -2 l 1
 4 -2 l 1
 2 -2 l 1
 2 -1 l 1
 2 0 l 1
 1 0 l 1
 0 0 l 1
 0 1 l 1
 0 2 l 1
 1 2 l 1
 2 2 l 1
 2 1 l 1
 2 0 l 1
 4 0 l 1
 6 0 l 1
 6 2 l 1
 6 4 l 1
 5 4 l 1
 4 4 l 1
 4 6 l 1
 4 8 l 1
 3 8 l 1
 2 8 l 1
 2 9 l 1
 2 10 l 1
 3 10 l 1
 4 10 l 1
 4 12 l 1
EndSplineSet
EndChar

StartChar: glyph2515
Encoding: 271 271 102
Width: 15
VWidth: 0
Flags: HMW
LayerCount: 2
Back
Fore
SplineSet
12 12 m 1
 12 14 l 1
 13 14 l 1
 14 14 l 1
 14 12 l 1
 14 10 l 1
 13 10 l 1
 12 10 l 1
 12 12 l 1
8 11 m 1
 8 14 l 1
 9 14 l 1
 10 14 l 1
 10 7 l 1
 10 0 l 1
 6 0 l 1
 2 0 l 1
 2 1 l 1
 2 2 l 1
 1 2 l 1
 0 2 l 1
 0 5 l 1
 0 8 l 1
 1 8 l 1
 2 8 l 1
 2 9 l 1
 2 10 l 1
 4 10 l 1
 6 10 l 1
 6 9 l 1
 6 8 l 1
 7 8 l 1
 8 8 l 1
 8 11 l 1
6 7 m 1
 6 8 l 1
 4 8 l 1
 2 8 l 1
 2 5 l 1
 2 2 l 1
 5 2 l 1
 8 2 l 1
 8 4 l 1
 8 6 l 1
 7 6 l 1
 6 6 l 1
 6 7 l 1
EndSplineSet
EndChar

StartChar: glyph2516
Encoding: 4336 4336 103
Width: 11
VWidth: 0
Flags: HMW
LayerCount: 2
Back
Fore
SplineSet
4 13 m 1
 4 14 l 1
 6 14 l 1
 8 14 l 1
 8 13 l 1
 8 12 l 1
 9 12 l 1
 10 12 l 1
 10 11 l 1
 10 10 l 1
 9 10 l 1
 8 10 l 1
 8 9 l 1
 8 8 l 1
 9 8 l 1
 10 8 l 1
 10 7 l 1
 10 6 l 1
 9 6 l 1
 8 6 l 1
 8 5 l 1
 8 4 l 1
 9 4 l 1
 10 4 l 1
 10 3 l 1
 10 2 l 1
 9 2 l 1
 8 2 l 1
 8 1 l 1
 8 0 l 1
 5 0 l 1
 2 0 l 1
 2 1 l 1
 2 2 l 1
 1 2 l 1
 0 2 l 1
 0 3 l 1
 0 4 l 1
 1 4 l 1
 2 4 l 1
 2 3 l 1
 2 2 l 1
 5 2 l 1
 8 2 l 1
 8 3 l 1
 8 4 l 1
 6 4 l 1
 4 4 l 1
 4 5 l 1
 4 6 l 1
 6 6 l 1
 8 6 l 1
 8 7 l 1
 8 8 l 1
 6 8 l 1
 4 8 l 1
 4 9 l 1
 4 10 l 1
 6 10 l 1
 8 10 l 1
 8 11 l 1
 8 12 l 1
 6 12 l 1
 4 12 l 1
 4 13 l 1
EndSplineSet
EndChar

StartChar: glyph2517
Encoding: 4337 4337 104
Width: 13
VWidth: 0
Flags: HMW
LayerCount: 2
Back
Fore
SplineSet
2 13 m 1
 2 14 l 1
 3 14 l 1
 4 14 l 1
 4 13 l 1
 4 12 l 1
 5 12 l 1
 6 12 l 1
 6 10 l 1
 6 8 l 1
 5 8 l 1
 4 8 l 1
 4 7 l 1
 4 6 l 1
 3 6 l 1
 2 6 l 1
 2 4 l 1
 2 2 l 1
 6 2 l 1
 10 2 l 1
 10 3 l 1
 10 4 l 1
 9 4 l 1
 8 4 l 1
 8 5 l 1
 8 6 l 1
 9 6 l 1
 10 6 l 1
 10 7 l 1
 10 8 l 1
 9 8 l 1
 8 8 l 1
 8 9 l 1
 8 10 l 1
 9 10 l 1
 10 10 l 1
 10 11 l 1
 10 12 l 1
 9 12 l 1
 8 12 l 1
 8 13 l 1
 8 14 l 1
 9 14 l 1
 10 14 l 1
 10 13 l 1
 10 12 l 1
 11 12 l 1
 12 12 l 1
 12 11 l 1
 12 10 l 1
 11 10 l 1
 10 10 l 1
 10 9 l 1
 10 8 l 1
 11 8 l 1
 12 8 l 1
 12 7 l 1
 12 6 l 1
 11 6 l 1
 10 6 l 1
 10 5 l 1
 10 4 l 1
 11 4 l 1
 12 4 l 1
 12 3 l 1
 12 2 l 1
 11 2 l 1
 10 2 l 1
 10 1 l 1
 10 0 l 1
 6 0 l 1
 2 0 l 1
 2 1 l 1
 2 2 l 1
 1 2 l 1
 0 2 l 1
 0 7 l 1
 0 12 l 1
 1 12 l 1
 2 12 l 1
 2 13 l 1
4 10 m 1
 4 12 l 1
 3 12 l 1
 2 12 l 1
 2 10 l 1
 2 8 l 1
 3 8 l 1
 4 8 l 1
 4 10 l 1
EndSplineSet
EndChar

StartChar: glyph2518
Encoding: 4338 4338 105
Width: 11
VWidth: 0
Flags: HMW
LayerCount: 2
Back
Fore
SplineSet
2 9 m 1
 2 10 l 1
 5 10 l 1
 8 10 l 1
 8 9 l 1
 8 8 l 1
 9 8 l 1
 10 8 l 1
 10 6 l 1
 10 4 l 1
 9 4 l 1
 8 4 l 1
 8 3 l 1
 8 2 l 1
 7 2 l 1
 6 2 l 1
 6 1 l 1
 6 0 l 1
 7 0 l 1
 8 0 l 1
 8 -1 l 1
 8 -2 l 1
 7 -2 l 1
 6 -2 l 1
 6 -1 l 1
 6 0 l 1
 5 0 l 1
 4 0 l 1
 4 -1 l 1
 4 -2 l 1
 3 -2 l 1
 2 -2 l 1
 2 -1 l 1
 2 0 l 1
 3 0 l 1
 4 0 l 1
 4 1 l 1
 4 2 l 1
 3 2 l 1
 2 2 l 1
 2 3 l 1
 2 4 l 1
 1 4 l 1
 0 4 l 1
 0 6 l 1
 0 8 l 1
 1 8 l 1
 2 8 l 1
 2 9 l 1
8 6 m 1
 8 8 l 1
 5 8 l 1
 2 8 l 1
 2 6 l 1
 2 4 l 1
 3 4 l 1
 4 4 l 1
 4 3 l 1
 4 2 l 1
 5 2 l 1
 6 2 l 1
 6 3 l 1
 6 4 l 1
 7 4 l 1
 8 4 l 1
 8 6 l 1
EndSplineSet
EndChar

StartChar: glyph2519
Encoding: 4339 4339 106
Width: 11
VWidth: 0
Flags: HMW
LayerCount: 2
Back
Fore
SplineSet
0 9 m 1
 0 10 l 1
 5 10 l 1
 10 10 l 1
 10 9 l 1
 10 8 l 1
 9 8 l 1
 8 8 l 1
 8 6 l 1
 8 4 l 1
 9 4 l 1
 10 4 l 1
 10 2 l 1
 10 0 l 1
 9 0 l 1
 8 0 l 1
 8 -1 l 1
 8 -2 l 1
 5 -2 l 1
 2 -2 l 1
 2 -1 l 1
 2 0 l 1
 1 0 l 1
 0 0 l 1
 0 1 l 1
 0 2 l 1
 1 2 l 1
 2 2 l 1
 2 1 l 1
 2 0 l 1
 5 0 l 1
 8 0 l 1
 8 2 l 1
 8 4 l 1
 6 4 l 1
 4 4 l 1
 4 5 l 1
 4 6 l 1
 5 6 l 1
 6 6 l 1
 6 7 l 1
 6 8 l 1
 3 8 l 1
 0 8 l 1
 0 9 l 1
EndSplineSet
EndChar

StartChar: glyph2520
Encoding: 4340 4340 107
Width: 11
VWidth: 0
Flags: HMW
LayerCount: 2
Back
Fore
SplineSet
2 13 m 1
 2 14 l 1
 4 14 l 1
 6 14 l 1
 6 13 l 1
 6 12 l 1
 4 12 l 1
 2 12 l 1
 2 11 l 1
 2 10 l 1
 5 10 l 1
 8 10 l 1
 8 9 l 1
 8 8 l 1
 9 8 l 1
 10 8 l 1
 10 7 l 1
 10 6 l 1
 9 6 l 1
 8 6 l 1
 8 5 l 1
 8 4 l 1
 9 4 l 1
 10 4 l 1
 10 2 l 1
 10 0 l 1
 9 0 l 1
 8 0 l 1
 8 -1 l 1
 8 -2 l 1
 5 -2 l 1
 2 -2 l 1
 2 -1 l 1
 2 0 l 1
 1 0 l 1
 0 0 l 1
 0 1 l 1
 0 2 l 1
 1 2 l 1
 2 2 l 1
 2 1 l 1
 2 0 l 1
 5 0 l 1
 8 0 l 1
 8 2 l 1
 8 4 l 1
 6 4 l 1
 4 4 l 1
 4 5 l 1
 4 6 l 1
 6 6 l 1
 8 6 l 1
 8 7 l 1
 8 8 l 1
 5 8 l 1
 2 8 l 1
 2 9 l 1
 2 10 l 1
 1 10 l 1
 0 10 l 1
 0 11 l 1
 0 12 l 1
 1 12 l 1
 2 12 l 1
 2 13 l 1
EndSplineSet
EndChar

StartChar: glyph2521
Encoding: 4341 4341 108
Width: 11
VWidth: 0
Flags: HMW
LayerCount: 2
Back
Fore
SplineSet
2 13 m 1
 2 14 l 1
 4 14 l 1
 6 14 l 1
 6 13 l 1
 6 12 l 1
 7 12 l 1
 8 12 l 1
 8 11 l 1
 8 10 l 1
 9 10 l 1
 10 10 l 1
 10 9 l 1
 10 8 l 1
 9 8 l 1
 8 8 l 1
 8 7 l 1
 8 6 l 1
 9 6 l 1
 10 6 l 1
 10 5 l 1
 10 4 l 1
 9 4 l 1
 8 4 l 1
 8 2 l 1
 8 0 l 1
 7 0 l 1
 6 0 l 1
 6 -1 l 1
 6 -2 l 1
 4 -2 l 1
 2 -2 l 1
 2 -1 l 1
 2 0 l 1
 1 0 l 1
 0 0 l 1
 0 2 l 1
 0 4 l 1
 1 4 l 1
 2 4 l 1
 2 5 l 1
 2 6 l 1
 4 6 l 1
 6 6 l 1
 6 7 l 1
 6 8 l 1
 4 8 l 1
 2 8 l 1
 2 9 l 1
 2 10 l 1
 1 10 l 1
 0 10 l 1
 0 11 l 1
 0 12 l 1
 1 12 l 1
 2 12 l 1
 2 13 l 1
6 11 m 1
 6 12 l 1
 4 12 l 1
 2 12 l 1
 2 11 l 1
 2 10 l 1
 4 10 l 1
 6 10 l 1
 6 11 l 1
6 2 m 1
 6 4 l 1
 4 4 l 1
 2 4 l 1
 2 2 l 1
 2 0 l 1
 4 0 l 1
 6 0 l 1
 6 2 l 1
EndSplineSet
EndChar

StartChar: glyph2522
Encoding: 4342 4342 109
Width: 11
VWidth: 0
Flags: HMW
LayerCount: 2
Back
Fore
SplineSet
0 13 m 1
 0 14 l 1
 2 14 l 1
 4 14 l 1
 4 13 l 1
 4 12 l 1
 5 12 l 1
 6 12 l 1
 6 11 l 1
 6 10 l 1
 7 10 l 1
 8 10 l 1
 8 9 l 1
 8 8 l 1
 9 8 l 1
 10 8 l 1
 10 6 l 1
 10 4 l 1
 9 4 l 1
 8 4 l 1
 8 3 l 1
 8 2 l 1
 7 2 l 1
 6 2 l 1
 6 1 l 1
 6 0 l 1
 8 0 l 1
 10 0 l 1
 10 -1 l 1
 10 -2 l 1
 8 -2 l 1
 6 -2 l 1
 6 -1 l 1
 6 0 l 1
 5 0 l 1
 4 0 l 1
 4 1 l 1
 4 2 l 1
 3 2 l 1
 2 2 l 1
 2 3 l 1
 2 4 l 1
 1 4 l 1
 0 4 l 1
 0 6 l 1
 0 8 l 1
 1 8 l 1
 2 8 l 1
 2 9 l 1
 2 10 l 1
 3 10 l 1
 4 10 l 1
 4 11 l 1
 4 12 l 1
 2 12 l 1
 0 12 l 1
 0 13 l 1
4 6 m 1
 4 8 l 1
 3 8 l 1
 2 8 l 1
 2 6 l 1
 2 4 l 1
 3 4 l 1
 4 4 l 1
 4 6 l 1
8 6 m 1
 8 8 l 1
 7 8 l 1
 6 8 l 1
 6 6 l 1
 6 4 l 1
 7 4 l 1
 8 4 l 1
 8 6 l 1
EndSplineSet
EndChar

StartChar: glyph2523
Encoding: 4343 4343 110
Width: 11
VWidth: 0
Flags: HMW
LayerCount: 2
Back
Fore
SplineSet
0 9 m 1
 0 10 l 1
 4 10 l 1
 8 10 l 1
 8 9 l 1
 8 8 l 1
 9 8 l 1
 10 8 l 1
 10 7 l 1
 10 6 l 1
 9 6 l 1
 8 6 l 1
 8 5 l 1
 8 4 l 1
 5 4 l 1
 2 4 l 1
 2 2 l 1
 2 0 l 1
 5 0 l 1
 8 0 l 1
 8 1 l 1
 8 2 l 1
 9 2 l 1
 10 2 l 1
 10 1 l 1
 10 0 l 1
 9 0 l 1
 8 0 l 1
 8 -1 l 1
 8 -2 l 1
 5 -2 l 1
 2 -2 l 1
 2 -1 l 1
 2 0 l 1
 1 0 l 1
 0 0 l 1
 0 2 l 1
 0 4 l 1
 1 4 l 1
 2 4 l 1
 2 5 l 1
 2 6 l 1
 5 6 l 1
 8 6 l 1
 8 7 l 1
 8 8 l 1
 4 8 l 1
 0 8 l 1
 0 9 l 1
EndSplineSet
EndChar

StartChar: glyph2524
Encoding: 4344 4344 111
Width: 11
VWidth: 0
Flags: HMW
LayerCount: 2
Back
Fore
SplineSet
0 5 m 1
 0 10 l 1
 1 10 l 1
 2 10 l 1
 2 7 l 1
 2 4 l 1
 5 4 l 1
 8 4 l 1
 8 6 l 1
 8 8 l 1
 7 8 l 1
 6 8 l 1
 6 9 l 1
 6 10 l 1
 7 10 l 1
 8 10 l 1
 8 9 l 1
 8 8 l 1
 9 8 l 1
 10 8 l 1
 10 6 l 1
 10 4 l 1
 9 4 l 1
 8 4 l 1
 8 3 l 1
 8 2 l 1
 5 2 l 1
 2 2 l 1
 2 1 l 1
 2 0 l 1
 6 0 l 1
 10 0 l 1
 10 -1 l 1
 10 -2 l 1
 6 -2 l 1
 2 -2 l 1
 2 -1 l 1
 2 0 l 1
 1 0 l 1
 0 0 l 1
 0 5 l 1
EndSplineSet
EndChar

StartChar: glyph2525
Encoding: 4345 4345 112
Width: 11
VWidth: 0
Flags: HMW
LayerCount: 2
Back
Fore
SplineSet
2 9 m 1
 2 10 l 1
 5 10 l 1
 8 10 l 1
 8 9 l 1
 8 8 l 1
 9 8 l 1
 10 8 l 1
 10 6 l 1
 10 4 l 1
 9 4 l 1
 8 4 l 1
 8 3 l 1
 8 2 l 1
 7 2 l 1
 6 2 l 1
 6 1 l 1
 6 0 l 1
 8 0 l 1
 10 0 l 1
 10 -1 l 1
 10 -2 l 1
 8 -2 l 1
 6 -2 l 1
 6 -1 l 1
 6 0 l 1
 5 0 l 1
 4 0 l 1
 4 1 l 1
 4 2 l 1
 3 2 l 1
 2 2 l 1
 2 3 l 1
 2 4 l 1
 1 4 l 1
 0 4 l 1
 0 6 l 1
 0 8 l 1
 1 8 l 1
 2 8 l 1
 2 9 l 1
8 6 m 1
 8 8 l 1
 5 8 l 1
 2 8 l 1
 2 6 l 1
 2 4 l 1
 5 4 l 1
 8 4 l 1
 8 6 l 1
EndSplineSet
EndChar

StartChar: glyph2526
Encoding: 4346 4346 113
Width: 11
VWidth: 0
Flags: HMW
LayerCount: 2
Back
Fore
SplineSet
2 9 m 1
 2 10 l 1
 5 10 l 1
 8 10 l 1
 8 9 l 1
 8 8 l 1
 9 8 l 1
 10 8 l 1
 10 7 l 1
 10 6 l 1
 9 6 l 1
 8 6 l 1
 8 7 l 1
 8 8 l 1
 5 8 l 1
 2 8 l 1
 2 6 l 1
 2 4 l 1
 3 4 l 1
 4 4 l 1
 4 3 l 1
 4 2 l 1
 6 2 l 1
 8 2 l 1
 8 1 l 1
 8 0 l 1
 9 0 l 1
 10 0 l 1
 10 -1 l 1
 10 -2 l 1
 9 -2 l 1
 8 -2 l 1
 8 -1 l 1
 8 0 l 1
 4 0 l 1
 0 0 l 1
 0 1 l 1
 0 2 l 1
 1 2 l 1
 2 2 l 1
 2 3 l 1
 2 4 l 1
 1 4 l 1
 0 4 l 1
 0 6 l 1
 0 8 l 1
 1 8 l 1
 2 8 l 1
 2 9 l 1
EndSplineSet
EndChar

StartChar: glyph2527
Encoding: 4347 4347 114
Width: 7
VWidth: 0
Flags: HMW
LayerCount: 2
Back
Fore
SplineSet
0 3 m 1
 0 4 l 1
 1 4 l 1
 2 4 l 1
 2 3 l 1
 2 2 l 1
 1 2 l 1
 0 2 l 1
 0 3 l 1
4 5 m 1
 4 6 l 1
 5 6 l 1
 6 6 l 1
 6 5 l 1
 6 4 l 1
 5 4 l 1
 4 4 l 1
 4 5 l 1
0 7 m 1
 0 8 l 1
 1 8 l 1
 2 8 l 1
 2 7 l 1
 2 6 l 1
 1 6 l 1
 0 6 l 1
 0 7 l 1
EndSplineSet
EndChar

StartChar: glyph2528
Encoding: 4348 4348 115
Width: 7
VWidth: 0
Flags: HMW
LayerCount: 2
Back
Fore
SplineSet
0 9 m 1
 0 14 l 1
 3 14 l 1
 6 14 l 1
 6 13 l 1
 6 12 l 1
 4 12 l 1
 2 12 l 1
 2 11 l 1
 2 10 l 1
 3 10 l 1
 4 10 l 1
 4 9 l 1
 4 8 l 1
 5 8 l 1
 6 8 l 1
 6 7 l 1
 6 6 l 1
 5 6 l 1
 4 6 l 1
 4 5 l 1
 4 4 l 1
 2 4 l 1
 0 4 l 1
 0 9 l 1
4 7 m 1
 4 8 l 1
 3 8 l 1
 2 8 l 1
 2 7 l 1
 2 6 l 1
 3 6 l 1
 4 6 l 1
 4 7 l 1
EndSplineSet
EndChar

StartChar: glyph2529
Encoding: 4349 4349 116
Width: 11
VWidth: 0
Flags: HMW
LayerCount: 2
Back
Fore
SplineSet
2 9 m 1
 2 10 l 1
 6 10 l 1
 10 10 l 1
 10 9 l 1
 10 8 l 1
 6 8 l 1
 2 8 l 1
 2 7 l 1
 2 6 l 1
 5 6 l 1
 8 6 l 1
 8 5 l 1
 8 4 l 1
 9 4 l 1
 10 4 l 1
 10 2 l 1
 10 0 l 1
 9 0 l 1
 8 0 l 1
 8 -1 l 1
 8 -2 l 1
 5 -2 l 1
 2 -2 l 1
 2 -1 l 1
 2 0 l 1
 1 0 l 1
 0 0 l 1
 0 1 l 1
 0 2 l 1
 1 2 l 1
 2 2 l 1
 2 1 l 1
 2 0 l 1
 5 0 l 1
 8 0 l 1
 8 2 l 1
 8 4 l 1
 5 4 l 1
 2 4 l 1
 2 5 l 1
 2 6 l 1
 1 6 l 1
 0 6 l 1
 0 7 l 1
 0 8 l 1
 1 8 l 1
 2 8 l 1
 2 9 l 1
EndSplineSet
EndChar

StartChar: glyph2530
Encoding: 4350 4350 117
Width: 11
VWidth: 0
Flags: HMW
LayerCount: 2
Back
Fore
SplineSet
0 9 m 1
 0 10 l 1
 2 10 l 1
 4 10 l 1
 4 9 l 1
 4 8 l 1
 5 8 l 1
 6 8 l 1
 6 9 l 1
 6 10 l 1
 8 10 l 1
 10 10 l 1
 10 9 l 1
 10 8 l 1
 8 8 l 1
 6 8 l 1
 6 7 l 1
 6 6 l 1
 7 6 l 1
 8 6 l 1
 8 5 l 1
 8 4 l 1
 9 4 l 1
 10 4 l 1
 10 2 l 1
 10 0 l 1
 9 0 l 1
 8 0 l 1
 8 -1 l 1
 8 -2 l 1
 5 -2 l 1
 2 -2 l 1
 2 -1 l 1
 2 0 l 1
 1 0 l 1
 0 0 l 1
 0 2 l 1
 0 4 l 1
 1 4 l 1
 2 4 l 1
 2 5 l 1
 2 6 l 1
 3 6 l 1
 4 6 l 1
 4 7 l 1
 4 8 l 1
 2 8 l 1
 0 8 l 1
 0 9 l 1
6 5 m 1
 6 6 l 1
 5 6 l 1
 4 6 l 1
 4 5 l 1
 4 4 l 1
 3 4 l 1
 2 4 l 1
 2 2 l 1
 2 0 l 1
 5 0 l 1
 8 0 l 1
 8 2 l 1
 8 4 l 1
 7 4 l 1
 6 4 l 1
 6 5 l 1
EndSplineSet
EndChar

StartChar: glyph2531
Encoding: 4351 4351 118
Width: 11
VWidth: 0
Flags: HMW
LayerCount: 2
Back
Fore
SplineSet
2 9 m 1
 2 10 l 1
 5 10 l 1
 8 10 l 1
 8 9 l 1
 8 8 l 1
 9 8 l 1
 10 8 l 1
 10 5 l 1
 10 2 l 1
 9 2 l 1
 8 2 l 1
 8 1 l 1
 8 0 l 1
 5 0 l 1
 2 0 l 1
 2 1 l 1
 2 2 l 1
 1 2 l 1
 0 2 l 1
 0 5 l 1
 0 8 l 1
 1 8 l 1
 2 8 l 1
 2 9 l 1
8 5 m 1
 8 8 l 1
 5 8 l 1
 2 8 l 1
 2 5 l 1
 2 2 l 1
 5 2 l 1
 8 2 l 1
 8 5 l 1
EndSplineSet
EndChar

StartChar: glyph2532
Encoding: 272 272 119
Width: 13
VWidth: 0
Flags: HMW
LayerCount: 2
Back
Fore
SplineSet
2 12 m 1
 2 14 l 1
 6 14 l 1
 10 14 l 1
 10 13 l 1
 10 12 l 1
 11 12 l 1
 12 12 l 1
 12 7 l 1
 12 2 l 1
 11 2 l 1
 10 2 l 1
 10 1 l 1
 10 0 l 1
 6 0 l 1
 2 0 l 1
 2 4 l 1
 2 8 l 1
 1 8 l 1
 0 8 l 1
 0 9 l 1
 0 10 l 1
 1 10 l 1
 2 10 l 1
 2 12 l 1
10 7 m 1
 10 12 l 1
 7 12 l 1
 4 12 l 1
 4 11 l 1
 4 10 l 1
 6 10 l 1
 8 10 l 1
 8 9 l 1
 8 8 l 1
 6 8 l 1
 4 8 l 1
 4 5 l 1
 4 2 l 1
 7 2 l 1
 10 2 l 1
 10 7 l 1
EndSplineSet
EndChar

StartChar: glyph2533
Encoding: 273 273 120
Width: 13
VWidth: 0
Flags: HMW
LayerCount: 2
Back
Fore
SplineSet
8 13 m 1
 8 14 l 1
 9 14 l 1
 10 14 l 1
 10 13 l 1
 10 12 l 1
 11 12 l 1
 12 12 l 1
 12 11 l 1
 12 10 l 1
 11 10 l 1
 10 10 l 1
 10 5 l 1
 10 0 l 1
 6 0 l 1
 2 0 l 1
 2 1 l 1
 2 2 l 1
 1 2 l 1
 0 2 l 1
 0 4 l 1
 0 6 l 1
 1 6 l 1
 2 6 l 1
 2 7 l 1
 2 8 l 1
 4 8 l 1
 6 8 l 1
 6 7 l 1
 6 6 l 1
 7 6 l 1
 8 6 l 1
 8 8 l 1
 8 10 l 1
 6 10 l 1
 4 10 l 1
 4 11 l 1
 4 12 l 1
 6 12 l 1
 8 12 l 1
 8 13 l 1
6 5 m 1
 6 6 l 1
 4 6 l 1
 2 6 l 1
 2 4 l 1
 2 2 l 1
 5 2 l 1
 8 2 l 1
 8 3 l 1
 8 4 l 1
 7 4 l 1
 6 4 l 1
 6 5 l 1
EndSplineSet
EndChar

StartChar: glyph2534
Encoding: 274 274 121
Width: 11
VWidth: 0
Flags: HMW
LayerCount: 2
Back
Fore
SplineSet
0 7 m 1
 0 14 l 1
 5 14 l 1
 10 14 l 1
 10 13 l 1
 10 12 l 1
 6 12 l 1
 2 12 l 1
 2 11 l 1
 2 10 l 1
 4 10 l 1
 6 10 l 1
 6 9 l 1
 6 8 l 1
 4 8 l 1
 2 8 l 1
 2 5 l 1
 2 2 l 1
 6 2 l 1
 10 2 l 1
 10 1 l 1
 10 0 l 1
 5 0 l 1
 0 0 l 1
 0 7 l 1
2 17 m 1
 2 18 l 1
 5 18 l 1
 8 18 l 1
 8 17 l 1
 8 16 l 1
 5 16 l 1
 2 16 l 1
 2 17 l 1
EndSplineSet
EndChar

StartChar: glyph2535
Encoding: 275 275 122
Width: 11
VWidth: 0
Flags: HMW
LayerCount: 2
Back
Fore
SplineSet
2 9 m 1
 2 10 l 1
 5 10 l 1
 8 10 l 1
 8 9 l 1
 8 8 l 1
 9 8 l 1
 10 8 l 1
 10 6 l 1
 10 4 l 1
 6 4 l 1
 2 4 l 1
 2 3 l 1
 2 2 l 1
 6 2 l 1
 10 2 l 1
 10 1 l 1
 10 0 l 1
 6 0 l 1
 2 0 l 1
 2 1 l 1
 2 2 l 1
 1 2 l 1
 0 2 l 1
 0 5 l 1
 0 8 l 1
 1 8 l 1
 2 8 l 1
 2 9 l 1
8 7 m 1
 8 8 l 1
 5 8 l 1
 2 8 l 1
 2 7 l 1
 2 6 l 1
 5 6 l 1
 8 6 l 1
 8 7 l 1
2 13 m 1
 2 14 l 1
 5 14 l 1
 8 14 l 1
 8 13 l 1
 8 12 l 1
 5 12 l 1
 2 12 l 1
 2 13 l 1
EndSplineSet
EndChar

StartChar: glyph2536
Encoding: 276 276 123
Width: 11
VWidth: 0
Flags: HMW
LayerCount: 2
Back
Fore
SplineSet
0 7 m 1
 0 14 l 1
 5 14 l 1
 10 14 l 1
 10 13 l 1
 10 12 l 1
 6 12 l 1
 2 12 l 1
 2 11 l 1
 2 10 l 1
 4 10 l 1
 6 10 l 1
 6 9 l 1
 6 8 l 1
 4 8 l 1
 2 8 l 1
 2 5 l 1
 2 2 l 1
 6 2 l 1
 10 2 l 1
 10 1 l 1
 10 0 l 1
 5 0 l 1
 0 0 l 1
 0 7 l 1
2 19 m 1
 2 20 l 1
 3 20 l 1
 4 20 l 1
 4 19 l 1
 4 18 l 1
 6 18 l 1
 8 18 l 1
 8 19 l 1
 8 20 l 1
 9 20 l 1
 10 20 l 1
 10 19 l 1
 10 18 l 1
 9 18 l 1
 8 18 l 1
 8 17 l 1
 8 16 l 1
 6 16 l 1
 4 16 l 1
 4 17 l 1
 4 18 l 1
 3 18 l 1
 2 18 l 1
 2 19 l 1
EndSplineSet
EndChar

StartChar: glyph2537
Encoding: 277 277 124
Width: 11
VWidth: 0
Flags: HMW
LayerCount: 2
Back
Fore
SplineSet
2 9 m 1
 2 10 l 1
 5 10 l 1
 8 10 l 1
 8 9 l 1
 8 8 l 1
 9 8 l 1
 10 8 l 1
 10 6 l 1
 10 4 l 1
 6 4 l 1
 2 4 l 1
 2 3 l 1
 2 2 l 1
 6 2 l 1
 10 2 l 1
 10 1 l 1
 10 0 l 1
 6 0 l 1
 2 0 l 1
 2 1 l 1
 2 2 l 1
 1 2 l 1
 0 2 l 1
 0 5 l 1
 0 8 l 1
 1 8 l 1
 2 8 l 1
 2 9 l 1
8 7 m 1
 8 8 l 1
 5 8 l 1
 2 8 l 1
 2 7 l 1
 2 6 l 1
 5 6 l 1
 8 6 l 1
 8 7 l 1
2 15 m 1
 2 16 l 1
 3 16 l 1
 4 16 l 1
 4 15 l 1
 4 14 l 1
 6 14 l 1
 8 14 l 1
 8 15 l 1
 8 16 l 1
 9 16 l 1
 10 16 l 1
 10 15 l 1
 10 14 l 1
 9 14 l 1
 8 14 l 1
 8 13 l 1
 8 12 l 1
 6 12 l 1
 4 12 l 1
 4 13 l 1
 4 14 l 1
 3 14 l 1
 2 14 l 1
 2 15 l 1
EndSplineSet
EndChar

StartChar: glyph2538
Encoding: 278 278 125
Width: 11
VWidth: 0
Flags: HMW
LayerCount: 2
Back
Fore
SplineSet
0 7 m 1
 0 14 l 1
 5 14 l 1
 10 14 l 1
 10 13 l 1
 10 12 l 1
 6 12 l 1
 2 12 l 1
 2 11 l 1
 2 10 l 1
 4 10 l 1
 6 10 l 1
 6 9 l 1
 6 8 l 1
 4 8 l 1
 2 8 l 1
 2 5 l 1
 2 2 l 1
 6 2 l 1
 10 2 l 1
 10 1 l 1
 10 0 l 1
 5 0 l 1
 0 0 l 1
 0 7 l 1
4 17 m 1
 4 18 l 1
 5 18 l 1
 6 18 l 1
 6 17 l 1
 6 16 l 1
 5 16 l 1
 4 16 l 1
 4 17 l 1
EndSplineSet
EndChar

StartChar: glyph2539
Encoding: 279 279 126
Width: 11
VWidth: 0
Flags: HMW
LayerCount: 2
Back
Fore
SplineSet
2 9 m 1
 2 10 l 1
 5 10 l 1
 8 10 l 1
 8 9 l 1
 8 8 l 1
 9 8 l 1
 10 8 l 1
 10 6 l 1
 10 4 l 1
 6 4 l 1
 2 4 l 1
 2 3 l 1
 2 2 l 1
 6 2 l 1
 10 2 l 1
 10 1 l 1
 10 0 l 1
 6 0 l 1
 2 0 l 1
 2 1 l 1
 2 2 l 1
 1 2 l 1
 0 2 l 1
 0 5 l 1
 0 8 l 1
 1 8 l 1
 2 8 l 1
 2 9 l 1
8 7 m 1
 8 8 l 1
 5 8 l 1
 2 8 l 1
 2 7 l 1
 2 6 l 1
 5 6 l 1
 8 6 l 1
 8 7 l 1
4 13 m 1
 4 14 l 1
 5 14 l 1
 6 14 l 1
 6 13 l 1
 6 12 l 1
 5 12 l 1
 4 12 l 1
 4 13 l 1
EndSplineSet
EndChar

StartChar: glyph2540
Encoding: 280 280 127
Width: 11
VWidth: 0
Flags: HMW
LayerCount: 2
Back
Fore
SplineSet
0 7 m 1
 0 14 l 1
 5 14 l 1
 10 14 l 1
 10 13 l 1
 10 12 l 1
 6 12 l 1
 2 12 l 1
 2 11 l 1
 2 10 l 1
 4 10 l 1
 6 10 l 1
 6 9 l 1
 6 8 l 1
 4 8 l 1
 2 8 l 1
 2 5 l 1
 2 2 l 1
 6 2 l 1
 10 2 l 1
 10 1 l 1
 10 0 l 1
 9 0 l 1
 8 0 l 1
 8 -1 l 1
 8 -2 l 1
 9 -2 l 1
 10 -2 l 1
 10 -3 l 1
 10 -4 l 1
 9 -4 l 1
 8 -4 l 1
 8 -3 l 1
 8 -2 l 1
 7 -2 l 1
 6 -2 l 1
 6 -1 l 1
 6 0 l 1
 3 0 l 1
 0 0 l 1
 0 7 l 1
EndSplineSet
EndChar

StartChar: glyph2541
Encoding: 281 281 128
Width: 11
VWidth: 0
Flags: HMW
LayerCount: 2
Back
Fore
SplineSet
2 9 m 1
 2 10 l 1
 5 10 l 1
 8 10 l 1
 8 9 l 1
 8 8 l 1
 9 8 l 1
 10 8 l 1
 10 6 l 1
 10 4 l 1
 6 4 l 1
 2 4 l 1
 2 3 l 1
 2 2 l 1
 6 2 l 1
 10 2 l 1
 10 1 l 1
 10 0 l 1
 9 0 l 1
 8 0 l 1
 8 -1 l 1
 8 -2 l 1
 9 -2 l 1
 10 -2 l 1
 10 -3 l 1
 10 -4 l 1
 9 -4 l 1
 8 -4 l 1
 8 -3 l 1
 8 -2 l 1
 7 -2 l 1
 6 -2 l 1
 6 -1 l 1
 6 0 l 1
 4 0 l 1
 2 0 l 1
 2 1 l 1
 2 2 l 1
 1 2 l 1
 0 2 l 1
 0 5 l 1
 0 8 l 1
 1 8 l 1
 2 8 l 1
 2 9 l 1
8 7 m 1
 8 8 l 1
 5 8 l 1
 2 8 l 1
 2 7 l 1
 2 6 l 1
 5 6 l 1
 8 6 l 1
 8 7 l 1
EndSplineSet
EndChar

StartChar: glyph2542
Encoding: 282 282 129
Width: 11
VWidth: 0
Flags: HMW
LayerCount: 2
Back
Fore
SplineSet
0 7 m 1
 0 14 l 1
 5 14 l 1
 10 14 l 1
 10 13 l 1
 10 12 l 1
 6 12 l 1
 2 12 l 1
 2 11 l 1
 2 10 l 1
 4 10 l 1
 6 10 l 1
 6 9 l 1
 6 8 l 1
 4 8 l 1
 2 8 l 1
 2 5 l 1
 2 2 l 1
 6 2 l 1
 10 2 l 1
 10 1 l 1
 10 0 l 1
 5 0 l 1
 0 0 l 1
 0 7 l 1
2 19 m 1
 2 20 l 1
 3 20 l 1
 4 20 l 1
 4 19 l 1
 4 18 l 1
 5 18 l 1
 6 18 l 1
 6 19 l 1
 6 20 l 1
 7 20 l 1
 8 20 l 1
 8 19 l 1
 8 18 l 1
 7 18 l 1
 6 18 l 1
 6 17 l 1
 6 16 l 1
 5 16 l 1
 4 16 l 1
 4 17 l 1
 4 18 l 1
 3 18 l 1
 2 18 l 1
 2 19 l 1
EndSplineSet
EndChar

StartChar: glyph2543
Encoding: 283 283 130
Width: 11
VWidth: 0
Flags: HMW
LayerCount: 2
Back
Fore
SplineSet
2 9 m 1
 2 10 l 1
 5 10 l 1
 8 10 l 1
 8 9 l 1
 8 8 l 1
 9 8 l 1
 10 8 l 1
 10 6 l 1
 10 4 l 1
 6 4 l 1
 2 4 l 1
 2 3 l 1
 2 2 l 1
 6 2 l 1
 10 2 l 1
 10 1 l 1
 10 0 l 1
 6 0 l 1
 2 0 l 1
 2 1 l 1
 2 2 l 1
 1 2 l 1
 0 2 l 1
 0 5 l 1
 0 8 l 1
 1 8 l 1
 2 8 l 1
 2 9 l 1
8 7 m 1
 8 8 l 1
 5 8 l 1
 2 8 l 1
 2 7 l 1
 2 6 l 1
 5 6 l 1
 8 6 l 1
 8 7 l 1
2 15 m 1
 2 16 l 1
 3 16 l 1
 4 16 l 1
 4 15 l 1
 4 14 l 1
 5 14 l 1
 6 14 l 1
 6 15 l 1
 6 16 l 1
 7 16 l 1
 8 16 l 1
 8 15 l 1
 8 14 l 1
 7 14 l 1
 6 14 l 1
 6 13 l 1
 6 12 l 1
 5 12 l 1
 4 12 l 1
 4 13 l 1
 4 14 l 1
 3 14 l 1
 2 14 l 1
 2 15 l 1
EndSplineSet
EndChar

StartChar: glyph2544
Encoding: 284 284 131
Width: 11
VWidth: 0
Flags: HMW
LayerCount: 2
Back
Fore
SplineSet
2 13 m 1
 2 14 l 1
 6 14 l 1
 10 14 l 1
 10 13 l 1
 10 12 l 1
 6 12 l 1
 2 12 l 1
 2 7 l 1
 2 2 l 1
 5 2 l 1
 8 2 l 1
 8 5 l 1
 8 8 l 1
 7 8 l 1
 6 8 l 1
 6 9 l 1
 6 10 l 1
 8 10 l 1
 10 10 l 1
 10 6 l 1
 10 2 l 1
 9 2 l 1
 8 2 l 1
 8 1 l 1
 8 0 l 1
 5 0 l 1
 2 0 l 1
 2 1 l 1
 2 2 l 1
 1 2 l 1
 0 2 l 1
 0 7 l 1
 0 12 l 1
 1 12 l 1
 2 12 l 1
 2 13 l 1
4 19 m 1
 4 20 l 1
 5 20 l 1
 6 20 l 1
 6 19 l 1
 6 18 l 1
 7 18 l 1
 8 18 l 1
 8 17 l 1
 8 16 l 1
 7 16 l 1
 6 16 l 1
 6 17 l 1
 6 18 l 1
 5 18 l 1
 4 18 l 1
 4 17 l 1
 4 16 l 1
 3 16 l 1
 2 16 l 1
 2 17 l 1
 2 18 l 1
 3 18 l 1
 4 18 l 1
 4 19 l 1
EndSplineSet
EndChar

StartChar: glyph2545
Encoding: 285 285 132
Width: 11
VWidth: 0
Flags: HMW
LayerCount: 2
Back
Fore
SplineSet
2 9 m 1
 2 10 l 1
 6 10 l 1
 10 10 l 1
 10 5 l 1
 10 0 l 1
 9 0 l 1
 8 0 l 1
 8 -1 l 1
 8 -2 l 1
 4 -2 l 1
 0 -2 l 1
 0 -1 l 1
 0 0 l 1
 4 0 l 1
 8 0 l 1
 8 1 l 1
 8 2 l 1
 5 2 l 1
 2 2 l 1
 2 3 l 1
 2 4 l 1
 1 4 l 1
 0 4 l 1
 0 6 l 1
 0 8 l 1
 1 8 l 1
 2 8 l 1
 2 9 l 1
8 6 m 1
 8 8 l 1
 5 8 l 1
 2 8 l 1
 2 6 l 1
 2 4 l 1
 5 4 l 1
 8 4 l 1
 8 6 l 1
4 15 m 1
 4 16 l 1
 5 16 l 1
 6 16 l 1
 6 15 l 1
 6 14 l 1
 7 14 l 1
 8 14 l 1
 8 13 l 1
 8 12 l 1
 7 12 l 1
 6 12 l 1
 6 13 l 1
 6 14 l 1
 5 14 l 1
 4 14 l 1
 4 13 l 1
 4 12 l 1
 3 12 l 1
 2 12 l 1
 2 13 l 1
 2 14 l 1
 3 14 l 1
 4 14 l 1
 4 15 l 1
EndSplineSet
EndChar

StartChar: glyph2546
Encoding: 286 286 133
Width: 11
VWidth: 0
Flags: HMW
LayerCount: 2
Back
Fore
SplineSet
2 13 m 1
 2 14 l 1
 6 14 l 1
 10 14 l 1
 10 13 l 1
 10 12 l 1
 6 12 l 1
 2 12 l 1
 2 7 l 1
 2 2 l 1
 5 2 l 1
 8 2 l 1
 8 5 l 1
 8 8 l 1
 7 8 l 1
 6 8 l 1
 6 9 l 1
 6 10 l 1
 8 10 l 1
 10 10 l 1
 10 6 l 1
 10 2 l 1
 9 2 l 1
 8 2 l 1
 8 1 l 1
 8 0 l 1
 5 0 l 1
 2 0 l 1
 2 1 l 1
 2 2 l 1
 1 2 l 1
 0 2 l 1
 0 7 l 1
 0 12 l 1
 1 12 l 1
 2 12 l 1
 2 13 l 1
2 19 m 1
 2 20 l 1
 3 20 l 1
 4 20 l 1
 4 19 l 1
 4 18 l 1
 6 18 l 1
 8 18 l 1
 8 19 l 1
 8 20 l 1
 9 20 l 1
 10 20 l 1
 10 19 l 1
 10 18 l 1
 9 18 l 1
 8 18 l 1
 8 17 l 1
 8 16 l 1
 6 16 l 1
 4 16 l 1
 4 17 l 1
 4 18 l 1
 3 18 l 1
 2 18 l 1
 2 19 l 1
EndSplineSet
EndChar

StartChar: glyph2547
Encoding: 287 287 134
Width: 11
VWidth: 0
Flags: HMW
LayerCount: 2
Back
Fore
SplineSet
2 9 m 1
 2 10 l 1
 6 10 l 1
 10 10 l 1
 10 5 l 1
 10 0 l 1
 9 0 l 1
 8 0 l 1
 8 -1 l 1
 8 -2 l 1
 4 -2 l 1
 0 -2 l 1
 0 -1 l 1
 0 0 l 1
 4 0 l 1
 8 0 l 1
 8 1 l 1
 8 2 l 1
 5 2 l 1
 2 2 l 1
 2 3 l 1
 2 4 l 1
 1 4 l 1
 0 4 l 1
 0 6 l 1
 0 8 l 1
 1 8 l 1
 2 8 l 1
 2 9 l 1
8 6 m 1
 8 8 l 1
 5 8 l 1
 2 8 l 1
 2 6 l 1
 2 4 l 1
 5 4 l 1
 8 4 l 1
 8 6 l 1
2 15 m 1
 2 16 l 1
 3 16 l 1
 4 16 l 1
 4 15 l 1
 4 14 l 1
 6 14 l 1
 8 14 l 1
 8 15 l 1
 8 16 l 1
 9 16 l 1
 10 16 l 1
 10 15 l 1
 10 14 l 1
 9 14 l 1
 8 14 l 1
 8 13 l 1
 8 12 l 1
 6 12 l 1
 4 12 l 1
 4 13 l 1
 4 14 l 1
 3 14 l 1
 2 14 l 1
 2 15 l 1
EndSplineSet
EndChar

StartChar: glyph2548
Encoding: 288 288 135
Width: 11
VWidth: 0
Flags: HMW
LayerCount: 2
Back
Fore
SplineSet
2 13 m 1
 2 14 l 1
 6 14 l 1
 10 14 l 1
 10 13 l 1
 10 12 l 1
 6 12 l 1
 2 12 l 1
 2 7 l 1
 2 2 l 1
 5 2 l 1
 8 2 l 1
 8 5 l 1
 8 8 l 1
 7 8 l 1
 6 8 l 1
 6 9 l 1
 6 10 l 1
 8 10 l 1
 10 10 l 1
 10 6 l 1
 10 2 l 1
 9 2 l 1
 8 2 l 1
 8 1 l 1
 8 0 l 1
 5 0 l 1
 2 0 l 1
 2 1 l 1
 2 2 l 1
 1 2 l 1
 0 2 l 1
 0 7 l 1
 0 12 l 1
 1 12 l 1
 2 12 l 1
 2 13 l 1
4 17 m 1
 4 18 l 1
 5 18 l 1
 6 18 l 1
 6 17 l 1
 6 16 l 1
 5 16 l 1
 4 16 l 1
 4 17 l 1
EndSplineSet
EndChar

StartChar: glyph2549
Encoding: 289 289 136
Width: 11
VWidth: 0
Flags: HMW
LayerCount: 2
Back
Fore
SplineSet
2 9 m 1
 2 10 l 1
 6 10 l 1
 10 10 l 1
 10 5 l 1
 10 0 l 1
 9 0 l 1
 8 0 l 1
 8 -1 l 1
 8 -2 l 1
 4 -2 l 1
 0 -2 l 1
 0 -1 l 1
 0 0 l 1
 4 0 l 1
 8 0 l 1
 8 1 l 1
 8 2 l 1
 5 2 l 1
 2 2 l 1
 2 3 l 1
 2 4 l 1
 1 4 l 1
 0 4 l 1
 0 6 l 1
 0 8 l 1
 1 8 l 1
 2 8 l 1
 2 9 l 1
8 6 m 1
 8 8 l 1
 5 8 l 1
 2 8 l 1
 2 6 l 1
 2 4 l 1
 5 4 l 1
 8 4 l 1
 8 6 l 1
4 13 m 1
 4 14 l 1
 5 14 l 1
 6 14 l 1
 6 13 l 1
 6 12 l 1
 5 12 l 1
 4 12 l 1
 4 13 l 1
EndSplineSet
EndChar

StartChar: glyph2550
Encoding: 290 290 137
Width: 11
VWidth: 0
Flags: HMW
LayerCount: 2
Back
Fore
SplineSet
2 13 m 1
 2 14 l 1
 6 14 l 1
 10 14 l 1
 10 13 l 1
 10 12 l 1
 6 12 l 1
 2 12 l 1
 2 7 l 1
 2 2 l 1
 5 2 l 1
 8 2 l 1
 8 5 l 1
 8 8 l 1
 7 8 l 1
 6 8 l 1
 6 9 l 1
 6 10 l 1
 8 10 l 1
 10 10 l 1
 10 6 l 1
 10 2 l 1
 9 2 l 1
 8 2 l 1
 8 1 l 1
 8 0 l 1
 7 0 l 1
 6 0 l 1
 6 -1 l 1
 6 -2 l 1
 5 -2 l 1
 4 -2 l 1
 4 -3 l 1
 4 -4 l 1
 3 -4 l 1
 2 -4 l 1
 2 -3 l 1
 2 -2 l 1
 3 -2 l 1
 4 -2 l 1
 4 -1 l 1
 4 0 l 1
 3 0 l 1
 2 0 l 1
 2 1 l 1
 2 2 l 1
 1 2 l 1
 0 2 l 1
 0 7 l 1
 0 12 l 1
 1 12 l 1
 2 12 l 1
 2 13 l 1
EndSplineSet
EndChar

StartChar: glyph2551
Encoding: 291 291 138
Width: 11
VWidth: 0
Flags: HMW
LayerCount: 2
Back
Fore
SplineSet
2 9 m 1
 2 10 l 1
 6 10 l 1
 10 10 l 1
 10 5 l 1
 10 0 l 1
 9 0 l 1
 8 0 l 1
 8 -1 l 1
 8 -2 l 1
 4 -2 l 1
 0 -2 l 1
 0 -1 l 1
 0 0 l 1
 4 0 l 1
 8 0 l 1
 8 1 l 1
 8 2 l 1
 5 2 l 1
 2 2 l 1
 2 3 l 1
 2 4 l 1
 1 4 l 1
 0 4 l 1
 0 6 l 1
 0 8 l 1
 1 8 l 1
 2 8 l 1
 2 9 l 1
8 6 m 1
 8 8 l 1
 5 8 l 1
 2 8 l 1
 2 6 l 1
 2 4 l 1
 5 4 l 1
 8 4 l 1
 8 6 l 1
6 15 m 1
 6 16 l 1
 7 16 l 1
 8 16 l 1
 8 15 l 1
 8 14 l 1
 7 14 l 1
 6 14 l 1
 6 13 l 1
 6 12 l 1
 5 12 l 1
 4 12 l 1
 4 13 l 1
 4 14 l 1
 5 14 l 1
 6 14 l 1
 6 15 l 1
EndSplineSet
EndChar

StartChar: glyph2552
Encoding: 292 292 139
Width: 11
VWidth: 0
Flags: HMW
LayerCount: 2
Back
Fore
SplineSet
0 7 m 1
 0 14 l 1
 1 14 l 1
 2 14 l 1
 2 12 l 1
 2 10 l 1
 5 10 l 1
 8 10 l 1
 8 12 l 1
 8 14 l 1
 9 14 l 1
 10 14 l 1
 10 7 l 1
 10 0 l 1
 9 0 l 1
 8 0 l 1
 8 4 l 1
 8 8 l 1
 5 8 l 1
 2 8 l 1
 2 4 l 1
 2 0 l 1
 1 0 l 1
 0 0 l 1
 0 7 l 1
4 19 m 1
 4 20 l 1
 5 20 l 1
 6 20 l 1
 6 19 l 1
 6 18 l 1
 7 18 l 1
 8 18 l 1
 8 17 l 1
 8 16 l 1
 7 16 l 1
 6 16 l 1
 6 17 l 1
 6 18 l 1
 5 18 l 1
 4 18 l 1
 4 17 l 1
 4 16 l 1
 3 16 l 1
 2 16 l 1
 2 17 l 1
 2 18 l 1
 3 18 l 1
 4 18 l 1
 4 19 l 1
EndSplineSet
EndChar

StartChar: glyph2553
Encoding: 293 293 140
Width: 11
VWidth: 0
Flags: HMW
LayerCount: 2
Back
Fore
SplineSet
0 7 m 1
 0 14 l 1
 1 14 l 1
 2 14 l 1
 2 11 l 1
 2 8 l 1
 3 8 l 1
 4 8 l 1
 4 9 l 1
 4 10 l 1
 6 10 l 1
 8 10 l 1
 8 9 l 1
 8 8 l 1
 9 8 l 1
 10 8 l 1
 10 4 l 1
 10 0 l 1
 9 0 l 1
 8 0 l 1
 8 4 l 1
 8 8 l 1
 6 8 l 1
 4 8 l 1
 4 7 l 1
 4 6 l 1
 3 6 l 1
 2 6 l 1
 2 3 l 1
 2 0 l 1
 1 0 l 1
 0 0 l 1
 0 7 l 1
4 19 m 1
 4 20 l 1
 5 20 l 1
 6 20 l 1
 6 19 l 1
 6 18 l 1
 7 18 l 1
 8 18 l 1
 8 17 l 1
 8 16 l 1
 7 16 l 1
 6 16 l 1
 6 17 l 1
 6 18 l 1
 5 18 l 1
 4 18 l 1
 4 17 l 1
 4 16 l 1
 3 16 l 1
 2 16 l 1
 2 17 l 1
 2 18 l 1
 3 18 l 1
 4 18 l 1
 4 19 l 1
EndSplineSet
EndChar

StartChar: glyph2554
Encoding: 294 294 141
Width: 15
VWidth: 0
Flags: HMW
LayerCount: 2
Back
Fore
SplineSet
2 13 m 1
 2 14 l 1
 3 14 l 1
 4 14 l 1
 4 13 l 1
 4 12 l 1
 7 12 l 1
 10 12 l 1
 10 13 l 1
 10 14 l 1
 11 14 l 1
 12 14 l 1
 12 13 l 1
 12 12 l 1
 13 12 l 1
 14 12 l 1
 14 11 l 1
 14 10 l 1
 13 10 l 1
 12 10 l 1
 12 5 l 1
 12 0 l 1
 11 0 l 1
 10 0 l 1
 10 3 l 1
 10 6 l 1
 7 6 l 1
 4 6 l 1
 4 3 l 1
 4 0 l 1
 3 0 l 1
 2 0 l 1
 2 5 l 1
 2 10 l 1
 1 10 l 1
 0 10 l 1
 0 11 l 1
 0 12 l 1
 1 12 l 1
 2 12 l 1
 2 13 l 1
10 9 m 1
 10 10 l 1
 7 10 l 1
 4 10 l 1
 4 9 l 1
 4 8 l 1
 7 8 l 1
 10 8 l 1
 10 9 l 1
EndSplineSet
EndChar

StartChar: glyph2555
Encoding: 295 295 142
Width: 13
VWidth: 0
Flags: HMW
LayerCount: 2
Back
Fore
SplineSet
2 13 m 1
 2 14 l 1
 3 14 l 1
 4 14 l 1
 4 13 l 1
 4 12 l 1
 6 12 l 1
 8 12 l 1
 8 11 l 1
 8 10 l 1
 6 10 l 1
 4 10 l 1
 4 8 l 1
 4 6 l 1
 5 6 l 1
 6 6 l 1
 6 7 l 1
 6 8 l 1
 8 8 l 1
 10 8 l 1
 10 7 l 1
 10 6 l 1
 11 6 l 1
 12 6 l 1
 12 3 l 1
 12 0 l 1
 11 0 l 1
 10 0 l 1
 10 3 l 1
 10 6 l 1
 8 6 l 1
 6 6 l 1
 6 5 l 1
 6 4 l 1
 5 4 l 1
 4 4 l 1
 4 2 l 1
 4 0 l 1
 3 0 l 1
 2 0 l 1
 2 5 l 1
 2 10 l 1
 1 10 l 1
 0 10 l 1
 0 11 l 1
 0 12 l 1
 1 12 l 1
 2 12 l 1
 2 13 l 1
EndSplineSet
EndChar

StartChar: glyph2556
Encoding: 296 296 143
Width: 9
VWidth: 0
Flags: HMW
LayerCount: 2
Back
Fore
SplineSet
0 13 m 1
 0 14 l 1
 3 14 l 1
 6 14 l 1
 6 13 l 1
 6 12 l 1
 5 12 l 1
 4 12 l 1
 4 7 l 1
 4 2 l 1
 5 2 l 1
 6 2 l 1
 6 1 l 1
 6 0 l 1
 3 0 l 1
 0 0 l 1
 0 1 l 1
 0 2 l 1
 1 2 l 1
 2 2 l 1
 2 7 l 1
 2 12 l 1
 1 12 l 1
 0 12 l 1
 0 13 l 1
2 19 m 1
 2 20 l 1
 3 20 l 1
 4 20 l 1
 4 19 l 1
 4 18 l 1
 5 18 l 1
 6 18 l 1
 6 19 l 1
 6 20 l 1
 7 20 l 1
 8 20 l 1
 8 19 l 1
 8 18 l 1
 7 18 l 1
 6 18 l 1
 6 17 l 1
 6 16 l 1
 5 16 l 1
 4 16 l 1
 4 17 l 1
 4 18 l 1
 3 18 l 1
 2 18 l 1
 2 17 l 1
 2 16 l 1
 1 16 l 1
 0 16 l 1
 0 17 l 1
 0 18 l 1
 1 18 l 1
 2 18 l 1
 2 19 l 1
EndSplineSet
EndChar

StartChar: glyph2557
Encoding: 297 297 144
Width: 9
VWidth: 0
Flags: HMW
LayerCount: 2
Back
Fore
SplineSet
2 5 m 1
 2 10 l 1
 3 10 l 1
 4 10 l 1
 4 5 l 1
 4 0 l 1
 3 0 l 1
 2 0 l 1
 2 5 l 1
2 15 m 1
 2 16 l 1
 3 16 l 1
 4 16 l 1
 4 15 l 1
 4 14 l 1
 5 14 l 1
 6 14 l 1
 6 15 l 1
 6 16 l 1
 7 16 l 1
 8 16 l 1
 8 15 l 1
 8 14 l 1
 7 14 l 1
 6 14 l 1
 6 13 l 1
 6 12 l 1
 5 12 l 1
 4 12 l 1
 4 13 l 1
 4 14 l 1
 3 14 l 1
 2 14 l 1
 2 13 l 1
 2 12 l 1
 1 12 l 1
 0 12 l 1
 0 13 l 1
 0 14 l 1
 1 14 l 1
 2 14 l 1
 2 15 l 1
EndSplineSet
EndChar

StartChar: glyph2558
Encoding: 298 298 145
Width: 7
VWidth: 0
Flags: HMW
LayerCount: 2
Back
Fore
SplineSet
0 13 m 1
 0 14 l 1
 3 14 l 1
 6 14 l 1
 6 13 l 1
 6 12 l 1
 5 12 l 1
 4 12 l 1
 4 7 l 1
 4 2 l 1
 5 2 l 1
 6 2 l 1
 6 1 l 1
 6 0 l 1
 3 0 l 1
 0 0 l 1
 0 1 l 1
 0 2 l 1
 1 2 l 1
 2 2 l 1
 2 7 l 1
 2 12 l 1
 1 12 l 1
 0 12 l 1
 0 13 l 1
0 17 m 1
 0 18 l 1
 3 18 l 1
 6 18 l 1
 6 17 l 1
 6 16 l 1
 3 16 l 1
 0 16 l 1
 0 17 l 1
EndSplineSet
EndChar

StartChar: glyph2559
Encoding: 299 299 146
Width: 7
VWidth: 0
Flags: HMW
LayerCount: 2
Back
Fore
SplineSet
2 5 m 1
 2 10 l 1
 3 10 l 1
 4 10 l 1
 4 5 l 1
 4 0 l 1
 3 0 l 1
 2 0 l 1
 2 5 l 1
0 13 m 1
 0 14 l 1
 3 14 l 1
 6 14 l 1
 6 13 l 1
 6 12 l 1
 3 12 l 1
 0 12 l 1
 0 13 l 1
EndSplineSet
EndChar

StartChar: glyph2560
Encoding: 300 300 147
Width: 9
VWidth: 0
Flags: HMW
LayerCount: 2
Back
Fore
SplineSet
0 13 m 1
 0 14 l 1
 3 14 l 1
 6 14 l 1
 6 13 l 1
 6 12 l 1
 5 12 l 1
 4 12 l 1
 4 7 l 1
 4 2 l 1
 5 2 l 1
 6 2 l 1
 6 1 l 1
 6 0 l 1
 3 0 l 1
 0 0 l 1
 0 1 l 1
 0 2 l 1
 1 2 l 1
 2 2 l 1
 2 7 l 1
 2 12 l 1
 1 12 l 1
 0 12 l 1
 0 13 l 1
0 19 m 1
 0 20 l 1
 1 20 l 1
 2 20 l 1
 2 19 l 1
 2 18 l 1
 4 18 l 1
 6 18 l 1
 6 19 l 1
 6 20 l 1
 7 20 l 1
 8 20 l 1
 8 19 l 1
 8 18 l 1
 7 18 l 1
 6 18 l 1
 6 17 l 1
 6 16 l 1
 4 16 l 1
 2 16 l 1
 2 17 l 1
 2 18 l 1
 1 18 l 1
 0 18 l 1
 0 19 l 1
EndSplineSet
EndChar

StartChar: glyph2561
Encoding: 301 301 148
Width: 9
VWidth: 0
Flags: HMW
LayerCount: 2
Back
Fore
SplineSet
2 5 m 1
 2 10 l 1
 3 10 l 1
 4 10 l 1
 4 5 l 1
 4 0 l 1
 3 0 l 1
 2 0 l 1
 2 5 l 1
0 15 m 1
 0 16 l 1
 1 16 l 1
 2 16 l 1
 2 15 l 1
 2 14 l 1
 4 14 l 1
 6 14 l 1
 6 15 l 1
 6 16 l 1
 7 16 l 1
 8 16 l 1
 8 15 l 1
 8 14 l 1
 7 14 l 1
 6 14 l 1
 6 13 l 1
 6 12 l 1
 4 12 l 1
 2 12 l 1
 2 13 l 1
 2 14 l 1
 1 14 l 1
 0 14 l 1
 0 15 l 1
EndSplineSet
EndChar

StartChar: glyph2562
Encoding: 302 302 149
Width: 7
VWidth: 0
Flags: HMW
LayerCount: 2
Back
Fore
SplineSet
0 13 m 1
 0 14 l 1
 3 14 l 1
 6 14 l 1
 6 13 l 1
 6 12 l 1
 5 12 l 1
 4 12 l 1
 4 7 l 1
 4 2 l 1
 5 2 l 1
 6 2 l 1
 6 1 l 1
 6 0 l 1
 4 0 l 1
 2 0 l 1
 2 -1 l 1
 2 -2 l 1
 3 -2 l 1
 4 -2 l 1
 4 -3 l 1
 4 -4 l 1
 3 -4 l 1
 2 -4 l 1
 2 -3 l 1
 2 -2 l 1
 1 -2 l 1
 0 -2 l 1
 0 0 l 1
 0 2 l 1
 1 2 l 1
 2 2 l 1
 2 7 l 1
 2 12 l 1
 1 12 l 1
 0 12 l 1
 0 13 l 1
EndSplineSet
EndChar

StartChar: glyph2563
Encoding: 303 303 150
Width: 5
VWidth: 0
Flags: HMW
LayerCount: 2
Back
Fore
SplineSet
2 5 m 1
 2 10 l 1
 3 10 l 1
 4 10 l 1
 4 5 l 1
 4 0 l 1
 3 0 l 1
 2 0 l 1
 2 -1 l 1
 2 -2 l 1
 3 -2 l 1
 4 -2 l 1
 4 -3 l 1
 4 -4 l 1
 3 -4 l 1
 2 -4 l 1
 2 -3 l 1
 2 -2 l 1
 1 -2 l 1
 0 -2 l 1
 0 -1 l 1
 0 0 l 1
 1 0 l 1
 2 0 l 1
 2 5 l 1
2 13 m 1
 2 14 l 1
 3 14 l 1
 4 14 l 1
 4 13 l 1
 4 12 l 1
 3 12 l 1
 2 12 l 1
 2 13 l 1
EndSplineSet
EndChar

StartChar: glyph2564
Encoding: 304 304 151
Width: 7
VWidth: 0
Flags: HMW
LayerCount: 2
Back
Fore
SplineSet
0 13 m 1
 0 14 l 1
 3 14 l 1
 6 14 l 1
 6 13 l 1
 6 12 l 1
 5 12 l 1
 4 12 l 1
 4 7 l 1
 4 2 l 1
 5 2 l 1
 6 2 l 1
 6 1 l 1
 6 0 l 1
 3 0 l 1
 0 0 l 1
 0 1 l 1
 0 2 l 1
 1 2 l 1
 2 2 l 1
 2 7 l 1
 2 12 l 1
 1 12 l 1
 0 12 l 1
 0 13 l 1
2 17 m 1
 2 18 l 1
 3 18 l 1
 4 18 l 1
 4 17 l 1
 4 16 l 1
 3 16 l 1
 2 16 l 1
 2 17 l 1
EndSplineSet
EndChar

StartChar: glyph2565
Encoding: 305 305 152
Width: 3
VWidth: 0
Flags: HMW
LayerCount: 2
Back
Fore
SplineSet
0 5 m 1
 0 10 l 1
 1 10 l 1
 2 10 l 1
 2 5 l 1
 2 0 l 1
 1 0 l 1
 0 0 l 1
 0 5 l 1
EndSplineSet
EndChar

StartChar: glyph2566
Encoding: 306 306 153
Width: 11
VWidth: 0
Flags: HMW
LayerCount: 2
Back
Fore
SplineSet
8 8 m 1
 8 14 l 1
 9 14 l 1
 10 14 l 1
 10 8 l 1
 10 2 l 1
 9 2 l 1
 8 2 l 1
 8 1 l 1
 8 0 l 1
 5 0 l 1
 2 0 l 1
 2 1 l 1
 2 2 l 1
 1 2 l 1
 0 2 l 1
 0 3 l 1
 0 4 l 1
 1 4 l 1
 2 4 l 1
 2 3 l 1
 2 2 l 1
 5 2 l 1
 8 2 l 1
 8 8 l 1
0 10 m 1
 0 14 l 1
 1 14 l 1
 2 14 l 1
 2 10 l 1
 2 6 l 1
 1 6 l 1
 0 6 l 1
 0 10 l 1
EndSplineSet
EndChar

StartChar: glyph2567
Encoding: 307 307 154
Width: 9
VWidth: 0
Flags: HMW
LayerCount: 2
Back
Fore
SplineSet
6 5 m 1
 6 10 l 1
 7 10 l 1
 8 10 l 1
 8 5 l 1
 8 0 l 1
 7 0 l 1
 6 0 l 1
 6 -1 l 1
 6 -2 l 1
 3 -2 l 1
 0 -2 l 1
 0 -1 l 1
 0 0 l 1
 3 0 l 1
 6 0 l 1
 6 5 l 1
0 6 m 1
 0 10 l 1
 1 10 l 1
 2 10 l 1
 2 6 l 1
 2 2 l 1
 1 2 l 1
 0 2 l 1
 0 6 l 1
6 13 m 1
 6 14 l 1
 7 14 l 1
 8 14 l 1
 8 13 l 1
 8 12 l 1
 7 12 l 1
 6 12 l 1
 6 13 l 1
0 13 m 1
 0 14 l 1
 1 14 l 1
 2 14 l 1
 2 13 l 1
 2 12 l 1
 1 12 l 1
 0 12 l 1
 0 13 l 1
EndSplineSet
EndChar

StartChar: glyph2568
Encoding: 308 308 155
Width: 11
VWidth: 0
Flags: HMW
LayerCount: 2
Back
Fore
SplineSet
8 8 m 1
 8 14 l 1
 9 14 l 1
 10 14 l 1
 10 8 l 1
 10 2 l 1
 9 2 l 1
 8 2 l 1
 8 1 l 1
 8 0 l 1
 5 0 l 1
 2 0 l 1
 2 1 l 1
 2 2 l 1
 1 2 l 1
 0 2 l 1
 0 3 l 1
 0 4 l 1
 1 4 l 1
 2 4 l 1
 2 3 l 1
 2 2 l 1
 5 2 l 1
 8 2 l 1
 8 8 l 1
4 19 m 1
 4 20 l 1
 5 20 l 1
 6 20 l 1
 6 19 l 1
 6 18 l 1
 7 18 l 1
 8 18 l 1
 8 17 l 1
 8 16 l 1
 7 16 l 1
 6 16 l 1
 6 17 l 1
 6 18 l 1
 5 18 l 1
 4 18 l 1
 4 17 l 1
 4 16 l 1
 3 16 l 1
 2 16 l 1
 2 17 l 1
 2 18 l 1
 3 18 l 1
 4 18 l 1
 4 19 l 1
EndSplineSet
EndChar

StartChar: glyph2569
Encoding: 309 309 156
Width: 11
VWidth: 0
Flags: HMW
LayerCount: 2
Back
Fore
SplineSet
8 5 m 1
 8 10 l 1
 9 10 l 1
 10 10 l 1
 10 5 l 1
 10 0 l 1
 9 0 l 1
 8 0 l 1
 8 -1 l 1
 8 -2 l 1
 5 -2 l 1
 2 -2 l 1
 2 -1 l 1
 2 0 l 1
 1 0 l 1
 0 0 l 1
 0 2 l 1
 0 4 l 1
 1 4 l 1
 2 4 l 1
 2 2 l 1
 2 0 l 1
 5 0 l 1
 8 0 l 1
 8 5 l 1
4 15 m 1
 4 16 l 1
 5 16 l 1
 6 16 l 1
 6 15 l 1
 6 14 l 1
 7 14 l 1
 8 14 l 1
 8 13 l 1
 8 12 l 1
 7 12 l 1
 6 12 l 1
 6 13 l 1
 6 14 l 1
 5 14 l 1
 4 14 l 1
 4 13 l 1
 4 12 l 1
 3 12 l 1
 2 12 l 1
 2 13 l 1
 2 14 l 1
 3 14 l 1
 4 14 l 1
 4 15 l 1
EndSplineSet
EndChar

StartChar: glyph2570
Encoding: 310 310 157
Width: 11
VWidth: 0
Flags: HMW
LayerCount: 2
Back
Fore
SplineSet
4 -1 m 1
 4 0 l 1
 5 0 l 1
 6 0 l 1
 6 -1 l 1
 6 -2 l 1
 5 -2 l 1
 4 -2 l 1
 4 -3 l 1
 4 -4 l 1
 3 -4 l 1
 2 -4 l 1
 2 -3 l 1
 2 -2 l 1
 3 -2 l 1
 4 -2 l 1
 4 -1 l 1
0 7 m 1
 0 14 l 1
 1 14 l 1
 2 14 l 1
 2 12 l 1
 2 10 l 1
 4 10 l 1
 6 10 l 1
 6 11 l 1
 6 12 l 1
 7 12 l 1
 8 12 l 1
 8 13 l 1
 8 14 l 1
 9 14 l 1
 10 14 l 1
 10 13 l 1
 10 12 l 1
 9 12 l 1
 8 12 l 1
 8 11 l 1
 8 10 l 1
 7 10 l 1
 6 10 l 1
 6 9 l 1
 6 8 l 1
 7 8 l 1
 8 8 l 1
 8 7 l 1
 8 6 l 1
 9 6 l 1
 10 6 l 1
 10 3 l 1
 10 0 l 1
 9 0 l 1
 8 0 l 1
 8 3 l 1
 8 6 l 1
 7 6 l 1
 6 6 l 1
 6 7 l 1
 6 8 l 1
 4 8 l 1
 2 8 l 1
 2 4 l 1
 2 0 l 1
 1 0 l 1
 0 0 l 1
 0 7 l 1
EndSplineSet
EndChar

StartChar: glyph2571
Encoding: 311 311 158
Width: 9
VWidth: 0
Flags: HMW
LayerCount: 2
Back
Fore
SplineSet
0 7 m 1
 0 14 l 1
 1 14 l 1
 2 14 l 1
 2 10 l 1
 2 6 l 1
 3 6 l 1
 4 6 l 1
 4 7 l 1
 4 8 l 1
 5 8 l 1
 6 8 l 1
 6 9 l 1
 6 10 l 1
 7 10 l 1
 8 10 l 1
 8 9 l 1
 8 8 l 1
 7 8 l 1
 6 8 l 1
 6 7 l 1
 6 6 l 1
 5 6 l 1
 4 6 l 1
 4 5 l 1
 4 4 l 1
 5 4 l 1
 6 4 l 1
 6 3 l 1
 6 2 l 1
 7 2 l 1
 8 2 l 1
 8 1 l 1
 8 0 l 1
 7 0 l 1
 6 0 l 1
 6 -1 l 1
 6 -2 l 1
 5 -2 l 1
 4 -2 l 1
 4 -3 l 1
 4 -4 l 1
 3 -4 l 1
 2 -4 l 1
 2 -3 l 1
 2 -2 l 1
 3 -2 l 1
 4 -2 l 1
 4 -1 l 1
 4 0 l 1
 5 0 l 1
 6 0 l 1
 6 1 l 1
 6 2 l 1
 5 2 l 1
 4 2 l 1
 4 3 l 1
 4 4 l 1
 3 4 l 1
 2 4 l 1
 2 2 l 1
 2 0 l 1
 1 0 l 1
 0 0 l 1
 0 7 l 1
EndSplineSet
EndChar

StartChar: glyph2572
Encoding: 312 312 159
Width: 9
VWidth: 0
Flags: HMW
LayerCount: 2
Back
Fore
SplineSet
0 5 m 1
 0 10 l 1
 1 10 l 1
 2 10 l 1
 2 8 l 1
 2 6 l 1
 3 6 l 1
 4 6 l 1
 4 7 l 1
 4 8 l 1
 5 8 l 1
 6 8 l 1
 6 9 l 1
 6 10 l 1
 7 10 l 1
 8 10 l 1
 8 9 l 1
 8 8 l 1
 7 8 l 1
 6 8 l 1
 6 7 l 1
 6 6 l 1
 5 6 l 1
 4 6 l 1
 4 5 l 1
 4 4 l 1
 5 4 l 1
 6 4 l 1
 6 3 l 1
 6 2 l 1
 7 2 l 1
 8 2 l 1
 8 1 l 1
 8 0 l 1
 7 0 l 1
 6 0 l 1
 6 1 l 1
 6 2 l 1
 5 2 l 1
 4 2 l 1
 4 3 l 1
 4 4 l 1
 3 4 l 1
 2 4 l 1
 2 2 l 1
 2 0 l 1
 1 0 l 1
 0 0 l 1
 0 5 l 1
EndSplineSet
EndChar

StartChar: glyph2573
Encoding: 313 313 160
Width: 11
VWidth: 0
Flags: HMW
LayerCount: 2
Back
Fore
SplineSet
0 7 m 1
 0 14 l 1
 1 14 l 1
 2 14 l 1
 2 8 l 1
 2 2 l 1
 6 2 l 1
 10 2 l 1
 10 1 l 1
 10 0 l 1
 5 0 l 1
 0 0 l 1
 0 7 l 1
6 19 m 1
 6 20 l 1
 7 20 l 1
 8 20 l 1
 8 19 l 1
 8 18 l 1
 7 18 l 1
 6 18 l 1
 6 17 l 1
 6 16 l 1
 5 16 l 1
 4 16 l 1
 4 17 l 1
 4 18 l 1
 5 18 l 1
 6 18 l 1
 6 19 l 1
EndSplineSet
EndChar

StartChar: glyph2574
Encoding: 314 314 161
Width: 5
VWidth: 0
Flags: HMW
LayerCount: 2
Back
Fore
SplineSet
0 8 m 1
 0 14 l 1
 1 14 l 1
 2 14 l 1
 2 8 l 1
 2 2 l 1
 3 2 l 1
 4 2 l 1
 4 1 l 1
 4 0 l 1
 3 0 l 1
 2 0 l 1
 2 1 l 1
 2 2 l 1
 1 2 l 1
 0 2 l 1
 0 8 l 1
2 19 m 1
 2 20 l 1
 3 20 l 1
 4 20 l 1
 4 19 l 1
 4 18 l 1
 3 18 l 1
 2 18 l 1
 2 17 l 1
 2 16 l 1
 1 16 l 1
 0 16 l 1
 0 17 l 1
 0 18 l 1
 1 18 l 1
 2 18 l 1
 2 19 l 1
EndSplineSet
EndChar

StartChar: glyph2575
Encoding: 315 315 162
Width: 11
VWidth: 0
Flags: HMW
LayerCount: 2
Back
Fore
SplineSet
0 7 m 1
 0 14 l 1
 1 14 l 1
 2 14 l 1
 2 8 l 1
 2 2 l 1
 6 2 l 1
 10 2 l 1
 10 1 l 1
 10 0 l 1
 9 0 l 1
 8 0 l 1
 8 -1 l 1
 8 -2 l 1
 7 -2 l 1
 6 -2 l 1
 6 -3 l 1
 6 -4 l 1
 5 -4 l 1
 4 -4 l 1
 4 -3 l 1
 4 -2 l 1
 5 -2 l 1
 6 -2 l 1
 6 -1 l 1
 6 0 l 1
 3 0 l 1
 0 0 l 1
 0 7 l 1
EndSplineSet
EndChar

StartChar: glyph2576
Encoding: 316 316 163
Width: 5
VWidth: 0
Flags: HMW
LayerCount: 2
Back
Fore
SplineSet
0 7 m 1
 0 14 l 1
 1 14 l 1
 2 14 l 1
 2 7 l 1
 2 0 l 1
 3 0 l 1
 4 0 l 1
 4 -1 l 1
 4 -2 l 1
 3 -2 l 1
 2 -2 l 1
 2 -3 l 1
 2 -4 l 1
 1 -4 l 1
 0 -4 l 1
 0 -3 l 1
 0 -2 l 1
 1 -2 l 1
 2 -2 l 1
 2 -1 l 1
 2 0 l 1
 1 0 l 1
 0 0 l 1
 0 7 l 1
EndSplineSet
EndChar

StartChar: glyph2577
Encoding: 317 317 164
Width: 11
VWidth: 0
Flags: HMW
LayerCount: 2
Back
Fore
SplineSet
6 12 m 1
 6 14 l 1
 7 14 l 1
 8 14 l 1
 8 12 l 1
 8 10 l 1
 7 10 l 1
 6 10 l 1
 6 12 l 1
0 7 m 1
 0 14 l 1
 1 14 l 1
 2 14 l 1
 2 8 l 1
 2 2 l 1
 6 2 l 1
 10 2 l 1
 10 1 l 1
 10 0 l 1
 5 0 l 1
 0 0 l 1
 0 7 l 1
EndSplineSet
EndChar

StartChar: glyph2578
Encoding: 318 318 165
Width: 7
VWidth: 0
Flags: HMW
LayerCount: 2
Back
Fore
SplineSet
4 12 m 1
 4 14 l 1
 5 14 l 1
 6 14 l 1
 6 12 l 1
 6 10 l 1
 5 10 l 1
 4 10 l 1
 4 12 l 1
0 8 m 1
 0 14 l 1
 1 14 l 1
 2 14 l 1
 2 8 l 1
 2 2 l 1
 3 2 l 1
 4 2 l 1
 4 1 l 1
 4 0 l 1
 3 0 l 1
 2 0 l 1
 2 1 l 1
 2 2 l 1
 1 2 l 1
 0 2 l 1
 0 8 l 1
EndSplineSet
EndChar

StartChar: glyph2579
Encoding: 319 319 166
Width: 11
VWidth: 0
Flags: HMW
LayerCount: 2
Back
Fore
SplineSet
6 7 m 1
 6 8 l 1
 7 8 l 1
 8 8 l 1
 8 7 l 1
 8 6 l 1
 7 6 l 1
 6 6 l 1
 6 7 l 1
0 7 m 1
 0 14 l 1
 1 14 l 1
 2 14 l 1
 2 8 l 1
 2 2 l 1
 6 2 l 1
 10 2 l 1
 10 1 l 1
 10 0 l 1
 5 0 l 1
 0 0 l 1
 0 7 l 1
EndSplineSet
EndChar

StartChar: glyph2580
Encoding: 320 320 167
Width: 7
VWidth: 0
Flags: HMW
LayerCount: 2
Back
Fore
SplineSet
4 7 m 1
 4 8 l 1
 5 8 l 1
 6 8 l 1
 6 7 l 1
 6 6 l 1
 5 6 l 1
 4 6 l 1
 4 7 l 1
0 8 m 1
 0 14 l 1
 1 14 l 1
 2 14 l 1
 2 8 l 1
 2 2 l 1
 3 2 l 1
 4 2 l 1
 4 1 l 1
 4 0 l 1
 3 0 l 1
 2 0 l 1
 2 1 l 1
 2 2 l 1
 1 2 l 1
 0 2 l 1
 0 8 l 1
EndSplineSet
EndChar

StartChar: glyph2581
Encoding: 321 321 168
Width: 13
VWidth: 0
Flags: HMW
LayerCount: 2
Back
Fore
SplineSet
2 10 m 1
 2 14 l 1
 3 14 l 1
 4 14 l 1
 4 11 l 1
 4 8 l 1
 5 8 l 1
 6 8 l 1
 6 9 l 1
 6 10 l 1
 7 10 l 1
 8 10 l 1
 8 9 l 1
 8 8 l 1
 7 8 l 1
 6 8 l 1
 6 7 l 1
 6 6 l 1
 5 6 l 1
 4 6 l 1
 4 4 l 1
 4 2 l 1
 8 2 l 1
 12 2 l 1
 12 1 l 1
 12 0 l 1
 7 0 l 1
 2 0 l 1
 2 2 l 1
 2 4 l 1
 1 4 l 1
 0 4 l 1
 0 5 l 1
 0 6 l 1
 1 6 l 1
 2 6 l 1
 2 10 l 1
EndSplineSet
EndChar

StartChar: glyph2582
Encoding: 322 322 169
Width: 9
VWidth: 0
Flags: HMW
LayerCount: 2
Back
Fore
SplineSet
2 10 m 1
 2 14 l 1
 3 14 l 1
 4 14 l 1
 4 11 l 1
 4 8 l 1
 5 8 l 1
 6 8 l 1
 6 9 l 1
 6 10 l 1
 7 10 l 1
 8 10 l 1
 8 9 l 1
 8 8 l 1
 7 8 l 1
 6 8 l 1
 6 7 l 1
 6 6 l 1
 5 6 l 1
 4 6 l 1
 4 4 l 1
 4 2 l 1
 5 2 l 1
 6 2 l 1
 6 1 l 1
 6 0 l 1
 5 0 l 1
 4 0 l 1
 4 1 l 1
 4 2 l 1
 3 2 l 1
 2 2 l 1
 2 3 l 1
 2 4 l 1
 1 4 l 1
 0 4 l 1
 0 5 l 1
 0 6 l 1
 1 6 l 1
 2 6 l 1
 2 10 l 1
EndSplineSet
EndChar

StartChar: glyph2583
Encoding: 323 323 170
Width: 11
VWidth: 0
Flags: HMW
LayerCount: 2
Back
Fore
SplineSet
0 7 m 1
 0 14 l 1
 1 14 l 1
 2 14 l 1
 2 13 l 1
 2 12 l 1
 3 12 l 1
 4 12 l 1
 4 11 l 1
 4 10 l 1
 5 10 l 1
 6 10 l 1
 6 9 l 1
 6 8 l 1
 7 8 l 1
 8 8 l 1
 8 11 l 1
 8 14 l 1
 9 14 l 1
 10 14 l 1
 10 7 l 1
 10 0 l 1
 9 0 l 1
 8 0 l 1
 8 3 l 1
 8 6 l 1
 7 6 l 1
 6 6 l 1
 6 7 l 1
 6 8 l 1
 5 8 l 1
 4 8 l 1
 4 9 l 1
 4 10 l 1
 3 10 l 1
 2 10 l 1
 2 5 l 1
 2 0 l 1
 1 0 l 1
 0 0 l 1
 0 7 l 1
6 19 m 1
 6 20 l 1
 7 20 l 1
 8 20 l 1
 8 19 l 1
 8 18 l 1
 7 18 l 1
 6 18 l 1
 6 17 l 1
 6 16 l 1
 5 16 l 1
 4 16 l 1
 4 17 l 1
 4 18 l 1
 5 18 l 1
 6 18 l 1
 6 19 l 1
EndSplineSet
EndChar

StartChar: glyph2584
Encoding: 324 324 171
Width: 11
VWidth: 0
Flags: HMW
LayerCount: 2
Back
Fore
SplineSet
0 5 m 1
 0 10 l 1
 4 10 l 1
 8 10 l 1
 8 9 l 1
 8 8 l 1
 9 8 l 1
 10 8 l 1
 10 4 l 1
 10 0 l 1
 9 0 l 1
 8 0 l 1
 8 4 l 1
 8 8 l 1
 5 8 l 1
 2 8 l 1
 2 4 l 1
 2 0 l 1
 1 0 l 1
 0 0 l 1
 0 5 l 1
6 15 m 1
 6 16 l 1
 7 16 l 1
 8 16 l 1
 8 15 l 1
 8 14 l 1
 7 14 l 1
 6 14 l 1
 6 13 l 1
 6 12 l 1
 5 12 l 1
 4 12 l 1
 4 13 l 1
 4 14 l 1
 5 14 l 1
 6 14 l 1
 6 15 l 1
EndSplineSet
EndChar

StartChar: glyph2585
Encoding: 325 325 172
Width: 11
VWidth: 0
Flags: HMW
LayerCount: 2
Back
Fore
SplineSet
4 -1 m 1
 4 0 l 1
 5 0 l 1
 6 0 l 1
 6 -1 l 1
 6 -2 l 1
 5 -2 l 1
 4 -2 l 1
 4 -3 l 1
 4 -4 l 1
 3 -4 l 1
 2 -4 l 1
 2 -3 l 1
 2 -2 l 1
 3 -2 l 1
 4 -2 l 1
 4 -1 l 1
0 7 m 1
 0 14 l 1
 1 14 l 1
 2 14 l 1
 2 13 l 1
 2 12 l 1
 3 12 l 1
 4 12 l 1
 4 11 l 1
 4 10 l 1
 5 10 l 1
 6 10 l 1
 6 9 l 1
 6 8 l 1
 7 8 l 1
 8 8 l 1
 8 11 l 1
 8 14 l 1
 9 14 l 1
 10 14 l 1
 10 7 l 1
 10 0 l 1
 9 0 l 1
 8 0 l 1
 8 3 l 1
 8 6 l 1
 7 6 l 1
 6 6 l 1
 6 7 l 1
 6 8 l 1
 5 8 l 1
 4 8 l 1
 4 9 l 1
 4 10 l 1
 3 10 l 1
 2 10 l 1
 2 5 l 1
 2 0 l 1
 1 0 l 1
 0 0 l 1
 0 7 l 1
EndSplineSet
EndChar

StartChar: glyph2586
Encoding: 326 326 173
Width: 11
VWidth: 0
Flags: HMW
LayerCount: 2
Back
Fore
SplineSet
4 -1 m 1
 4 0 l 1
 5 0 l 1
 6 0 l 1
 6 -1 l 1
 6 -2 l 1
 5 -2 l 1
 4 -2 l 1
 4 -3 l 1
 4 -4 l 1
 3 -4 l 1
 2 -4 l 1
 2 -3 l 1
 2 -2 l 1
 3 -2 l 1
 4 -2 l 1
 4 -1 l 1
0 5 m 1
 0 10 l 1
 4 10 l 1
 8 10 l 1
 8 9 l 1
 8 8 l 1
 9 8 l 1
 10 8 l 1
 10 4 l 1
 10 0 l 1
 9 0 l 1
 8 0 l 1
 8 4 l 1
 8 8 l 1
 5 8 l 1
 2 8 l 1
 2 4 l 1
 2 0 l 1
 1 0 l 1
 0 0 l 1
 0 5 l 1
EndSplineSet
EndChar

StartChar: glyph2587
Encoding: 327 327 174
Width: 11
VWidth: 0
Flags: HMW
LayerCount: 2
Back
Fore
SplineSet
0 7 m 1
 0 14 l 1
 1 14 l 1
 2 14 l 1
 2 13 l 1
 2 12 l 1
 3 12 l 1
 4 12 l 1
 4 11 l 1
 4 10 l 1
 5 10 l 1
 6 10 l 1
 6 9 l 1
 6 8 l 1
 7 8 l 1
 8 8 l 1
 8 11 l 1
 8 14 l 1
 9 14 l 1
 10 14 l 1
 10 7 l 1
 10 0 l 1
 9 0 l 1
 8 0 l 1
 8 3 l 1
 8 6 l 1
 7 6 l 1
 6 6 l 1
 6 7 l 1
 6 8 l 1
 5 8 l 1
 4 8 l 1
 4 9 l 1
 4 10 l 1
 3 10 l 1
 2 10 l 1
 2 5 l 1
 2 0 l 1
 1 0 l 1
 0 0 l 1
 0 7 l 1
2 19 m 1
 2 20 l 1
 3 20 l 1
 4 20 l 1
 4 19 l 1
 4 18 l 1
 5 18 l 1
 6 18 l 1
 6 19 l 1
 6 20 l 1
 7 20 l 1
 8 20 l 1
 8 19 l 1
 8 18 l 1
 7 18 l 1
 6 18 l 1
 6 17 l 1
 6 16 l 1
 5 16 l 1
 4 16 l 1
 4 17 l 1
 4 18 l 1
 3 18 l 1
 2 18 l 1
 2 19 l 1
EndSplineSet
EndChar

StartChar: glyph2588
Encoding: 328 328 175
Width: 11
VWidth: 0
Flags: HMW
LayerCount: 2
Back
Fore
SplineSet
0 5 m 1
 0 10 l 1
 4 10 l 1
 8 10 l 1
 8 9 l 1
 8 8 l 1
 9 8 l 1
 10 8 l 1
 10 4 l 1
 10 0 l 1
 9 0 l 1
 8 0 l 1
 8 4 l 1
 8 8 l 1
 5 8 l 1
 2 8 l 1
 2 4 l 1
 2 0 l 1
 1 0 l 1
 0 0 l 1
 0 5 l 1
2 15 m 1
 2 16 l 1
 3 16 l 1
 4 16 l 1
 4 15 l 1
 4 14 l 1
 5 14 l 1
 6 14 l 1
 6 15 l 1
 6 16 l 1
 7 16 l 1
 8 16 l 1
 8 15 l 1
 8 14 l 1
 7 14 l 1
 6 14 l 1
 6 13 l 1
 6 12 l 1
 5 12 l 1
 4 12 l 1
 4 13 l 1
 4 14 l 1
 3 14 l 1
 2 14 l 1
 2 15 l 1
EndSplineSet
EndChar

StartChar: glyph2589
Encoding: 329 329 176
Width: 15
VWidth: 0
Flags: HMW
LayerCount: 2
Back
Fore
SplineSet
4 5 m 1
 4 10 l 1
 8 10 l 1
 12 10 l 1
 12 9 l 1
 12 8 l 1
 13 8 l 1
 14 8 l 1
 14 4 l 1
 14 0 l 1
 13 0 l 1
 12 0 l 1
 12 4 l 1
 12 8 l 1
 9 8 l 1
 6 8 l 1
 6 4 l 1
 6 0 l 1
 5 0 l 1
 4 0 l 1
 4 5 l 1
0 12 m 1
 0 14 l 1
 1 14 l 1
 2 14 l 1
 2 12 l 1
 2 10 l 1
 1 10 l 1
 0 10 l 1
 0 12 l 1
EndSplineSet
EndChar

StartChar: glyph2590
Encoding: 330 330 177
Width: 11
VWidth: 0
Flags: HMW
LayerCount: 2
Back
Fore
SplineSet
0 7 m 1
 0 14 l 1
 1 14 l 1
 2 14 l 1
 2 13 l 1
 2 12 l 1
 3 12 l 1
 4 12 l 1
 4 11 l 1
 4 10 l 1
 5 10 l 1
 6 10 l 1
 6 9 l 1
 6 8 l 1
 7 8 l 1
 8 8 l 1
 8 11 l 1
 8 14 l 1
 9 14 l 1
 10 14 l 1
 10 7 l 1
 10 0 l 1
 9 0 l 1
 8 0 l 1
 8 -1 l 1
 8 -2 l 1
 7 -2 l 1
 6 -2 l 1
 6 -1 l 1
 6 0 l 1
 7 0 l 1
 8 0 l 1
 8 3 l 1
 8 6 l 1
 7 6 l 1
 6 6 l 1
 6 7 l 1
 6 8 l 1
 5 8 l 1
 4 8 l 1
 4 9 l 1
 4 10 l 1
 3 10 l 1
 2 10 l 1
 2 5 l 1
 2 0 l 1
 1 0 l 1
 0 0 l 1
 0 7 l 1
EndSplineSet
EndChar

StartChar: glyph2591
Encoding: 331 331 178
Width: 11
VWidth: 0
Flags: HMW
LayerCount: 2
Back
Fore
SplineSet
0 5 m 1
 0 10 l 1
 4 10 l 1
 8 10 l 1
 8 9 l 1
 8 8 l 1
 9 8 l 1
 10 8 l 1
 10 4 l 1
 10 0 l 1
 9 0 l 1
 8 0 l 1
 8 -1 l 1
 8 -2 l 1
 7 -2 l 1
 6 -2 l 1
 6 -1 l 1
 6 0 l 1
 7 0 l 1
 8 0 l 1
 8 4 l 1
 8 8 l 1
 5 8 l 1
 2 8 l 1
 2 4 l 1
 2 0 l 1
 1 0 l 1
 0 0 l 1
 0 5 l 1
EndSplineSet
EndChar

StartChar: glyph2592
Encoding: 332 332 179
Width: 11
VWidth: 0
Flags: HMW
LayerCount: 2
Back
Fore
SplineSet
2 13 m 1
 2 14 l 1
 5 14 l 1
 8 14 l 1
 8 13 l 1
 8 12 l 1
 9 12 l 1
 10 12 l 1
 10 7 l 1
 10 2 l 1
 9 2 l 1
 8 2 l 1
 8 1 l 1
 8 0 l 1
 5 0 l 1
 2 0 l 1
 2 1 l 1
 2 2 l 1
 1 2 l 1
 0 2 l 1
 0 7 l 1
 0 12 l 1
 1 12 l 1
 2 12 l 1
 2 13 l 1
8 7 m 1
 8 12 l 1
 5 12 l 1
 2 12 l 1
 2 7 l 1
 2 2 l 1
 5 2 l 1
 8 2 l 1
 8 7 l 1
2 17 m 1
 2 18 l 1
 5 18 l 1
 8 18 l 1
 8 17 l 1
 8 16 l 1
 5 16 l 1
 2 16 l 1
 2 17 l 1
EndSplineSet
EndChar

StartChar: glyph2593
Encoding: 333 333 180
Width: 11
VWidth: 0
Flags: HMW
LayerCount: 2
Back
Fore
SplineSet
2 9 m 1
 2 10 l 1
 5 10 l 1
 8 10 l 1
 8 9 l 1
 8 8 l 1
 9 8 l 1
 10 8 l 1
 10 5 l 1
 10 2 l 1
 9 2 l 1
 8 2 l 1
 8 1 l 1
 8 0 l 1
 5 0 l 1
 2 0 l 1
 2 1 l 1
 2 2 l 1
 1 2 l 1
 0 2 l 1
 0 5 l 1
 0 8 l 1
 1 8 l 1
 2 8 l 1
 2 9 l 1
8 5 m 1
 8 8 l 1
 5 8 l 1
 2 8 l 1
 2 5 l 1
 2 2 l 1
 5 2 l 1
 8 2 l 1
 8 5 l 1
2 13 m 1
 2 14 l 1
 5 14 l 1
 8 14 l 1
 8 13 l 1
 8 12 l 1
 5 12 l 1
 2 12 l 1
 2 13 l 1
EndSplineSet
EndChar

StartChar: glyph2594
Encoding: 334 334 181
Width: 11
VWidth: 0
Flags: HMW
LayerCount: 2
Back
Fore
SplineSet
2 13 m 1
 2 14 l 1
 5 14 l 1
 8 14 l 1
 8 13 l 1
 8 12 l 1
 9 12 l 1
 10 12 l 1
 10 7 l 1
 10 2 l 1
 9 2 l 1
 8 2 l 1
 8 1 l 1
 8 0 l 1
 5 0 l 1
 2 0 l 1
 2 1 l 1
 2 2 l 1
 1 2 l 1
 0 2 l 1
 0 7 l 1
 0 12 l 1
 1 12 l 1
 2 12 l 1
 2 13 l 1
8 7 m 1
 8 12 l 1
 5 12 l 1
 2 12 l 1
 2 7 l 1
 2 2 l 1
 5 2 l 1
 8 2 l 1
 8 7 l 1
2 19 m 1
 2 20 l 1
 3 20 l 1
 4 20 l 1
 4 19 l 1
 4 18 l 1
 6 18 l 1
 8 18 l 1
 8 19 l 1
 8 20 l 1
 9 20 l 1
 10 20 l 1
 10 19 l 1
 10 18 l 1
 9 18 l 1
 8 18 l 1
 8 17 l 1
 8 16 l 1
 6 16 l 1
 4 16 l 1
 4 17 l 1
 4 18 l 1
 3 18 l 1
 2 18 l 1
 2 19 l 1
EndSplineSet
EndChar

StartChar: glyph2595
Encoding: 335 335 182
Width: 11
VWidth: 0
Flags: HMW
LayerCount: 2
Back
Fore
SplineSet
2 9 m 1
 2 10 l 1
 5 10 l 1
 8 10 l 1
 8 9 l 1
 8 8 l 1
 9 8 l 1
 10 8 l 1
 10 5 l 1
 10 2 l 1
 9 2 l 1
 8 2 l 1
 8 1 l 1
 8 0 l 1
 5 0 l 1
 2 0 l 1
 2 1 l 1
 2 2 l 1
 1 2 l 1
 0 2 l 1
 0 5 l 1
 0 8 l 1
 1 8 l 1
 2 8 l 1
 2 9 l 1
8 5 m 1
 8 8 l 1
 5 8 l 1
 2 8 l 1
 2 5 l 1
 2 2 l 1
 5 2 l 1
 8 2 l 1
 8 5 l 1
2 15 m 1
 2 16 l 1
 3 16 l 1
 4 16 l 1
 4 15 l 1
 4 14 l 1
 6 14 l 1
 8 14 l 1
 8 15 l 1
 8 16 l 1
 9 16 l 1
 10 16 l 1
 10 15 l 1
 10 14 l 1
 9 14 l 1
 8 14 l 1
 8 13 l 1
 8 12 l 1
 6 12 l 1
 4 12 l 1
 4 13 l 1
 4 14 l 1
 3 14 l 1
 2 14 l 1
 2 15 l 1
EndSplineSet
EndChar

StartChar: glyph2596
Encoding: 336 336 183
Width: 11
VWidth: 0
Flags: HMW
LayerCount: 2
Back
Fore
SplineSet
2 13 m 1
 2 14 l 1
 5 14 l 1
 8 14 l 1
 8 13 l 1
 8 12 l 1
 9 12 l 1
 10 12 l 1
 10 7 l 1
 10 2 l 1
 9 2 l 1
 8 2 l 1
 8 1 l 1
 8 0 l 1
 5 0 l 1
 2 0 l 1
 2 1 l 1
 2 2 l 1
 1 2 l 1
 0 2 l 1
 0 7 l 1
 0 12 l 1
 1 12 l 1
 2 12 l 1
 2 13 l 1
8 7 m 1
 8 12 l 1
 5 12 l 1
 2 12 l 1
 2 7 l 1
 2 2 l 1
 5 2 l 1
 8 2 l 1
 8 7 l 1
8 19 m 1
 8 20 l 1
 9 20 l 1
 10 20 l 1
 10 19 l 1
 10 18 l 1
 9 18 l 1
 8 18 l 1
 8 17 l 1
 8 16 l 1
 7 16 l 1
 6 16 l 1
 6 17 l 1
 6 18 l 1
 7 18 l 1
 8 18 l 1
 8 19 l 1
2 19 m 1
 2 20 l 1
 3 20 l 1
 4 20 l 1
 4 19 l 1
 4 18 l 1
 3 18 l 1
 2 18 l 1
 2 17 l 1
 2 16 l 1
 1 16 l 1
 0 16 l 1
 0 17 l 1
 0 18 l 1
 1 18 l 1
 2 18 l 1
 2 19 l 1
EndSplineSet
EndChar

StartChar: glyph2597
Encoding: 337 337 184
Width: 11
VWidth: 0
Flags: HMW
LayerCount: 2
Back
Fore
SplineSet
2 9 m 1
 2 10 l 1
 5 10 l 1
 8 10 l 1
 8 9 l 1
 8 8 l 1
 9 8 l 1
 10 8 l 1
 10 5 l 1
 10 2 l 1
 9 2 l 1
 8 2 l 1
 8 1 l 1
 8 0 l 1
 5 0 l 1
 2 0 l 1
 2 1 l 1
 2 2 l 1
 1 2 l 1
 0 2 l 1
 0 5 l 1
 0 8 l 1
 1 8 l 1
 2 8 l 1
 2 9 l 1
8 5 m 1
 8 8 l 1
 5 8 l 1
 2 8 l 1
 2 5 l 1
 2 2 l 1
 5 2 l 1
 8 2 l 1
 8 5 l 1
8 15 m 1
 8 16 l 1
 9 16 l 1
 10 16 l 1
 10 15 l 1
 10 14 l 1
 9 14 l 1
 8 14 l 1
 8 13 l 1
 8 12 l 1
 7 12 l 1
 6 12 l 1
 6 13 l 1
 6 14 l 1
 7 14 l 1
 8 14 l 1
 8 15 l 1
2 15 m 1
 2 16 l 1
 3 16 l 1
 4 16 l 1
 4 15 l 1
 4 14 l 1
 3 14 l 1
 2 14 l 1
 2 13 l 1
 2 12 l 1
 1 12 l 1
 0 12 l 1
 0 13 l 1
 0 14 l 1
 1 14 l 1
 2 14 l 1
 2 15 l 1
EndSplineSet
EndChar

StartChar: glyph2598
Encoding: 338 338 185
Width: 19
VWidth: 0
Flags: HMW
LayerCount: 2
Back
Fore
SplineSet
2 13 m 1
 2 14 l 1
 10 14 l 1
 18 14 l 1
 18 13 l 1
 18 12 l 1
 14 12 l 1
 10 12 l 1
 10 11 l 1
 10 10 l 1
 12 10 l 1
 14 10 l 1
 14 9 l 1
 14 8 l 1
 12 8 l 1
 10 8 l 1
 10 5 l 1
 10 2 l 1
 14 2 l 1
 18 2 l 1
 18 1 l 1
 18 0 l 1
 10 0 l 1
 2 0 l 1
 2 1 l 1
 2 2 l 1
 1 2 l 1
 0 2 l 1
 0 7 l 1
 0 12 l 1
 1 12 l 1
 2 12 l 1
 2 13 l 1
8 7 m 1
 8 12 l 1
 5 12 l 1
 2 12 l 1
 2 7 l 1
 2 2 l 1
 5 2 l 1
 8 2 l 1
 8 7 l 1
EndSplineSet
EndChar

StartChar: glyph2599
Encoding: 339 339 186
Width: 19
VWidth: 0
Flags: HMW
LayerCount: 2
Back
Fore
SplineSet
2 9 m 1
 2 10 l 1
 5 10 l 1
 8 10 l 1
 8 9 l 1
 8 8 l 1
 9 8 l 1
 10 8 l 1
 10 9 l 1
 10 10 l 1
 13 10 l 1
 16 10 l 1
 16 9 l 1
 16 8 l 1
 17 8 l 1
 18 8 l 1
 18 6 l 1
 18 4 l 1
 14 4 l 1
 10 4 l 1
 10 3 l 1
 10 2 l 1
 14 2 l 1
 18 2 l 1
 18 1 l 1
 18 0 l 1
 14 0 l 1
 10 0 l 1
 10 1 l 1
 10 2 l 1
 9 2 l 1
 8 2 l 1
 8 1 l 1
 8 0 l 1
 5 0 l 1
 2 0 l 1
 2 1 l 1
 2 2 l 1
 1 2 l 1
 0 2 l 1
 0 5 l 1
 0 8 l 1
 1 8 l 1
 2 8 l 1
 2 9 l 1
8 5 m 1
 8 8 l 1
 5 8 l 1
 2 8 l 1
 2 5 l 1
 2 2 l 1
 5 2 l 1
 8 2 l 1
 8 5 l 1
16 7 m 1
 16 8 l 1
 13 8 l 1
 10 8 l 1
 10 7 l 1
 10 6 l 1
 13 6 l 1
 16 6 l 1
 16 7 l 1
EndSplineSet
EndChar

StartChar: glyph2600
Encoding: 340 340 187
Width: 11
VWidth: 0
Flags: HMW
LayerCount: 2
Back
Fore
SplineSet
0 7 m 1
 0 14 l 1
 4 14 l 1
 8 14 l 1
 8 13 l 1
 8 12 l 1
 9 12 l 1
 10 12 l 1
 10 11 l 1
 10 10 l 1
 9 10 l 1
 8 10 l 1
 8 9 l 1
 8 8 l 1
 9 8 l 1
 10 8 l 1
 10 4 l 1
 10 0 l 1
 9 0 l 1
 8 0 l 1
 8 4 l 1
 8 8 l 1
 5 8 l 1
 2 8 l 1
 2 4 l 1
 2 0 l 1
 1 0 l 1
 0 0 l 1
 0 7 l 1
8 11 m 1
 8 12 l 1
 5 12 l 1
 2 12 l 1
 2 11 l 1
 2 10 l 1
 5 10 l 1
 8 10 l 1
 8 11 l 1
6 19 m 1
 6 20 l 1
 7 20 l 1
 8 20 l 1
 8 19 l 1
 8 18 l 1
 7 18 l 1
 6 18 l 1
 6 17 l 1
 6 16 l 1
 5 16 l 1
 4 16 l 1
 4 17 l 1
 4 18 l 1
 5 18 l 1
 6 18 l 1
 6 19 l 1
EndSplineSet
EndChar

StartChar: glyph2601
Encoding: 341 341 188
Width: 11
VWidth: 0
Flags: HMW
LayerCount: 2
Back
Fore
SplineSet
0 5 m 1
 0 10 l 1
 1 10 l 1
 2 10 l 1
 2 9 l 1
 2 8 l 1
 3 8 l 1
 4 8 l 1
 4 9 l 1
 4 10 l 1
 6 10 l 1
 8 10 l 1
 8 9 l 1
 8 8 l 1
 9 8 l 1
 10 8 l 1
 10 7 l 1
 10 6 l 1
 9 6 l 1
 8 6 l 1
 8 7 l 1
 8 8 l 1
 6 8 l 1
 4 8 l 1
 4 7 l 1
 4 6 l 1
 3 6 l 1
 2 6 l 1
 2 3 l 1
 2 0 l 1
 1 0 l 1
 0 0 l 1
 0 5 l 1
6 15 m 1
 6 16 l 1
 7 16 l 1
 8 16 l 1
 8 15 l 1
 8 14 l 1
 7 14 l 1
 6 14 l 1
 6 13 l 1
 6 12 l 1
 5 12 l 1
 4 12 l 1
 4 13 l 1
 4 14 l 1
 5 14 l 1
 6 14 l 1
 6 15 l 1
EndSplineSet
EndChar

StartChar: glyph2602
Encoding: 342 342 189
Width: 11
VWidth: 0
Flags: HMW
LayerCount: 2
Back
Fore
SplineSet
4 -1 m 1
 4 0 l 1
 5 0 l 1
 6 0 l 1
 6 -1 l 1
 6 -2 l 1
 5 -2 l 1
 4 -2 l 1
 4 -3 l 1
 4 -4 l 1
 3 -4 l 1
 2 -4 l 1
 2 -3 l 1
 2 -2 l 1
 3 -2 l 1
 4 -2 l 1
 4 -1 l 1
0 7 m 1
 0 14 l 1
 4 14 l 1
 8 14 l 1
 8 13 l 1
 8 12 l 1
 9 12 l 1
 10 12 l 1
 10 11 l 1
 10 10 l 1
 9 10 l 1
 8 10 l 1
 8 9 l 1
 8 8 l 1
 9 8 l 1
 10 8 l 1
 10 4 l 1
 10 0 l 1
 9 0 l 1
 8 0 l 1
 8 4 l 1
 8 8 l 1
 5 8 l 1
 2 8 l 1
 2 4 l 1
 2 0 l 1
 1 0 l 1
 0 0 l 1
 0 7 l 1
8 11 m 1
 8 12 l 1
 5 12 l 1
 2 12 l 1
 2 11 l 1
 2 10 l 1
 5 10 l 1
 8 10 l 1
 8 11 l 1
EndSplineSet
EndChar

StartChar: glyph2603
Encoding: 343 343 190
Width: 11
VWidth: 0
Flags: HMW
LayerCount: 2
Back
Fore
SplineSet
4 -1 m 1
 4 0 l 1
 5 0 l 1
 6 0 l 1
 6 -1 l 1
 6 -2 l 1
 5 -2 l 1
 4 -2 l 1
 4 -3 l 1
 4 -4 l 1
 3 -4 l 1
 2 -4 l 1
 2 -3 l 1
 2 -2 l 1
 3 -2 l 1
 4 -2 l 1
 4 -1 l 1
0 5 m 1
 0 10 l 1
 1 10 l 1
 2 10 l 1
 2 9 l 1
 2 8 l 1
 3 8 l 1
 4 8 l 1
 4 9 l 1
 4 10 l 1
 6 10 l 1
 8 10 l 1
 8 9 l 1
 8 8 l 1
 9 8 l 1
 10 8 l 1
 10 7 l 1
 10 6 l 1
 9 6 l 1
 8 6 l 1
 8 7 l 1
 8 8 l 1
 6 8 l 1
 4 8 l 1
 4 7 l 1
 4 6 l 1
 3 6 l 1
 2 6 l 1
 2 3 l 1
 2 0 l 1
 1 0 l 1
 0 0 l 1
 0 5 l 1
EndSplineSet
EndChar

StartChar: glyph2604
Encoding: 344 344 191
Width: 11
VWidth: 0
Flags: HMW
LayerCount: 2
Back
Fore
SplineSet
0 7 m 1
 0 14 l 1
 4 14 l 1
 8 14 l 1
 8 13 l 1
 8 12 l 1
 9 12 l 1
 10 12 l 1
 10 11 l 1
 10 10 l 1
 9 10 l 1
 8 10 l 1
 8 9 l 1
 8 8 l 1
 9 8 l 1
 10 8 l 1
 10 4 l 1
 10 0 l 1
 9 0 l 1
 8 0 l 1
 8 4 l 1
 8 8 l 1
 5 8 l 1
 2 8 l 1
 2 4 l 1
 2 0 l 1
 1 0 l 1
 0 0 l 1
 0 7 l 1
8 11 m 1
 8 12 l 1
 5 12 l 1
 2 12 l 1
 2 11 l 1
 2 10 l 1
 5 10 l 1
 8 10 l 1
 8 11 l 1
2 19 m 1
 2 20 l 1
 3 20 l 1
 4 20 l 1
 4 19 l 1
 4 18 l 1
 5 18 l 1
 6 18 l 1
 6 19 l 1
 6 20 l 1
 7 20 l 1
 8 20 l 1
 8 19 l 1
 8 18 l 1
 7 18 l 1
 6 18 l 1
 6 17 l 1
 6 16 l 1
 5 16 l 1
 4 16 l 1
 4 17 l 1
 4 18 l 1
 3 18 l 1
 2 18 l 1
 2 19 l 1
EndSplineSet
EndChar

StartChar: glyph2605
Encoding: 345 345 192
Width: 11
VWidth: 0
Flags: HMW
LayerCount: 2
Back
Fore
SplineSet
0 5 m 1
 0 10 l 1
 1 10 l 1
 2 10 l 1
 2 9 l 1
 2 8 l 1
 3 8 l 1
 4 8 l 1
 4 9 l 1
 4 10 l 1
 6 10 l 1
 8 10 l 1
 8 9 l 1
 8 8 l 1
 9 8 l 1
 10 8 l 1
 10 7 l 1
 10 6 l 1
 9 6 l 1
 8 6 l 1
 8 7 l 1
 8 8 l 1
 6 8 l 1
 4 8 l 1
 4 7 l 1
 4 6 l 1
 3 6 l 1
 2 6 l 1
 2 3 l 1
 2 0 l 1
 1 0 l 1
 0 0 l 1
 0 5 l 1
2 15 m 1
 2 16 l 1
 3 16 l 1
 4 16 l 1
 4 15 l 1
 4 14 l 1
 5 14 l 1
 6 14 l 1
 6 15 l 1
 6 16 l 1
 7 16 l 1
 8 16 l 1
 8 15 l 1
 8 14 l 1
 7 14 l 1
 6 14 l 1
 6 13 l 1
 6 12 l 1
 5 12 l 1
 4 12 l 1
 4 13 l 1
 4 14 l 1
 3 14 l 1
 2 14 l 1
 2 15 l 1
EndSplineSet
EndChar

StartChar: glyph2606
Encoding: 346 346 193
Width: 11
VWidth: 0
Flags: HMW
LayerCount: 2
Back
Fore
SplineSet
2 13 m 1
 2 14 l 1
 6 14 l 1
 10 14 l 1
 10 13 l 1
 10 12 l 1
 6 12 l 1
 2 12 l 1
 2 11 l 1
 2 10 l 1
 5 10 l 1
 8 10 l 1
 8 9 l 1
 8 8 l 1
 9 8 l 1
 10 8 l 1
 10 5 l 1
 10 2 l 1
 9 2 l 1
 8 2 l 1
 8 1 l 1
 8 0 l 1
 5 0 l 1
 2 0 l 1
 2 1 l 1
 2 2 l 1
 1 2 l 1
 0 2 l 1
 0 3 l 1
 0 4 l 1
 1 4 l 1
 2 4 l 1
 2 3 l 1
 2 2 l 1
 5 2 l 1
 8 2 l 1
 8 5 l 1
 8 8 l 1
 5 8 l 1
 2 8 l 1
 2 9 l 1
 2 10 l 1
 1 10 l 1
 0 10 l 1
 0 11 l 1
 0 12 l 1
 1 12 l 1
 2 12 l 1
 2 13 l 1
6 19 m 1
 6 20 l 1
 7 20 l 1
 8 20 l 1
 8 19 l 1
 8 18 l 1
 7 18 l 1
 6 18 l 1
 6 17 l 1
 6 16 l 1
 5 16 l 1
 4 16 l 1
 4 17 l 1
 4 18 l 1
 5 18 l 1
 6 18 l 1
 6 19 l 1
EndSplineSet
EndChar

StartChar: glyph2607
Encoding: 347 347 194
Width: 11
VWidth: 0
Flags: HMW
LayerCount: 2
Back
Fore
SplineSet
2 9 m 1
 2 10 l 1
 6 10 l 1
 10 10 l 1
 10 9 l 1
 10 8 l 1
 6 8 l 1
 2 8 l 1
 2 7 l 1
 2 6 l 1
 5 6 l 1
 8 6 l 1
 8 5 l 1
 8 4 l 1
 9 4 l 1
 10 4 l 1
 10 3 l 1
 10 2 l 1
 9 2 l 1
 8 2 l 1
 8 1 l 1
 8 0 l 1
 4 0 l 1
 0 0 l 1
 0 1 l 1
 0 2 l 1
 4 2 l 1
 8 2 l 1
 8 3 l 1
 8 4 l 1
 5 4 l 1
 2 4 l 1
 2 5 l 1
 2 6 l 1
 1 6 l 1
 0 6 l 1
 0 7 l 1
 0 8 l 1
 1 8 l 1
 2 8 l 1
 2 9 l 1
6 15 m 1
 6 16 l 1
 7 16 l 1
 8 16 l 1
 8 15 l 1
 8 14 l 1
 7 14 l 1
 6 14 l 1
 6 13 l 1
 6 12 l 1
 5 12 l 1
 4 12 l 1
 4 13 l 1
 4 14 l 1
 5 14 l 1
 6 14 l 1
 6 15 l 1
EndSplineSet
EndChar

StartChar: glyph2608
Encoding: 348 348 195
Width: 11
VWidth: 0
Flags: HMW
LayerCount: 2
Back
Fore
SplineSet
2 13 m 1
 2 14 l 1
 6 14 l 1
 10 14 l 1
 10 13 l 1
 10 12 l 1
 6 12 l 1
 2 12 l 1
 2 11 l 1
 2 10 l 1
 5 10 l 1
 8 10 l 1
 8 9 l 1
 8 8 l 1
 9 8 l 1
 10 8 l 1
 10 5 l 1
 10 2 l 1
 9 2 l 1
 8 2 l 1
 8 1 l 1
 8 0 l 1
 5 0 l 1
 2 0 l 1
 2 1 l 1
 2 2 l 1
 1 2 l 1
 0 2 l 1
 0 3 l 1
 0 4 l 1
 1 4 l 1
 2 4 l 1
 2 3 l 1
 2 2 l 1
 5 2 l 1
 8 2 l 1
 8 5 l 1
 8 8 l 1
 5 8 l 1
 2 8 l 1
 2 9 l 1
 2 10 l 1
 1 10 l 1
 0 10 l 1
 0 11 l 1
 0 12 l 1
 1 12 l 1
 2 12 l 1
 2 13 l 1
4 19 m 1
 4 20 l 1
 5 20 l 1
 6 20 l 1
 6 19 l 1
 6 18 l 1
 7 18 l 1
 8 18 l 1
 8 17 l 1
 8 16 l 1
 7 16 l 1
 6 16 l 1
 6 17 l 1
 6 18 l 1
 5 18 l 1
 4 18 l 1
 4 17 l 1
 4 16 l 1
 3 16 l 1
 2 16 l 1
 2 17 l 1
 2 18 l 1
 3 18 l 1
 4 18 l 1
 4 19 l 1
EndSplineSet
EndChar

StartChar: glyph2609
Encoding: 349 349 196
Width: 11
VWidth: 0
Flags: HMW
LayerCount: 2
Back
Fore
SplineSet
2 9 m 1
 2 10 l 1
 6 10 l 1
 10 10 l 1
 10 9 l 1
 10 8 l 1
 6 8 l 1
 2 8 l 1
 2 7 l 1
 2 6 l 1
 5 6 l 1
 8 6 l 1
 8 5 l 1
 8 4 l 1
 9 4 l 1
 10 4 l 1
 10 3 l 1
 10 2 l 1
 9 2 l 1
 8 2 l 1
 8 1 l 1
 8 0 l 1
 4 0 l 1
 0 0 l 1
 0 1 l 1
 0 2 l 1
 4 2 l 1
 8 2 l 1
 8 3 l 1
 8 4 l 1
 5 4 l 1
 2 4 l 1
 2 5 l 1
 2 6 l 1
 1 6 l 1
 0 6 l 1
 0 7 l 1
 0 8 l 1
 1 8 l 1
 2 8 l 1
 2 9 l 1
4 15 m 1
 4 16 l 1
 5 16 l 1
 6 16 l 1
 6 15 l 1
 6 14 l 1
 7 14 l 1
 8 14 l 1
 8 13 l 1
 8 12 l 1
 7 12 l 1
 6 12 l 1
 6 13 l 1
 6 14 l 1
 5 14 l 1
 4 14 l 1
 4 13 l 1
 4 12 l 1
 3 12 l 1
 2 12 l 1
 2 13 l 1
 2 14 l 1
 3 14 l 1
 4 14 l 1
 4 15 l 1
EndSplineSet
EndChar

StartChar: glyph2610
Encoding: 350 350 197
Width: 11
VWidth: 0
Flags: HMW
LayerCount: 2
Back
Fore
SplineSet
2 13 m 1
 2 14 l 1
 6 14 l 1
 10 14 l 1
 10 13 l 1
 10 12 l 1
 6 12 l 1
 2 12 l 1
 2 11 l 1
 2 10 l 1
 5 10 l 1
 8 10 l 1
 8 9 l 1
 8 8 l 1
 9 8 l 1
 10 8 l 1
 10 5 l 1
 10 2 l 1
 9 2 l 1
 8 2 l 1
 8 0 l 1
 8 -2 l 1
 7 -2 l 1
 6 -2 l 1
 6 -3 l 1
 6 -4 l 1
 5 -4 l 1
 4 -4 l 1
 4 -3 l 1
 4 -2 l 1
 5 -2 l 1
 6 -2 l 1
 6 -1 l 1
 6 0 l 1
 4 0 l 1
 2 0 l 1
 2 1 l 1
 2 2 l 1
 1 2 l 1
 0 2 l 1
 0 3 l 1
 0 4 l 1
 1 4 l 1
 2 4 l 1
 2 3 l 1
 2 2 l 1
 5 2 l 1
 8 2 l 1
 8 5 l 1
 8 8 l 1
 5 8 l 1
 2 8 l 1
 2 9 l 1
 2 10 l 1
 1 10 l 1
 0 10 l 1
 0 11 l 1
 0 12 l 1
 1 12 l 1
 2 12 l 1
 2 13 l 1
EndSplineSet
EndChar

StartChar: glyph2611
Encoding: 5601 5601 198
Width: 11
VWidth: 0
Flags: HMW
LayerCount: 2
Back
Fore
SplineSet
2 13 m 1
 2 14 l 1
 6 14 l 1
 10 14 l 1
 10 7 l 1
 10 0 l 1
 6 0 l 1
 2 0 l 1
 2 1 l 1
 2 2 l 1
 1 2 l 1
 0 2 l 1
 0 7 l 1
 0 12 l 1
 1 12 l 1
 2 12 l 1
 2 13 l 1
8 7 m 1
 8 12 l 1
 5 12 l 1
 2 12 l 1
 2 7 l 1
 2 2 l 1
 5 2 l 1
 8 2 l 1
 8 7 l 1
EndSplineSet
EndChar

StartChar: glyph2612
Encoding: 351 351 199
Width: 11
VWidth: 0
Flags: HMW
LayerCount: 2
Back
Fore
SplineSet
2 9 m 1
 2 10 l 1
 6 10 l 1
 10 10 l 1
 10 9 l 1
 10 8 l 1
 6 8 l 1
 2 8 l 1
 2 7 l 1
 2 6 l 1
 5 6 l 1
 8 6 l 1
 8 5 l 1
 8 4 l 1
 9 4 l 1
 10 4 l 1
 10 3 l 1
 10 2 l 1
 9 2 l 1
 8 2 l 1
 8 0 l 1
 8 -2 l 1
 7 -2 l 1
 6 -2 l 1
 6 -3 l 1
 6 -4 l 1
 5 -4 l 1
 4 -4 l 1
 4 -3 l 1
 4 -2 l 1
 5 -2 l 1
 6 -2 l 1
 6 -1 l 1
 6 0 l 1
 3 0 l 1
 0 0 l 1
 0 1 l 1
 0 2 l 1
 4 2 l 1
 8 2 l 1
 8 3 l 1
 8 4 l 1
 5 4 l 1
 2 4 l 1
 2 5 l 1
 2 6 l 1
 1 6 l 1
 0 6 l 1
 0 7 l 1
 0 8 l 1
 1 8 l 1
 2 8 l 1
 2 9 l 1
EndSplineSet
EndChar

StartChar: glyph2613
Encoding: 5626 5626 200
Width: 11
VWidth: 0
Flags: HMW
LayerCount: 2
Back
Fore
SplineSet
2 13 m 1
 2 14 l 1
 6 14 l 1
 10 14 l 1
 10 7 l 1
 10 0 l 1
 6 0 l 1
 2 0 l 1
 2 1 l 1
 2 2 l 1
 1 2 l 1
 0 2 l 1
 0 3 l 1
 0 4 l 1
 1 4 l 1
 2 4 l 1
 2 5 l 1
 2 6 l 1
 1 6 l 1
 0 6 l 1
 0 9 l 1
 0 12 l 1
 1 12 l 1
 2 12 l 1
 2 13 l 1
8 9 m 1
 8 12 l 1
 5 12 l 1
 2 12 l 1
 2 9 l 1
 2 6 l 1
 5 6 l 1
 8 6 l 1
 8 9 l 1
8 3 m 1
 8 4 l 1
 5 4 l 1
 2 4 l 1
 2 3 l 1
 2 2 l 1
 5 2 l 1
 8 2 l 1
 8 3 l 1
EndSplineSet
EndChar

StartChar: glyph2614
Encoding: 352 352 201
Width: 11
VWidth: 0
Flags: HMW
LayerCount: 2
Back
Fore
SplineSet
2 13 m 1
 2 14 l 1
 6 14 l 1
 10 14 l 1
 10 13 l 1
 10 12 l 1
 6 12 l 1
 2 12 l 1
 2 11 l 1
 2 10 l 1
 5 10 l 1
 8 10 l 1
 8 9 l 1
 8 8 l 1
 9 8 l 1
 10 8 l 1
 10 5 l 1
 10 2 l 1
 9 2 l 1
 8 2 l 1
 8 1 l 1
 8 0 l 1
 5 0 l 1
 2 0 l 1
 2 1 l 1
 2 2 l 1
 1 2 l 1
 0 2 l 1
 0 3 l 1
 0 4 l 1
 1 4 l 1
 2 4 l 1
 2 3 l 1
 2 2 l 1
 5 2 l 1
 8 2 l 1
 8 5 l 1
 8 8 l 1
 5 8 l 1
 2 8 l 1
 2 9 l 1
 2 10 l 1
 1 10 l 1
 0 10 l 1
 0 11 l 1
 0 12 l 1
 1 12 l 1
 2 12 l 1
 2 13 l 1
2 19 m 1
 2 20 l 1
 3 20 l 1
 4 20 l 1
 4 19 l 1
 4 18 l 1
 5 18 l 1
 6 18 l 1
 6 19 l 1
 6 20 l 1
 7 20 l 1
 8 20 l 1
 8 19 l 1
 8 18 l 1
 7 18 l 1
 6 18 l 1
 6 17 l 1
 6 16 l 1
 5 16 l 1
 4 16 l 1
 4 17 l 1
 4 18 l 1
 3 18 l 1
 2 18 l 1
 2 19 l 1
EndSplineSet
EndChar

StartChar: glyph2615
Encoding: 353 353 202
Width: 11
VWidth: 0
Flags: HMW
LayerCount: 2
Back
Fore
SplineSet
2 9 m 1
 2 10 l 1
 6 10 l 1
 10 10 l 1
 10 9 l 1
 10 8 l 1
 6 8 l 1
 2 8 l 1
 2 7 l 1
 2 6 l 1
 5 6 l 1
 8 6 l 1
 8 5 l 1
 8 4 l 1
 9 4 l 1
 10 4 l 1
 10 3 l 1
 10 2 l 1
 9 2 l 1
 8 2 l 1
 8 1 l 1
 8 0 l 1
 4 0 l 1
 0 0 l 1
 0 1 l 1
 0 2 l 1
 4 2 l 1
 8 2 l 1
 8 3 l 1
 8 4 l 1
 5 4 l 1
 2 4 l 1
 2 5 l 1
 2 6 l 1
 1 6 l 1
 0 6 l 1
 0 7 l 1
 0 8 l 1
 1 8 l 1
 2 8 l 1
 2 9 l 1
2 15 m 1
 2 16 l 1
 3 16 l 1
 4 16 l 1
 4 15 l 1
 4 14 l 1
 5 14 l 1
 6 14 l 1
 6 15 l 1
 6 16 l 1
 7 16 l 1
 8 16 l 1
 8 15 l 1
 8 14 l 1
 7 14 l 1
 6 14 l 1
 6 13 l 1
 6 12 l 1
 5 12 l 1
 4 12 l 1
 4 13 l 1
 4 14 l 1
 3 14 l 1
 2 14 l 1
 2 15 l 1
EndSplineSet
EndChar

StartChar: glyph2616
Encoding: 5652 5652 203
Width: 11
VWidth: 0
Flags: HMW
LayerCount: 2
Back
Fore
SplineSet
0 12 m 1
 0 14 l 1
 5 14 l 1
 10 14 l 1
 10 12 l 1
 10 10 l 1
 9 10 l 1
 8 10 l 1
 8 9 l 1
 8 8 l 1
 7 8 l 1
 6 8 l 1
 6 7 l 1
 6 6 l 1
 4 6 l 1
 2 6 l 1
 2 4 l 1
 2 2 l 1
 5 2 l 1
 8 2 l 1
 8 3 l 1
 8 4 l 1
 9 4 l 1
 10 4 l 1
 10 3 l 1
 10 2 l 1
 9 2 l 1
 8 2 l 1
 8 1 l 1
 8 0 l 1
 5 0 l 1
 2 0 l 1
 2 1 l 1
 2 2 l 1
 1 2 l 1
 0 2 l 1
 0 4 l 1
 0 6 l 1
 1 6 l 1
 2 6 l 1
 2 7 l 1
 2 8 l 1
 4 8 l 1
 6 8 l 1
 6 9 l 1
 6 10 l 1
 7 10 l 1
 8 10 l 1
 8 11 l 1
 8 12 l 1
 5 12 l 1
 2 12 l 1
 2 11 l 1
 2 10 l 1
 1 10 l 1
 0 10 l 1
 0 12 l 1
EndSplineSet
EndChar

StartChar: glyph2617
Encoding: 354 354 204
Width: 11
VWidth: 0
Flags: HMW
LayerCount: 2
Back
Fore
SplineSet
0 13 m 1
 0 14 l 1
 5 14 l 1
 10 14 l 1
 10 13 l 1
 10 12 l 1
 8 12 l 1
 6 12 l 1
 6 6 l 1
 6 0 l 1
 7 0 l 1
 8 0 l 1
 8 -1 l 1
 8 -2 l 1
 7 -2 l 1
 6 -2 l 1
 6 -3 l 1
 6 -4 l 1
 5 -4 l 1
 4 -4 l 1
 4 -3 l 1
 4 -2 l 1
 5 -2 l 1
 6 -2 l 1
 6 -1 l 1
 6 0 l 1
 5 0 l 1
 4 0 l 1
 4 6 l 1
 4 12 l 1
 2 12 l 1
 0 12 l 1
 0 13 l 1
EndSplineSet
EndChar

StartChar: glyph2618
Encoding: 355 355 205
Width: 7
VWidth: 0
Flags: HMW
LayerCount: 2
Back
Fore
SplineSet
2 12 m 1
 2 14 l 1
 3 14 l 1
 4 14 l 1
 4 12 l 1
 4 10 l 1
 5 10 l 1
 6 10 l 1
 6 9 l 1
 6 8 l 1
 5 8 l 1
 4 8 l 1
 4 5 l 1
 4 2 l 1
 5 2 l 1
 6 2 l 1
 6 0 l 1
 6 -2 l 1
 5 -2 l 1
 4 -2 l 1
 4 -3 l 1
 4 -4 l 1
 3 -4 l 1
 2 -4 l 1
 2 -3 l 1
 2 -2 l 1
 3 -2 l 1
 4 -2 l 1
 4 0 l 1
 4 2 l 1
 3 2 l 1
 2 2 l 1
 2 5 l 1
 2 8 l 1
 1 8 l 1
 0 8 l 1
 0 9 l 1
 0 10 l 1
 1 10 l 1
 2 10 l 1
 2 12 l 1
EndSplineSet
EndChar

StartChar: glyph2619
Encoding: 356 356 206
Width: 11
VWidth: 0
Flags: HMW
LayerCount: 2
Back
Fore
SplineSet
0 13 m 1
 0 14 l 1
 5 14 l 1
 10 14 l 1
 10 13 l 1
 10 12 l 1
 8 12 l 1
 6 12 l 1
 6 6 l 1
 6 0 l 1
 5 0 l 1
 4 0 l 1
 4 6 l 1
 4 12 l 1
 2 12 l 1
 0 12 l 1
 0 13 l 1
2 19 m 1
 2 20 l 1
 3 20 l 1
 4 20 l 1
 4 19 l 1
 4 18 l 1
 5 18 l 1
 6 18 l 1
 6 19 l 1
 6 20 l 1
 7 20 l 1
 8 20 l 1
 8 19 l 1
 8 18 l 1
 7 18 l 1
 6 18 l 1
 6 17 l 1
 6 16 l 1
 5 16 l 1
 4 16 l 1
 4 17 l 1
 4 18 l 1
 3 18 l 1
 2 18 l 1
 2 19 l 1
EndSplineSet
EndChar

StartChar: glyph2620
Encoding: 357 357 207
Width: 9
VWidth: 0
Flags: HMW
LayerCount: 2
Back
Fore
SplineSet
2 12 m 1
 2 14 l 1
 3 14 l 1
 4 14 l 1
 4 12 l 1
 4 10 l 1
 5 10 l 1
 6 10 l 1
 6 9 l 1
 6 8 l 1
 5 8 l 1
 4 8 l 1
 4 5 l 1
 4 2 l 1
 5 2 l 1
 6 2 l 1
 6 1 l 1
 6 0 l 1
 5 0 l 1
 4 0 l 1
 4 1 l 1
 4 2 l 1
 3 2 l 1
 2 2 l 1
 2 5 l 1
 2 8 l 1
 1 8 l 1
 0 8 l 1
 0 9 l 1
 0 10 l 1
 1 10 l 1
 2 10 l 1
 2 12 l 1
6 14 m 1
 6 16 l 1
 7 16 l 1
 8 16 l 1
 8 14 l 1
 8 12 l 1
 7 12 l 1
 6 12 l 1
 6 14 l 1
EndSplineSet
EndChar

StartChar: glyph2621
Encoding: 358 358 208
Width: 11
VWidth: 0
Flags: HMW
LayerCount: 2
Back
Fore
SplineSet
0 13 m 1
 0 14 l 1
 5 14 l 1
 10 14 l 1
 10 13 l 1
 10 12 l 1
 8 12 l 1
 6 12 l 1
 6 11 l 1
 6 10 l 1
 7 10 l 1
 8 10 l 1
 8 9 l 1
 8 8 l 1
 7 8 l 1
 6 8 l 1
 6 4 l 1
 6 0 l 1
 5 0 l 1
 4 0 l 1
 4 4 l 1
 4 8 l 1
 3 8 l 1
 2 8 l 1
 2 9 l 1
 2 10 l 1
 3 10 l 1
 4 10 l 1
 4 11 l 1
 4 12 l 1
 2 12 l 1
 0 12 l 1
 0 13 l 1
EndSplineSet
EndChar

StartChar: glyph2622
Encoding: 359 359 209
Width: 7
VWidth: 0
Flags: HMW
LayerCount: 2
Back
Fore
SplineSet
2 12 m 1
 2 14 l 1
 3 14 l 1
 4 14 l 1
 4 12 l 1
 4 10 l 1
 5 10 l 1
 6 10 l 1
 6 9 l 1
 6 8 l 1
 5 8 l 1
 4 8 l 1
 4 7 l 1
 4 6 l 1
 5 6 l 1
 6 6 l 1
 6 5 l 1
 6 4 l 1
 5 4 l 1
 4 4 l 1
 4 3 l 1
 4 2 l 1
 5 2 l 1
 6 2 l 1
 6 1 l 1
 6 0 l 1
 5 0 l 1
 4 0 l 1
 4 1 l 1
 4 2 l 1
 3 2 l 1
 2 2 l 1
 2 3 l 1
 2 4 l 1
 1 4 l 1
 0 4 l 1
 0 5 l 1
 0 6 l 1
 1 6 l 1
 2 6 l 1
 2 7 l 1
 2 8 l 1
 1 8 l 1
 0 8 l 1
 0 9 l 1
 0 10 l 1
 1 10 l 1
 2 10 l 1
 2 12 l 1
EndSplineSet
EndChar

StartChar: glyph2623
Encoding: 360 360 210
Width: 11
VWidth: 0
Flags: HMW
LayerCount: 2
Back
Fore
SplineSet
0 8 m 1
 0 14 l 1
 1 14 l 1
 2 14 l 1
 2 8 l 1
 2 2 l 1
 5 2 l 1
 8 2 l 1
 8 8 l 1
 8 14 l 1
 9 14 l 1
 10 14 l 1
 10 8 l 1
 10 2 l 1
 9 2 l 1
 8 2 l 1
 8 1 l 1
 8 0 l 1
 5 0 l 1
 2 0 l 1
 2 1 l 1
 2 2 l 1
 1 2 l 1
 0 2 l 1
 0 8 l 1
4 19 m 1
 4 20 l 1
 5 20 l 1
 6 20 l 1
 6 19 l 1
 6 18 l 1
 7 18 l 1
 8 18 l 1
 8 19 l 1
 8 20 l 1
 9 20 l 1
 10 20 l 1
 10 19 l 1
 10 18 l 1
 9 18 l 1
 8 18 l 1
 8 17 l 1
 8 16 l 1
 7 16 l 1
 6 16 l 1
 6 17 l 1
 6 18 l 1
 5 18 l 1
 4 18 l 1
 4 17 l 1
 4 16 l 1
 3 16 l 1
 2 16 l 1
 2 17 l 1
 2 18 l 1
 3 18 l 1
 4 18 l 1
 4 19 l 1
EndSplineSet
EndChar

StartChar: glyph2624
Encoding: 361 361 211
Width: 11
VWidth: 0
Flags: HMW
LayerCount: 2
Back
Fore
SplineSet
0 6 m 1
 0 10 l 1
 1 10 l 1
 2 10 l 1
 2 6 l 1
 2 2 l 1
 5 2 l 1
 8 2 l 1
 8 6 l 1
 8 10 l 1
 9 10 l 1
 10 10 l 1
 10 5 l 1
 10 0 l 1
 6 0 l 1
 2 0 l 1
 2 1 l 1
 2 2 l 1
 1 2 l 1
 0 2 l 1
 0 6 l 1
4 15 m 1
 4 16 l 1
 5 16 l 1
 6 16 l 1
 6 15 l 1
 6 14 l 1
 7 14 l 1
 8 14 l 1
 8 15 l 1
 8 16 l 1
 9 16 l 1
 10 16 l 1
 10 15 l 1
 10 14 l 1
 9 14 l 1
 8 14 l 1
 8 13 l 1
 8 12 l 1
 7 12 l 1
 6 12 l 1
 6 13 l 1
 6 14 l 1
 5 14 l 1
 4 14 l 1
 4 13 l 1
 4 12 l 1
 3 12 l 1
 2 12 l 1
 2 13 l 1
 2 14 l 1
 3 14 l 1
 4 14 l 1
 4 15 l 1
EndSplineSet
EndChar

StartChar: glyph2625
Encoding: 362 362 212
Width: 11
VWidth: 0
Flags: HMW
LayerCount: 2
Back
Fore
SplineSet
0 8 m 1
 0 14 l 1
 1 14 l 1
 2 14 l 1
 2 8 l 1
 2 2 l 1
 5 2 l 1
 8 2 l 1
 8 8 l 1
 8 14 l 1
 9 14 l 1
 10 14 l 1
 10 8 l 1
 10 2 l 1
 9 2 l 1
 8 2 l 1
 8 1 l 1
 8 0 l 1
 5 0 l 1
 2 0 l 1
 2 1 l 1
 2 2 l 1
 1 2 l 1
 0 2 l 1
 0 8 l 1
2 17 m 1
 2 18 l 1
 5 18 l 1
 8 18 l 1
 8 17 l 1
 8 16 l 1
 5 16 l 1
 2 16 l 1
 2 17 l 1
EndSplineSet
EndChar

StartChar: glyph2626
Encoding: 5792 5792 213
Width: 9
VWidth: 0
Flags: HMW
LayerCount: 2
Back
Fore
SplineSet
0 7 m 1
 0 14 l 1
 1 14 l 1
 2 14 l 1
 2 12 l 1
 2 10 l 1
 3 10 l 1
 4 10 l 1
 4 11 l 1
 4 12 l 1
 5 12 l 1
 6 12 l 1
 6 13 l 1
 6 14 l 1
 7 14 l 1
 8 14 l 1
 8 13 l 1
 8 12 l 1
 7 12 l 1
 6 12 l 1
 6 11 l 1
 6 10 l 1
 7 10 l 1
 8 10 l 1
 8 9 l 1
 8 8 l 1
 7 8 l 1
 6 8 l 1
 6 7 l 1
 6 6 l 1
 5 6 l 1
 4 6 l 1
 4 5 l 1
 4 4 l 1
 3 4 l 1
 2 4 l 1
 2 2 l 1
 2 0 l 1
 1 0 l 1
 0 0 l 1
 0 7 l 1
6 9 m 1
 6 10 l 1
 5 10 l 1
 4 10 l 1
 4 9 l 1
 4 8 l 1
 3 8 l 1
 2 8 l 1
 2 7 l 1
 2 6 l 1
 3 6 l 1
 4 6 l 1
 4 7 l 1
 4 8 l 1
 5 8 l 1
 6 8 l 1
 6 9 l 1
EndSplineSet
EndChar

StartChar: glyph2627
Encoding: 5793 5793 214
Width: 9
VWidth: 0
Flags: HMW
LayerCount: 2
Back
Fore
SplineSet
2 15 m 1
 2 16 l 1
 3 16 l 1
 4 16 l 1
 4 15 l 1
 4 14 l 1
 3 14 l 1
 2 14 l 1
 2 12 l 1
 2 10 l 1
 3 10 l 1
 4 10 l 1
 4 11 l 1
 4 12 l 1
 5 12 l 1
 6 12 l 1
 6 13 l 1
 6 14 l 1
 7 14 l 1
 8 14 l 1
 8 13 l 1
 8 12 l 1
 7 12 l 1
 6 12 l 1
 6 11 l 1
 6 10 l 1
 7 10 l 1
 8 10 l 1
 8 9 l 1
 8 8 l 1
 7 8 l 1
 6 8 l 1
 6 7 l 1
 6 6 l 1
 5 6 l 1
 4 6 l 1
 4 5 l 1
 4 4 l 1
 3 4 l 1
 2 4 l 1
 2 2 l 1
 2 0 l 1
 1 0 l 1
 0 0 l 1
 0 7 l 1
 0 14 l 1
 1 14 l 1
 2 14 l 1
 2 15 l 1
6 9 m 1
 6 10 l 1
 5 10 l 1
 4 10 l 1
 4 9 l 1
 4 8 l 1
 3 8 l 1
 2 8 l 1
 2 7 l 1
 2 6 l 1
 3 6 l 1
 4 6 l 1
 4 7 l 1
 4 8 l 1
 5 8 l 1
 6 8 l 1
 6 9 l 1
EndSplineSet
EndChar

StartChar: glyph2628
Encoding: 5794 5794 215
Width: 11
VWidth: 0
Flags: HMW
LayerCount: 2
Back
Fore
SplineSet
0 7 m 1
 0 14 l 1
 2 14 l 1
 4 14 l 1
 4 13 l 1
 4 12 l 1
 5 12 l 1
 6 12 l 1
 6 10 l 1
 6 8 l 1
 7 8 l 1
 8 8 l 1
 8 6 l 1
 8 4 l 1
 9 4 l 1
 10 4 l 1
 10 2 l 1
 10 0 l 1
 9 0 l 1
 8 0 l 1
 8 2 l 1
 8 4 l 1
 7 4 l 1
 6 4 l 1
 6 6 l 1
 6 8 l 1
 5 8 l 1
 4 8 l 1
 4 10 l 1
 4 12 l 1
 3 12 l 1
 2 12 l 1
 2 6 l 1
 2 0 l 1
 1 0 l 1
 0 0 l 1
 0 7 l 1
EndSplineSet
EndChar

StartChar: glyph2629
Encoding: 5795 5795 216
Width: 11
VWidth: 0
Flags: HMW
LayerCount: 2
Back
Fore
SplineSet
0 7 m 1
 0 14 l 1
 2 14 l 1
 4 14 l 1
 4 13 l 1
 4 12 l 1
 5 12 l 1
 6 12 l 1
 6 10 l 1
 6 8 l 1
 7 8 l 1
 8 8 l 1
 8 6 l 1
 8 4 l 1
 9 4 l 1
 10 4 l 1
 10 2 l 1
 10 0 l 1
 9 0 l 1
 8 0 l 1
 8 2 l 1
 8 4 l 1
 7 4 l 1
 6 4 l 1
 6 2 l 1
 6 0 l 1
 5 0 l 1
 4 0 l 1
 4 2 l 1
 4 4 l 1
 5 4 l 1
 6 4 l 1
 6 6 l 1
 6 8 l 1
 5 8 l 1
 4 8 l 1
 4 10 l 1
 4 12 l 1
 3 12 l 1
 2 12 l 1
 2 6 l 1
 2 0 l 1
 1 0 l 1
 0 0 l 1
 0 7 l 1
EndSplineSet
EndChar

StartChar: glyph2630
Encoding: 5796 5796 217
Width: 11
VWidth: 0
Flags: HMW
LayerCount: 2
Back
Fore
SplineSet
0 7 m 1
 0 14 l 1
 2 14 l 1
 4 14 l 1
 4 13 l 1
 4 12 l 1
 5 12 l 1
 6 12 l 1
 6 10 l 1
 6 8 l 1
 7 8 l 1
 8 8 l 1
 8 6 l 1
 8 4 l 1
 9 4 l 1
 10 4 l 1
 10 2 l 1
 10 0 l 1
 9 0 l 1
 8 0 l 1
 8 2 l 1
 8 4 l 1
 7 4 l 1
 6 4 l 1
 6 3 l 1
 6 2 l 1
 5 2 l 1
 4 2 l 1
 4 3 l 1
 4 4 l 1
 5 4 l 1
 6 4 l 1
 6 6 l 1
 6 8 l 1
 5 8 l 1
 4 8 l 1
 4 10 l 1
 4 12 l 1
 3 12 l 1
 2 12 l 1
 2 6 l 1
 2 0 l 1
 1 0 l 1
 0 0 l 1
 0 7 l 1
EndSplineSet
EndChar

StartChar: glyph2631
Encoding: 5797 5797 218
Width: 11
VWidth: 0
Flags: HMW
LayerCount: 2
Back
Fore
SplineSet
0 7 m 1
 0 14 l 1
 2 14 l 1
 4 14 l 1
 4 13 l 1
 4 12 l 1
 5 12 l 1
 6 12 l 1
 6 10 l 1
 6 8 l 1
 7 8 l 1
 8 8 l 1
 8 6 l 1
 8 4 l 1
 9 4 l 1
 10 4 l 1
 10 2 l 1
 10 0 l 1
 9 0 l 1
 8 0 l 1
 8 2 l 1
 8 4 l 1
 7 4 l 1
 6 4 l 1
 6 2 l 1
 6 0 l 1
 5 0 l 1
 4 0 l 1
 4 2 l 1
 4 4 l 1
 3 4 l 1
 2 4 l 1
 2 2 l 1
 2 0 l 1
 1 0 l 1
 0 0 l 1
 0 7 l 1
4 10 m 1
 4 12 l 1
 3 12 l 1
 2 12 l 1
 2 10 l 1
 2 8 l 1
 3 8 l 1
 4 8 l 1
 4 6 l 1
 4 4 l 1
 5 4 l 1
 6 4 l 1
 6 6 l 1
 6 8 l 1
 5 8 l 1
 4 8 l 1
 4 10 l 1
EndSplineSet
EndChar

StartChar: glyph2632
Encoding: 5798 5798 219
Width: 9
VWidth: 0
Flags: HMW
LayerCount: 2
Back
Fore
SplineSet
0 7 m 1
 0 14 l 1
 1 14 l 1
 2 14 l 1
 2 12 l 1
 2 10 l 1
 4 10 l 1
 6 10 l 1
 6 9 l 1
 6 8 l 1
 7 8 l 1
 8 8 l 1
 8 7 l 1
 8 6 l 1
 7 6 l 1
 6 6 l 1
 6 5 l 1
 6 4 l 1
 4 4 l 1
 2 4 l 1
 2 2 l 1
 2 0 l 1
 1 0 l 1
 0 0 l 1
 0 7 l 1
6 7 m 1
 6 8 l 1
 4 8 l 1
 2 8 l 1
 2 7 l 1
 2 6 l 1
 4 6 l 1
 6 6 l 1
 6 7 l 1
EndSplineSet
EndChar

StartChar: glyph2633
Encoding: 5799 5799 220
Width: 9
VWidth: 0
Flags: HMW
LayerCount: 2
Back
Fore
SplineSet
0 7 m 1
 0 14 l 1
 1 14 l 1
 2 14 l 1
 2 13 l 1
 2 12 l 1
 4 12 l 1
 6 12 l 1
 6 11 l 1
 6 10 l 1
 7 10 l 1
 8 10 l 1
 8 7 l 1
 8 4 l 1
 7 4 l 1
 6 4 l 1
 6 3 l 1
 6 2 l 1
 4 2 l 1
 2 2 l 1
 2 1 l 1
 2 0 l 1
 1 0 l 1
 0 0 l 1
 0 7 l 1
6 7 m 1
 6 10 l 1
 4 10 l 1
 2 10 l 1
 2 9 l 1
 2 8 l 1
 3 8 l 1
 4 8 l 1
 4 7 l 1
 4 6 l 1
 3 6 l 1
 2 6 l 1
 2 5 l 1
 2 4 l 1
 4 4 l 1
 6 4 l 1
 6 7 l 1
EndSplineSet
EndChar

StartChar: glyph2634
Encoding: 5800 5800 221
Width: 7
VWidth: 0
Flags: HMW
LayerCount: 2
Back
Fore
SplineSet
0 7 m 1
 0 14 l 1
 2 14 l 1
 4 14 l 1
 4 13 l 1
 4 12 l 1
 5 12 l 1
 6 12 l 1
 6 11 l 1
 6 10 l 1
 5 10 l 1
 4 10 l 1
 4 9 l 1
 4 8 l 1
 5 8 l 1
 6 8 l 1
 6 7 l 1
 6 6 l 1
 5 6 l 1
 4 6 l 1
 4 7 l 1
 4 8 l 1
 3 8 l 1
 2 8 l 1
 2 4 l 1
 2 0 l 1
 1 0 l 1
 0 0 l 1
 0 7 l 1
4 11 m 1
 4 12 l 1
 3 12 l 1
 2 12 l 1
 2 11 l 1
 2 10 l 1
 3 10 l 1
 4 10 l 1
 4 11 l 1
EndSplineSet
EndChar

StartChar: glyph2635
Encoding: 5801 5801 222
Width: 9
VWidth: 0
Flags: HMW
LayerCount: 2
Back
Fore
SplineSet
0 7 m 1
 0 14 l 1
 2 14 l 1
 4 14 l 1
 4 13 l 1
 4 12 l 1
 5 12 l 1
 6 12 l 1
 6 13 l 1
 6 14 l 1
 7 14 l 1
 8 14 l 1
 8 13 l 1
 8 12 l 1
 7 12 l 1
 6 12 l 1
 6 11 l 1
 6 10 l 1
 7 10 l 1
 8 10 l 1
 8 9 l 1
 8 8 l 1
 7 8 l 1
 6 8 l 1
 6 7 l 1
 6 6 l 1
 5 6 l 1
 4 6 l 1
 4 7 l 1
 4 8 l 1
 3 8 l 1
 2 8 l 1
 2 4 l 1
 2 0 l 1
 1 0 l 1
 0 0 l 1
 0 7 l 1
4 11 m 1
 4 12 l 1
 3 12 l 1
 2 12 l 1
 2 11 l 1
 2 10 l 1
 3 10 l 1
 4 10 l 1
 4 9 l 1
 4 8 l 1
 5 8 l 1
 6 8 l 1
 6 9 l 1
 6 10 l 1
 5 10 l 1
 4 10 l 1
 4 11 l 1
EndSplineSet
EndChar

StartChar: glyph2636
Encoding: 5802 5802 223
Width: 9
VWidth: 0
Flags: HMW
LayerCount: 2
Back
Fore
SplineSet
0 7 m 1
 0 14 l 1
 2 14 l 1
 4 14 l 1
 4 13 l 1
 4 12 l 1
 5 12 l 1
 6 12 l 1
 6 13 l 1
 6 14 l 1
 7 14 l 1
 8 14 l 1
 8 13 l 1
 8 12 l 1
 7 12 l 1
 6 12 l 1
 6 11 l 1
 6 10 l 1
 5 10 l 1
 4 10 l 1
 4 9 l 1
 4 8 l 1
 5 8 l 1
 6 8 l 1
 6 7 l 1
 6 6 l 1
 5 6 l 1
 4 6 l 1
 4 7 l 1
 4 8 l 1
 3 8 l 1
 2 8 l 1
 2 4 l 1
 2 0 l 1
 1 0 l 1
 0 0 l 1
 0 7 l 1
4 11 m 1
 4 12 l 1
 3 12 l 1
 2 12 l 1
 2 11 l 1
 2 10 l 1
 3 10 l 1
 4 10 l 1
 4 11 l 1
EndSplineSet
EndChar

StartChar: glyph2637
Encoding: 5803 5803 224
Width: 9
VWidth: 0
Flags: HMW
LayerCount: 2
Back
Fore
SplineSet
0 7 m 1
 0 14 l 1
 2 14 l 1
 4 14 l 1
 4 13 l 1
 4 12 l 1
 5 12 l 1
 6 12 l 1
 6 11 l 1
 6 10 l 1
 7 10 l 1
 8 10 l 1
 8 9 l 1
 8 8 l 1
 7 8 l 1
 6 8 l 1
 6 7 l 1
 6 6 l 1
 7 6 l 1
 8 6 l 1
 8 5 l 1
 8 4 l 1
 7 4 l 1
 6 4 l 1
 6 5 l 1
 6 6 l 1
 5 6 l 1
 4 6 l 1
 4 7 l 1
 4 8 l 1
 3 8 l 1
 2 8 l 1
 2 4 l 1
 2 0 l 1
 1 0 l 1
 0 0 l 1
 0 7 l 1
4 11 m 1
 4 12 l 1
 3 12 l 1
 2 12 l 1
 2 11 l 1
 2 10 l 1
 3 10 l 1
 4 10 l 1
 4 9 l 1
 4 8 l 1
 5 8 l 1
 6 8 l 1
 6 9 l 1
 6 10 l 1
 5 10 l 1
 4 10 l 1
 4 11 l 1
EndSplineSet
EndChar

StartChar: glyph2638
Encoding: 5804 5804 225
Width: 11
VWidth: 0
Flags: HMW
LayerCount: 2
Back
Fore
SplineSet
4 12 m 1
 4 14 l 1
 5 14 l 1
 6 14 l 1
 6 11 l 1
 6 8 l 1
 7 8 l 1
 8 8 l 1
 8 7 l 1
 8 6 l 1
 9 6 l 1
 10 6 l 1
 10 5 l 1
 10 4 l 1
 9 4 l 1
 8 4 l 1
 8 3 l 1
 8 2 l 1
 9 2 l 1
 10 2 l 1
 10 1 l 1
 10 0 l 1
 9 0 l 1
 8 0 l 1
 8 1 l 1
 8 2 l 1
 7 2 l 1
 6 2 l 1
 6 1 l 1
 6 0 l 1
 5 0 l 1
 4 0 l 1
 4 2 l 1
 4 4 l 1
 3 4 l 1
 2 4 l 1
 2 5 l 1
 2 6 l 1
 1 6 l 1
 0 6 l 1
 0 7 l 1
 0 8 l 1
 1 8 l 1
 2 8 l 1
 2 9 l 1
 2 10 l 1
 1 10 l 1
 0 10 l 1
 0 11 l 1
 0 12 l 1
 1 12 l 1
 2 12 l 1
 2 11 l 1
 2 10 l 1
 3 10 l 1
 4 10 l 1
 4 12 l 1
4 7 m 1
 4 8 l 1
 3 8 l 1
 2 8 l 1
 2 7 l 1
 2 6 l 1
 3 6 l 1
 4 6 l 1
 4 7 l 1
8 5 m 1
 8 6 l 1
 7 6 l 1
 6 6 l 1
 6 5 l 1
 6 4 l 1
 7 4 l 1
 8 4 l 1
 8 5 l 1
EndSplineSet
EndChar

StartChar: glyph2639
Encoding: 5805 5805 226
Width: 7
VWidth: 0
Flags: HMW
LayerCount: 2
Back
Fore
SplineSet
0 7 m 1
 0 14 l 1
 1 14 l 1
 2 14 l 1
 2 11 l 1
 2 8 l 1
 3 8 l 1
 4 8 l 1
 4 7 l 1
 4 6 l 1
 5 6 l 1
 6 6 l 1
 6 5 l 1
 6 4 l 1
 5 4 l 1
 4 4 l 1
 4 3 l 1
 4 2 l 1
 5 2 l 1
 6 2 l 1
 6 1 l 1
 6 0 l 1
 5 0 l 1
 4 0 l 1
 4 1 l 1
 4 2 l 1
 3 2 l 1
 2 2 l 1
 2 1 l 1
 2 0 l 1
 1 0 l 1
 0 0 l 1
 0 7 l 1
4 5 m 1
 4 6 l 1
 3 6 l 1
 2 6 l 1
 2 5 l 1
 2 4 l 1
 3 4 l 1
 4 4 l 1
 4 5 l 1
EndSplineSet
EndChar

StartChar: glyph2640
Encoding: 5806 5806 227
Width: 7
VWidth: 0
Flags: HMW
LayerCount: 2
Back
Fore
SplineSet
4 11 m 1
 4 14 l 1
 5 14 l 1
 6 14 l 1
 6 7 l 1
 6 0 l 1
 5 0 l 1
 4 0 l 1
 4 1 l 1
 4 2 l 1
 3 2 l 1
 2 2 l 1
 2 1 l 1
 2 0 l 1
 1 0 l 1
 0 0 l 1
 0 1 l 1
 0 2 l 1
 1 2 l 1
 2 2 l 1
 2 3 l 1
 2 4 l 1
 1 4 l 1
 0 4 l 1
 0 5 l 1
 0 6 l 1
 1 6 l 1
 2 6 l 1
 2 7 l 1
 2 8 l 1
 3 8 l 1
 4 8 l 1
 4 11 l 1
4 5 m 1
 4 6 l 1
 3 6 l 1
 2 6 l 1
 2 5 l 1
 2 4 l 1
 3 4 l 1
 4 4 l 1
 4 5 l 1
EndSplineSet
EndChar

StartChar: glyph2641
Encoding: 5807 5807 228
Width: 11
VWidth: 0
Flags: HMW
LayerCount: 2
Back
Fore
SplineSet
4 11 m 1
 4 14 l 1
 5 14 l 1
 6 14 l 1
 6 12 l 1
 6 10 l 1
 7 10 l 1
 8 10 l 1
 8 11 l 1
 8 12 l 1
 9 12 l 1
 10 12 l 1
 10 11 l 1
 10 10 l 1
 9 10 l 1
 8 10 l 1
 8 9 l 1
 8 8 l 1
 9 8 l 1
 10 8 l 1
 10 7 l 1
 10 6 l 1
 9 6 l 1
 8 6 l 1
 8 5 l 1
 8 4 l 1
 7 4 l 1
 6 4 l 1
 6 2 l 1
 6 0 l 1
 5 0 l 1
 4 0 l 1
 4 1 l 1
 4 2 l 1
 3 2 l 1
 2 2 l 1
 2 1 l 1
 2 0 l 1
 1 0 l 1
 0 0 l 1
 0 1 l 1
 0 2 l 1
 1 2 l 1
 2 2 l 1
 2 3 l 1
 2 4 l 1
 1 4 l 1
 0 4 l 1
 0 5 l 1
 0 6 l 1
 1 6 l 1
 2 6 l 1
 2 7 l 1
 2 8 l 1
 3 8 l 1
 4 8 l 1
 4 11 l 1
8 7 m 1
 8 8 l 1
 7 8 l 1
 6 8 l 1
 6 7 l 1
 6 6 l 1
 7 6 l 1
 8 6 l 1
 8 7 l 1
4 5 m 1
 4 6 l 1
 3 6 l 1
 2 6 l 1
 2 5 l 1
 2 4 l 1
 3 4 l 1
 4 4 l 1
 4 5 l 1
EndSplineSet
EndChar

StartChar: glyph2642
Encoding: 363 363 229
Width: 11
VWidth: 0
Flags: HMW
LayerCount: 2
Back
Fore
SplineSet
0 6 m 1
 0 10 l 1
 1 10 l 1
 2 10 l 1
 2 6 l 1
 2 2 l 1
 5 2 l 1
 8 2 l 1
 8 6 l 1
 8 10 l 1
 9 10 l 1
 10 10 l 1
 10 5 l 1
 10 0 l 1
 6 0 l 1
 2 0 l 1
 2 1 l 1
 2 2 l 1
 1 2 l 1
 0 2 l 1
 0 6 l 1
2 13 m 1
 2 14 l 1
 5 14 l 1
 8 14 l 1
 8 13 l 1
 8 12 l 1
 5 12 l 1
 2 12 l 1
 2 13 l 1
EndSplineSet
EndChar

StartChar: glyph2643
Encoding: 5808 5808 230
Width: 11
VWidth: 0
Flags: HMW
LayerCount: 2
Back
Fore
SplineSet
4 11 m 1
 4 14 l 1
 5 14 l 1
 6 14 l 1
 6 12 l 1
 6 10 l 1
 7 10 l 1
 8 10 l 1
 8 11 l 1
 8 12 l 1
 9 12 l 1
 10 12 l 1
 10 11 l 1
 10 10 l 1
 9 10 l 1
 8 10 l 1
 8 9 l 1
 8 8 l 1
 7 8 l 1
 6 8 l 1
 6 4 l 1
 6 0 l 1
 5 0 l 1
 4 0 l 1
 4 1 l 1
 4 2 l 1
 3 2 l 1
 2 2 l 1
 2 1 l 1
 2 0 l 1
 1 0 l 1
 0 0 l 1
 0 1 l 1
 0 2 l 1
 1 2 l 1
 2 2 l 1
 2 3 l 1
 2 4 l 1
 1 4 l 1
 0 4 l 1
 0 5 l 1
 0 6 l 1
 1 6 l 1
 2 6 l 1
 2 7 l 1
 2 8 l 1
 3 8 l 1
 4 8 l 1
 4 11 l 1
4 5 m 1
 4 6 l 1
 3 6 l 1
 2 6 l 1
 2 5 l 1
 2 4 l 1
 3 4 l 1
 4 4 l 1
 4 5 l 1
EndSplineSet
EndChar

StartChar: glyph2644
Encoding: 5809 5809 231
Width: 9
VWidth: 0
Flags: HMW
LayerCount: 2
Back
Fore
SplineSet
0 7 m 1
 0 14 l 1
 2 14 l 1
 4 14 l 1
 4 13 l 1
 4 12 l 1
 5 12 l 1
 6 12 l 1
 6 11 l 1
 6 10 l 1
 7 10 l 1
 8 10 l 1
 8 9 l 1
 8 8 l 1
 7 8 l 1
 6 8 l 1
 6 7 l 1
 6 6 l 1
 5 6 l 1
 4 6 l 1
 4 5 l 1
 4 4 l 1
 5 4 l 1
 6 4 l 1
 6 3 l 1
 6 2 l 1
 7 2 l 1
 8 2 l 1
 8 1 l 1
 8 0 l 1
 7 0 l 1
 6 0 l 1
 6 1 l 1
 6 2 l 1
 5 2 l 1
 4 2 l 1
 4 3 l 1
 4 4 l 1
 3 4 l 1
 2 4 l 1
 2 2 l 1
 2 0 l 1
 1 0 l 1
 0 0 l 1
 0 7 l 1
4 11 m 1
 4 12 l 1
 3 12 l 1
 2 12 l 1
 2 9 l 1
 2 6 l 1
 3 6 l 1
 4 6 l 1
 4 7 l 1
 4 8 l 1
 5 8 l 1
 6 8 l 1
 6 9 l 1
 6 10 l 1
 5 10 l 1
 4 10 l 1
 4 11 l 1
EndSplineSet
EndChar

StartChar: glyph2645
Encoding: 5810 5810 232
Width: 7
VWidth: 0
Flags: HMW
LayerCount: 2
Back
Fore
SplineSet
4 11 m 1
 4 12 l 1
 5 12 l 1
 6 12 l 1
 6 11 l 1
 6 10 l 1
 5 10 l 1
 4 10 l 1
 4 9 l 1
 4 8 l 1
 3 8 l 1
 2 8 l 1
 2 7 l 1
 2 6 l 1
 3 6 l 1
 4 6 l 1
 4 5 l 1
 4 4 l 1
 5 4 l 1
 6 4 l 1
 6 3 l 1
 6 2 l 1
 5 2 l 1
 4 2 l 1
 4 3 l 1
 4 4 l 1
 3 4 l 1
 2 4 l 1
 2 5 l 1
 2 6 l 1
 1 6 l 1
 0 6 l 1
 0 7 l 1
 0 8 l 1
 1 8 l 1
 2 8 l 1
 2 9 l 1
 2 10 l 1
 3 10 l 1
 4 10 l 1
 4 11 l 1
EndSplineSet
EndChar

StartChar: glyph2646
Encoding: 5811 5811 233
Width: 9
VWidth: 0
Flags: HMW
LayerCount: 2
Back
Fore
SplineSet
0 7 m 1
 0 14 l 1
 1 14 l 1
 2 14 l 1
 2 10 l 1
 2 6 l 1
 3 6 l 1
 4 6 l 1
 4 5 l 1
 4 4 l 1
 5 4 l 1
 6 4 l 1
 6 3 l 1
 6 2 l 1
 7 2 l 1
 8 2 l 1
 8 1 l 1
 8 0 l 1
 7 0 l 1
 6 0 l 1
 6 1 l 1
 6 2 l 1
 5 2 l 1
 4 2 l 1
 4 3 l 1
 4 4 l 1
 3 4 l 1
 2 4 l 1
 2 2 l 1
 2 0 l 1
 1 0 l 1
 0 0 l 1
 0 7 l 1
EndSplineSet
EndChar

StartChar: glyph2647
Encoding: 5812 5812 234
Width: 9
VWidth: 0
Flags: HMW
LayerCount: 2
Back
Fore
SplineSet
0 7 m 1
 0 14 l 1
 1 14 l 1
 2 14 l 1
 2 12 l 1
 2 10 l 1
 3 10 l 1
 4 10 l 1
 4 11 l 1
 4 12 l 1
 5 12 l 1
 6 12 l 1
 6 13 l 1
 6 14 l 1
 7 14 l 1
 8 14 l 1
 8 13 l 1
 8 12 l 1
 7 12 l 1
 6 12 l 1
 6 11 l 1
 6 10 l 1
 5 10 l 1
 4 10 l 1
 4 9 l 1
 4 8 l 1
 3 8 l 1
 2 8 l 1
 2 4 l 1
 2 0 l 1
 1 0 l 1
 0 0 l 1
 0 7 l 1
EndSplineSet
EndChar

StartChar: glyph2648
Encoding: 5813 5813 235
Width: 9
VWidth: 0
Flags: HMW
LayerCount: 2
Back
Fore
SplineSet
2 15 m 1
 2 16 l 1
 3 16 l 1
 4 16 l 1
 4 15 l 1
 4 14 l 1
 3 14 l 1
 2 14 l 1
 2 12 l 1
 2 10 l 1
 3 10 l 1
 4 10 l 1
 4 11 l 1
 4 12 l 1
 5 12 l 1
 6 12 l 1
 6 13 l 1
 6 14 l 1
 7 14 l 1
 8 14 l 1
 8 13 l 1
 8 12 l 1
 7 12 l 1
 6 12 l 1
 6 11 l 1
 6 10 l 1
 5 10 l 1
 4 10 l 1
 4 9 l 1
 4 8 l 1
 3 8 l 1
 2 8 l 1
 2 4 l 1
 2 0 l 1
 1 0 l 1
 0 0 l 1
 0 7 l 1
 0 14 l 1
 1 14 l 1
 2 14 l 1
 2 15 l 1
EndSplineSet
EndChar

StartChar: glyph2649
Encoding: 5814 5814 236
Width: 11
VWidth: 0
Flags: HMW
LayerCount: 2
Back
Fore
SplineSet
2 12 m 1
 2 14 l 1
 3 14 l 1
 4 14 l 1
 4 12 l 1
 4 10 l 1
 5 10 l 1
 6 10 l 1
 6 11 l 1
 6 12 l 1
 7 12 l 1
 8 12 l 1
 8 13 l 1
 8 14 l 1
 9 14 l 1
 10 14 l 1
 10 13 l 1
 10 12 l 1
 9 12 l 1
 8 12 l 1
 8 11 l 1
 8 10 l 1
 7 10 l 1
 6 10 l 1
 6 8 l 1
 6 6 l 1
 5 6 l 1
 4 6 l 1
 4 3 l 1
 4 0 l 1
 3 0 l 1
 2 0 l 1
 2 3 l 1
 2 6 l 1
 1 6 l 1
 0 6 l 1
 0 8 l 1
 0 10 l 1
 1 10 l 1
 2 10 l 1
 2 12 l 1
EndSplineSet
EndChar

StartChar: glyph2650
Encoding: 5815 5815 237
Width: 11
VWidth: 0
Flags: HMW
LayerCount: 2
Back
Fore
SplineSet
0 13 m 1
 0 14 l 1
 1 14 l 1
 2 14 l 1
 2 13 l 1
 2 12 l 1
 3 12 l 1
 4 12 l 1
 4 10 l 1
 4 8 l 1
 5 8 l 1
 6 8 l 1
 6 10 l 1
 6 12 l 1
 7 12 l 1
 8 12 l 1
 8 13 l 1
 8 14 l 1
 9 14 l 1
 10 14 l 1
 10 13 l 1
 10 12 l 1
 9 12 l 1
 8 12 l 1
 8 10 l 1
 8 8 l 1
 7 8 l 1
 6 8 l 1
 6 7 l 1
 6 6 l 1
 7 6 l 1
 8 6 l 1
 8 4 l 1
 8 2 l 1
 9 2 l 1
 10 2 l 1
 10 1 l 1
 10 0 l 1
 9 0 l 1
 8 0 l 1
 8 1 l 1
 8 2 l 1
 7 2 l 1
 6 2 l 1
 6 4 l 1
 6 6 l 1
 5 6 l 1
 4 6 l 1
 4 4 l 1
 4 2 l 1
 3 2 l 1
 2 2 l 1
 2 1 l 1
 2 0 l 1
 1 0 l 1
 0 0 l 1
 0 1 l 1
 0 2 l 1
 1 2 l 1
 2 2 l 1
 2 4 l 1
 2 6 l 1
 3 6 l 1
 4 6 l 1
 4 7 l 1
 4 8 l 1
 3 8 l 1
 2 8 l 1
 2 10 l 1
 2 12 l 1
 1 12 l 1
 0 12 l 1
 0 13 l 1
EndSplineSet
EndChar

StartChar: glyph2651
Encoding: 5816 5816 238
Width: 11
VWidth: 0
Flags: HMW
LayerCount: 2
Back
Fore
SplineSet
0 13 m 1
 0 14 l 1
 1 14 l 1
 2 14 l 1
 2 13 l 1
 2 12 l 1
 3 12 l 1
 4 12 l 1
 4 10 l 1
 4 8 l 1
 5 8 l 1
 6 8 l 1
 6 10 l 1
 6 12 l 1
 7 12 l 1
 8 12 l 1
 8 13 l 1
 8 14 l 1
 9 14 l 1
 10 14 l 1
 10 13 l 1
 10 12 l 1
 9 12 l 1
 8 12 l 1
 8 10 l 1
 8 8 l 1
 9 8 l 1
 10 8 l 1
 10 7 l 1
 10 6 l 1
 9 6 l 1
 8 6 l 1
 8 4 l 1
 8 2 l 1
 9 2 l 1
 10 2 l 1
 10 1 l 1
 10 0 l 1
 9 0 l 1
 8 0 l 1
 8 1 l 1
 8 2 l 1
 7 2 l 1
 6 2 l 1
 6 4 l 1
 6 6 l 1
 5 6 l 1
 4 6 l 1
 4 4 l 1
 4 2 l 1
 3 2 l 1
 2 2 l 1
 2 1 l 1
 2 0 l 1
 1 0 l 1
 0 0 l 1
 0 1 l 1
 0 2 l 1
 1 2 l 1
 2 2 l 1
 2 4 l 1
 2 6 l 1
 1 6 l 1
 0 6 l 1
 0 7 l 1
 0 8 l 1
 1 8 l 1
 2 8 l 1
 2 10 l 1
 2 12 l 1
 1 12 l 1
 0 12 l 1
 0 13 l 1
4 7 m 1
 4 8 l 1
 3 8 l 1
 2 8 l 1
 2 7 l 1
 2 6 l 1
 3 6 l 1
 4 6 l 1
 4 7 l 1
8 7 m 1
 8 8 l 1
 7 8 l 1
 6 8 l 1
 6 7 l 1
 6 6 l 1
 7 6 l 1
 8 6 l 1
 8 7 l 1
EndSplineSet
EndChar

StartChar: glyph2652
Encoding: 5817 5817 239
Width: 9
VWidth: 0
Flags: HMW
LayerCount: 2
Back
Fore
SplineSet
0 7 m 1
 0 14 l 1
 2 14 l 1
 4 14 l 1
 4 13 l 1
 4 12 l 1
 5 12 l 1
 6 12 l 1
 6 11 l 1
 6 10 l 1
 7 10 l 1
 8 10 l 1
 8 9 l 1
 8 8 l 1
 7 8 l 1
 6 8 l 1
 6 7 l 1
 6 6 l 1
 5 6 l 1
 4 6 l 1
 4 5 l 1
 4 4 l 1
 3 4 l 1
 2 4 l 1
 2 2 l 1
 2 0 l 1
 1 0 l 1
 0 0 l 1
 0 7 l 1
4 11 m 1
 4 12 l 1
 3 12 l 1
 2 12 l 1
 2 9 l 1
 2 6 l 1
 3 6 l 1
 4 6 l 1
 4 7 l 1
 4 8 l 1
 5 8 l 1
 6 8 l 1
 6 9 l 1
 6 10 l 1
 5 10 l 1
 4 10 l 1
 4 11 l 1
EndSplineSet
EndChar

StartChar: glyph2653
Encoding: 5818 5818 240
Width: 11
VWidth: 0
Flags: HMW
LayerCount: 2
Back
Fore
SplineSet
0 7 m 1
 0 14 l 1
 1 14 l 1
 2 14 l 1
 2 11 l 1
 2 8 l 1
 4 8 l 1
 6 8 l 1
 6 7 l 1
 6 6 l 1
 7 6 l 1
 8 6 l 1
 8 10 l 1
 8 14 l 1
 9 14 l 1
 10 14 l 1
 10 7 l 1
 10 0 l 1
 9 0 l 1
 8 0 l 1
 8 2 l 1
 8 4 l 1
 7 4 l 1
 6 4 l 1
 6 5 l 1
 6 6 l 1
 4 6 l 1
 2 6 l 1
 2 3 l 1
 2 0 l 1
 1 0 l 1
 0 0 l 1
 0 7 l 1
EndSplineSet
EndChar

StartChar: glyph2654
Encoding: 5819 5819 241
Width: 11
VWidth: 0
Flags: HMW
LayerCount: 2
Back
Fore
SplineSet
0 7 m 1
 0 14 l 1
 1 14 l 1
 2 14 l 1
 2 12 l 1
 2 10 l 1
 4 10 l 1
 6 10 l 1
 6 9 l 1
 6 8 l 1
 7 8 l 1
 8 8 l 1
 8 11 l 1
 8 14 l 1
 9 14 l 1
 10 14 l 1
 10 7 l 1
 10 0 l 1
 9 0 l 1
 8 0 l 1
 8 1 l 1
 8 2 l 1
 7 2 l 1
 6 2 l 1
 6 3 l 1
 6 4 l 1
 4 4 l 1
 2 4 l 1
 2 2 l 1
 2 0 l 1
 1 0 l 1
 0 0 l 1
 0 7 l 1
6 7 m 1
 6 8 l 1
 4 8 l 1
 2 8 l 1
 2 7 l 1
 2 6 l 1
 4 6 l 1
 6 6 l 1
 6 5 l 1
 6 4 l 1
 7 4 l 1
 8 4 l 1
 8 5 l 1
 8 6 l 1
 7 6 l 1
 6 6 l 1
 6 7 l 1
EndSplineSet
EndChar

StartChar: glyph2655
Encoding: 5820 5820 242
Width: 11
VWidth: 0
Flags: HMW
LayerCount: 2
Back
Fore
SplineSet
4 12 m 1
 4 14 l 1
 5 14 l 1
 6 14 l 1
 6 12 l 1
 6 10 l 1
 7 10 l 1
 8 10 l 1
 8 11 l 1
 8 12 l 1
 9 12 l 1
 10 12 l 1
 10 11 l 1
 10 10 l 1
 9 10 l 1
 8 10 l 1
 8 9 l 1
 8 8 l 1
 7 8 l 1
 6 8 l 1
 6 7 l 1
 6 6 l 1
 7 6 l 1
 8 6 l 1
 8 5 l 1
 8 4 l 1
 9 4 l 1
 10 4 l 1
 10 3 l 1
 10 2 l 1
 9 2 l 1
 8 2 l 1
 8 3 l 1
 8 4 l 1
 7 4 l 1
 6 4 l 1
 6 2 l 1
 6 0 l 1
 5 0 l 1
 4 0 l 1
 4 2 l 1
 4 4 l 1
 3 4 l 1
 2 4 l 1
 2 3 l 1
 2 2 l 1
 1 2 l 1
 0 2 l 1
 0 3 l 1
 0 4 l 1
 1 4 l 1
 2 4 l 1
 2 5 l 1
 2 6 l 1
 3 6 l 1
 4 6 l 1
 4 7 l 1
 4 8 l 1
 3 8 l 1
 2 8 l 1
 2 9 l 1
 2 10 l 1
 1 10 l 1
 0 10 l 1
 0 11 l 1
 0 12 l 1
 1 12 l 1
 2 12 l 1
 2 11 l 1
 2 10 l 1
 3 10 l 1
 4 10 l 1
 4 12 l 1
EndSplineSet
EndChar

StartChar: glyph2656
Encoding: 5821 5821 243
Width: 7
VWidth: 0
Flags: HMW
LayerCount: 2
Back
Fore
SplineSet
2 12 m 1
 2 14 l 1
 3 14 l 1
 4 14 l 1
 4 12 l 1
 4 10 l 1
 5 10 l 1
 6 10 l 1
 6 8 l 1
 6 6 l 1
 5 6 l 1
 4 6 l 1
 4 3 l 1
 4 0 l 1
 3 0 l 1
 2 0 l 1
 2 3 l 1
 2 6 l 1
 1 6 l 1
 0 6 l 1
 0 8 l 1
 0 10 l 1
 1 10 l 1
 2 10 l 1
 2 12 l 1
EndSplineSet
EndChar

StartChar: glyph2657
Encoding: 5822 5822 244
Width: 11
VWidth: 0
Flags: HMW
LayerCount: 2
Back
Fore
SplineSet
4 12 m 1
 4 14 l 1
 5 14 l 1
 6 14 l 1
 6 11 l 1
 6 8 l 1
 7 8 l 1
 8 8 l 1
 8 7 l 1
 8 6 l 1
 9 6 l 1
 10 6 l 1
 10 5 l 1
 10 4 l 1
 9 4 l 1
 8 4 l 1
 8 5 l 1
 8 6 l 1
 7 6 l 1
 6 6 l 1
 6 3 l 1
 6 0 l 1
 5 0 l 1
 4 0 l 1
 4 4 l 1
 4 8 l 1
 3 8 l 1
 2 8 l 1
 2 9 l 1
 2 10 l 1
 1 10 l 1
 0 10 l 1
 0 11 l 1
 0 12 l 1
 1 12 l 1
 2 12 l 1
 2 11 l 1
 2 10 l 1
 3 10 l 1
 4 10 l 1
 4 12 l 1
EndSplineSet
EndChar

StartChar: glyph2658
Encoding: 5823 5823 245
Width: 7
VWidth: 0
Flags: HMW
LayerCount: 2
Back
Fore
SplineSet
0 7 m 1
 0 14 l 1
 1 14 l 1
 2 14 l 1
 2 11 l 1
 2 8 l 1
 3 8 l 1
 4 8 l 1
 4 7 l 1
 4 6 l 1
 5 6 l 1
 6 6 l 1
 6 5 l 1
 6 4 l 1
 5 4 l 1
 4 4 l 1
 4 5 l 1
 4 6 l 1
 3 6 l 1
 2 6 l 1
 2 3 l 1
 2 0 l 1
 1 0 l 1
 0 0 l 1
 0 7 l 1
EndSplineSet
EndChar

StartChar: glyph2659
Encoding: 364 364 246
Width: 11
VWidth: 0
Flags: HMW
LayerCount: 2
Back
Fore
SplineSet
0 8 m 1
 0 14 l 1
 1 14 l 1
 2 14 l 1
 2 8 l 1
 2 2 l 1
 5 2 l 1
 8 2 l 1
 8 8 l 1
 8 14 l 1
 9 14 l 1
 10 14 l 1
 10 8 l 1
 10 2 l 1
 9 2 l 1
 8 2 l 1
 8 1 l 1
 8 0 l 1
 5 0 l 1
 2 0 l 1
 2 1 l 1
 2 2 l 1
 1 2 l 1
 0 2 l 1
 0 8 l 1
2 19 m 1
 2 20 l 1
 3 20 l 1
 4 20 l 1
 4 19 l 1
 4 18 l 1
 6 18 l 1
 8 18 l 1
 8 19 l 1
 8 20 l 1
 9 20 l 1
 10 20 l 1
 10 19 l 1
 10 18 l 1
 9 18 l 1
 8 18 l 1
 8 17 l 1
 8 16 l 1
 6 16 l 1
 4 16 l 1
 4 17 l 1
 4 18 l 1
 3 18 l 1
 2 18 l 1
 2 19 l 1
EndSplineSet
EndChar

StartChar: glyph2660
Encoding: 5824 5824 247
Width: 11
VWidth: 0
Flags: HMW
LayerCount: 2
Back
Fore
SplineSet
4 12 m 1
 4 14 l 1
 5 14 l 1
 6 14 l 1
 6 12 l 1
 6 10 l 1
 7 10 l 1
 8 10 l 1
 8 8 l 1
 8 6 l 1
 9 6 l 1
 10 6 l 1
 10 5 l 1
 10 4 l 1
 9 4 l 1
 8 4 l 1
 8 5 l 1
 8 6 l 1
 7 6 l 1
 6 6 l 1
 6 3 l 1
 6 0 l 1
 5 0 l 1
 4 0 l 1
 4 3 l 1
 4 6 l 1
 3 6 l 1
 2 6 l 1
 2 8 l 1
 2 10 l 1
 1 10 l 1
 0 10 l 1
 0 11 l 1
 0 12 l 1
 1 12 l 1
 2 12 l 1
 2 11 l 1
 2 10 l 1
 3 10 l 1
 4 10 l 1
 4 12 l 1
EndSplineSet
EndChar

StartChar: glyph2661
Encoding: 5825 5825 248
Width: 3
VWidth: 0
Flags: HMW
LayerCount: 2
Back
Fore
SplineSet
0 7 m 1
 0 14 l 1
 1 14 l 1
 2 14 l 1
 2 7 l 1
 2 0 l 1
 1 0 l 1
 0 0 l 1
 0 7 l 1
EndSplineSet
EndChar

StartChar: glyph2662
Encoding: 5826 5826 249
Width: 7
VWidth: 0
Flags: HMW
LayerCount: 2
Back
Fore
SplineSet
2 12 m 1
 2 14 l 1
 3 14 l 1
 4 14 l 1
 4 12 l 1
 4 10 l 1
 5 10 l 1
 6 10 l 1
 6 8 l 1
 6 6 l 1
 5 6 l 1
 4 6 l 1
 4 3 l 1
 4 0 l 1
 3 0 l 1
 2 0 l 1
 2 3 l 1
 2 6 l 1
 1 6 l 1
 0 6 l 1
 0 8 l 1
 0 10 l 1
 1 10 l 1
 2 10 l 1
 2 12 l 1
EndSplineSet
EndChar

StartChar: glyph2663
Encoding: 5827 5827 250
Width: 13
VWidth: 0
Flags: HMW
LayerCount: 2
Back
Fore
SplineSet
6 9 m 1
 6 10 l 1
 7 10 l 1
 8 10 l 1
 8 9 l 1
 8 8 l 1
 9 8 l 1
 10 8 l 1
 10 7 l 1
 10 6 l 1
 11 6 l 1
 12 6 l 1
 12 5 l 1
 12 4 l 1
 11 4 l 1
 10 4 l 1
 10 3 l 1
 10 2 l 1
 9 2 l 1
 8 2 l 1
 8 1 l 1
 8 0 l 1
 7 0 l 1
 6 0 l 1
 6 1 l 1
 6 2 l 1
 7 2 l 1
 8 2 l 1
 8 3 l 1
 8 4 l 1
 9 4 l 1
 10 4 l 1
 10 5 l 1
 10 6 l 1
 9 6 l 1
 8 6 l 1
 8 7 l 1
 8 8 l 1
 7 8 l 1
 6 8 l 1
 6 9 l 1
4 13 m 1
 4 14 l 1
 5 14 l 1
 6 14 l 1
 6 13 l 1
 6 12 l 1
 5 12 l 1
 4 12 l 1
 4 11 l 1
 4 10 l 1
 3 10 l 1
 2 10 l 1
 2 9 l 1
 2 8 l 1
 3 8 l 1
 4 8 l 1
 4 7 l 1
 4 6 l 1
 5 6 l 1
 6 6 l 1
 6 5 l 1
 6 4 l 1
 5 4 l 1
 4 4 l 1
 4 5 l 1
 4 6 l 1
 3 6 l 1
 2 6 l 1
 2 7 l 1
 2 8 l 1
 1 8 l 1
 0 8 l 1
 0 9 l 1
 0 10 l 1
 1 10 l 1
 2 10 l 1
 2 11 l 1
 2 12 l 1
 3 12 l 1
 4 12 l 1
 4 13 l 1
EndSplineSet
EndChar

StartChar: glyph2664
Encoding: 5828 5828 251
Width: 11
VWidth: 0
Flags: HMW
LayerCount: 2
Back
Fore
SplineSet
4 12 m 1
 4 14 l 1
 5 14 l 1
 6 14 l 1
 6 12 l 1
 6 10 l 1
 7 10 l 1
 8 10 l 1
 8 9 l 1
 8 8 l 1
 9 8 l 1
 10 8 l 1
 10 7 l 1
 10 6 l 1
 9 6 l 1
 8 6 l 1
 8 5 l 1
 8 4 l 1
 7 4 l 1
 6 4 l 1
 6 2 l 1
 6 0 l 1
 5 0 l 1
 4 0 l 1
 4 2 l 1
 4 4 l 1
 3 4 l 1
 2 4 l 1
 2 5 l 1
 2 6 l 1
 1 6 l 1
 0 6 l 1
 0 7 l 1
 0 8 l 1
 1 8 l 1
 2 8 l 1
 2 9 l 1
 2 10 l 1
 3 10 l 1
 4 10 l 1
 4 12 l 1
4 7 m 1
 4 8 l 1
 3 8 l 1
 2 8 l 1
 2 7 l 1
 2 6 l 1
 3 6 l 1
 4 6 l 1
 4 7 l 1
8 7 m 1
 8 8 l 1
 7 8 l 1
 6 8 l 1
 6 7 l 1
 6 6 l 1
 7 6 l 1
 8 6 l 1
 8 7 l 1
EndSplineSet
EndChar

StartChar: glyph2665
Encoding: 5829 5829 252
Width: 11
VWidth: 0
Flags: HMW
LayerCount: 2
Back
Fore
SplineSet
4 11 m 1
 4 14 l 1
 5 14 l 1
 6 14 l 1
 6 12 l 1
 6 10 l 1
 7 10 l 1
 8 10 l 1
 8 11 l 1
 8 12 l 1
 9 12 l 1
 10 12 l 1
 10 11 l 1
 10 10 l 1
 9 10 l 1
 8 10 l 1
 8 9 l 1
 8 8 l 1
 7 8 l 1
 6 8 l 1
 6 4 l 1
 6 0 l 1
 5 0 l 1
 4 0 l 1
 4 3 l 1
 4 6 l 1
 3 6 l 1
 2 6 l 1
 2 5 l 1
 2 4 l 1
 1 4 l 1
 0 4 l 1
 0 5 l 1
 0 6 l 1
 1 6 l 1
 2 6 l 1
 2 7 l 1
 2 8 l 1
 3 8 l 1
 4 8 l 1
 4 11 l 1
EndSplineSet
EndChar

StartChar: glyph2666
Encoding: 5830 5830 253
Width: 7
VWidth: 0
Flags: HMW
LayerCount: 2
Back
Fore
SplineSet
4 11 m 1
 4 14 l 1
 5 14 l 1
 6 14 l 1
 6 7 l 1
 6 0 l 1
 5 0 l 1
 4 0 l 1
 4 3 l 1
 4 6 l 1
 3 6 l 1
 2 6 l 1
 2 5 l 1
 2 4 l 1
 1 4 l 1
 0 4 l 1
 0 5 l 1
 0 6 l 1
 1 6 l 1
 2 6 l 1
 2 7 l 1
 2 8 l 1
 3 8 l 1
 4 8 l 1
 4 11 l 1
EndSplineSet
EndChar

StartChar: glyph2667
Encoding: 5831 5831 254
Width: 11
VWidth: 0
Flags: HMW
LayerCount: 2
Back
Fore
SplineSet
4 8 m 1
 4 14 l 1
 6 14 l 1
 8 14 l 1
 8 13 l 1
 8 12 l 1
 9 12 l 1
 10 12 l 1
 10 11 l 1
 10 10 l 1
 9 10 l 1
 8 10 l 1
 8 11 l 1
 8 12 l 1
 7 12 l 1
 6 12 l 1
 6 6 l 1
 6 0 l 1
 4 0 l 1
 2 0 l 1
 2 1 l 1
 2 2 l 1
 1 2 l 1
 0 2 l 1
 0 3 l 1
 0 4 l 1
 1 4 l 1
 2 4 l 1
 2 3 l 1
 2 2 l 1
 3 2 l 1
 4 2 l 1
 4 8 l 1
EndSplineSet
EndChar

StartChar: glyph2668
Encoding: 5832 5832 255
Width: 9
VWidth: 0
Flags: HMW
LayerCount: 2
Back
Fore
SplineSet
0 7 m 1
 0 14 l 1
 2 14 l 1
 4 14 l 1
 4 13 l 1
 4 12 l 1
 5 12 l 1
 6 12 l 1
 6 13 l 1
 6 14 l 1
 7 14 l 1
 8 14 l 1
 8 13 l 1
 8 12 l 1
 7 12 l 1
 6 12 l 1
 6 11 l 1
 6 10 l 1
 5 10 l 1
 4 10 l 1
 4 11 l 1
 4 12 l 1
 3 12 l 1
 2 12 l 1
 2 7 l 1
 2 2 l 1
 3 2 l 1
 4 2 l 1
 4 3 l 1
 4 4 l 1
 5 4 l 1
 6 4 l 1
 6 3 l 1
 6 2 l 1
 7 2 l 1
 8 2 l 1
 8 1 l 1
 8 0 l 1
 7 0 l 1
 6 0 l 1
 6 1 l 1
 6 2 l 1
 5 2 l 1
 4 2 l 1
 4 1 l 1
 4 0 l 1
 2 0 l 1
 0 0 l 1
 0 7 l 1
EndSplineSet
EndChar

StartChar: glyph2669
Encoding: 5833 5833 256
Width: 11
VWidth: 0
Flags: HMW
LayerCount: 2
Back
Fore
SplineSet
0 13 m 1
 0 14 l 1
 1 14 l 1
 2 14 l 1
 2 13 l 1
 2 12 l 1
 3 12 l 1
 4 12 l 1
 4 13 l 1
 4 14 l 1
 5 14 l 1
 6 14 l 1
 6 13 l 1
 6 12 l 1
 7 12 l 1
 8 12 l 1
 8 13 l 1
 8 14 l 1
 9 14 l 1
 10 14 l 1
 10 13 l 1
 10 12 l 1
 9 12 l 1
 8 12 l 1
 8 10 l 1
 8 8 l 1
 7 8 l 1
 6 8 l 1
 6 4 l 1
 6 0 l 1
 5 0 l 1
 4 0 l 1
 4 4 l 1
 4 8 l 1
 3 8 l 1
 2 8 l 1
 2 10 l 1
 2 12 l 1
 1 12 l 1
 0 12 l 1
 0 13 l 1
EndSplineSet
EndChar

StartChar: glyph2670
Encoding: 5834 5834 257
Width: 7
VWidth: 0
Flags: HMW
LayerCount: 2
Back
Fore
SplineSet
4 13 m 1
 4 14 l 1
 5 14 l 1
 6 14 l 1
 6 13 l 1
 6 12 l 1
 5 12 l 1
 4 12 l 1
 4 11 l 1
 4 10 l 1
 3 10 l 1
 2 10 l 1
 2 9 l 1
 2 8 l 1
 4 8 l 1
 6 8 l 1
 6 7 l 1
 6 6 l 1
 4 6 l 1
 2 6 l 1
 2 5 l 1
 2 4 l 1
 3 4 l 1
 4 4 l 1
 4 3 l 1
 4 2 l 1
 5 2 l 1
 6 2 l 1
 6 1 l 1
 6 0 l 1
 5 0 l 1
 4 0 l 1
 4 1 l 1
 4 2 l 1
 3 2 l 1
 2 2 l 1
 2 3 l 1
 2 4 l 1
 1 4 l 1
 0 4 l 1
 0 5 l 1
 0 6 l 1
 1 6 l 1
 2 6 l 1
 2 7 l 1
 2 8 l 1
 1 8 l 1
 0 8 l 1
 0 9 l 1
 0 10 l 1
 1 10 l 1
 2 10 l 1
 2 11 l 1
 2 12 l 1
 3 12 l 1
 4 12 l 1
 4 13 l 1
EndSplineSet
EndChar

StartChar: glyph2671
Encoding: 5835 5835 258
Width: 11
VWidth: 0
Flags: HMW
LayerCount: 2
Back
Fore
SplineSet
0 9 m 1
 0 14 l 1
 1 14 l 1
 2 14 l 1
 2 10 l 1
 2 6 l 1
 3 6 l 1
 4 6 l 1
 4 7 l 1
 4 8 l 1
 5 8 l 1
 6 8 l 1
 6 9 l 1
 6 10 l 1
 8 10 l 1
 10 10 l 1
 10 5 l 1
 10 0 l 1
 9 0 l 1
 8 0 l 1
 8 4 l 1
 8 8 l 1
 7 8 l 1
 6 8 l 1
 6 7 l 1
 6 6 l 1
 5 6 l 1
 4 6 l 1
 4 5 l 1
 4 4 l 1
 2 4 l 1
 0 4 l 1
 0 9 l 1
EndSplineSet
EndChar

StartChar: glyph2672
Encoding: 5836 5836 259
Width: 3
VWidth: 0
Flags: HMW
LayerCount: 2
Back
Fore
SplineSet
0 11 m 1
 0 14 l 1
 1 14 l 1
 2 14 l 1
 2 11 l 1
 2 8 l 1
 1 8 l 1
 0 8 l 1
 0 11 l 1
EndSplineSet
EndChar

StartChar: glyph2673
Encoding: 5837 5837 260
Width: 7
VWidth: 0
Flags: HMW
LayerCount: 2
Back
Fore
SplineSet
2 12 m 1
 2 14 l 1
 3 14 l 1
 4 14 l 1
 4 12 l 1
 4 10 l 1
 5 10 l 1
 6 10 l 1
 6 8 l 1
 6 6 l 1
 3 6 l 1
 0 6 l 1
 0 8 l 1
 0 10 l 1
 1 10 l 1
 2 10 l 1
 2 12 l 1
EndSplineSet
EndChar

StartChar: glyph2674
Encoding: 5838 5838 261
Width: 11
VWidth: 0
Flags: HMW
LayerCount: 2
Back
Fore
SplineSet
4 11 m 1
 4 14 l 1
 5 14 l 1
 6 14 l 1
 6 11 l 1
 6 8 l 1
 7 8 l 1
 8 8 l 1
 8 9 l 1
 8 10 l 1
 9 10 l 1
 10 10 l 1
 10 9 l 1
 10 8 l 1
 9 8 l 1
 8 8 l 1
 8 7 l 1
 8 6 l 1
 7 6 l 1
 6 6 l 1
 6 5 l 1
 6 4 l 1
 5 4 l 1
 4 4 l 1
 4 5 l 1
 4 6 l 1
 3 6 l 1
 2 6 l 1
 2 7 l 1
 2 8 l 1
 1 8 l 1
 0 8 l 1
 0 9 l 1
 0 10 l 1
 1 10 l 1
 2 10 l 1
 2 9 l 1
 2 8 l 1
 3 8 l 1
 4 8 l 1
 4 11 l 1
EndSplineSet
EndChar

StartChar: glyph2675
Encoding: 5839 5839 262
Width: 11
VWidth: 0
Flags: HMW
LayerCount: 2
Back
Fore
SplineSet
4 13 m 1
 4 14 l 1
 5 14 l 1
 6 14 l 1
 6 13 l 1
 6 12 l 1
 7 12 l 1
 8 12 l 1
 8 11 l 1
 8 10 l 1
 9 10 l 1
 10 10 l 1
 10 9 l 1
 10 8 l 1
 9 8 l 1
 8 8 l 1
 8 9 l 1
 8 10 l 1
 7 10 l 1
 6 10 l 1
 6 5 l 1
 6 0 l 1
 5 0 l 1
 4 0 l 1
 4 5 l 1
 4 10 l 1
 3 10 l 1
 2 10 l 1
 2 9 l 1
 2 8 l 1
 1 8 l 1
 0 8 l 1
 0 9 l 1
 0 10 l 1
 1 10 l 1
 2 10 l 1
 2 11 l 1
 2 12 l 1
 3 12 l 1
 4 12 l 1
 4 13 l 1
EndSplineSet
EndChar

StartChar: glyph2676
Encoding: 365 365 263
Width: 11
VWidth: 0
Flags: HMW
LayerCount: 2
Back
Fore
SplineSet
0 6 m 1
 0 10 l 1
 1 10 l 1
 2 10 l 1
 2 6 l 1
 2 2 l 1
 5 2 l 1
 8 2 l 1
 8 6 l 1
 8 10 l 1
 9 10 l 1
 10 10 l 1
 10 5 l 1
 10 0 l 1
 6 0 l 1
 2 0 l 1
 2 1 l 1
 2 2 l 1
 1 2 l 1
 0 2 l 1
 0 6 l 1
2 15 m 1
 2 16 l 1
 3 16 l 1
 4 16 l 1
 4 15 l 1
 4 14 l 1
 6 14 l 1
 8 14 l 1
 8 15 l 1
 8 16 l 1
 9 16 l 1
 10 16 l 1
 10 15 l 1
 10 14 l 1
 9 14 l 1
 8 14 l 1
 8 13 l 1
 8 12 l 1
 6 12 l 1
 4 12 l 1
 4 13 l 1
 4 14 l 1
 3 14 l 1
 2 14 l 1
 2 15 l 1
EndSplineSet
EndChar

StartChar: glyph2677
Encoding: 5840 5840 264
Width: 7
VWidth: 0
Flags: HMW
LayerCount: 2
Back
Fore
SplineSet
4 13 m 1
 4 14 l 1
 5 14 l 1
 6 14 l 1
 6 7 l 1
 6 0 l 1
 5 0 l 1
 4 0 l 1
 4 5 l 1
 4 10 l 1
 3 10 l 1
 2 10 l 1
 2 9 l 1
 2 8 l 1
 1 8 l 1
 0 8 l 1
 0 9 l 1
 0 10 l 1
 1 10 l 1
 2 10 l 1
 2 11 l 1
 2 12 l 1
 3 12 l 1
 4 12 l 1
 4 13 l 1
EndSplineSet
EndChar

StartChar: glyph2678
Encoding: 5841 5841 265
Width: 9
VWidth: 0
Flags: HMW
LayerCount: 2
Back
Fore
SplineSet
4 13 m 1
 4 14 l 1
 5 14 l 1
 6 14 l 1
 6 11 l 1
 6 8 l 1
 7 8 l 1
 8 8 l 1
 8 6 l 1
 8 4 l 1
 7 4 l 1
 6 4 l 1
 6 2 l 1
 6 0 l 1
 5 0 l 1
 4 0 l 1
 4 2 l 1
 4 4 l 1
 3 4 l 1
 2 4 l 1
 2 6 l 1
 2 8 l 1
 1 8 l 1
 0 8 l 1
 0 9 l 1
 0 10 l 1
 1 10 l 1
 2 10 l 1
 2 11 l 1
 2 12 l 1
 3 12 l 1
 4 12 l 1
 4 13 l 1
4 9 m 1
 4 10 l 1
 3 10 l 1
 2 10 l 1
 2 9 l 1
 2 8 l 1
 3 8 l 1
 4 8 l 1
 4 9 l 1
EndSplineSet
EndChar

StartChar: glyph2679
Encoding: 5842 5842 266
Width: 9
VWidth: 0
Flags: HMW
LayerCount: 2
Back
Fore
SplineSet
0 7 m 1
 0 14 l 1
 3 14 l 1
 6 14 l 1
 6 13 l 1
 6 12 l 1
 7 12 l 1
 8 12 l 1
 8 11 l 1
 8 10 l 1
 7 10 l 1
 6 10 l 1
 6 9 l 1
 6 8 l 1
 5 8 l 1
 4 8 l 1
 4 7 l 1
 4 6 l 1
 5 6 l 1
 6 6 l 1
 6 5 l 1
 6 4 l 1
 7 4 l 1
 8 4 l 1
 8 3 l 1
 8 2 l 1
 7 2 l 1
 6 2 l 1
 6 1 l 1
 6 0 l 1
 3 0 l 1
 0 0 l 1
 0 7 l 1
6 11 m 1
 6 12 l 1
 4 12 l 1
 2 12 l 1
 2 10 l 1
 2 8 l 1
 3 8 l 1
 4 8 l 1
 4 9 l 1
 4 10 l 1
 5 10 l 1
 6 10 l 1
 6 11 l 1
4 5 m 1
 4 6 l 1
 3 6 l 1
 2 6 l 1
 2 4 l 1
 2 2 l 1
 4 2 l 1
 6 2 l 1
 6 3 l 1
 6 4 l 1
 5 4 l 1
 4 4 l 1
 4 5 l 1
EndSplineSet
EndChar

StartChar: glyph2680
Encoding: 5843 5843 267
Width: 7
VWidth: 0
Flags: HMW
LayerCount: 2
Back
Fore
SplineSet
0 7 m 1
 0 14 l 1
 1 14 l 1
 2 14 l 1
 2 12 l 1
 2 10 l 1
 3 10 l 1
 4 10 l 1
 4 11 l 1
 4 12 l 1
 5 12 l 1
 6 12 l 1
 6 11 l 1
 6 10 l 1
 5 10 l 1
 4 10 l 1
 4 9 l 1
 4 8 l 1
 5 8 l 1
 6 8 l 1
 6 7 l 1
 6 6 l 1
 5 6 l 1
 4 6 l 1
 4 5 l 1
 4 4 l 1
 3 4 l 1
 2 4 l 1
 2 2 l 1
 2 0 l 1
 1 0 l 1
 0 0 l 1
 0 7 l 1
4 7 m 1
 4 8 l 1
 3 8 l 1
 2 8 l 1
 2 7 l 1
 2 6 l 1
 3 6 l 1
 4 6 l 1
 4 7 l 1
EndSplineSet
EndChar

StartChar: glyph2681
Encoding: 5844 5844 268
Width: 9
VWidth: 0
Flags: HMW
LayerCount: 2
Back
Fore
SplineSet
0 7 m 1
 0 14 l 1
 3 14 l 1
 6 14 l 1
 6 13 l 1
 6 12 l 1
 7 12 l 1
 8 12 l 1
 8 10 l 1
 8 8 l 1
 7 8 l 1
 6 8 l 1
 6 7 l 1
 6 6 l 1
 7 6 l 1
 8 6 l 1
 8 4 l 1
 8 2 l 1
 7 2 l 1
 6 2 l 1
 6 1 l 1
 6 0 l 1
 3 0 l 1
 0 0 l 1
 0 7 l 1
6 10 m 1
 6 12 l 1
 4 12 l 1
 2 12 l 1
 2 11 l 1
 2 10 l 1
 3 10 l 1
 4 10 l 1
 4 9 l 1
 4 8 l 1
 5 8 l 1
 6 8 l 1
 6 10 l 1
6 4 m 1
 6 6 l 1
 4 6 l 1
 2 6 l 1
 2 5 l 1
 2 4 l 1
 3 4 l 1
 4 4 l 1
 4 3 l 1
 4 2 l 1
 5 2 l 1
 6 2 l 1
 6 4 l 1
EndSplineSet
EndChar

StartChar: glyph2682
Encoding: 5845 5845 269
Width: 9
VWidth: 0
Flags: HMW
LayerCount: 2
Back
Fore
SplineSet
0 7 m 1
 0 14 l 1
 1 14 l 1
 2 14 l 1
 2 12 l 1
 2 10 l 1
 3 10 l 1
 4 10 l 1
 4 11 l 1
 4 12 l 1
 5 12 l 1
 6 12 l 1
 6 13 l 1
 6 14 l 1
 7 14 l 1
 8 14 l 1
 8 13 l 1
 8 12 l 1
 7 12 l 1
 6 12 l 1
 6 11 l 1
 6 10 l 1
 5 10 l 1
 4 10 l 1
 4 9 l 1
 4 8 l 1
 3 8 l 1
 2 8 l 1
 2 7 l 1
 2 6 l 1
 3 6 l 1
 4 6 l 1
 4 5 l 1
 4 4 l 1
 5 4 l 1
 6 4 l 1
 6 3 l 1
 6 2 l 1
 7 2 l 1
 8 2 l 1
 8 1 l 1
 8 0 l 1
 7 0 l 1
 6 0 l 1
 6 1 l 1
 6 2 l 1
 5 2 l 1
 4 2 l 1
 4 3 l 1
 4 4 l 1
 3 4 l 1
 2 4 l 1
 2 2 l 1
 2 0 l 1
 1 0 l 1
 0 0 l 1
 0 7 l 1
EndSplineSet
EndChar

StartChar: glyph2683
Encoding: 5846 5846 270
Width: 11
VWidth: 0
Flags: HMW
LayerCount: 2
Back
Fore
SplineSet
0 7 m 1
 0 14 l 1
 1 14 l 1
 2 14 l 1
 2 13 l 1
 2 12 l 1
 3 12 l 1
 4 12 l 1
 4 11 l 1
 4 10 l 1
 5 10 l 1
 6 10 l 1
 6 11 l 1
 6 12 l 1
 7 12 l 1
 8 12 l 1
 8 13 l 1
 8 14 l 1
 9 14 l 1
 10 14 l 1
 10 7 l 1
 10 0 l 1
 9 0 l 1
 8 0 l 1
 8 5 l 1
 8 10 l 1
 7 10 l 1
 6 10 l 1
 6 9 l 1
 6 8 l 1
 5 8 l 1
 4 8 l 1
 4 9 l 1
 4 10 l 1
 3 10 l 1
 2 10 l 1
 2 5 l 1
 2 0 l 1
 1 0 l 1
 0 0 l 1
 0 7 l 1
EndSplineSet
EndChar

StartChar: glyph2684
Encoding: 5847 5847 271
Width: 11
VWidth: 0
Flags: HMW
LayerCount: 2
Back
Fore
SplineSet
0 7 m 1
 0 14 l 1
 1 14 l 1
 2 14 l 1
 2 13 l 1
 2 12 l 1
 3 12 l 1
 4 12 l 1
 4 11 l 1
 4 10 l 1
 5 10 l 1
 6 10 l 1
 6 11 l 1
 6 12 l 1
 7 12 l 1
 8 12 l 1
 8 13 l 1
 8 14 l 1
 9 14 l 1
 10 14 l 1
 10 7 l 1
 10 0 l 1
 9 0 l 1
 8 0 l 1
 8 3 l 1
 8 6 l 1
 7 6 l 1
 6 6 l 1
 6 7 l 1
 6 8 l 1
 5 8 l 1
 4 8 l 1
 4 7 l 1
 4 6 l 1
 3 6 l 1
 2 6 l 1
 2 3 l 1
 2 0 l 1
 1 0 l 1
 0 0 l 1
 0 7 l 1
4 9 m 1
 4 10 l 1
 3 10 l 1
 2 10 l 1
 2 9 l 1
 2 8 l 1
 3 8 l 1
 4 8 l 1
 4 9 l 1
8 9 m 1
 8 10 l 1
 7 10 l 1
 6 10 l 1
 6 9 l 1
 6 8 l 1
 7 8 l 1
 8 8 l 1
 8 9 l 1
EndSplineSet
EndChar

StartChar: glyph2685
Encoding: 5848 5848 272
Width: 11
VWidth: 0
Flags: HMW
LayerCount: 2
Back
Fore
SplineSet
0 12 m 1
 0 14 l 1
 1 14 l 1
 2 14 l 1
 2 12 l 1
 2 10 l 1
 3 10 l 1
 4 10 l 1
 4 12 l 1
 4 14 l 1
 5 14 l 1
 6 14 l 1
 6 12 l 1
 6 10 l 1
 7 10 l 1
 8 10 l 1
 8 12 l 1
 8 14 l 1
 9 14 l 1
 10 14 l 1
 10 12 l 1
 10 10 l 1
 9 10 l 1
 8 10 l 1
 8 9 l 1
 8 8 l 1
 7 8 l 1
 6 8 l 1
 6 4 l 1
 6 0 l 1
 5 0 l 1
 4 0 l 1
 4 4 l 1
 4 8 l 1
 3 8 l 1
 2 8 l 1
 2 9 l 1
 2 10 l 1
 1 10 l 1
 0 10 l 1
 0 12 l 1
EndSplineSet
EndChar

StartChar: glyph2686
Encoding: 5849 5849 273
Width: 7
VWidth: 0
Flags: HMW
LayerCount: 2
Back
Fore
SplineSet
0 12 m 1
 0 14 l 1
 3 14 l 1
 6 14 l 1
 6 12 l 1
 6 10 l 1
 5 10 l 1
 4 10 l 1
 4 5 l 1
 4 0 l 1
 3 0 l 1
 2 0 l 1
 2 5 l 1
 2 10 l 1
 1 10 l 1
 0 10 l 1
 0 12 l 1
EndSplineSet
EndChar

StartChar: glyph2687
Encoding: 5850 5850 274
Width: 7
VWidth: 0
Flags: HMW
LayerCount: 2
Back
Fore
SplineSet
0 7 m 1
 0 14 l 1
 1 14 l 1
 2 14 l 1
 2 13 l 1
 2 12 l 1
 3 12 l 1
 4 12 l 1
 4 11 l 1
 4 10 l 1
 5 10 l 1
 6 10 l 1
 6 9 l 1
 6 8 l 1
 5 8 l 1
 4 8 l 1
 4 9 l 1
 4 10 l 1
 3 10 l 1
 2 10 l 1
 2 5 l 1
 2 0 l 1
 1 0 l 1
 0 0 l 1
 0 7 l 1
EndSplineSet
EndChar

StartChar: glyph2688
Encoding: 5851 5851 275
Width: 9
VWidth: 0
Flags: HMW
LayerCount: 2
Back
Fore
SplineSet
2 11 m 1
 2 14 l 1
 3 14 l 1
 4 14 l 1
 4 13 l 1
 4 12 l 1
 5 12 l 1
 6 12 l 1
 6 11 l 1
 6 10 l 1
 7 10 l 1
 8 10 l 1
 8 9 l 1
 8 8 l 1
 7 8 l 1
 6 8 l 1
 6 6 l 1
 6 4 l 1
 5 4 l 1
 4 4 l 1
 4 2 l 1
 4 0 l 1
 3 0 l 1
 2 0 l 1
 2 2 l 1
 2 4 l 1
 1 4 l 1
 0 4 l 1
 0 6 l 1
 0 8 l 1
 1 8 l 1
 2 8 l 1
 2 11 l 1
6 9 m 1
 6 10 l 1
 5 10 l 1
 4 10 l 1
 4 9 l 1
 4 8 l 1
 5 8 l 1
 6 8 l 1
 6 9 l 1
EndSplineSet
EndChar

StartChar: glyph2689
Encoding: 5852 5852 276
Width: 11
VWidth: 0
Flags: HMW
LayerCount: 2
Back
Fore
SplineSet
4 11 m 1
 4 12 l 1
 5 12 l 1
 6 12 l 1
 6 11 l 1
 6 10 l 1
 7 10 l 1
 8 10 l 1
 8 9 l 1
 8 8 l 1
 9 8 l 1
 10 8 l 1
 10 7 l 1
 10 6 l 1
 9 6 l 1
 8 6 l 1
 8 5 l 1
 8 4 l 1
 7 4 l 1
 6 4 l 1
 6 3 l 1
 6 2 l 1
 5 2 l 1
 4 2 l 1
 4 3 l 1
 4 4 l 1
 3 4 l 1
 2 4 l 1
 2 5 l 1
 2 6 l 1
 1 6 l 1
 0 6 l 1
 0 7 l 1
 0 8 l 1
 1 8 l 1
 2 8 l 1
 2 9 l 1
 2 10 l 1
 3 10 l 1
 4 10 l 1
 4 11 l 1
6 9 m 1
 6 10 l 1
 5 10 l 1
 4 10 l 1
 4 9 l 1
 4 8 l 1
 3 8 l 1
 2 8 l 1
 2 7 l 1
 2 6 l 1
 3 6 l 1
 4 6 l 1
 4 5 l 1
 4 4 l 1
 5 4 l 1
 6 4 l 1
 6 5 l 1
 6 6 l 1
 7 6 l 1
 8 6 l 1
 8 7 l 1
 8 8 l 1
 7 8 l 1
 6 8 l 1
 6 9 l 1
EndSplineSet
EndChar

StartChar: glyph2690
Encoding: 5853 5853 277
Width: 11
VWidth: 0
Flags: HMW
LayerCount: 2
Back
Fore
SplineSet
2 13 m 1
 2 14 l 1
 3 14 l 1
 4 14 l 1
 4 13 l 1
 4 12 l 1
 5 12 l 1
 6 12 l 1
 6 13 l 1
 6 14 l 1
 7 14 l 1
 8 14 l 1
 8 13 l 1
 8 12 l 1
 7 12 l 1
 6 12 l 1
 6 11 l 1
 6 10 l 1
 7 10 l 1
 8 10 l 1
 8 9 l 1
 8 8 l 1
 9 8 l 1
 10 8 l 1
 10 7 l 1
 10 6 l 1
 9 6 l 1
 8 6 l 1
 8 5 l 1
 8 4 l 1
 7 4 l 1
 6 4 l 1
 6 3 l 1
 6 2 l 1
 7 2 l 1
 8 2 l 1
 8 1 l 1
 8 0 l 1
 7 0 l 1
 6 0 l 1
 6 1 l 1
 6 2 l 1
 5 2 l 1
 4 2 l 1
 4 1 l 1
 4 0 l 1
 3 0 l 1
 2 0 l 1
 2 1 l 1
 2 2 l 1
 3 2 l 1
 4 2 l 1
 4 3 l 1
 4 4 l 1
 3 4 l 1
 2 4 l 1
 2 5 l 1
 2 6 l 1
 1 6 l 1
 0 6 l 1
 0 7 l 1
 0 8 l 1
 1 8 l 1
 2 8 l 1
 2 9 l 1
 2 10 l 1
 3 10 l 1
 4 10 l 1
 4 11 l 1
 4 12 l 1
 3 12 l 1
 2 12 l 1
 2 13 l 1
6 9 m 1
 6 10 l 1
 5 10 l 1
 4 10 l 1
 4 9 l 1
 4 8 l 1
 3 8 l 1
 2 8 l 1
 2 7 l 1
 2 6 l 1
 3 6 l 1
 4 6 l 1
 4 5 l 1
 4 4 l 1
 5 4 l 1
 6 4 l 1
 6 5 l 1
 6 6 l 1
 7 6 l 1
 8 6 l 1
 8 7 l 1
 8 8 l 1
 7 8 l 1
 6 8 l 1
 6 9 l 1
EndSplineSet
EndChar

StartChar: glyph2691
Encoding: 5854 5854 278
Width: 11
VWidth: 0
Flags: HMW
LayerCount: 2
Back
Fore
SplineSet
0 7 m 1
 0 14 l 1
 1 14 l 1
 2 14 l 1
 2 13 l 1
 2 12 l 1
 3 12 l 1
 4 12 l 1
 4 10 l 1
 4 8 l 1
 5 8 l 1
 6 8 l 1
 6 10 l 1
 6 12 l 1
 7 12 l 1
 8 12 l 1
 8 13 l 1
 8 14 l 1
 9 14 l 1
 10 14 l 1
 10 7 l 1
 10 0 l 1
 9 0 l 1
 8 0 l 1
 8 1 l 1
 8 2 l 1
 7 2 l 1
 6 2 l 1
 6 4 l 1
 6 6 l 1
 5 6 l 1
 4 6 l 1
 4 4 l 1
 4 2 l 1
 3 2 l 1
 2 2 l 1
 2 1 l 1
 2 0 l 1
 1 0 l 1
 0 0 l 1
 0 7 l 1
4 7 m 1
 4 8 l 1
 3 8 l 1
 2 8 l 1
 2 7 l 1
 2 6 l 1
 3 6 l 1
 4 6 l 1
 4 7 l 1
8 7 m 1
 8 8 l 1
 7 8 l 1
 6 8 l 1
 6 7 l 1
 6 6 l 1
 7 6 l 1
 8 6 l 1
 8 7 l 1
EndSplineSet
EndChar

StartChar: glyph2692
Encoding: 5855 5855 279
Width: 13
VWidth: 0
Flags: HMW
LayerCount: 2
Back
Fore
SplineSet
6 13 m 1
 6 14 l 1
 7 14 l 1
 8 14 l 1
 8 13 l 1
 8 12 l 1
 9 12 l 1
 10 12 l 1
 10 11 l 1
 10 10 l 1
 11 10 l 1
 12 10 l 1
 12 9 l 1
 12 8 l 1
 11 8 l 1
 10 8 l 1
 10 7 l 1
 10 6 l 1
 9 6 l 1
 8 6 l 1
 8 5 l 1
 8 4 l 1
 9 4 l 1
 10 4 l 1
 10 3 l 1
 10 2 l 1
 11 2 l 1
 12 2 l 1
 12 1 l 1
 12 0 l 1
 11 0 l 1
 10 0 l 1
 10 1 l 1
 10 2 l 1
 9 2 l 1
 8 2 l 1
 8 3 l 1
 8 4 l 1
 7 4 l 1
 6 4 l 1
 6 3 l 1
 6 2 l 1
 5 2 l 1
 4 2 l 1
 4 1 l 1
 4 0 l 1
 3 0 l 1
 2 0 l 1
 2 1 l 1
 2 2 l 1
 3 2 l 1
 4 2 l 1
 4 3 l 1
 4 4 l 1
 5 4 l 1
 6 4 l 1
 6 5 l 1
 6 6 l 1
 5 6 l 1
 4 6 l 1
 4 7 l 1
 4 8 l 1
 3 8 l 1
 2 8 l 1
 2 9 l 1
 2 10 l 1
 3 10 l 1
 4 10 l 1
 4 11 l 1
 4 12 l 1
 5 12 l 1
 6 12 l 1
 6 13 l 1
8 11 m 1
 8 12 l 1
 7 12 l 1
 6 12 l 1
 6 11 l 1
 6 10 l 1
 5 10 l 1
 4 10 l 1
 4 9 l 1
 4 8 l 1
 5 8 l 1
 6 8 l 1
 6 7 l 1
 6 6 l 1
 7 6 l 1
 8 6 l 1
 8 7 l 1
 8 8 l 1
 9 8 l 1
 10 8 l 1
 10 9 l 1
 10 10 l 1
 9 10 l 1
 8 10 l 1
 8 11 l 1
EndSplineSet
EndChar

StartChar: glyph2693
Encoding: 366 366 280
Width: 11
VWidth: 0
Flags: HMW
LayerCount: 2
Back
Fore
SplineSet
0 8 m 1
 0 14 l 1
 1 14 l 1
 2 14 l 1
 2 8 l 1
 2 2 l 1
 5 2 l 1
 8 2 l 1
 8 8 l 1
 8 14 l 1
 9 14 l 1
 10 14 l 1
 10 8 l 1
 10 2 l 1
 9 2 l 1
 8 2 l 1
 8 1 l 1
 8 0 l 1
 5 0 l 1
 2 0 l 1
 2 1 l 1
 2 2 l 1
 1 2 l 1
 0 2 l 1
 0 8 l 1
4 19 m 1
 4 20 l 1
 5 20 l 1
 6 20 l 1
 6 19 l 1
 6 18 l 1
 7 18 l 1
 8 18 l 1
 8 17 l 1
 8 16 l 1
 7 16 l 1
 6 16 l 1
 6 15 l 1
 6 14 l 1
 5 14 l 1
 4 14 l 1
 4 15 l 1
 4 16 l 1
 3 16 l 1
 2 16 l 1
 2 17 l 1
 2 18 l 1
 3 18 l 1
 4 18 l 1
 4 19 l 1
6 17 m 1
 6 18 l 1
 5 18 l 1
 4 18 l 1
 4 17 l 1
 4 16 l 1
 5 16 l 1
 6 16 l 1
 6 17 l 1
EndSplineSet
EndChar

StartChar: glyph2694
Encoding: 5856 5856 281
Width: 15
VWidth: 0
Flags: HMW
LayerCount: 2
Back
Fore
SplineSet
0 13 m 1
 0 14 l 1
 1 14 l 1
 2 14 l 1
 2 13 l 1
 2 12 l 1
 3 12 l 1
 4 12 l 1
 4 13 l 1
 4 14 l 1
 7 14 l 1
 10 14 l 1
 10 13 l 1
 10 12 l 1
 11 12 l 1
 12 12 l 1
 12 13 l 1
 12 14 l 1
 13 14 l 1
 14 14 l 1
 14 13 l 1
 14 12 l 1
 13 12 l 1
 12 12 l 1
 12 11 l 1
 12 10 l 1
 11 10 l 1
 10 10 l 1
 10 11 l 1
 10 12 l 1
 9 12 l 1
 8 12 l 1
 8 6 l 1
 8 0 l 1
 7 0 l 1
 6 0 l 1
 6 6 l 1
 6 12 l 1
 5 12 l 1
 4 12 l 1
 4 11 l 1
 4 10 l 1
 3 10 l 1
 2 10 l 1
 2 11 l 1
 2 12 l 1
 1 12 l 1
 0 12 l 1
 0 13 l 1
EndSplineSet
EndChar

StartChar: glyph2695
Encoding: 5857 5857 282
Width: 11
VWidth: 0
Flags: HMW
LayerCount: 2
Back
Fore
SplineSet
4 12 m 1
 4 14 l 1
 5 14 l 1
 6 14 l 1
 6 12 l 1
 6 10 l 1
 7 10 l 1
 8 10 l 1
 8 11 l 1
 8 12 l 1
 9 12 l 1
 10 12 l 1
 10 11 l 1
 10 10 l 1
 9 10 l 1
 8 10 l 1
 8 9 l 1
 8 8 l 1
 7 8 l 1
 6 8 l 1
 6 7 l 1
 6 6 l 1
 7 6 l 1
 8 6 l 1
 8 5 l 1
 8 4 l 1
 9 4 l 1
 10 4 l 1
 10 3 l 1
 10 2 l 1
 9 2 l 1
 8 2 l 1
 8 3 l 1
 8 4 l 1
 7 4 l 1
 6 4 l 1
 6 2 l 1
 6 0 l 1
 5 0 l 1
 4 0 l 1
 4 2 l 1
 4 4 l 1
 3 4 l 1
 2 4 l 1
 2 3 l 1
 2 2 l 1
 1 2 l 1
 0 2 l 1
 0 3 l 1
 0 4 l 1
 1 4 l 1
 2 4 l 1
 2 5 l 1
 2 6 l 1
 3 6 l 1
 4 6 l 1
 4 7 l 1
 4 8 l 1
 3 8 l 1
 2 8 l 1
 2 9 l 1
 2 10 l 1
 1 10 l 1
 0 10 l 1
 0 11 l 1
 0 12 l 1
 1 12 l 1
 2 12 l 1
 2 11 l 1
 2 10 l 1
 3 10 l 1
 4 10 l 1
 4 12 l 1
EndSplineSet
EndChar

StartChar: glyph2696
Encoding: 5858 5858 283
Width: 15
VWidth: 0
Flags: HMW
LayerCount: 2
Back
Fore
SplineSet
6 8 m 1
 6 14 l 1
 8 14 l 1
 10 14 l 1
 10 13 l 1
 10 12 l 1
 11 12 l 1
 12 12 l 1
 12 13 l 1
 12 14 l 1
 13 14 l 1
 14 14 l 1
 14 13 l 1
 14 12 l 1
 13 12 l 1
 12 12 l 1
 12 11 l 1
 12 10 l 1
 11 10 l 1
 10 10 l 1
 10 11 l 1
 10 12 l 1
 9 12 l 1
 8 12 l 1
 8 6 l 1
 8 0 l 1
 6 0 l 1
 4 0 l 1
 4 1 l 1
 4 2 l 1
 3 2 l 1
 2 2 l 1
 2 1 l 1
 2 0 l 1
 1 0 l 1
 0 0 l 1
 0 1 l 1
 0 2 l 1
 1 2 l 1
 2 2 l 1
 2 3 l 1
 2 4 l 1
 3 4 l 1
 4 4 l 1
 4 3 l 1
 4 2 l 1
 5 2 l 1
 6 2 l 1
 6 8 l 1
EndSplineSet
EndChar

StartChar: glyph2697
Encoding: 5859 5859 284
Width: 11
VWidth: 0
Flags: HMW
LayerCount: 2
Back
Fore
SplineSet
4 10 m 1
 4 14 l 1
 5 14 l 1
 6 14 l 1
 6 10 l 1
 6 6 l 1
 7 6 l 1
 8 6 l 1
 8 4 l 1
 8 2 l 1
 9 2 l 1
 10 2 l 1
 10 1 l 1
 10 0 l 1
 9 0 l 1
 8 0 l 1
 8 1 l 1
 8 2 l 1
 7 2 l 1
 6 2 l 1
 6 1 l 1
 6 0 l 1
 5 0 l 1
 4 0 l 1
 4 1 l 1
 4 2 l 1
 3 2 l 1
 2 2 l 1
 2 1 l 1
 2 0 l 1
 1 0 l 1
 0 0 l 1
 0 1 l 1
 0 2 l 1
 1 2 l 1
 2 2 l 1
 2 4 l 1
 2 6 l 1
 3 6 l 1
 4 6 l 1
 4 10 l 1
EndSplineSet
EndChar

StartChar: glyph2698
Encoding: 5860 5860 285
Width: 11
VWidth: 0
Flags: HMW
LayerCount: 2
Back
Fore
SplineSet
0 13 m 1
 0 14 l 1
 1 14 l 1
 2 14 l 1
 2 13 l 1
 2 12 l 1
 3 12 l 1
 4 12 l 1
 4 13 l 1
 4 14 l 1
 5 14 l 1
 6 14 l 1
 6 13 l 1
 6 12 l 1
 7 12 l 1
 8 12 l 1
 8 13 l 1
 8 14 l 1
 9 14 l 1
 10 14 l 1
 10 13 l 1
 10 12 l 1
 9 12 l 1
 8 12 l 1
 8 10 l 1
 8 8 l 1
 9 8 l 1
 10 8 l 1
 10 7 l 1
 10 6 l 1
 9 6 l 1
 8 6 l 1
 8 4 l 1
 8 2 l 1
 9 2 l 1
 10 2 l 1
 10 1 l 1
 10 0 l 1
 9 0 l 1
 8 0 l 1
 8 1 l 1
 8 2 l 1
 7 2 l 1
 6 2 l 1
 6 1 l 1
 6 0 l 1
 5 0 l 1
 4 0 l 1
 4 1 l 1
 4 2 l 1
 3 2 l 1
 2 2 l 1
 2 1 l 1
 2 0 l 1
 1 0 l 1
 0 0 l 1
 0 1 l 1
 0 2 l 1
 1 2 l 1
 2 2 l 1
 2 4 l 1
 2 6 l 1
 1 6 l 1
 0 6 l 1
 0 7 l 1
 0 8 l 1
 1 8 l 1
 2 8 l 1
 2 10 l 1
 2 12 l 1
 1 12 l 1
 0 12 l 1
 0 13 l 1
4 7 m 1
 4 8 l 1
 3 8 l 1
 2 8 l 1
 2 7 l 1
 2 6 l 1
 3 6 l 1
 4 6 l 1
 4 7 l 1
8 7 m 1
 8 8 l 1
 7 8 l 1
 6 8 l 1
 6 7 l 1
 6 6 l 1
 7 6 l 1
 8 6 l 1
 8 7 l 1
EndSplineSet
EndChar

StartChar: glyph2699
Encoding: 5861 5861 286
Width: 11
VWidth: 0
Flags: HMW
LayerCount: 2
Back
Fore
SplineSet
0 7 m 1
 0 14 l 1
 1 14 l 1
 2 14 l 1
 2 13 l 1
 2 12 l 1
 3 12 l 1
 4 12 l 1
 4 11 l 1
 4 10 l 1
 5 10 l 1
 6 10 l 1
 6 11 l 1
 6 12 l 1
 7 12 l 1
 8 12 l 1
 8 13 l 1
 8 14 l 1
 9 14 l 1
 10 14 l 1
 10 7 l 1
 10 0 l 1
 9 0 l 1
 8 0 l 1
 8 1 l 1
 8 2 l 1
 7 2 l 1
 6 2 l 1
 6 3 l 1
 6 4 l 1
 5 4 l 1
 4 4 l 1
 4 3 l 1
 4 2 l 1
 3 2 l 1
 2 2 l 1
 2 1 l 1
 2 0 l 1
 1 0 l 1
 0 0 l 1
 0 7 l 1
4 9 m 1
 4 10 l 1
 3 10 l 1
 2 10 l 1
 2 9 l 1
 2 8 l 1
 3 8 l 1
 4 8 l 1
 4 7 l 1
 4 6 l 1
 3 6 l 1
 2 6 l 1
 2 5 l 1
 2 4 l 1
 3 4 l 1
 4 4 l 1
 4 5 l 1
 4 6 l 1
 5 6 l 1
 6 6 l 1
 6 5 l 1
 6 4 l 1
 7 4 l 1
 8 4 l 1
 8 5 l 1
 8 6 l 1
 7 6 l 1
 6 6 l 1
 6 7 l 1
 6 8 l 1
 7 8 l 1
 8 8 l 1
 8 9 l 1
 8 10 l 1
 7 10 l 1
 6 10 l 1
 6 9 l 1
 6 8 l 1
 5 8 l 1
 4 8 l 1
 4 9 l 1
EndSplineSet
EndChar

StartChar: glyph2700
Encoding: 5862 5862 287
Width: 11
VWidth: 0
Flags: HMW
LayerCount: 2
Back
Fore
SplineSet
4 10 m 1
 4 14 l 1
 5 14 l 1
 6 14 l 1
 6 10 l 1
 6 6 l 1
 7 6 l 1
 8 6 l 1
 8 5 l 1
 8 4 l 1
 9 4 l 1
 10 4 l 1
 10 2 l 1
 10 0 l 1
 9 0 l 1
 8 0 l 1
 8 2 l 1
 8 4 l 1
 7 4 l 1
 6 4 l 1
 6 2 l 1
 6 0 l 1
 5 0 l 1
 4 0 l 1
 4 2 l 1
 4 4 l 1
 3 4 l 1
 2 4 l 1
 2 2 l 1
 2 0 l 1
 1 0 l 1
 0 0 l 1
 0 2 l 1
 0 4 l 1
 1 4 l 1
 2 4 l 1
 2 5 l 1
 2 6 l 1
 3 6 l 1
 4 6 l 1
 4 10 l 1
EndSplineSet
EndChar

StartChar: glyph2701
Encoding: 5863 5863 288
Width: 3
VWidth: 0
Flags: HMW
LayerCount: 2
Back
Fore
SplineSet
0 3 m 1
 0 6 l 1
 1 6 l 1
 2 6 l 1
 2 3 l 1
 2 0 l 1
 1 0 l 1
 0 0 l 1
 0 3 l 1
EndSplineSet
EndChar

StartChar: glyph2702
Encoding: 5864 5864 289
Width: 11
VWidth: 0
Flags: HMW
LayerCount: 2
Back
Fore
SplineSet
4 13 m 1
 4 14 l 1
 5 14 l 1
 6 14 l 1
 6 13 l 1
 6 12 l 1
 7 12 l 1
 8 12 l 1
 8 11 l 1
 8 10 l 1
 9 10 l 1
 10 10 l 1
 10 9 l 1
 10 8 l 1
 9 8 l 1
 8 8 l 1
 8 9 l 1
 8 10 l 1
 7 10 l 1
 6 10 l 1
 6 7 l 1
 6 4 l 1
 7 4 l 1
 8 4 l 1
 8 5 l 1
 8 6 l 1
 9 6 l 1
 10 6 l 1
 10 5 l 1
 10 4 l 1
 9 4 l 1
 8 4 l 1
 8 3 l 1
 8 2 l 1
 7 2 l 1
 6 2 l 1
 6 1 l 1
 6 0 l 1
 5 0 l 1
 4 0 l 1
 4 1 l 1
 4 2 l 1
 3 2 l 1
 2 2 l 1
 2 3 l 1
 2 4 l 1
 1 4 l 1
 0 4 l 1
 0 5 l 1
 0 6 l 1
 1 6 l 1
 2 6 l 1
 2 5 l 1
 2 4 l 1
 3 4 l 1
 4 4 l 1
 4 7 l 1
 4 10 l 1
 3 10 l 1
 2 10 l 1
 2 9 l 1
 2 8 l 1
 1 8 l 1
 0 8 l 1
 0 9 l 1
 0 10 l 1
 1 10 l 1
 2 10 l 1
 2 11 l 1
 2 12 l 1
 3 12 l 1
 4 12 l 1
 4 13 l 1
EndSplineSet
EndChar

StartChar: glyph2703
Encoding: 5865 5865 290
Width: 9
VWidth: 0
Flags: HMW
LayerCount: 2
Back
Fore
SplineSet
4 13 m 1
 4 14 l 1
 6 14 l 1
 8 14 l 1
 8 7 l 1
 8 0 l 1
 7 0 l 1
 6 0 l 1
 6 2 l 1
 6 4 l 1
 5 4 l 1
 4 4 l 1
 4 5 l 1
 4 6 l 1
 3 6 l 1
 2 6 l 1
 2 7 l 1
 2 8 l 1
 1 8 l 1
 0 8 l 1
 0 9 l 1
 0 10 l 1
 1 10 l 1
 2 10 l 1
 2 11 l 1
 2 12 l 1
 3 12 l 1
 4 12 l 1
 4 13 l 1
6 9 m 1
 6 12 l 1
 5 12 l 1
 4 12 l 1
 4 11 l 1
 4 10 l 1
 3 10 l 1
 2 10 l 1
 2 9 l 1
 2 8 l 1
 3 8 l 1
 4 8 l 1
 4 7 l 1
 4 6 l 1
 5 6 l 1
 6 6 l 1
 6 9 l 1
EndSplineSet
EndChar

StartChar: glyph2704
Encoding: 5866 5866 291
Width: 15
VWidth: 0
Flags: HMW
LayerCount: 2
Back
Fore
SplineSet
2 12 m 1
 2 14 l 1
 3 14 l 1
 4 14 l 1
 4 13 l 1
 4 12 l 1
 5 12 l 1
 6 12 l 1
 6 11 l 1
 6 10 l 1
 5 10 l 1
 4 10 l 1
 4 8 l 1
 4 6 l 1
 5 6 l 1
 6 6 l 1
 6 7 l 1
 6 8 l 1
 7 8 l 1
 8 8 l 1
 8 9 l 1
 8 10 l 1
 10 10 l 1
 12 10 l 1
 12 8 l 1
 12 6 l 1
 13 6 l 1
 14 6 l 1
 14 5 l 1
 14 4 l 1
 13 4 l 1
 12 4 l 1
 12 2 l 1
 12 0 l 1
 11 0 l 1
 10 0 l 1
 10 1 l 1
 10 2 l 1
 9 2 l 1
 8 2 l 1
 8 3 l 1
 8 4 l 1
 9 4 l 1
 10 4 l 1
 10 6 l 1
 10 8 l 1
 9 8 l 1
 8 8 l 1
 8 7 l 1
 8 6 l 1
 7 6 l 1
 6 6 l 1
 6 5 l 1
 6 4 l 1
 4 4 l 1
 2 4 l 1
 2 6 l 1
 2 8 l 1
 1 8 l 1
 0 8 l 1
 0 9 l 1
 0 10 l 1
 1 10 l 1
 2 10 l 1
 2 12 l 1
EndSplineSet
EndChar

StartChar: glyph2705
Encoding: 5867 5867 292
Width: 5
VWidth: 0
Flags: HMW
LayerCount: 2
Back
Fore
SplineSet
0 6 m 1
 0 8 l 1
 2 8 l 1
 4 8 l 1
 4 6 l 1
 4 4 l 1
 2 4 l 1
 0 4 l 1
 0 6 l 1
EndSplineSet
EndChar

StartChar: glyph2706
Encoding: 5868 5868 293
Width: 3
VWidth: 0
Flags: HMW
LayerCount: 2
Back
Fore
SplineSet
0 3 m 1
 0 4 l 1
 1 4 l 1
 2 4 l 1
 2 3 l 1
 2 2 l 1
 1 2 l 1
 0 2 l 1
 0 3 l 1
0 9 m 1
 0 10 l 1
 1 10 l 1
 2 10 l 1
 2 9 l 1
 2 8 l 1
 1 8 l 1
 0 8 l 1
 0 9 l 1
EndSplineSet
EndChar

StartChar: glyph2707
Encoding: 5869 5869 294
Width: 11
VWidth: 0
Flags: HMW
LayerCount: 2
Back
Fore
SplineSet
4 10 m 1
 4 12 l 1
 5 12 l 1
 6 12 l 1
 6 10 l 1
 6 8 l 1
 8 8 l 1
 10 8 l 1
 10 7 l 1
 10 6 l 1
 8 6 l 1
 6 6 l 1
 6 4 l 1
 6 2 l 1
 5 2 l 1
 4 2 l 1
 4 4 l 1
 4 6 l 1
 2 6 l 1
 0 6 l 1
 0 7 l 1
 0 8 l 1
 2 8 l 1
 4 8 l 1
 4 10 l 1
EndSplineSet
EndChar

StartChar: glyph2708
Encoding: 5870 5870 295
Width: 11
VWidth: 0
Flags: HMW
LayerCount: 2
Back
Fore
SplineSet
4 11 m 1
 4 14 l 1
 6 14 l 1
 8 14 l 1
 8 13 l 1
 8 12 l 1
 9 12 l 1
 10 12 l 1
 10 11 l 1
 10 10 l 1
 9 10 l 1
 8 10 l 1
 8 11 l 1
 8 12 l 1
 7 12 l 1
 6 12 l 1
 6 6 l 1
 6 0 l 1
 5 0 l 1
 4 0 l 1
 4 3 l 1
 4 6 l 1
 3 6 l 1
 2 6 l 1
 2 5 l 1
 2 4 l 1
 1 4 l 1
 0 4 l 1
 0 5 l 1
 0 6 l 1
 1 6 l 1
 2 6 l 1
 2 7 l 1
 2 8 l 1
 3 8 l 1
 4 8 l 1
 4 11 l 1
EndSplineSet
EndChar

StartChar: glyph2709
Encoding: 5871 5871 296
Width: 11
VWidth: 0
Flags: HMW
LayerCount: 2
Back
Fore
SplineSet
0 12 m 1
 0 14 l 1
 1 14 l 1
 2 14 l 1
 2 12 l 1
 2 10 l 1
 3 10 l 1
 4 10 l 1
 4 12 l 1
 4 14 l 1
 5 14 l 1
 6 14 l 1
 6 12 l 1
 6 10 l 1
 7 10 l 1
 8 10 l 1
 8 12 l 1
 8 14 l 1
 9 14 l 1
 10 14 l 1
 10 12 l 1
 10 10 l 1
 9 10 l 1
 8 10 l 1
 8 9 l 1
 8 8 l 1
 7 8 l 1
 6 8 l 1
 6 7 l 1
 6 6 l 1
 7 6 l 1
 8 6 l 1
 8 5 l 1
 8 4 l 1
 9 4 l 1
 10 4 l 1
 10 2 l 1
 10 0 l 1
 9 0 l 1
 8 0 l 1
 8 2 l 1
 8 4 l 1
 7 4 l 1
 6 4 l 1
 6 2 l 1
 6 0 l 1
 5 0 l 1
 4 0 l 1
 4 2 l 1
 4 4 l 1
 3 4 l 1
 2 4 l 1
 2 2 l 1
 2 0 l 1
 1 0 l 1
 0 0 l 1
 0 2 l 1
 0 4 l 1
 1 4 l 1
 2 4 l 1
 2 5 l 1
 2 6 l 1
 3 6 l 1
 4 6 l 1
 4 7 l 1
 4 8 l 1
 3 8 l 1
 2 8 l 1
 2 9 l 1
 2 10 l 1
 1 10 l 1
 0 10 l 1
 0 12 l 1
EndSplineSet
EndChar

StartChar: glyph2710
Encoding: 367 367 297
Width: 11
VWidth: 0
Flags: HMW
LayerCount: 2
Back
Fore
SplineSet
0 6 m 1
 0 10 l 1
 1 10 l 1
 2 10 l 1
 2 6 l 1
 2 2 l 1
 5 2 l 1
 8 2 l 1
 8 6 l 1
 8 10 l 1
 9 10 l 1
 10 10 l 1
 10 5 l 1
 10 0 l 1
 6 0 l 1
 2 0 l 1
 2 1 l 1
 2 2 l 1
 1 2 l 1
 0 2 l 1
 0 6 l 1
4 17 m 1
 4 18 l 1
 5 18 l 1
 6 18 l 1
 6 17 l 1
 6 16 l 1
 7 16 l 1
 8 16 l 1
 8 15 l 1
 8 14 l 1
 7 14 l 1
 6 14 l 1
 6 13 l 1
 6 12 l 1
 5 12 l 1
 4 12 l 1
 4 13 l 1
 4 14 l 1
 3 14 l 1
 2 14 l 1
 2 15 l 1
 2 16 l 1
 3 16 l 1
 4 16 l 1
 4 17 l 1
6 15 m 1
 6 16 l 1
 5 16 l 1
 4 16 l 1
 4 15 l 1
 4 14 l 1
 5 14 l 1
 6 14 l 1
 6 15 l 1
EndSplineSet
EndChar

StartChar: glyph2711
Encoding: 5872 5872 298
Width: 11
VWidth: 0
Flags: HMW
LayerCount: 2
Back
Fore
SplineSet
4 13 m 1
 4 14 l 1
 5 14 l 1
 6 14 l 1
 6 13 l 1
 6 12 l 1
 7 12 l 1
 8 12 l 1
 8 11 l 1
 8 10 l 1
 9 10 l 1
 10 10 l 1
 10 7 l 1
 10 4 l 1
 9 4 l 1
 8 4 l 1
 8 3 l 1
 8 2 l 1
 7 2 l 1
 6 2 l 1
 6 1 l 1
 6 0 l 1
 5 0 l 1
 4 0 l 1
 4 1 l 1
 4 2 l 1
 3 2 l 1
 2 2 l 1
 2 3 l 1
 2 4 l 1
 1 4 l 1
 0 4 l 1
 0 7 l 1
 0 10 l 1
 1 10 l 1
 2 10 l 1
 2 11 l 1
 2 12 l 1
 3 12 l 1
 4 12 l 1
 4 13 l 1
4 7 m 1
 4 10 l 1
 3 10 l 1
 2 10 l 1
 2 7 l 1
 2 4 l 1
 3 4 l 1
 4 4 l 1
 4 7 l 1
8 7 m 1
 8 10 l 1
 7 10 l 1
 6 10 l 1
 6 7 l 1
 6 4 l 1
 7 4 l 1
 8 4 l 1
 8 7 l 1
EndSplineSet
EndChar

StartChar: glyph2712
Encoding: 5873 5873 299
Width: 11
VWidth: 0
Flags: HMW
LayerCount: 2
Back
Fore
SplineSet
0 7 m 1
 0 14 l 1
 1 14 l 1
 2 14 l 1
 2 11 l 1
 2 8 l 1
 3 8 l 1
 4 8 l 1
 4 9 l 1
 4 10 l 1
 5 10 l 1
 6 10 l 1
 6 9 l 1
 6 8 l 1
 7 8 l 1
 8 8 l 1
 8 6 l 1
 8 4 l 1
 9 4 l 1
 10 4 l 1
 10 2 l 1
 10 0 l 1
 9 0 l 1
 8 0 l 1
 8 2 l 1
 8 4 l 1
 7 4 l 1
 6 4 l 1
 6 6 l 1
 6 8 l 1
 5 8 l 1
 4 8 l 1
 4 7 l 1
 4 6 l 1
 3 6 l 1
 2 6 l 1
 2 3 l 1
 2 0 l 1
 1 0 l 1
 0 0 l 1
 0 7 l 1
EndSplineSet
EndChar

StartChar: glyph2713
Encoding: 5874 5874 300
Width: 11
VWidth: 0
Flags: HMW
LayerCount: 2
Back
Fore
SplineSet
8 10 m 1
 8 14 l 1
 9 14 l 1
 10 14 l 1
 10 9 l 1
 10 4 l 1
 8 4 l 1
 6 4 l 1
 6 5 l 1
 6 6 l 1
 5 6 l 1
 4 6 l 1
 4 7 l 1
 4 8 l 1
 3 8 l 1
 2 8 l 1
 2 4 l 1
 2 0 l 1
 1 0 l 1
 0 0 l 1
 0 5 l 1
 0 10 l 1
 2 10 l 1
 4 10 l 1
 4 9 l 1
 4 8 l 1
 5 8 l 1
 6 8 l 1
 6 7 l 1
 6 6 l 1
 7 6 l 1
 8 6 l 1
 8 10 l 1
EndSplineSet
EndChar

StartChar: glyph2714
Encoding: 5875 5875 301
Width: 15
VWidth: 0
Flags: HMW
LayerCount: 2
Back
Fore
SplineSet
4 13 m 1
 4 14 l 1
 7 14 l 1
 10 14 l 1
 10 13 l 1
 10 12 l 1
 11 12 l 1
 12 12 l 1
 12 11 l 1
 12 10 l 1
 13 10 l 1
 14 10 l 1
 14 9 l 1
 14 8 l 1
 13 8 l 1
 12 8 l 1
 12 7 l 1
 12 6 l 1
 11 6 l 1
 10 6 l 1
 10 5 l 1
 10 4 l 1
 9 4 l 1
 8 4 l 1
 8 2 l 1
 8 0 l 1
 7 0 l 1
 6 0 l 1
 6 2 l 1
 6 4 l 1
 5 4 l 1
 4 4 l 1
 4 5 l 1
 4 6 l 1
 3 6 l 1
 2 6 l 1
 2 7 l 1
 2 8 l 1
 1 8 l 1
 0 8 l 1
 0 9 l 1
 0 10 l 1
 1 10 l 1
 2 10 l 1
 2 11 l 1
 2 12 l 1
 3 12 l 1
 4 12 l 1
 4 13 l 1
6 9 m 1
 6 12 l 1
 5 12 l 1
 4 12 l 1
 4 11 l 1
 4 10 l 1
 3 10 l 1
 2 10 l 1
 2 9 l 1
 2 8 l 1
 3 8 l 1
 4 8 l 1
 4 7 l 1
 4 6 l 1
 5 6 l 1
 6 6 l 1
 6 9 l 1
10 11 m 1
 10 12 l 1
 9 12 l 1
 8 12 l 1
 8 9 l 1
 8 6 l 1
 9 6 l 1
 10 6 l 1
 10 7 l 1
 10 8 l 1
 11 8 l 1
 12 8 l 1
 12 9 l 1
 12 10 l 1
 11 10 l 1
 10 10 l 1
 10 11 l 1
EndSplineSet
EndChar

StartChar: glyph2715
Encoding: 5876 5876 302
Width: 9
VWidth: 0
Flags: HMW
LayerCount: 2
Back
Fore
SplineSet
0 9 m 1
 0 14 l 1
 1 14 l 1
 2 14 l 1
 2 11 l 1
 2 8 l 1
 4 8 l 1
 6 8 l 1
 6 9 l 1
 6 10 l 1
 7 10 l 1
 8 10 l 1
 8 5 l 1
 8 0 l 1
 7 0 l 1
 6 0 l 1
 6 3 l 1
 6 6 l 1
 4 6 l 1
 2 6 l 1
 2 5 l 1
 2 4 l 1
 1 4 l 1
 0 4 l 1
 0 9 l 1
EndSplineSet
EndChar

StartChar: glyph2716
Encoding: 5877 5877 303
Width: 5
VWidth: 0
Flags: HMW
LayerCount: 2
Back
Fore
SplineSet
2 13 m 1
 2 14 l 1
 3 14 l 1
 4 14 l 1
 4 13 l 1
 4 12 l 1
 3 12 l 1
 2 12 l 1
 2 11 l 1
 2 10 l 1
 3 10 l 1
 4 10 l 1
 4 9 l 1
 4 8 l 1
 3 8 l 1
 2 8 l 1
 2 7 l 1
 2 6 l 1
 3 6 l 1
 4 6 l 1
 4 5 l 1
 4 4 l 1
 3 4 l 1
 2 4 l 1
 2 3 l 1
 2 2 l 1
 3 2 l 1
 4 2 l 1
 4 1 l 1
 4 0 l 1
 3 0 l 1
 2 0 l 1
 2 1 l 1
 2 2 l 1
 1 2 l 1
 0 2 l 1
 0 3 l 1
 0 4 l 1
 1 4 l 1
 2 4 l 1
 2 5 l 1
 2 6 l 1
 1 6 l 1
 0 6 l 1
 0 7 l 1
 0 8 l 1
 1 8 l 1
 2 8 l 1
 2 9 l 1
 2 10 l 1
 1 10 l 1
 0 10 l 1
 0 11 l 1
 0 12 l 1
 1 12 l 1
 2 12 l 1
 2 13 l 1
EndSplineSet
EndChar

StartChar: glyph2717
Encoding: 5878 5878 304
Width: 11
VWidth: 0
Flags: HMW
LayerCount: 2
Back
Fore
SplineSet
2 12 m 1
 2 14 l 1
 3 14 l 1
 4 14 l 1
 4 12 l 1
 4 10 l 1
 5 10 l 1
 6 10 l 1
 6 9 l 1
 6 8 l 1
 7 8 l 1
 8 8 l 1
 8 9 l 1
 8 10 l 1
 9 10 l 1
 10 10 l 1
 10 9 l 1
 10 8 l 1
 9 8 l 1
 8 8 l 1
 8 7 l 1
 8 6 l 1
 7 6 l 1
 6 6 l 1
 6 5 l 1
 6 4 l 1
 7 4 l 1
 8 4 l 1
 8 2 l 1
 8 0 l 1
 7 0 l 1
 6 0 l 1
 6 2 l 1
 6 4 l 1
 5 4 l 1
 4 4 l 1
 4 5 l 1
 4 6 l 1
 3 6 l 1
 2 6 l 1
 2 5 l 1
 2 4 l 1
 1 4 l 1
 0 4 l 1
 0 5 l 1
 0 6 l 1
 1 6 l 1
 2 6 l 1
 2 7 l 1
 2 8 l 1
 3 8 l 1
 4 8 l 1
 4 9 l 1
 4 10 l 1
 3 10 l 1
 2 10 l 1
 2 12 l 1
EndSplineSet
EndChar

StartChar: glyph2718
Encoding: 5879 5879 305
Width: 11
VWidth: 0
Flags: HMW
LayerCount: 2
Back
Fore
SplineSet
0 7 m 1
 0 14 l 1
 1 14 l 1
 2 14 l 1
 2 12 l 1
 2 10 l 1
 4 10 l 1
 6 10 l 1
 6 9 l 1
 6 8 l 1
 7 8 l 1
 8 8 l 1
 8 6 l 1
 8 4 l 1
 9 4 l 1
 10 4 l 1
 10 2 l 1
 10 0 l 1
 9 0 l 1
 8 0 l 1
 8 2 l 1
 8 4 l 1
 7 4 l 1
 6 4 l 1
 6 6 l 1
 6 8 l 1
 4 8 l 1
 2 8 l 1
 2 4 l 1
 2 0 l 1
 1 0 l 1
 0 0 l 1
 0 7 l 1
EndSplineSet
EndChar

StartChar: glyph2719
Encoding: 5880 5880 306
Width: 11
VWidth: 0
Flags: HMW
LayerCount: 2
Back
Fore
SplineSet
4 10 m 1
 4 14 l 1
 5 14 l 1
 6 14 l 1
 6 10 l 1
 6 6 l 1
 7 6 l 1
 8 6 l 1
 8 4 l 1
 8 2 l 1
 9 2 l 1
 10 2 l 1
 10 1 l 1
 10 0 l 1
 9 0 l 1
 8 0 l 1
 8 1 l 1
 8 2 l 1
 7 2 l 1
 6 2 l 1
 6 3 l 1
 6 4 l 1
 5 4 l 1
 4 4 l 1
 4 3 l 1
 4 2 l 1
 3 2 l 1
 2 2 l 1
 2 1 l 1
 2 0 l 1
 1 0 l 1
 0 0 l 1
 0 1 l 1
 0 2 l 1
 1 2 l 1
 2 2 l 1
 2 4 l 1
 2 6 l 1
 3 6 l 1
 4 6 l 1
 4 10 l 1
EndSplineSet
EndChar

StartChar: glyph2720
Encoding: 368 368 307
Width: 11
VWidth: 0
Flags: HMW
LayerCount: 2
Back
Fore
SplineSet
0 8 m 1
 0 14 l 1
 1 14 l 1
 2 14 l 1
 2 8 l 1
 2 2 l 1
 5 2 l 1
 8 2 l 1
 8 8 l 1
 8 14 l 1
 9 14 l 1
 10 14 l 1
 10 8 l 1
 10 2 l 1
 9 2 l 1
 8 2 l 1
 8 1 l 1
 8 0 l 1
 5 0 l 1
 2 0 l 1
 2 1 l 1
 2 2 l 1
 1 2 l 1
 0 2 l 1
 0 8 l 1
8 19 m 1
 8 20 l 1
 9 20 l 1
 10 20 l 1
 10 19 l 1
 10 18 l 1
 9 18 l 1
 8 18 l 1
 8 17 l 1
 8 16 l 1
 7 16 l 1
 6 16 l 1
 6 17 l 1
 6 18 l 1
 7 18 l 1
 8 18 l 1
 8 19 l 1
2 19 m 1
 2 20 l 1
 3 20 l 1
 4 20 l 1
 4 19 l 1
 4 18 l 1
 3 18 l 1
 2 18 l 1
 2 17 l 1
 2 16 l 1
 1 16 l 1
 0 16 l 1
 0 17 l 1
 0 18 l 1
 1 18 l 1
 2 18 l 1
 2 19 l 1
EndSplineSet
EndChar

StartChar: glyph2721
Encoding: 369 369 308
Width: 11
VWidth: 0
Flags: HMW
LayerCount: 2
Back
Fore
SplineSet
0 6 m 1
 0 10 l 1
 1 10 l 1
 2 10 l 1
 2 6 l 1
 2 2 l 1
 5 2 l 1
 8 2 l 1
 8 6 l 1
 8 10 l 1
 9 10 l 1
 10 10 l 1
 10 5 l 1
 10 0 l 1
 6 0 l 1
 2 0 l 1
 2 1 l 1
 2 2 l 1
 1 2 l 1
 0 2 l 1
 0 6 l 1
8 15 m 1
 8 16 l 1
 9 16 l 1
 10 16 l 1
 10 15 l 1
 10 14 l 1
 9 14 l 1
 8 14 l 1
 8 13 l 1
 8 12 l 1
 7 12 l 1
 6 12 l 1
 6 13 l 1
 6 14 l 1
 7 14 l 1
 8 14 l 1
 8 15 l 1
2 15 m 1
 2 16 l 1
 3 16 l 1
 4 16 l 1
 4 15 l 1
 4 14 l 1
 3 14 l 1
 2 14 l 1
 2 13 l 1
 2 12 l 1
 1 12 l 1
 0 12 l 1
 0 13 l 1
 0 14 l 1
 1 14 l 1
 2 14 l 1
 2 15 l 1
EndSplineSet
EndChar

StartChar: glyph2722
Encoding: 370 370 309
Width: 11
VWidth: 0
Flags: HMW
LayerCount: 2
Back
Fore
SplineSet
0 8 m 1
 0 14 l 1
 1 14 l 1
 2 14 l 1
 2 8 l 1
 2 2 l 1
 5 2 l 1
 8 2 l 1
 8 8 l 1
 8 14 l 1
 9 14 l 1
 10 14 l 1
 10 8 l 1
 10 2 l 1
 9 2 l 1
 8 2 l 1
 8 0 l 1
 8 -2 l 1
 9 -2 l 1
 10 -2 l 1
 10 -3 l 1
 10 -4 l 1
 9 -4 l 1
 8 -4 l 1
 8 -3 l 1
 8 -2 l 1
 7 -2 l 1
 6 -2 l 1
 6 -1 l 1
 6 0 l 1
 4 0 l 1
 2 0 l 1
 2 1 l 1
 2 2 l 1
 1 2 l 1
 0 2 l 1
 0 8 l 1
EndSplineSet
EndChar

StartChar: glyph2723
Encoding: 371 371 310
Width: 11
VWidth: 0
Flags: HMW
LayerCount: 2
Back
Fore
SplineSet
0 6 m 1
 0 10 l 1
 1 10 l 1
 2 10 l 1
 2 6 l 1
 2 2 l 1
 5 2 l 1
 8 2 l 1
 8 6 l 1
 8 10 l 1
 9 10 l 1
 10 10 l 1
 10 5 l 1
 10 0 l 1
 9 0 l 1
 8 0 l 1
 8 -1 l 1
 8 -2 l 1
 9 -2 l 1
 10 -2 l 1
 10 -3 l 1
 10 -4 l 1
 9 -4 l 1
 8 -4 l 1
 8 -3 l 1
 8 -2 l 1
 7 -2 l 1
 6 -2 l 1
 6 -1 l 1
 6 0 l 1
 4 0 l 1
 2 0 l 1
 2 1 l 1
 2 2 l 1
 1 2 l 1
 0 2 l 1
 0 6 l 1
EndSplineSet
EndChar

StartChar: glyph2724
Encoding: 372 372 311
Width: 11
VWidth: 0
Flags: HMW
LayerCount: 2
Back
Fore
SplineSet
0 7 m 1
 0 14 l 1
 1 14 l 1
 2 14 l 1
 2 9 l 1
 2 4 l 1
 3 4 l 1
 4 4 l 1
 4 5 l 1
 4 6 l 1
 5 6 l 1
 6 6 l 1
 6 5 l 1
 6 4 l 1
 7 4 l 1
 8 4 l 1
 8 9 l 1
 8 14 l 1
 9 14 l 1
 10 14 l 1
 10 7 l 1
 10 0 l 1
 9 0 l 1
 8 0 l 1
 8 1 l 1
 8 2 l 1
 7 2 l 1
 6 2 l 1
 6 3 l 1
 6 4 l 1
 5 4 l 1
 4 4 l 1
 4 3 l 1
 4 2 l 1
 3 2 l 1
 2 2 l 1
 2 1 l 1
 2 0 l 1
 1 0 l 1
 0 0 l 1
 0 7 l 1
4 19 m 1
 4 20 l 1
 5 20 l 1
 6 20 l 1
 6 19 l 1
 6 18 l 1
 7 18 l 1
 8 18 l 1
 8 17 l 1
 8 16 l 1
 7 16 l 1
 6 16 l 1
 6 17 l 1
 6 18 l 1
 5 18 l 1
 4 18 l 1
 4 17 l 1
 4 16 l 1
 3 16 l 1
 2 16 l 1
 2 17 l 1
 2 18 l 1
 3 18 l 1
 4 18 l 1
 4 19 l 1
EndSplineSet
EndChar

StartChar: glyph2725
Encoding: 373 373 312
Width: 11
VWidth: 0
Flags: HMW
LayerCount: 2
Back
Fore
SplineSet
0 6 m 1
 0 10 l 1
 1 10 l 1
 2 10 l 1
 2 6 l 1
 2 2 l 1
 3 2 l 1
 4 2 l 1
 4 4 l 1
 4 6 l 1
 5 6 l 1
 6 6 l 1
 6 4 l 1
 6 2 l 1
 7 2 l 1
 8 2 l 1
 8 6 l 1
 8 10 l 1
 9 10 l 1
 10 10 l 1
 10 5 l 1
 10 0 l 1
 6 0 l 1
 2 0 l 1
 2 1 l 1
 2 2 l 1
 1 2 l 1
 0 2 l 1
 0 6 l 1
4 15 m 1
 4 16 l 1
 5 16 l 1
 6 16 l 1
 6 15 l 1
 6 14 l 1
 7 14 l 1
 8 14 l 1
 8 13 l 1
 8 12 l 1
 7 12 l 1
 6 12 l 1
 6 13 l 1
 6 14 l 1
 5 14 l 1
 4 14 l 1
 4 13 l 1
 4 12 l 1
 3 12 l 1
 2 12 l 1
 2 13 l 1
 2 14 l 1
 3 14 l 1
 4 14 l 1
 4 15 l 1
EndSplineSet
EndChar

StartChar: glyph2726
Encoding: 374 374 313
Width: 11
VWidth: 0
Flags: HMW
LayerCount: 2
Back
Fore
SplineSet
0 13 m 1
 0 14 l 1
 1 14 l 1
 2 14 l 1
 2 13 l 1
 2 12 l 1
 3 12 l 1
 4 12 l 1
 4 11 l 1
 4 10 l 1
 5 10 l 1
 6 10 l 1
 6 11 l 1
 6 12 l 1
 7 12 l 1
 8 12 l 1
 8 13 l 1
 8 14 l 1
 9 14 l 1
 10 14 l 1
 10 13 l 1
 10 12 l 1
 9 12 l 1
 8 12 l 1
 8 11 l 1
 8 10 l 1
 7 10 l 1
 6 10 l 1
 6 5 l 1
 6 0 l 1
 5 0 l 1
 4 0 l 1
 4 5 l 1
 4 10 l 1
 3 10 l 1
 2 10 l 1
 2 11 l 1
 2 12 l 1
 1 12 l 1
 0 12 l 1
 0 13 l 1
4 19 m 1
 4 20 l 1
 5 20 l 1
 6 20 l 1
 6 19 l 1
 6 18 l 1
 7 18 l 1
 8 18 l 1
 8 17 l 1
 8 16 l 1
 7 16 l 1
 6 16 l 1
 6 17 l 1
 6 18 l 1
 5 18 l 1
 4 18 l 1
 4 17 l 1
 4 16 l 1
 3 16 l 1
 2 16 l 1
 2 17 l 1
 2 18 l 1
 3 18 l 1
 4 18 l 1
 4 19 l 1
EndSplineSet
EndChar

StartChar: glyph2727
Encoding: 375 375 314
Width: 11
VWidth: 0
Flags: HMW
LayerCount: 2
Back
Fore
SplineSet
0 7 m 1
 0 10 l 1
 1 10 l 1
 2 10 l 1
 2 7 l 1
 2 4 l 1
 5 4 l 1
 8 4 l 1
 8 7 l 1
 8 10 l 1
 9 10 l 1
 10 10 l 1
 10 5 l 1
 10 0 l 1
 9 0 l 1
 8 0 l 1
 8 -1 l 1
 8 -2 l 1
 4 -2 l 1
 0 -2 l 1
 0 -1 l 1
 0 0 l 1
 4 0 l 1
 8 0 l 1
 8 1 l 1
 8 2 l 1
 5 2 l 1
 2 2 l 1
 2 3 l 1
 2 4 l 1
 1 4 l 1
 0 4 l 1
 0 7 l 1
4 15 m 1
 4 16 l 1
 5 16 l 1
 6 16 l 1
 6 15 l 1
 6 14 l 1
 7 14 l 1
 8 14 l 1
 8 13 l 1
 8 12 l 1
 7 12 l 1
 6 12 l 1
 6 13 l 1
 6 14 l 1
 5 14 l 1
 4 14 l 1
 4 13 l 1
 4 12 l 1
 3 12 l 1
 2 12 l 1
 2 13 l 1
 2 14 l 1
 3 14 l 1
 4 14 l 1
 4 15 l 1
EndSplineSet
EndChar

StartChar: glyph2728
Encoding: 376 376 315
Width: 11
VWidth: 0
Flags: HMW
LayerCount: 2
Back
Fore
SplineSet
0 13 m 1
 0 14 l 1
 1 14 l 1
 2 14 l 1
 2 13 l 1
 2 12 l 1
 3 12 l 1
 4 12 l 1
 4 11 l 1
 4 10 l 1
 5 10 l 1
 6 10 l 1
 6 11 l 1
 6 12 l 1
 7 12 l 1
 8 12 l 1
 8 13 l 1
 8 14 l 1
 9 14 l 1
 10 14 l 1
 10 13 l 1
 10 12 l 1
 9 12 l 1
 8 12 l 1
 8 11 l 1
 8 10 l 1
 7 10 l 1
 6 10 l 1
 6 5 l 1
 6 0 l 1
 5 0 l 1
 4 0 l 1
 4 5 l 1
 4 10 l 1
 3 10 l 1
 2 10 l 1
 2 11 l 1
 2 12 l 1
 1 12 l 1
 0 12 l 1
 0 13 l 1
6 17 m 1
 6 18 l 1
 7 18 l 1
 8 18 l 1
 8 17 l 1
 8 16 l 1
 7 16 l 1
 6 16 l 1
 6 17 l 1
2 17 m 1
 2 18 l 1
 3 18 l 1
 4 18 l 1
 4 17 l 1
 4 16 l 1
 3 16 l 1
 2 16 l 1
 2 17 l 1
EndSplineSet
EndChar

StartChar: glyph2729
Encoding: 377 377 316
Width: 11
VWidth: 0
Flags: HMW
LayerCount: 2
Back
Fore
SplineSet
0 13 m 1
 0 14 l 1
 5 14 l 1
 10 14 l 1
 10 12 l 1
 10 10 l 1
 9 10 l 1
 8 10 l 1
 8 9 l 1
 8 8 l 1
 7 8 l 1
 6 8 l 1
 6 7 l 1
 6 6 l 1
 5 6 l 1
 4 6 l 1
 4 5 l 1
 4 4 l 1
 3 4 l 1
 2 4 l 1
 2 3 l 1
 2 2 l 1
 6 2 l 1
 10 2 l 1
 10 1 l 1
 10 0 l 1
 5 0 l 1
 0 0 l 1
 0 2 l 1
 0 4 l 1
 1 4 l 1
 2 4 l 1
 2 5 l 1
 2 6 l 1
 3 6 l 1
 4 6 l 1
 4 7 l 1
 4 8 l 1
 5 8 l 1
 6 8 l 1
 6 9 l 1
 6 10 l 1
 7 10 l 1
 8 10 l 1
 8 11 l 1
 8 12 l 1
 4 12 l 1
 0 12 l 1
 0 13 l 1
6 19 m 1
 6 20 l 1
 7 20 l 1
 8 20 l 1
 8 19 l 1
 8 18 l 1
 7 18 l 1
 6 18 l 1
 6 17 l 1
 6 16 l 1
 5 16 l 1
 4 16 l 1
 4 17 l 1
 4 18 l 1
 5 18 l 1
 6 18 l 1
 6 19 l 1
EndSplineSet
EndChar

StartChar: glyph2730
Encoding: 378 378 317
Width: 11
VWidth: 0
Flags: HMW
LayerCount: 2
Back
Fore
SplineSet
0 9 m 1
 0 10 l 1
 5 10 l 1
 10 10 l 1
 10 9 l 1
 10 8 l 1
 9 8 l 1
 8 8 l 1
 8 7 l 1
 8 6 l 1
 7 6 l 1
 6 6 l 1
 6 5 l 1
 6 4 l 1
 5 4 l 1
 4 4 l 1
 4 3 l 1
 4 2 l 1
 7 2 l 1
 10 2 l 1
 10 1 l 1
 10 0 l 1
 5 0 l 1
 0 0 l 1
 0 1 l 1
 0 2 l 1
 1 2 l 1
 2 2 l 1
 2 3 l 1
 2 4 l 1
 3 4 l 1
 4 4 l 1
 4 5 l 1
 4 6 l 1
 5 6 l 1
 6 6 l 1
 6 7 l 1
 6 8 l 1
 3 8 l 1
 0 8 l 1
 0 9 l 1
6 15 m 1
 6 16 l 1
 7 16 l 1
 8 16 l 1
 8 15 l 1
 8 14 l 1
 7 14 l 1
 6 14 l 1
 6 13 l 1
 6 12 l 1
 5 12 l 1
 4 12 l 1
 4 13 l 1
 4 14 l 1
 5 14 l 1
 6 14 l 1
 6 15 l 1
EndSplineSet
EndChar

StartChar: glyph2731
Encoding: 379 379 318
Width: 11
VWidth: 0
Flags: HMW
LayerCount: 2
Back
Fore
SplineSet
0 13 m 1
 0 14 l 1
 5 14 l 1
 10 14 l 1
 10 12 l 1
 10 10 l 1
 9 10 l 1
 8 10 l 1
 8 9 l 1
 8 8 l 1
 7 8 l 1
 6 8 l 1
 6 7 l 1
 6 6 l 1
 5 6 l 1
 4 6 l 1
 4 5 l 1
 4 4 l 1
 3 4 l 1
 2 4 l 1
 2 3 l 1
 2 2 l 1
 6 2 l 1
 10 2 l 1
 10 1 l 1
 10 0 l 1
 5 0 l 1
 0 0 l 1
 0 2 l 1
 0 4 l 1
 1 4 l 1
 2 4 l 1
 2 5 l 1
 2 6 l 1
 3 6 l 1
 4 6 l 1
 4 7 l 1
 4 8 l 1
 5 8 l 1
 6 8 l 1
 6 9 l 1
 6 10 l 1
 7 10 l 1
 8 10 l 1
 8 11 l 1
 8 12 l 1
 4 12 l 1
 0 12 l 1
 0 13 l 1
4 17 m 1
 4 18 l 1
 5 18 l 1
 6 18 l 1
 6 17 l 1
 6 16 l 1
 5 16 l 1
 4 16 l 1
 4 17 l 1
EndSplineSet
EndChar

StartChar: glyph2732
Encoding: 380 380 319
Width: 11
VWidth: 0
Flags: HMW
LayerCount: 2
Back
Fore
SplineSet
0 9 m 1
 0 10 l 1
 5 10 l 1
 10 10 l 1
 10 9 l 1
 10 8 l 1
 9 8 l 1
 8 8 l 1
 8 7 l 1
 8 6 l 1
 7 6 l 1
 6 6 l 1
 6 5 l 1
 6 4 l 1
 5 4 l 1
 4 4 l 1
 4 3 l 1
 4 2 l 1
 7 2 l 1
 10 2 l 1
 10 1 l 1
 10 0 l 1
 5 0 l 1
 0 0 l 1
 0 1 l 1
 0 2 l 1
 1 2 l 1
 2 2 l 1
 2 3 l 1
 2 4 l 1
 3 4 l 1
 4 4 l 1
 4 5 l 1
 4 6 l 1
 5 6 l 1
 6 6 l 1
 6 7 l 1
 6 8 l 1
 3 8 l 1
 0 8 l 1
 0 9 l 1
4 13 m 1
 4 14 l 1
 5 14 l 1
 6 14 l 1
 6 13 l 1
 6 12 l 1
 5 12 l 1
 4 12 l 1
 4 13 l 1
EndSplineSet
EndChar

StartChar: glyph2733
Encoding: 381 381 320
Width: 11
VWidth: 0
Flags: HMW
LayerCount: 2
Back
Fore
SplineSet
0 13 m 1
 0 14 l 1
 5 14 l 1
 10 14 l 1
 10 12 l 1
 10 10 l 1
 9 10 l 1
 8 10 l 1
 8 9 l 1
 8 8 l 1
 7 8 l 1
 6 8 l 1
 6 7 l 1
 6 6 l 1
 5 6 l 1
 4 6 l 1
 4 5 l 1
 4 4 l 1
 3 4 l 1
 2 4 l 1
 2 3 l 1
 2 2 l 1
 6 2 l 1
 10 2 l 1
 10 1 l 1
 10 0 l 1
 5 0 l 1
 0 0 l 1
 0 2 l 1
 0 4 l 1
 1 4 l 1
 2 4 l 1
 2 5 l 1
 2 6 l 1
 3 6 l 1
 4 6 l 1
 4 7 l 1
 4 8 l 1
 5 8 l 1
 6 8 l 1
 6 9 l 1
 6 10 l 1
 7 10 l 1
 8 10 l 1
 8 11 l 1
 8 12 l 1
 4 12 l 1
 0 12 l 1
 0 13 l 1
2 19 m 1
 2 20 l 1
 3 20 l 1
 4 20 l 1
 4 19 l 1
 4 18 l 1
 5 18 l 1
 6 18 l 1
 6 19 l 1
 6 20 l 1
 7 20 l 1
 8 20 l 1
 8 19 l 1
 8 18 l 1
 7 18 l 1
 6 18 l 1
 6 17 l 1
 6 16 l 1
 5 16 l 1
 4 16 l 1
 4 17 l 1
 4 18 l 1
 3 18 l 1
 2 18 l 1
 2 19 l 1
EndSplineSet
EndChar

StartChar: glyph2734
Encoding: 382 382 321
Width: 11
VWidth: 0
Flags: HMW
LayerCount: 2
Back
Fore
SplineSet
0 9 m 1
 0 10 l 1
 5 10 l 1
 10 10 l 1
 10 9 l 1
 10 8 l 1
 9 8 l 1
 8 8 l 1
 8 7 l 1
 8 6 l 1
 7 6 l 1
 6 6 l 1
 6 5 l 1
 6 4 l 1
 5 4 l 1
 4 4 l 1
 4 3 l 1
 4 2 l 1
 7 2 l 1
 10 2 l 1
 10 1 l 1
 10 0 l 1
 5 0 l 1
 0 0 l 1
 0 1 l 1
 0 2 l 1
 1 2 l 1
 2 2 l 1
 2 3 l 1
 2 4 l 1
 3 4 l 1
 4 4 l 1
 4 5 l 1
 4 6 l 1
 5 6 l 1
 6 6 l 1
 6 7 l 1
 6 8 l 1
 3 8 l 1
 0 8 l 1
 0 9 l 1
2 15 m 1
 2 16 l 1
 3 16 l 1
 4 16 l 1
 4 15 l 1
 4 14 l 1
 5 14 l 1
 6 14 l 1
 6 15 l 1
 6 16 l 1
 7 16 l 1
 8 16 l 1
 8 15 l 1
 8 14 l 1
 7 14 l 1
 6 14 l 1
 6 13 l 1
 6 12 l 1
 5 12 l 1
 4 12 l 1
 4 13 l 1
 4 14 l 1
 3 14 l 1
 2 14 l 1
 2 15 l 1
EndSplineSet
EndChar

StartChar: glyph2735
Encoding: 383 383 322
Width: 7
VWidth: 0
Flags: HMW
LayerCount: 2
Back
Fore
SplineSet
2 13 m 1
 2 14 l 1
 4 14 l 1
 6 14 l 1
 6 13 l 1
 6 12 l 1
 4 12 l 1
 2 12 l 1
 2 6 l 1
 2 0 l 1
 1 0 l 1
 0 0 l 1
 0 6 l 1
 0 12 l 1
 1 12 l 1
 2 12 l 1
 2 13 l 1
EndSplineSet
EndChar

StartChar: glyph2736
Encoding: 384 384 323
Width: 13
VWidth: 0
Flags: HMW
LayerCount: 2
Back
Fore
SplineSet
2 13 m 1
 2 14 l 1
 3 14 l 1
 4 14 l 1
 4 13 l 1
 4 12 l 1
 6 12 l 1
 8 12 l 1
 8 11 l 1
 8 10 l 1
 6 10 l 1
 4 10 l 1
 4 8 l 1
 4 6 l 1
 5 6 l 1
 6 6 l 1
 6 7 l 1
 6 8 l 1
 9 8 l 1
 12 8 l 1
 12 5 l 1
 12 2 l 1
 11 2 l 1
 10 2 l 1
 10 1 l 1
 10 0 l 1
 6 0 l 1
 2 0 l 1
 2 5 l 1
 2 10 l 1
 1 10 l 1
 0 10 l 1
 0 11 l 1
 0 12 l 1
 1 12 l 1
 2 12 l 1
 2 13 l 1
10 4 m 1
 10 6 l 1
 8 6 l 1
 6 6 l 1
 6 5 l 1
 6 4 l 1
 5 4 l 1
 4 4 l 1
 4 3 l 1
 4 2 l 1
 7 2 l 1
 10 2 l 1
 10 4 l 1
EndSplineSet
EndChar

StartChar: glyph2737
Encoding: 385 385 324
Width: 15
VWidth: 0
Flags: HMW
LayerCount: 2
Back
Fore
SplineSet
2 13 m 1
 2 14 l 1
 7 14 l 1
 12 14 l 1
 12 13 l 1
 12 12 l 1
 13 12 l 1
 14 12 l 1
 14 11 l 1
 14 10 l 1
 13 10 l 1
 12 10 l 1
 12 9 l 1
 12 8 l 1
 13 8 l 1
 14 8 l 1
 14 5 l 1
 14 2 l 1
 13 2 l 1
 12 2 l 1
 12 1 l 1
 12 0 l 1
 8 0 l 1
 4 0 l 1
 4 6 l 1
 4 12 l 1
 3 12 l 1
 2 12 l 1
 2 11 l 1
 2 10 l 1
 1 10 l 1
 0 10 l 1
 0 11 l 1
 0 12 l 1
 1 12 l 1
 2 12 l 1
 2 13 l 1
12 11 m 1
 12 12 l 1
 9 12 l 1
 6 12 l 1
 6 11 l 1
 6 10 l 1
 9 10 l 1
 12 10 l 1
 12 11 l 1
12 5 m 1
 12 8 l 1
 9 8 l 1
 6 8 l 1
 6 5 l 1
 6 2 l 1
 9 2 l 1
 12 2 l 1
 12 5 l 1
EndSplineSet
EndChar

StartChar: glyph2738
Encoding: 386 386 325
Width: 11
VWidth: 0
Flags: HMW
LayerCount: 2
Back
Fore
SplineSet
0 7 m 1
 0 14 l 1
 5 14 l 1
 10 14 l 1
 10 13 l 1
 10 12 l 1
 6 12 l 1
 2 12 l 1
 2 11 l 1
 2 10 l 1
 5 10 l 1
 8 10 l 1
 8 9 l 1
 8 8 l 1
 9 8 l 1
 10 8 l 1
 10 5 l 1
 10 2 l 1
 9 2 l 1
 8 2 l 1
 8 1 l 1
 8 0 l 1
 4 0 l 1
 0 0 l 1
 0 7 l 1
8 5 m 1
 8 8 l 1
 5 8 l 1
 2 8 l 1
 2 5 l 1
 2 2 l 1
 5 2 l 1
 8 2 l 1
 8 5 l 1
EndSplineSet
EndChar

StartChar: glyph2739
Encoding: 387 387 326
Width: 11
VWidth: 0
Flags: HMW
LayerCount: 2
Back
Fore
SplineSet
0 7 m 1
 0 14 l 1
 5 14 l 1
 10 14 l 1
 10 13 l 1
 10 12 l 1
 6 12 l 1
 2 12 l 1
 2 10 l 1
 2 8 l 1
 3 8 l 1
 4 8 l 1
 4 9 l 1
 4 10 l 1
 6 10 l 1
 8 10 l 1
 8 9 l 1
 8 8 l 1
 9 8 l 1
 10 8 l 1
 10 5 l 1
 10 2 l 1
 9 2 l 1
 8 2 l 1
 8 1 l 1
 8 0 l 1
 4 0 l 1
 0 0 l 1
 0 7 l 1
8 5 m 1
 8 8 l 1
 6 8 l 1
 4 8 l 1
 4 7 l 1
 4 6 l 1
 3 6 l 1
 2 6 l 1
 2 4 l 1
 2 2 l 1
 5 2 l 1
 8 2 l 1
 8 5 l 1
EndSplineSet
EndChar

StartChar: glyph2740
Encoding: 388 388 327
Width: 13
VWidth: 0
Flags: HMW
LayerCount: 2
Back
Fore
SplineSet
2 13 m 1
 2 14 l 1
 3 14 l 1
 4 14 l 1
 4 11 l 1
 4 8 l 1
 7 8 l 1
 10 8 l 1
 10 7 l 1
 10 6 l 1
 11 6 l 1
 12 6 l 1
 12 4 l 1
 12 2 l 1
 11 2 l 1
 10 2 l 1
 10 1 l 1
 10 0 l 1
 6 0 l 1
 2 0 l 1
 2 5 l 1
 2 10 l 1
 1 10 l 1
 0 10 l 1
 0 11 l 1
 0 12 l 1
 1 12 l 1
 2 12 l 1
 2 13 l 1
10 4 m 1
 10 6 l 1
 7 6 l 1
 4 6 l 1
 4 4 l 1
 4 2 l 1
 7 2 l 1
 10 2 l 1
 10 4 l 1
EndSplineSet
EndChar

StartChar: glyph2741
Encoding: 389 389 328
Width: 13
VWidth: 0
Flags: HMW
LayerCount: 2
Back
Fore
SplineSet
2 13 m 1
 2 14 l 1
 3 14 l 1
 4 14 l 1
 4 11 l 1
 4 8 l 1
 5 8 l 1
 6 8 l 1
 6 9 l 1
 6 10 l 1
 8 10 l 1
 10 10 l 1
 10 9 l 1
 10 8 l 1
 11 8 l 1
 12 8 l 1
 12 5 l 1
 12 2 l 1
 11 2 l 1
 10 2 l 1
 10 1 l 1
 10 0 l 1
 6 0 l 1
 2 0 l 1
 2 5 l 1
 2 10 l 1
 1 10 l 1
 0 10 l 1
 0 11 l 1
 0 12 l 1
 1 12 l 1
 2 12 l 1
 2 13 l 1
10 5 m 1
 10 8 l 1
 8 8 l 1
 6 8 l 1
 6 7 l 1
 6 6 l 1
 5 6 l 1
 4 6 l 1
 4 4 l 1
 4 2 l 1
 7 2 l 1
 10 2 l 1
 10 5 l 1
EndSplineSet
EndChar

StartChar: glyph2742
Encoding: 390 390 329
Width: 11
VWidth: 0
Flags: HMW
LayerCount: 2
Back
Fore
SplineSet
2 13 m 1
 2 14 l 1
 5 14 l 1
 8 14 l 1
 8 13 l 1
 8 12 l 1
 9 12 l 1
 10 12 l 1
 10 7 l 1
 10 2 l 1
 9 2 l 1
 8 2 l 1
 8 1 l 1
 8 0 l 1
 5 0 l 1
 2 0 l 1
 2 1 l 1
 2 2 l 1
 1 2 l 1
 0 2 l 1
 0 3 l 1
 0 4 l 1
 1 4 l 1
 2 4 l 1
 2 3 l 1
 2 2 l 1
 5 2 l 1
 8 2 l 1
 8 7 l 1
 8 12 l 1
 5 12 l 1
 2 12 l 1
 2 11 l 1
 2 10 l 1
 1 10 l 1
 0 10 l 1
 0 11 l 1
 0 12 l 1
 1 12 l 1
 2 12 l 1
 2 13 l 1
EndSplineSet
EndChar

StartChar: glyph2743
Encoding: 391 391 330
Width: 13
VWidth: 0
Flags: HMW
LayerCount: 2
Back
Fore
SplineSet
10 17 m 1
 10 18 l 1
 11 18 l 1
 12 18 l 1
 12 17 l 1
 12 16 l 1
 11 16 l 1
 10 16 l 1
 10 15 l 1
 10 14 l 1
 9 14 l 1
 8 14 l 1
 8 13 l 1
 8 12 l 1
 9 12 l 1
 10 12 l 1
 10 11 l 1
 10 10 l 1
 9 10 l 1
 8 10 l 1
 8 11 l 1
 8 12 l 1
 5 12 l 1
 2 12 l 1
 2 7 l 1
 2 2 l 1
 5 2 l 1
 8 2 l 1
 8 3 l 1
 8 4 l 1
 9 4 l 1
 10 4 l 1
 10 3 l 1
 10 2 l 1
 9 2 l 1
 8 2 l 1
 8 1 l 1
 8 0 l 1
 5 0 l 1
 2 0 l 1
 2 1 l 1
 2 2 l 1
 1 2 l 1
 0 2 l 1
 0 7 l 1
 0 12 l 1
 1 12 l 1
 2 12 l 1
 2 13 l 1
 2 14 l 1
 5 14 l 1
 8 14 l 1
 8 15 l 1
 8 16 l 1
 9 16 l 1
 10 16 l 1
 10 17 l 1
EndSplineSet
EndChar

StartChar: glyph2744
Encoding: 392 392 331
Width: 13
VWidth: 0
Flags: HMW
LayerCount: 2
Back
Fore
SplineSet
10 13 m 1
 10 14 l 1
 11 14 l 1
 12 14 l 1
 12 13 l 1
 12 12 l 1
 11 12 l 1
 10 12 l 1
 10 11 l 1
 10 10 l 1
 9 10 l 1
 8 10 l 1
 8 9 l 1
 8 8 l 1
 9 8 l 1
 10 8 l 1
 10 7 l 1
 10 6 l 1
 9 6 l 1
 8 6 l 1
 8 7 l 1
 8 8 l 1
 5 8 l 1
 2 8 l 1
 2 5 l 1
 2 2 l 1
 5 2 l 1
 8 2 l 1
 8 3 l 1
 8 4 l 1
 9 4 l 1
 10 4 l 1
 10 3 l 1
 10 2 l 1
 9 2 l 1
 8 2 l 1
 8 1 l 1
 8 0 l 1
 5 0 l 1
 2 0 l 1
 2 1 l 1
 2 2 l 1
 1 2 l 1
 0 2 l 1
 0 5 l 1
 0 8 l 1
 1 8 l 1
 2 8 l 1
 2 9 l 1
 2 10 l 1
 5 10 l 1
 8 10 l 1
 8 11 l 1
 8 12 l 1
 9 12 l 1
 10 12 l 1
 10 13 l 1
EndSplineSet
EndChar

StartChar: glyph2745
Encoding: 393 393 332
Width: 13
VWidth: 0
Flags: HMW
LayerCount: 2
Back
Fore
SplineSet
2 12 m 1
 2 14 l 1
 6 14 l 1
 10 14 l 1
 10 13 l 1
 10 12 l 1
 11 12 l 1
 12 12 l 1
 12 7 l 1
 12 2 l 1
 11 2 l 1
 10 2 l 1
 10 1 l 1
 10 0 l 1
 6 0 l 1
 2 0 l 1
 2 4 l 1
 2 8 l 1
 1 8 l 1
 0 8 l 1
 0 9 l 1
 0 10 l 1
 1 10 l 1
 2 10 l 1
 2 12 l 1
10 7 m 1
 10 12 l 1
 7 12 l 1
 4 12 l 1
 4 11 l 1
 4 10 l 1
 5 10 l 1
 6 10 l 1
 6 9 l 1
 6 8 l 1
 5 8 l 1
 4 8 l 1
 4 5 l 1
 4 2 l 1
 7 2 l 1
 10 2 l 1
 10 7 l 1
EndSplineSet
EndChar

StartChar: glyph2746
Encoding: 394 394 333
Width: 15
VWidth: 0
Flags: HMW
LayerCount: 2
Back
Fore
SplineSet
2 13 m 1
 2 14 l 1
 7 14 l 1
 12 14 l 1
 12 13 l 1
 12 12 l 1
 13 12 l 1
 14 12 l 1
 14 7 l 1
 14 2 l 1
 13 2 l 1
 12 2 l 1
 12 1 l 1
 12 0 l 1
 8 0 l 1
 4 0 l 1
 4 6 l 1
 4 12 l 1
 3 12 l 1
 2 12 l 1
 2 11 l 1
 2 10 l 1
 1 10 l 1
 0 10 l 1
 0 11 l 1
 0 12 l 1
 1 12 l 1
 2 12 l 1
 2 13 l 1
12 7 m 1
 12 12 l 1
 9 12 l 1
 6 12 l 1
 6 7 l 1
 6 2 l 1
 9 2 l 1
 12 2 l 1
 12 7 l 1
EndSplineSet
EndChar

StartChar: glyph2747
Encoding: 395 395 334
Width: 11
VWidth: 0
Flags: HMW
LayerCount: 2
Back
Fore
SplineSet
0 13 m 1
 0 14 l 1
 5 14 l 1
 10 14 l 1
 10 7 l 1
 10 0 l 1
 6 0 l 1
 2 0 l 1
 2 1 l 1
 2 2 l 1
 1 2 l 1
 0 2 l 1
 0 5 l 1
 0 8 l 1
 1 8 l 1
 2 8 l 1
 2 9 l 1
 2 10 l 1
 5 10 l 1
 8 10 l 1
 8 11 l 1
 8 12 l 1
 4 12 l 1
 0 12 l 1
 0 13 l 1
8 5 m 1
 8 8 l 1
 5 8 l 1
 2 8 l 1
 2 5 l 1
 2 2 l 1
 5 2 l 1
 8 2 l 1
 8 5 l 1
EndSplineSet
EndChar

StartChar: glyph2748
Encoding: 396 396 335
Width: 11
VWidth: 0
Flags: HMW
LayerCount: 2
Back
Fore
SplineSet
0 13 m 1
 0 14 l 1
 5 14 l 1
 10 14 l 1
 10 7 l 1
 10 0 l 1
 6 0 l 1
 2 0 l 1
 2 1 l 1
 2 2 l 1
 1 2 l 1
 0 2 l 1
 0 5 l 1
 0 8 l 1
 1 8 l 1
 2 8 l 1
 2 9 l 1
 2 10 l 1
 4 10 l 1
 6 10 l 1
 6 9 l 1
 6 8 l 1
 7 8 l 1
 8 8 l 1
 8 10 l 1
 8 12 l 1
 4 12 l 1
 0 12 l 1
 0 13 l 1
6 7 m 1
 6 8 l 1
 4 8 l 1
 2 8 l 1
 2 5 l 1
 2 2 l 1
 5 2 l 1
 8 2 l 1
 8 4 l 1
 8 6 l 1
 7 6 l 1
 6 6 l 1
 6 7 l 1
EndSplineSet
EndChar

StartChar: glyph2749
Encoding: 397 397 336
Width: 11
VWidth: 0
Flags: HMW
LayerCount: 2
Back
Fore
SplineSet
2 9 m 1
 2 10 l 1
 5 10 l 1
 8 10 l 1
 8 9 l 1
 8 8 l 1
 9 8 l 1
 10 8 l 1
 10 6 l 1
 10 4 l 1
 9 4 l 1
 8 4 l 1
 8 3 l 1
 8 2 l 1
 7 2 l 1
 6 2 l 1
 6 1 l 1
 6 0 l 1
 7 0 l 1
 8 0 l 1
 8 -1 l 1
 8 -2 l 1
 7 -2 l 1
 6 -2 l 1
 6 -3 l 1
 6 -4 l 1
 4 -4 l 1
 2 -4 l 1
 2 -3 l 1
 2 -2 l 1
 4 -2 l 1
 6 -2 l 1
 6 -1 l 1
 6 0 l 1
 5 0 l 1
 4 0 l 1
 4 1 l 1
 4 2 l 1
 3 2 l 1
 2 2 l 1
 2 3 l 1
 2 4 l 1
 1 4 l 1
 0 4 l 1
 0 6 l 1
 0 8 l 1
 1 8 l 1
 2 8 l 1
 2 9 l 1
8 6 m 1
 8 8 l 1
 5 8 l 1
 2 8 l 1
 2 6 l 1
 2 4 l 1
 3 4 l 1
 4 4 l 1
 4 3 l 1
 4 2 l 1
 5 2 l 1
 6 2 l 1
 6 3 l 1
 6 4 l 1
 7 4 l 1
 8 4 l 1
 8 6 l 1
EndSplineSet
EndChar

StartChar: glyph2750
Encoding: 398 398 337
Width: 11
VWidth: 0
Flags: HMW
LayerCount: 2
Back
Fore
SplineSet
0 13 m 1
 0 14 l 1
 5 14 l 1
 10 14 l 1
 10 7 l 1
 10 0 l 1
 5 0 l 1
 0 0 l 1
 0 1 l 1
 0 2 l 1
 4 2 l 1
 8 2 l 1
 8 3 l 1
 8 4 l 1
 6 4 l 1
 4 4 l 1
 4 5 l 1
 4 6 l 1
 6 6 l 1
 8 6 l 1
 8 9 l 1
 8 12 l 1
 4 12 l 1
 0 12 l 1
 0 13 l 1
EndSplineSet
EndChar

StartChar: glyph2751
Encoding: 399 399 338
Width: 11
VWidth: 0
Flags: HMW
LayerCount: 2
Back
Fore
SplineSet
2 13 m 1
 2 14 l 1
 5 14 l 1
 8 14 l 1
 8 13 l 1
 8 12 l 1
 9 12 l 1
 10 12 l 1
 10 7 l 1
 10 2 l 1
 9 2 l 1
 8 2 l 1
 8 1 l 1
 8 0 l 1
 5 0 l 1
 2 0 l 1
 2 1 l 1
 2 2 l 1
 1 2 l 1
 0 2 l 1
 0 5 l 1
 0 8 l 1
 4 8 l 1
 8 8 l 1
 8 10 l 1
 8 12 l 1
 5 12 l 1
 2 12 l 1
 2 11 l 1
 2 10 l 1
 1 10 l 1
 0 10 l 1
 0 11 l 1
 0 12 l 1
 1 12 l 1
 2 12 l 1
 2 13 l 1
8 4 m 1
 8 6 l 1
 5 6 l 1
 2 6 l 1
 2 4 l 1
 2 2 l 1
 5 2 l 1
 8 2 l 1
 8 4 l 1
EndSplineSet
EndChar

StartChar: glyph2752
Encoding: 400 400 339
Width: 11
VWidth: 0
Flags: HMW
LayerCount: 2
Back
Fore
SplineSet
2 13 m 1
 2 14 l 1
 5 14 l 1
 8 14 l 1
 8 13 l 1
 8 12 l 1
 9 12 l 1
 10 12 l 1
 10 11 l 1
 10 10 l 1
 9 10 l 1
 8 10 l 1
 8 11 l 1
 8 12 l 1
 5 12 l 1
 2 12 l 1
 2 10 l 1
 2 8 l 1
 4 8 l 1
 6 8 l 1
 6 7 l 1
 6 6 l 1
 4 6 l 1
 2 6 l 1
 2 4 l 1
 2 2 l 1
 5 2 l 1
 8 2 l 1
 8 3 l 1
 8 4 l 1
 9 4 l 1
 10 4 l 1
 10 3 l 1
 10 2 l 1
 9 2 l 1
 8 2 l 1
 8 1 l 1
 8 0 l 1
 5 0 l 1
 2 0 l 1
 2 1 l 1
 2 2 l 1
 1 2 l 1
 0 2 l 1
 0 4 l 1
 0 6 l 1
 1 6 l 1
 2 6 l 1
 2 7 l 1
 2 8 l 1
 1 8 l 1
 0 8 l 1
 0 10 l 1
 0 12 l 1
 1 12 l 1
 2 12 l 1
 2 13 l 1
EndSplineSet
EndChar

StartChar: glyph2753
Encoding: 401 401 340
Width: 13
VWidth: 0
Flags: HMW
LayerCount: 2
Back
Fore
SplineSet
2 7 m 1
 2 14 l 1
 7 14 l 1
 12 14 l 1
 12 13 l 1
 12 12 l 1
 8 12 l 1
 4 12 l 1
 4 11 l 1
 4 10 l 1
 6 10 l 1
 8 10 l 1
 8 9 l 1
 8 8 l 1
 6 8 l 1
 4 8 l 1
 4 4 l 1
 4 0 l 1
 3 0 l 1
 2 0 l 1
 2 -1 l 1
 2 -2 l 1
 1 -2 l 1
 0 -2 l 1
 0 -1 l 1
 0 0 l 1
 1 0 l 1
 2 0 l 1
 2 7 l 1
EndSplineSet
EndChar

